<svg width="36" height="36" viewBox="0 0 36 36" fill="none" xmlns="http://www.w3.org/2000/svg">
<path d="M14.0314 31.5C15.0891 32.4335 16.4785 33 18.0002 33C19.5218 33 20.9112 32.4335 21.9689 31.5M27.0002 12C27.0002 9.61305 26.0519 7.32387 24.3641 5.63604C22.6763 3.94821 20.3871 3 18.0002 3C15.6132 3 13.324 3.94821 11.6362 5.63604C9.94836 7.32387 9.00015 9.61305 9.00015 12C9.00015 16.6353 7.83086 19.8089 6.52465 21.9081C5.42284 23.6788 4.87194 24.5642 4.89214 24.8111C4.9145 25.0846 4.97244 25.1889 5.19281 25.3524C5.39184 25.5 6.28904 25.5 8.08343 25.5H27.9169C29.7113 25.5 30.6085 25.5 30.8075 25.3524C31.0279 25.1889 31.0858 25.0846 31.1082 24.8111C31.1284 24.5642 30.5775 23.6788 29.4757 21.9081C28.1694 19.8089 27.0002 16.6353 27.0002 12Z" stroke="#1C1C1C" style="stroke:#1C1C1C;stroke:color(display-p3 0.1098 0.1098 0.1098);stroke-opacity:1;" stroke-width="2" stroke-linecap="round" stroke-linejoin="round"/>
</svg>
