<svg width="26" height="32" viewBox="0 0 26 32" fill="none" xmlns="http://www.w3.org/2000/svg">
<path d="M16 1.4043V7.60011C16 8.44019 16 8.86022 16.1635 9.18109C16.3073 9.46334 16.5368 9.69281 16.819 9.83662C17.1399 10.0001 17.5599 10.0001 18.4 10.0001H24.5958M16 23.5H7M19 17.5H7M25 12.9823V23.8C25 26.3202 25 27.5804 24.5095 28.543C24.0781 29.3897 23.3897 30.0781 22.543 30.5095C21.5804 31 20.3202 31 17.8 31H8.2C5.67976 31 4.41965 31 3.45704 30.5095C2.61031 30.0781 1.9219 29.3897 1.49047 28.543C1 27.5804 1 26.3202 1 23.8V8.2C1 5.67976 1 4.41965 1.49047 3.45704C1.9219 2.61031 2.61031 1.9219 3.45704 1.49047C4.41965 1 5.67976 1 8.2 1H13.0177C14.1183 1 14.6686 1 15.1865 1.12434C15.6457 1.23457 16.0847 1.41639 16.4873 1.66312C16.9414 1.94141 17.3305 2.33055 18.1088 3.10883L22.8912 7.89117C23.6695 8.66945 24.0586 9.05859 24.3369 9.51272C24.5836 9.91534 24.7654 10.3543 24.8757 10.8135C25 11.3314 25 11.8817 25 12.9823Z" stroke="#1C1C1C" stroke-width="2" stroke-linecap="round" stroke-linejoin="round"/>
</svg>
