<svg width="23" height="23" viewBox="0 0 23 23" fill="none" xmlns="http://www.w3.org/2000/svg">
<path d="M0.999907 2.34429C0.999907 1.60183 1.60179 0.999951 2.34425 0.999951L7.76728 0.999951C8.50974 0.999951 9.11162 1.60183 9.11162 2.34429L9.11162 7.76733C9.11162 8.50979 8.50974 9.11167 7.76728 9.11167L2.34425 9.11167C1.60179 9.11167 0.999907 8.50978 0.999907 7.76733L0.999907 2.34429Z" stroke="#1C1C1C" stroke-width="2"/>
<path d="M13.8282 2.34429C13.8282 1.60183 14.4301 0.99995 15.1726 0.99995L20.5956 0.99995C21.3381 0.999951 21.9399 1.60183 21.9399 2.34429L21.9399 7.76733C21.9399 8.50979 21.3381 9.11167 20.5956 9.11167L15.1726 9.11167C14.4301 9.11167 13.8282 8.50979 13.8282 7.76733L13.8282 2.34429Z" stroke="#1C1C1C" stroke-width="2"/>
<path d="M0.999907 15.1726C0.999907 14.4302 1.60179 13.8283 2.34425 13.8283H7.76728C8.50974 13.8283 9.11162 14.4302 9.11162 15.1726L9.11162 20.5957C9.11162 21.3381 8.50974 21.94 7.76728 21.94L2.34425 21.94C1.60179 21.94 0.999907 21.3381 0.999907 20.5957V15.1726Z" stroke="#1C1C1C" stroke-width="2"/>
<path d="M13.8282 15.1726C13.8282 14.4302 14.4301 13.8283 15.1726 13.8283L20.5956 13.8283C21.3381 13.8283 21.9399 14.4302 21.9399 15.1726L21.9399 20.5957C21.9399 21.3381 21.3381 21.94 20.5956 21.94L15.1726 21.94C14.4301 21.94 13.8282 21.3381 13.8282 20.5957L13.8282 15.1726Z" stroke="#1C1C1C" stroke-width="2"/>
</svg>
