<svg width="29" height="31" viewBox="0 0 29 31" fill="none" xmlns="http://www.w3.org/2000/svg">
<path d="M8.5 23.0997H20.5M13.0265 1.74573L2.85309 9.65842C2.17303 10.1873 1.83301 10.4518 1.58804 10.783C1.37105 11.0764 1.2094 11.4069 1.11104 11.7583C1 12.155 1 12.5858 1 13.4473V24.2997C1 25.9799 1 26.8199 1.32698 27.4617C1.6146 28.0262 2.07354 28.4851 2.63803 28.7727C3.27976 29.0997 4.11984 29.0997 5.8 29.0997H23.2C24.8802 29.0997 25.7202 29.0997 26.362 28.7727C26.9265 28.4851 27.3854 28.0262 27.673 27.4617C28 26.8199 28 25.9799 28 24.2997V13.4473C28 12.5858 28 12.155 27.889 11.7583C27.7906 11.4069 27.629 11.0764 27.412 10.783C27.167 10.4518 26.827 10.1873 26.1469 9.65842L15.9735 1.74573C15.4465 1.33585 15.183 1.13091 14.892 1.05213C14.6353 0.982622 14.3647 0.982622 14.108 1.05213C13.817 1.13091 13.5535 1.33585 13.0265 1.74573Z" stroke="white" stroke-width="2" stroke-linecap="round" stroke-linejoin="round"/>
</svg>
