<svg width="23" height="23" viewBox="0 0 23 23" fill="none" xmlns="http://www.w3.org/2000/svg">
<path d="M0.999907 2.34405C0.999907 1.60159 1.60179 0.999707 2.34425 0.999707L7.76728 0.999707C8.50974 0.999707 9.11162 1.60159 9.11162 2.34405L9.11162 7.76708C9.11162 8.50954 8.50974 9.11142 7.76728 9.11142L2.34425 9.11142C1.60179 9.11142 0.999907 8.50954 0.999907 7.76708L0.999907 2.34405Z" stroke="#1C1C1C" style="stroke:#1C1C1C;stroke:color(display-p3 0.1098 0.1098 0.1098);stroke-opacity:1;" stroke-width="2"/>
<path d="M13.8282 2.34405C13.8282 1.60159 14.4301 0.999706 15.1726 0.999706L20.5956 0.999706C21.3381 0.999706 21.9399 1.60159 21.9399 2.34405L21.9399 7.76708C21.9399 8.50954 21.3381 9.11142 20.5956 9.11142L15.1726 9.11142C14.4301 9.11142 13.8282 8.50954 13.8282 7.76708L13.8282 2.34405Z" stroke="#1C1C1C" style="stroke:#1C1C1C;stroke:color(display-p3 0.1098 0.1098 0.1098);stroke-opacity:1;" stroke-width="2"/>
<path d="M0.999907 15.1724C0.999907 14.4299 1.60179 13.828 2.34425 13.828H7.76728C8.50974 13.828 9.11162 14.4299 9.11162 15.1724L9.11162 20.5954C9.11162 21.3379 8.50974 21.9397 7.76728 21.9397L2.34425 21.9397C1.60179 21.9397 0.999907 21.3379 0.999907 20.5954V15.1724Z" stroke="#1C1C1C" style="stroke:#1C1C1C;stroke:color(display-p3 0.1098 0.1098 0.1098);stroke-opacity:1;" stroke-width="2"/>
<path d="M13.8282 15.1724C13.8282 14.4299 14.4301 13.828 15.1726 13.828L20.5956 13.828C21.3381 13.828 21.9399 14.4299 21.9399 15.1724L21.9399 20.5954C21.9399 21.3379 21.3381 21.9397 20.5956 21.9397L15.1726 21.9397C14.4301 21.9397 13.8282 21.3379 13.8282 20.5954L13.8282 15.1724Z" stroke="#1C1C1C" style="stroke:#1C1C1C;stroke:color(display-p3 0.1098 0.1098 0.1098);stroke-opacity:1;" stroke-width="2"/>
</svg>
