<svg width="29" height="23" viewBox="0 0 29 23" fill="none" xmlns="http://www.w3.org/2000/svg">
<path d="M28 11.5L10 11.5M28 2.5L10 2.5M28 20.5L10 20.5M4 11.5C4 12.3284 3.32843 13 2.5 13C1.67157 13 1 12.3284 1 11.5C1 10.6716 1.67157 10 2.5 10C3.32843 10 4 10.6716 4 11.5ZM4 2.5C4 3.32843 3.32843 4 2.5 4C1.67157 4 1 3.32843 1 2.5C1 1.67157 1.67157 1 2.5 1C3.32843 1 4 1.67157 4 2.5ZM4 20.5C4 21.3284 3.32843 22 2.5 22C1.67157 22 1 21.3284 1 20.5C1 19.6716 1.67157 19 2.5 19C3.32843 19 4 19.6716 4 20.5Z" stroke="#1C1C1C" stroke-width="2" stroke-linecap="round" stroke-linejoin="round"/>
</svg>
