<svg width="29" height="32" viewBox="0 0 29 32" fill="none" xmlns="http://www.w3.org/2000/svg">
<path d="M10.1398 29.5C11.1975 30.4335 12.5869 31 14.1085 31C15.6302 31 17.0196 30.4335 18.0773 29.5M23.1085 10C23.1085 7.61305 22.1603 5.32387 20.4725 3.63604C18.7847 1.94821 16.4955 1 14.1085 1C11.7216 1 9.43242 1.94821 7.74459 3.63604C6.05676 5.32387 5.10855 7.61305 5.10855 10C5.10855 14.6353 3.93925 17.8089 2.63305 19.9081C1.53124 21.6788 0.980336 22.5642 1.00054 22.8111C1.0229 23.0846 1.08084 23.1889 1.30121 23.3524C1.50024 23.5 2.39743 23.5 4.19183 23.5H24.0253C25.8197 23.5 26.7169 23.5 26.9159 23.3524C27.1363 23.1889 27.1942 23.0846 27.2166 22.8111C27.2368 22.5642 26.6859 21.6788 25.5841 19.9081C24.2778 17.8089 23.1085 14.6353 23.1085 10Z" stroke="#1C1C1C" stroke-width="2" stroke-linecap="round" stroke-linejoin="round"/>
</svg>
