<svg width="24" height="27" viewBox="0 0 24 27" fill="none" xmlns="http://www.w3.org/2000/svg">
<path d="M7.875 14.75H8.87539C9.66295 14.75 10.0567 14.75 10.3732 14.9367C10.6896 15.1234 10.8657 15.4596 11.2179 16.132L13.1131 19.75L15.7321 12.25L17.6273 15.868C17.9795 16.5404 18.1556 16.8766 18.4721 17.0633C18.7885 17.25 19.1823 17.25 19.9699 17.25H21.625" stroke="#777777" stroke-width="2" stroke-linecap="round" stroke-linejoin="round"/>
<path d="M22.25 13.5C21.2901 9.01925 17.5296 4.79838 14.7801 2.21528C13.0554 0.594907 10.425 0.594907 8.70023 2.21528C5.52451 5.19884 1 10.3673 1 15.5976C1 20.7255 5.06708 26 11.7402 26C15.9813 26 19.1698 23.8694 20.9306 21" stroke="#777777" stroke-width="2" stroke-linecap="round"/>
</svg>
