<svg width="30" height="30" viewBox="0 0 30 30" fill="none" xmlns="http://www.w3.org/2000/svg">
<path d="M6.875 19.375C4.10994 18.2707 2.5 15.5411 2.5 12.7183C2.5 9.05714 5.39623 5.43919 7.42908 3.35069C8.53311 2.21644 10.2169 2.21644 11.3209 3.35069C11.9359 3.98253 12.4561 4.75435 13.125 5.625" stroke="#777777" stroke-width="2" stroke-linecap="round"/>
<path d="M10 18.6579C10 14.2122 13.6861 9.81902 16.2734 7.28299C17.6785 5.90567 19.8215 5.90567 21.2266 7.28299C23.8139 9.81902 27.5 14.2122 27.5 18.6579C27.5 23.0167 24.1866 27.5 18.75 27.5C13.3134 27.5 10 23.0167 10 18.6579Z" stroke="#777777" stroke-width="2"/>
<path d="M23.125 19.375C23.125 22.1364 21.25 23.125 19.375 23.125" stroke="#777777" stroke-width="2" stroke-linecap="round" stroke-linejoin="round"/>
</svg>
