<svg width="27" height="25" viewBox="0 0 27 25" fill="none" xmlns="http://www.w3.org/2000/svg">
<path d="M17.875 11.6269H16.625L14.75 15.3769L12.25 7.87686L10.375 11.6269H9.125M13.4914 3.67163C10.9922 0.749861 6.82468 -0.0360852 3.69337 2.63938C0.562055 5.31484 0.12121 9.78808 2.58025 12.9524C4.43761 15.3424 9.71412 20.1406 12.185 22.3455C12.6392 22.7508 12.8663 22.9535 13.1323 23.0332C13.3632 23.1025 13.6197 23.1025 13.8506 23.0332C14.1165 22.9535 14.3436 22.7508 14.7979 22.3455C17.2688 20.1406 22.5453 15.3424 24.4026 12.9524C26.8617 9.78808 26.4746 5.2867 23.2895 2.63938C20.1044 -0.00794199 15.9906 0.749861 13.4914 3.67163Z" stroke="#777777" stroke-width="2" stroke-linecap="round" stroke-linejoin="round"/>
</svg>
