<svg width="30" height="30" viewBox="0 0 30 30" fill="none" xmlns="http://www.w3.org/2000/svg">
<path d="M9.97211 13.75C10.4859 14.0078 10.8938 14.4519 11.2175 14.9943M11.2175 14.9943C12.463 17.0813 12.4628 20.625 12.4628 20.625C12.4628 25 10.2326 26.25 7.4814 26.25C6.23605 26.25 2.5 25.625 2.5 20C2.5 11.875 6.85873 6.25 10.5948 6.25C13.5836 6.25 12.4647 12.5 11.2175 14.9943Z" stroke="#777777" stroke-width="2" stroke-linecap="round" stroke-linejoin="round"/>
<path d="M20.0269 13.75C19.513 14.0078 19.1052 14.4519 18.7814 14.9943M18.7814 14.9943C17.5358 17.0813 17.5359 20.625 17.5359 20.625C17.5359 25 19.7665 26.25 22.518 26.25C23.7635 26.25 27.5 25.625 27.5 20C27.5 11.875 23.1407 6.25 19.4042 6.25C16.415 6.25 17.5377 12.5 18.7814 14.9943Z" stroke="#777777" stroke-width="2" stroke-linecap="round" stroke-linejoin="round"/>
<path d="M17.5 8.75L15 7.08333M15 7.08333L12.5 8.75M15 7.08333V3.75" stroke="#777777" stroke-width="2" stroke-linecap="round"/>
</svg>
