<?xml version="1.0" encoding="UTF-8"?>
<svg id="Layer_2" data-name="Layer 2" xmlns="http://www.w3.org/2000/svg" viewBox="0 0 80.84 115.25">
  <defs>
    <style>
      .cls-1 {
        fill: #010101;
      }

      .cls-1, .cls-2 {
        fill-rule: evenodd;
        stroke-width: 0px;
      }

      .cls-2 {
        fill: #fff;
      }
    </style>
  </defs>
  <g id="Layer_1-2" data-name="Layer 1">
    <g>
      <path class="cls-2" d="m62.51,65.22c-.88-.32-1.73-.68-2.5-1.22-2.22-1.68-3.67-4.2-5.04-6.59-1.93-3.48-3.3-7.19-4.26-11.05-.41-1.66-.55-3.59-1.47-5.06-2.1-3.08-8.27-2.68-11.55-2.14-2.19.39-2.65,2.88-3.14,4.72-.41,1.53-.69,3.08-.91,4.64-.54.36-1.15.65-1.74.91-6.36,1.98-7.48,5.64-9.91,11.3-4.1,8.23-15.23,11.45-16.92,21.18-1.08,6.43,2,12.47,5.17,17.81,2.96,5.84,7.09,8.64,13.66,7.26,6.17-1.4,12.1-3.75,18.16-5.56,2.94-.73,5.87-2.63,8.95-1.97,6.36,1.45,12.9,2.13,19.42,1.94,9.15.37,9.15-8.53,8.21-15.42-.66-10.73-6-17.62-16.14-20.74h0Z"/>
      <path class="cls-1" d="m80.82,90.46c-.1-2.35-.49-4.74-1.44-6.9.31-.29.57-.65.77-1.04.14-.3.2-.59.26-.92.04-.25.14-.6.05-.92-.1-.36-.38-.68-.59-.99-.22-.34-.44-.68-.67-1.01l-1.33-2.03c-1.81-2.77-3.61-5.56-5.41-8.34-1.6-2.46-3.17-4.95-4.81-7.38-.64-.95-1.31-1.89-2.03-2.78-.86-1.07-1.79-2.08-2.84-2.96-2.44-2.05-5.34-3.01-8.37-3.77-.33-.35-.77-.53-1.24-.5-.67-.77-1.2-1.31-1.44-2.28-.08-.31-.09-.98-.22-1.49-.07-.26-.16-.47-.31-.57-.11-.07-.21-.1-.31-.11-.05,0-.09,0-.13.02-.1.02-.19.08-.26.17-.11.13-.2.32-.26.52-.04.14-.08.29-.1.45-.28,1.58.29,3.54,1.48,5.04-.31,1.07-.67,2.4-1.16,3.63-.38.97-.84,1.87-1.41,2.55-1.38,1.64-3.3,2.16-5.37,2.19-2.17.04-4.35-.4-6.36-1.23-1.65-.67-3.19-1.61-4.54-2.77-.91-.78-1.76-1.66-2.53-2.59-.57-.7-1.26-1.78-1.71-2.59,0-.32-.37-.65,3.4-.9,2.16-.15,3.17-1.94,3.66-3.56.18-.6.29-1.17.36-1.64.07-.47.1-.84.11-.99.07-.57.36-1.47-.04-1.94-.17-.2-.52-.23-.74-.1-.4.26-.54.92-.67,1.36-.03.1-.07.29-.12.53-.03.13-.06.28-.09.44-.13.61-.3,1.38-.53,2.09-.26.8-.58,1.52-.97,1.8-.05.04-.1.07-.16.09-.02,0-.04.02-.05.02-.51.19-1.08.19-1.61.23-.68.05-1.36.08-2.04.17-.25.03-.52.11-.77.11-.16,0-.32-.08-.48-.13-.52-.19-1.04-.04-1.58.03-4.76.65-9.66,2.13-13.72,4.79-.61.4-1.19.83-1.74,1.29-2.68,2.22-4.64,5.1-6.02,8.37-1.7,4.03-2.67,8.38-3.48,12.66-.27,1.44-.51,2.88-.72,4.33-.2,1.4-.44,2.83-.5,4.24-.02.56.11,1.08.31,1.59.23.57.77.8,1.29,1.06,1.14.59,2.34,1.05,3.57,1.37.23.42.44.84.65,1.27.48,1,.9,2.02,1.25,3.07-.02.03-.03.07-.04.11-.14.37-.15.87-.19,1.21-.09.92-.13,1.85-.14,2.77-.02,1.86.09,3.7.18,5.56.09,1.87.38,9.28.43,10.19.03.56,0,1.31.19,1.9h62.71c.05-.13.09-.26.11-.38.11-.55-.07-1.05-.38-1.5-.33-.47-.39-1.23-.51-1.8-.29-1.32-.43-7.14-.57-7.79-.04-.2-.08-.41-.13-.63,2.21.21,4.52.21,6.63-.53,1.19-.43,2.3-1.1,3.16-2.05,1.04-1.15,1.61-2.61,1.91-4.12.38-1.96.46-3.99.39-5.98Zm-21.37-8.93c1.06-.6,2.49-1.58,3.68-.79.77.51,1.41,1.29,1.93,2.11-2.16-.23-4.31-.49-6.46-.79.28-.18.56-.36.85-.53Zm-11.34,1.1c3.89.7,7.78,1.38,11.7,1.91,3.83.52,7.69.9,11.55,1.23.75.07,2,.34,2.6-.26.48-.47.49-1.35-.11-1.73-.37-.24-.91-.24-1.33-.3-.54-.07-1.07-.12-1.61-.15-.22-.01-.44-.03-.66-.04,1.76-.67,3.61-1.04,5.51-.94.11.66.6,1.35.86,1.9.46.95.83,1.92,1.07,2.97.5,2.18.52,4.44.38,6.65-.13,1.85-.4,3.9-1.84,5.21-1.08.99-2.61,1.36-4.03,1.48-1.65.13-3.33-.01-4.96-.24-2.3-.31-4.6-.73-6.85-1.28-4.36-1.08-8.53-2.79-12.39-5.13-1.88-1.14-3.67-2.41-5.57-3.51-1.94-1.11-4-1.97-6.18-2.51-2.42-.6-4.96-.85-7.46-.71-.43.03-1.06.19-1.48.02-.39-.15-.55-.77-.7-1.11-.48-1.1-.92-2.22-1.38-3.32,1.74-.5,3.43-1.06,5.24-1.33,1.94-.29,3.91-.36,5.86-.29,3.97.13,7.89.79,11.79,1.49Zm-41.04,2.7c2.69-.83,5.42-1.59,8.2-2,1.49-.23,3-.34,4.5-.32.75,0,1.49.05,2.24.13.4.04.8.09,1.19.16.16.03.33.07.5.1.26.9.52,1.79.79,2.68.26.84.45,1.8,1,2.5.54.7,1.35.94,2.19,1.01,1.02.07,2.05.02,3.06.06,2.09.08,4.15.42,6.14,1.05,1.87.59,3.59,1.5,5.25,2.52,1.54.94,3.04,1.95,4.57,2.89-.41.19-.82.39-1.22.57-.86.37-1.72.74-2.58,1.09-1.7.7-3.41,1.38-5.14,2.01-3.48,1.27-7.02,2.39-10.6,3.34-1.71.45-3.44.98-5.21,1.05-1.58.07-3.03-.39-4.3-1.33-2.63-1.96-4.73-4.8-6.42-7.6-1-1.66-1.88-3.41-2.61-5.22-.37-.92-.7-1.84-1-2.78-.14-.44-.27-.89-.4-1.33-.05-.2-.1-.4-.16-.59Z"/>
      <path class="cls-2" d="m59.99,24.42c-.37-6.38-2.33-13.61-8.11-16.74-12.74-5.39-29.49,8.18-30.37,22.04-.31,4.74,2.19,9.93,6.76,11.25,1.02,1.42,2.55,2.28,4.07,3.04,18.06,9.87,29.72,1.85,27.66-19.59h0Z"/>
      <path class="cls-1" d="m64.11,20.45c-.64-1.87-1.31-3.72-2.02-5.56-.69-1.79-1.31-3.62-2.17-5.32C54.79-.61,45.48-.61,40.66.72c-2.5-1.13-7.17-.81-9.77.21-4.21,1.66-9.34,8.17-11.09,11.1-3.87,6.46-6.29,15.07-3.72,22.53.34.98.77,1.88,1.25,2.75-.3.43-.65.85-1.04,1.25-1.15,1.2-2.31,2.36-3.3,3.72-.99,1.35-1.81,2.78-2.42,4.36-1.15,2.98-1.21,6.35.32,9.19,1.32,2.47,3.67,4.31,6.31,4.49.14.02.27.04.41.05.35.61.78,1.17,1.26,1.66,1.49,1.5,5.05,2.26,7.08,2.31.1.09.21.18.31.26,1.24,1.03,2.55,2.07,3.97,2.8.97.5,2.23.91,3.24.55.46.32,1.21.25,1.66,0,.75-.43,1.35-1.21,1.72-2.01.89-1.94.68-4.06.45-6.12-.25-2.29-.5-4.57-.74-6.86-.19-1.79-.4-3.6-.91-5.32-.27-.89-.62-1.75-1.07-2.55.01-.07,0-.14,0-.2-.15-.51-.45-.77-.82-1.12-.05-.04-.09-.09-.14-.14-.18-.22-.37-.42-.58-.59-.08-.09-.16-.17-.24-.26-.65-.72-1.27-1.48-1.82-2.3-.53-.79-1.01-1.61-1.47-2.45-.47-.85-.77-1.8-1.24-2.64-.04-.07-.14-.09-.2-.03-.14.16-.24.33-.22.51h-.07c-.03-.27-.27-.49-.6-.43-.49.09-.9.12-1.32-.05.07-.52.14-1.05.21-1.57.12-.97.24-1.94.34-2.91.24.06.48.15.71.26.33.16.65.37.92.63.26.26.45.6.77.78.37.2.82-.13.71-.58-.22-.89-1.47-1.41-2.24-1.58-.27-.06-.54-.08-.81-.08.06-.62.12-1.25.16-1.87.02-.3.04-.59.06-.89.6-.19,1.25-.25,1.87-.16.21.17.41.34.61.52.63.55,1.26,1.11,1.89,1.67.06.05.11.1.17.15.37.34.83,0,.77-.47-.51-3.89,1.75-6.98,4.4-9.38,2.93-2.65,8.26-2.96,11.74-7.56,1.6.34,5.19,1.37,6.67,3.85,2.07,3.48,1.8,6.6,1.96,10.54.16,3.95.56,8.07-.29,11.96-.79,3.59-2.91,6.66-6.21,8.07-.08.03-.16.07-.25.1-1.71.68-3.57.87-5.36.51-1.99-.4-3.64-1.35-5.29-2.53-.1-.07-.23.07-.16.17,2.18,3.04,6.45,4.06,9.85,3.25.16-.04.32-.08.47-.12-.76,2.3-.61,4.82.38,7.06.59,1.35,1.5,2.51,2.61,3.43,1.22,1.01,2.73,1.83,3.57,3.25.77,1.3.54,2.77-.78,3.52-.33.19-.46.81-.13,1.08.13.1.25.21.38.31.74.59,2.78,1.7,3.11,1.74,2.93.37,4.9-1.9,6.16-4.57,1.48-3.14,1.1-6.96-.54-9.95-1.31-2.4-3.89-4.76-2.86-7.79.37-1.08,1.11-2.01,1.84-2.84.83-.95,1.72-1.84,2.51-2.82.79-.98,1.49-2.04,1.88-3.27.57-1.79.29-3.73-.14-5.52-.92-3.84-2.11-7.63-3.38-11.35Z"/>
      <path class="cls-1" d="m53.8,26.03c-.14-.68-.5-1.35-.88-1.79-.48-.57-1.07-.96-1.71-1.26-.04-.02-.09-.04-.14-.07-.66-.31-1.47-.68-2.12-.3-.26.15-.4.4-.45.67-.04.29.03.61.21.85.3.41.77.5,1.23.57.14.02.29.04.43.08.48.12.97.28,1.41.52.89.5,1.3,1.27,1.52,2.3,0,.04.03.07.05.1.03.03.06.04.1.05.03,0,.07,0,.1-.01.03-.02.06-.04.08-.08.27-.49.3-1.07.18-1.64Zm-11.58-2.86c-.27-.28-.59-.39-.93-.4-.47-.02-.97.14-1.41.32-.7.29-1.31.7-1.86,1.25-.49.49-.89,1.15-1.18,1.8-.13.28-.26.73-.27,1.14,0,.26.04.52.21.67.03.03.07.05.1.06.04,0,.08,0,.12-.02.03-.02.05-.04.11-.14.03-.06.06-.11.09-.17.02-.04.04-.08.05-.11.01-.02.02-.04.07-.13.08-.1.16-.2.24-.3.07-.08.14-.18.21-.26.08-.1.15-.2.23-.3.34-.4.82-.72,1.25-.98.42-.25.88-.42,1.33-.53.17-.04.34-.07.55-.09.39-.04.77-.1,1.09-.45.16-.18.25-.42.25-.67s-.08-.49-.25-.66Zm11.03,6.84c-.1-.6-.43-1.12-.86-1.46-.43-.33-.96-.49-1.49-.36-.39.09-.97.5-1.28,1-.13.21-.21.44-.22.67,0,.21.04.43.3.72.03.01.05.02.08.02.07,0,.13-.03.18-.08.11-.11.2-.25.28-.4.04-.08.09-.17.15-.24.17-.21.42-.4.68-.45.24-.04.45.03.63.18.2.17.34.44.39.72.02.12.07.22.15.3.08.08.18.14.27.18.18.06.31.03.46-.06.13-.07.21-.18.26-.31.05-.13.06-.29.03-.43Zm-10.15.28c-.07-.11-.14-.23-.21-.34-.33-.53-.67-1.06-1.21-1.39-.63-.38-1.37-.36-2,.01-.37.22-.93.9-1.24,1.71-.23.61-.32,1.27-.11,1.87.02.06.08.14.19.17.05.02.13.03.19.02.07-.01.13-.04.18-.09.05-.06.09-.13.08-.23-.03-.44.11-.87.31-1.22.29-.52.71-.93.95-1.05.31-.15.58-.09.82.07.34.24.61.7.76,1.11.09.25.24.39.4.47.19.09.4.08.59-.01.2-.09.36-.27.42-.48.05-.19.04-.41-.1-.63Zm5.14,1.12c-.41-.08-.56.43-.37.58.73.49,1.84,1.63,1.06,2.85-.92,1.07-2.26-.16-2.92-.72-.61-.43-1.29.68-.73,1.18,4.74,3.88,6.67-3.19,2.95-3.89Zm1.54,8.29c-.15-.17-.35-.27-.55-.26-.18,0-.36.08-.51.28-.16.2-.33.39-.53.53-.22.19-.47.34-.73.44-.45.18-.94.23-1.43.11-.9-.21-1.48-.83-2.08-1.64-.07-.1-.14-.2-.21-.3,0,0,0-.01-.01-.02-.03-.07-.08-.12-.13-.14-.06-.03-.13-.03-.2-.02-.07.02-.13.06-.17.11,0,0-.01.01-.01.02-.04.05-.06.11-.06.18-.01.72.27,1.39.7,1.94.48.62,1.16,1.09,1.82,1.31.72.23,1.49.21,2.2-.02.51-.16,1-.43,1.42-.79.19-.15.36-.33.52-.51.16-.19.22-.4.21-.6,0-.23-.1-.45-.25-.61Z"/>
    </g>
  </g>
</svg>