<?xml version="1.0" encoding="UTF-8"?>
<svg id="Layer_2" data-name="Layer 2" xmlns="http://www.w3.org/2000/svg" viewBox="0 0 71.36 108.95">
  <defs>
    <style>
      .cls-1 {
        fill: #231f1f;
      }

      .cls-1, .cls-2, .cls-3 {
        fill-rule: evenodd;
        stroke-width: 0px;
      }

      .cls-2 {
        fill: #010101;
      }

      .cls-3 {
        fill: #fff;
      }
    </style>
  </defs>
  <g id="Layer_1-2" data-name="Layer 1">
    <g>
      <path class="cls-3" d="m62.36,68.82c-.81-3.12-1.55-4.44-2.98-5.53-1.34-1.01-3.29-1.87-6.14-2.49-2.97-.52-3.05-2.06-3.8-4.54-.22-.74-1.29-.94-1.76-.41-.07-.07-.13-.14-.2-.19.06-.36-.45-1.37-.44-1.71.18-3.55-.98-5.33-3.88-5.99-.63-.14-4.91-.23-5.52-.06-2.69.74-5.33,3.1-4.93,5.94-.84,1.1-1.67,1.77-2.97,2.13-2.03.26-1.01,28.94,2.51,46.12,1.51,7.37,37.6-5.18,35.97-8.87.23-.68-.19-1.42,0-2.12.14-.51.49-.72.67-1.22.25-.7-.02-1.65-.3-2.37-.12-.36.21-.74.3-1.11.43-1.72-.56-1.57-1.27-2.73.01,0,.2-.83.19-.82.11-.59-.16-1.34-.4-1.83-.16-.33-.51-.54-.85-.5.35-1.17.78-2.15,1.25-3.27.83-1.99,1.62-4.07,2.81-5.87.49-.74.09-1.42-.7-1.47-2.56-.16-5.09-.53-7.58-1.09Z"/>
      <path class="cls-1" d="m58.37,69.06l-5.84,9.87s1.38.14,1.94.41c.56.27,3.13,3.54,3.13,3.54l.41,1.8-.97,1.45.38.91s.27-.62.94-1.1c.67-.48,2.15-1.27,2.15-1.27,0,0-.49-.26-.49-.57s-.43-1.63.49-2.12c.92-.5,5.7-1.66,5.7-1.66l4.84-10.21-12.7-1.05Z"/>
      <path class="cls-3" d="m68.96,104.1l-.38,3.49-.02.07-.22.7-.18.59H6.92c-1.39-1.7-2.6-3.34-3.01-4.33-1.15-2.77-3.6-19.38-3.68-19.9H.24s0-.01,0-.01l.28-2.63.11-.3,6.36-16.37s.14-.13.39-.37c.17-.17.38-.39.63-.67.28-.3.6-.67.94-1.08.84-1.02,14.12-4.74,20.29-6.42,1.88-.51,3.1-.84,3.1-.84l18.15,3.19h0l.38.07,4.25,2h0s4.26,2.01,4.26,2.01l.24.18.6.47.55.42-.12.21h0s-8.12,14.36-8.12,14.36l-12.72,2.32-3.24,8.42.66,9.49,20.7-2.47,8.24-.98h0l.69-.08,2.1,8.47Z"/>
      <path class="cls-2" d="m71.11,69.83c-1.15-.25-2.35-.33-3.52-.44-1.21-.12-2.42-.21-3.63-.28-.06,0-.11,0-.17,0,0-.01-.01-.03-.03-.04-.39-.58-.69-1.16-.94-1.82-.24-.63-.48-1.27-.85-1.83-.42-.64-1-1.14-1.62-1.58-.04.03-.09.06-.13.1-.02.01-.04.03-.06.04-.31.22-.59.47-.86.73-.34.34-.86-.19-.52-.52.26-.26.54-.5.84-.72,0,0,0,0,0,0,.03-.02.05-.04.08-.06-.27-.16-.54-.31-.8-.46,0,0,0,0,0,0,0,0,0,0-.01,0-.1-.06-.21-.12-.31-.18-.32-.18-.64-.36-.97-.54-.01,0-.02-.01-.03-.01-1.08-.58-2.17-1.13-3.28-1.65-.68-.31-1.36-.59-2.05-.87-.37-.15-.74-.35-1.11-.52.03-.27-.05-.56-.25-.73-.15-.13-.27-.17-.44-.27.09.04.1.03.02-.04,0-.15-.3-.47-.36-.62-.24-.53-.31-1.09-.66-1.57-.48-.66-1.26-.91-2.01-.69,0,0-.01,0-.02,0,0-.03,0-.06,0-.09h0s0-.01,0-.02c-.06-.71-.1-1.41-.34-2.05v-.02c-.01-.05-.03-.1-.06-.15,0-.02-.03-.03-.04,0-.32.53-.34,1.13-.36,1.75,0,.18-.01.36-.01.54,0,.41.03.81.08,1.21-.05.04-.1.07-.15.1-.24.16-.5.28-.77.37-.51.17-1.05.24-1.59.27-1.39.07-2.82-.07-4.19-.31-1.38-.24-3.5-.6-4.73-1.3-.81-.46-1.56-1.01-2.32-1.55.25-.82.34-1.7.12-2.42-.01-.06-.03-.12-.05-.17-.03-.09-.17-.11-.2,0-.17.71-.22,1.43-.45,2.14,0,.01,0,.02-.01.03-.07-.05-.15-.1-.22-.14-.17-.11-.39-.03-.49.13-1.59,2.51-4.12,2.66-6.77,3.1-2.91.49-5.82,1.02-8.61,1.99-2.67.92-5.22,2.26-7.24,4.26-.46.45-.89.94-1.29,1.44.1.01.21.03.31.04.29.05.57.11.85.2.45.14.26.85-.2.71-.42-.13-.85-.21-1.29-.25-.07-.01-.14-.01-.21-.02-1.37,1.88-2.44,4.01-3.37,6.11-1.5,3.4-2.56,6.99-3.17,10.66-.11.66-.21,1.33-.29,1.99.29-.17.59-.34.89-.5.42-.21.8.42.37.64-.47.24-.93.5-1.37.79H.24c-.2,1.92-.27,3.83-.22,5.74.11,4.57.73,9.27,2.12,13.63.54,1.68,1.21,3.35,2.14,4.87h13.56c.35-.18.69-.36,1.04-.53,1.35-.68,2.7-1.36,4.05-2.04,1.38-.69,2.76-1.38,4.15-2.05.66-.31,1.31-.63,1.97-.94.36-.17.71-.34,1.07-.51.15-.07.31-.15.46-.22.21-.08.36-.07.58-.12.35-.08.5.36.23.56-.22.16-.34.29-.59.42-.17.08-.33.15-.5.23-.33.15-.66.3-.99.45-.69.32-1.37.63-2.06.95-1.38.64-2.76,1.25-4.14,1.88-1.38.63-2.77,1.27-4.15,1.92h35.67c.08-.04.17-.04.26,0h13.45c.1-.17.2-.34.28-.51-.09-.03-.18-.05-.27-.08-.59-.16-1.18-.28-1.8-.29-.48,0-.48-.75,0-.74.7.01,1.36.15,2.01.33.11.03.23.06.34.1.04-.1.07-.2.11-.3.09-.21.17-.43.23-.65.04-.1.07-.2.11-.3.08-.35.17-.69.25-1.04.17-.56.3-1.12.4-1.69.08-.38.14-.75.18-1.13.13-.93.24-1.85.24-2.79-.01-.58-.05-1.15-.11-1.73-.03-.39-.07-.78-.13-1.16-.08-.57-.16-1.14-.29-1.71-.1-.38-.2-.76-.29-1.15-.25-.8-.54-1.58-.88-2.34-.02-.05-.11-.15-.17-.15-.04,0-.1.04-.08.09,0,0,0,0,0,.01-.02-.04-.04-.09-.06-.13-.01-.04-.08-.12-.13-.12h-.01s.03-.02.04-.03c.33-.39.55-.91.78-1.36.2-.38.38-.77.44-1.19.05-.37-.02-.74-.25-1.04-.27-.34-.77-.5-.49-1,.32-.56.78-1.05.32-1.69-.24-.33-.61-.5-.88-.79-.32-.33-.47-.77-.46-1.22.02.01.05,0,.06-.02.27-.81.07-1.7-.2-2.49-.15-.43-.47-.55-.84-.57,1.59-3.12,3.09-6.28,4.42-9.52.05-.11.09-.21.13-.32.07-.16-.07-.37-.23-.41Zm-13.46,18.36c.17.18.38.28.6.33-.22.1-.43.23-.64.37.03-.22.04-.46.03-.7Zm-36.23-17.8c-.46.11-.66-.6-.2-.71.81-.2,1.64-.31,2.45-.53.46-.13.66.59.2.71-.81.22-1.64.34-2.45.53Zm1.4,10.85c-.55-.12-1.07-.32-1.58-.57-.43-.21-.05-.85.37-.64.45.22.91.39,1.4.5.46.1.27.81-.2.71Zm-3.95-20.32c-.58.1-1.15.21-1.71.42-.44.17-.63-.54-.2-.71.55-.21,1.12-.33,1.7-.43.47-.08.67.63.2.71Zm12.88,24.8c.43.01.85.13,1.27.23.46.11.27.83-.2.71-.35-.08-.71-.19-1.07-.2-.48-.01-.48-.75,0-.74Zm19.29-23.78c.32-.21.64-.43.96-.64.4-.27.77.38.38.64-.32.21-.64.42-.96.64-.4.27-.77-.38-.38-.64Zm-14.58-2.34c-.17-.11-.24-.32-.13-.5.1-.17.34-.25.5-.13.34.23.64.51.93.8.34.34-.19.86-.52.52-.25-.25-.49-.49-.78-.69Zm11.46,11.25c-.19.38-.36.76-.38,1.2-.01.48-.75.48-.74,0,.01-.57.22-1.07.48-1.57.21-.43.85-.05.64.37Zm-13.87,4.82c.13-.46.84-.26.71.2-.2.7-.32,1.41-.42,2.13-.07.47-.78.27-.71-.2.1-.72.23-1.43.43-2.13Zm-1.77-9.53c-.48,0-.48-.74,0-.74.57,0,1.13.01,1.69.12.47.08.27.8-.2.71-.49-.09-.99-.09-1.5-.09Zm13.98,33.26c.2.5.43.99.64,1.49.18.44-.53.63-.71.2-.2-.5-.43-.99-.64-1.49-.18-.44.53-.63.71-.2Zm7.01.42c.73-.32,1.45-.66,2.22-.89.46-.14.65.58.2.71-.7.21-1.37.52-2.04.81-.43.19-.81-.45-.37-.64Zm12.64-19.81s-.03.06-.04.09c-1.68.08-3.35.49-4.87,1.2-.62.3-1.18.72-1.35,1.43-.08.36-.06.73-.02,1.09.03.28.04.63.28.81.04.03.08.06.13.07-.56.25-1.09.56-1.56.87-.43.29-.88.73-1.08,1.22-.01-.06-.03-.11-.05-.16-.07-.21-.15-.42-.24-.62-.33-.73-.8-1.33-1.45-1.77-.09-.34-1.1-1.81-2.03-1.75-1.02.06-1.85.13-2.77.6-.34,0-.67,0-1.01.01-.06,0-.06.08,0,.09.27.03.54.07.81.11.64.1,1.28.23,1.9.39.75.2,1.53.39,2.23.73,1.36.66,2.2,2.38,2.03,3.88-.03.25-.13.99-.46.91-.29-.06-.41-.66-.5-.89-.27-.59-.75-.98-1.34-1.24-.69-.31-1.42-.52-2.13-.76-.4-.14-.8-.28-1.2-.41-.41-.14-.81-.34-1.24-.24-.27.06-.29.38-.15.56.23.28.56.36.89.47.43.15.86.3,1.29.45.66.23,1.36.43,2.01.71l-.02.05c-.05-.01-.11.04-.1.1.1.6.23,1.29.08,1.89-.12.48-.53,1-1.08.86.08-.08.12-.21.06-.34-.21-.46-3.02-2.27-3.27-1.6-.01.03.01.04.04.04.21-.04.57.32.74.43.25.17.5.33.74.5.27.18.53.38.78.58.2.16.35.32.58.41-.12.06-.22.17-.26.3-.1.35-.3.66-.65.81-.36.17-.77.06-1.15.1-.52.06-.98.3-1.36.66-.8.74-1.2,2.05-2.31,2.41-.67.21-1.41.08-2.08-.02-.75-.11-1.48-.19-2.24-.08-.73.11-1.41.36-2.08.67-.62.29-1.31.61-1.86,1.04-.11-.35-.23-.7-.32-1.05-.2-.84-.31-1.71-.34-2.57-.02-.82.02-1.66.09-2.48.04-.41.09-.82.13-1.23.01-.1.03-.21.04-.33.98-.58,2.02-1.02,3.06-1.48h.01s.06-.03.1-.04t0,0c.12-.07.2-.17.25-.28,1.5-1,2.76-2.36,3.7-3.94.39-.67.77-1.36,1.28-1.94.55-.62,1.2-.99,2-1.18.94-.22,1.91-.36,2.87-.44.52-.04,1.11-.11,1.68-.1.4,0,.79.04,1.15.14.53.14.84.55,1.17.96.32.39.64.78.93,1.19.28.39.55.78.78,1.2.14.25.27.51.38.78.04.1.09.2.11.3.02.1-.02.21.09.21-.46,0-.76,1.15-.31,1.12.02,0,.04,0,.06,0h0c.6-.08.89-.82.77-1.47-.22-1.21-1.43-2.68-1.67-2.99-.53-.68-1.07-1.58-1.92-1.9-.01,0-.03-.01-.04-.01.25-.23.44-.51.63-.8.19-.29.42-.63.48-.97.04-.22-.24-.35-.36-.15-.19.28-.28.64-.42.95-.14.31-.32.61-.46.93-.34-.1-.7-.15-1.06-.17.46-.63,1.25-1.83,1.35-1.99.44-.72.85-1.46,1.25-2.2.43-.8.8-1.64,1.21-2.45.23-.46.47-.92.73-1.37.09-.15.18-.31.29-.45.02-.03.05-.05.07-.08.03-.01.06-.03.07-.04.15-.08.2-.29.31-.41.17-.2.37-.23.62-.23.54,0,1.08.02,1.62.03.79.02,1.58.05,2.37.1.24.01.48.03.72.04,1.15.07,2.3.15,3.45.27,1.01.1,2.03.25,3.04.33-1.37,3.26-2.9,6.47-4.63,9.56Zm-56.52-11.93c.49.19,1,.34,1.49.53.44.17.25.89-.2.71-.49-.19-1-.34-1.49-.53-.44-.17-.25-.88.2-.71Zm-1.49,22.45c.43.17.24.89-.2.71-.63-.25-1.26-.47-1.76-.94-.35-.33.18-.85.52-.52.4.38.93.56,1.44.75Zm1.05,13.97c-.6.29-1.23.52-1.81.85-.41.24-.78-.4-.37-.64.58-.34,1.21-.56,1.81-.85.43-.21.8.43.38.64Zm1.19-27.3c-.52.21-1.02.43-1.51.71-.41.24-.78-.4-.37-.64.53-.31,1.11-.55,1.68-.78.44-.18.63.54.2.71Zm13.05,22.99l-.96-.96c-.34-.34.19-.86.52-.52l.96.96c.34.34-.18.86-.52.52Zm5.59-6.89c-.64.45-1.5.76-2.24,1.02-.74.25-1.52.43-2.28.62-1.59.39-3.2.71-4.8,1.04-1.6.34-3.2.66-4.78,1.08-.76.2-1.52.39-2.28.62-.69.2-1.49.39-1.96.98-.02.03-.06,0-.05-.04.6-1.24,2.32-1.68,3.52-2.12.84-.31,1.71-.57,2.59-.8-.09-.99.15-2.06.24-3.05.09-1.06.16-2.12.2-3.18.04-1.08.05-2.17.01-3.26-.03-1.08-.17-2.14-.24-3.22,0-.11.14-.11.17-.03.36,1,.52,2.11.64,3.16.12,1.09.16,2.17.15,3.26-.02,1.12-.08,2.24-.17,3.36-.04.53-.09,1.06-.14,1.59-.04.41-.05.81-.14,1.2.53-.13,1.06-.25,1.58-.37,1.68-.38,3.37-.73,5.03-1.14.82-.2,1.63-.44,2.45-.66.77-.2,1.58-.45,2.37-.53.28-.03.32.35.13.48Zm10.15,13.91c-.37.37-.69.78-1.01,1.2-.12.16-.32.24-.5.13-.16-.1-.25-.35-.13-.5.35-.47.71-.94,1.12-1.35.34-.34.86.18.52.52Zm27.72-3.68c-.12.29-.55.35-.65,0-.27-.93-.2-1.92-.38-2.87-.09-.49-.22-.98-.36-1.45-.11-.39-.31-.8-.33-1.2,0-.03.03-.04.05-.03.38.22.67.69.89,1.06.26.44.46.9.62,1.39.32.96.58,2.13.17,3.11Zm2.25-15.16c.05.12.06.25.05.38h0c-.02.37-.22.74-.38,1.03-.2.37-.45.74-.62,1.13-1.13.58-3.68,1.64-3.99,1.7-.38.07-.75.14-1.13.21-.73.13-1.45.24-2.18.34-.42.06-.83.11-1.24.16-.36.04-.77.09-1.06-.18-.59-.55-.26-1.48.11-2.03,0-.01,0-.02,0-.03.35-.08.7-.18,1.05-.24.67-.13,1.35-.24,2.03-.34,1.39-.2,2.79-.33,4.19-.46.35-.03.35-.58,0-.55-2.01.18-4.03.36-6.01.74-.49.1-.99.21-1.48.33-.23.06-.48.15-.72.15h-.04c-.48-.01-.55-.42-.28-.76.03-.04.07-.08.1-.12.46-.55,1.04-.92,1.63-1.3.66-.09,1.33-.29,1.98-.44,1.6-.37,3.21-.73,4.82-1.1.31-.07.18-.56-.14-.48l-3.66.83-1.79.4c-.35.08-.8.24-1.22.3-.21.03-.41.03-.59-.01-.59-.14-.62-.87-.36-1.3.28-.49.81-.79,1.29-1.07.82-.48,1.69-.82,2.55-1.22.15-.03.3-.07.46-.1.88-.2,1.89-.29,2.71-.64.25-.11.11-.5-.13-.49-.64.01-1.31.24-1.94.38-.68.15-1.36.29-2.04.44-.07.01-.47.14-.53.11-.04-.02-.05-.15-.07-.24-.04-.29-.07-.6-.03-.89.1-.66.65-.97,1.2-1.22,1.23-.56,2.59-.91,3.94-1.05.31-.03.62-.05.93-.06.36-.01.67-.07.85.29.29.57.45,1.3.55,1.95-.01,0-.03.01-.04.03-.31.63-.18,1.34.32,1.83.26.26.84.55.82.98-.02.34-.39.63-.55.92-.15.26-.2.55-.08.84.14.33.5.48.67.77.02.03.04.07.06.1Z"/>
      <path class="cls-3" d="m54.62,28.38c-.2-2.56.11-5.24-.88-7.68-1.72-4.04-6.55-5.38-10.3-6.92-1.5-.44-6.55-.5-8.31-1.09-3.98-1.33-4.93-2.91-8.09-.38-.53.43-.87.9-1.11,1.54h0c-.07.27,0,.54.16.74-1.37,1.4-1.94,3.5-1.24,5.36,2.29,4.85,2.19,7.47,1.45,12.68-.97,4.86,1.24,6.64,4.89,9.29-.15.29-.18.67.01.93,4.22,5.93,12.19,8.76,19.01,5.75,2.77-1.23,4.01-4.18,4.71-6.84.82-2.98,1.07-6.12.41-9.15-.27-1.4-.62-2.8-.73-4.22Z"/>
      <path class="cls-3" d="m24.37,21.12l2.51,1.67,8.99-9.47-2.99-2.35s-5.43,4.01-6.49,5.07c-1.07,1.06-2.01,5.08-2.01,5.08Z"/>
      <path class="cls-2" d="m30.6,35.39c-.27.09-.5.32-.62.63-.05.12-.08.25-.1.38.27.29.57.53.98.56.25.02.42-.21.44-.44.05-.47-.28-.85-.69-1.14Zm27.55-3.55c-.48.17-1,.32-1.5.18-.36-.1-.87-.38-1.11-.74-.05-.91-.1-1.81-.18-2.72-.06-.63-.12-1.27-.2-1.9.22,0,.43-.13.48-.38.06-.38.08-.75.13-1.13.04-.29.13-.53.07-.84-.04-.22-.09-.43-.15-.65-.22-.84-.55-1.67-.95-2.45-.3-.58-.63-1.14-1.01-1.68-.2-.48-.54-.94-.85-1.38l-.08-.11.04-.19v-.03c.07-.45-.07-.85-.46-1.1-1.01-.65-2.03-1.31-3.04-1.96-.44-.28-.96-.48-1.47-.5-.45-.61-1.18-.99-2.01-1.12-.66-.11-1.31-.11-1.96-.27-.62-.15-1.22-.36-1.84-.46-.97-.17-2.05-.17-2.96.27-.74,0-1.48.05-2.21.16-.24-.32-.53-.62-.84-.87.04-.05.08-.1.11-.15.22.05.46.03.69-.12.79-.49,1.29-1.29,1.24-2.23-.03-.41-.24-.67-.52-.8.1-.31.22-.62.38-.92.14-.2.27-.41.38-.63.59-1.15-1.01-2.07-1.72-1.01-.12.18-.24.37-.34.56-.15.22-.32.42-.5.61l.06-.88v-.03c.01-.33-.2-.64-.48-.82l.14-.63c.22-.96.57-2.04,0-2.95-.81-1.27-2.64-1.44-3.93-.81-.07-.15-.14-.29-.2-.45v-.03c-.2-.45-.58-.77-1.09-.69-.48.07-.88.48-.87.98v.08c0,.16,0,.31-.01.47-.59,0-1.19.06-1.76.19-.24.05-.48.12-.72.2-.29.02-.58.09-.87.21-.25.11-.48.25-.69.42-.34.15-.69.31-1.03.47l-.82.04h-.04c-.14.01-.27.05-.38.1-.25-.2-.52-.38-.79-.54-.5-.29-1.04-.08-1.36.36-.21.28-.35.59-.46.91-.36.11-.61.47-.65.84-.98.11-1.9.62-2.4,1.57-.01.03-.03.06-.04.08-.32.29-.6.63-.82,1.02-.51.14-.99.37-1.41.75-.66.6-.99,1.64-.71,2.5.03.11.08.21.13.3-.5.58-.91,1.25-1.18,1.98-.1.25-.04.53.1.77-.36.86-.3,1.89.36,2.58-.07.14-.13.27-.18.41-.02.04-.04.08-.07.12-.54,1.05-.58,2.18-.11,3.26.12.28.56.53.86.49.57-.08,1.12-.2,1.66-.36-.35.33-.64.71-.89,1.14-.36.63.09,1.53.86,1.5,1.07-.04,2.12-.28,3.1-.7.15.12.32.2.5.25.1.79,1.03,1.23,1.65.63.25-.24.49-.47.73-.71.2.28.53.49.84.45.17-.02.33-.03.5-.03-.11.12-.22.25-.32.4-.21.31.14.7.47.61.46-.11.89-.28,1.3-.5.03.03.06.04.1.06-.07.15-.13.33-.15.52h0c-.07,0-.14-.01-.22-.01-.64,0-1.19.57-1.21,1.19,0,.15.02.29.06.42-.2.84-.24,1.75.04,2.5-.04.09-.04.2,0,.29-.18.19-.29.45-.32.73-.04.49.19.88.52,1.2.01.04.03.09.05.13,0,.03,0,.05,0,.07-.33.39-.4.98-.05,1.47.01.02.03.04.04.06.01.15.04.3.1.44-.03.08-.07.15-.08.22-.06.22-.06.45-.03.67.04.28.14.55.29.79v.07c-.03.12-.04.26,0,.42-.02.01-.04.03-.07.04-.7-.28-1.58-.16-2.09.43-.49.57-.17,1.47.62,1.5.34,0,.69-.04,1.02-.15l.1.08c.28.19.6.3.92.29.01.13.02.27.04.4.04.46.14.93.35,1.32-.45.57-.88,1.18-1.38,1.69-.46.47.15,1.32.72.94l.06-.04c.64-.41,1.39-.63,1.96-1.12l.63.43s-.06.1-.1.15l-.04.07c-.18.29-.39.56-.62.81-.46.5-1.06.81-1.56,1.26-.2.17.01.45.24.41.72-.14,1.3-.71,1.74-1.27l.05-.07c.23-.29.42-.61.57-.96.03-.03.07-.06.11-.1.12.1.24.21.35.32.21.34.45.66.67.98.08.13.24.22.4.25.27.37.51.77.72,1.18.22.44.85.31,1.03-.06.06-.11.07-.24.01-.39l-.08-.21s.07-.09.11-.14c.09.16.18.32.28.47.61.91,1.44,1.93,2.54,2.19.17.04.34.06.51.06.43,0,.73-.5.5-.88-.29-.47-.66-.78-1.07-1.11l-.18-.14c-.43-.34-.84-.71-1.22-1.12-.37-.4-.7-.81-1.02-1.25-.06-.08-.24-.41-.42-.64.23-.14.36-.34.5-.62.16-.32-.16-.62-.48-.48-.13.06-.29.07-.43.13,0,0-.02,0-.03,0-.1.04-.2.09-.31.12-.25.07-.52.09-.78.05-.57-.09-1.04-.45-1.4-.88-.78-.93-1.21-2.32-.99-3.52.21-1.12,1.05-2.1,2.19-2.32,1.06-.2,2.31.6,2.52,1.65.02.08.13.06.14-.02.02-.31-.02-.6-.1-.87.37.24.8.41,1.25.48.02,0,.03,0,.05,0,.27.1.55.16.82.15.11,0,.21-.1.21-.21-.04-2.2-.49-4.38-1.13-6.48l.25.22c.39.34.81.78,1.32.93.98.29,1.57-.57,1.49-1.46-.04-.46-.18-.9-.32-1.34l-.04-.13c-.18-.62-.37-1.24-.55-1.86v-.06c.68.36,1.53.59,2.11.03.36-.35.45-.85.5-1.33v-.1c.03-.26.04-.52.05-.78.46.5.99.93,1.61,1.2,1.08.47,2.28.26,3.13-.56.01,0,.02-.02.03-.03.26.06.52.11.78.15.99.16,2.06.31,3.06.3.91-.01,1.86-.17,2.62-.7.48-.34.92-.84,1.14-1.41h.02s0,.03,0,.03c-.07.2-.04.42.14.64.17.19.43.27.69.26.05.09.11.17.21.26.21.18.43.33.68.44.54.24,1.08.27,1.65.17.08-.01.15-.04.21-.09.28.56.51,1.14.69,1.74.06.22.11.45.16.67.04.58.07,1.16.1,1.75l.02.49c.06,1.45.05,2.91.09,4.37.04,1.49.22,2.98.29,4.46.11,2.8-.1,5.03-.56,6.8-.28,1.05-.64,1.94-1.08,2.7-.35.6-.74,1.12-1.18,1.57-1.54,1.58-3.58,2.22-5.77,2.51-.09.01-.18.02-.27.03h0c-2,.19-4.17-.4-5.37-.81-.59-.2-.97.33-.54.75.1.1.25.2.45.28,1.05.42,3.17,1.17,5.72,1.02.21-.01.43-.03.64-.06,4.21-.51,7.65-3.56,8.84-7.64.1-.34.18-.68.25-1.02.53-2.77.2-5.65.05-8.45v-.24c-.03-.26-.04-.53-.05-.79.2.28.48.49.79.63.74.35,1.72.35,2.17-.43.15-.25-.1-.62-.39-.52Zm-33.81-7.66c-.09.14-.15-.03.03-.03-.01.01-.02.02-.03.03Zm2.25-3.61c-.09.32-.24.63-.42.92-.04-.05-.1-.08-.17-.1-.22-.05-.42-.16-.57-.31.04-.14.09-.28.15-.4l.03-.12c.09-.38.15-.76.25-1.14.15-.57.34-1.13.55-1.69.84-1.11,1.78-2.14,2.87-3.01,1.25-1,2.94-1.99,4.61-2.03.39.15.74.35,1.06.6-1.29.41-2.5,1.05-3.58,1.87-1.43,1.08-2.62,2.37-3.7,3.79-.39.52-.75,1.05-1.09,1.6h0Zm-.93,18.65c-.12-.01-.24-.01-.35,0,.01-.01.02-.03.03-.05l.06-.1c.07.05.15.09.23.13.01,0,.03.01.04.02h0Zm4.01,1.12c0,.1.01.22.03.33-.07-.03-.13-.07-.2-.11-.02-.06-.05-.12-.07-.18.08-.01.17-.03.25-.04Z"/>
      <path class="cls-2" d="m53.16,31.54c-.65-1.34-2.4-1.93-3.79-2.23l-.08-.02-.13-.03c-.15-.03-.3-.02-.44.04-.13.05-.24.14-.32.28-.1.18-.12.33-.07.52.04.15.12.27.23.35.12.09.26.14.41.15.7.08,1.38.24,2.05.45.31.1.61.24.9.38l.25.13c.23.11.48.22.78.3.02,0,.05.01.07.02.08-.03.1-.06.12-.08h0s.05-.08.02-.27Zm-1.83,2.66c-.1-.18-.23-.32-.36-.42-.14-.1-.29-.15-.45-.15s-.31.05-.45.15c-.13.1-.26.24-.36.42-.19.34-.31.8-.31,1.32s.12.98.31,1.31c.1.18.23.32.36.42.14.1.29.15.45.15s.31-.06.45-.15c.13-.1.26-.24.36-.42.19-.34.31-.8.31-1.31s-.12-.98-.31-1.32Zm-10.02,0c-.1-.18-.22-.32-.36-.42s-.29-.15-.45-.15-.31.05-.45.15-.26.24-.36.42c-.2.34-.31.8-.31,1.32s.12.98.31,1.31c.1.18.22.32.36.42.14.1.29.15.45.15s.31-.06.45-.15c.14-.1.26-.24.36-.42.2-.34.32-.8.32-1.31s-.12-.98-.32-1.32Zm.56-4.31c-.35-.39-.94-.34-1.44-.25h-.08s-.17.04-.17.04c-.54.09-1.08.3-1.57.55-.92.46-1.83,1.23-2.31,2.15-.05.1.06.24.17.17.82-.55,1.6-1.05,2.56-1.33.44-.13.87-.2,1.33-.22.55-.03,1.06.11,1.52-.26.26-.21.2-.62,0-.84Z"/>
      <path class="cls-2" d="m54.97,41.65c-.12,0-.24.03-.34.11-.11.09-.49.34-.73.55-.06.05-.1.1-.14.14-.04-.01-.09-.03-.14-.05-.08-.1-.2-.14-.31-.14-.82-.39-1.56-.93-2.22-1.61-.46-.48-.94-.99-1.57-1.27-.08-.04-.17-.07-.25-.09-.38-.12-.76-.13-1.15-.11-.27.02-.55.05-.83.07-.82.06-1.63-.18-2.45-.07-.6.08-1.16.34-1.64.69-.99.73-1.67,1.76-2.51,2.64-.95,1-2.12,1.64-3.41,1.97-.02-.01-.03-.02-.05-.03-.95-.87-1.82-1.84-2.59-2.88-.74-1.02-2.71-5.6-3.19-6-.2-.17-.41-.24-.62-.23-.09,0-.17.02-.25.05-.27.09-.5.32-.62.63-.05.12-.08.25-.1.38-.12.63-.03,1.34,0,1.94,0,.26.02.51.03.77.03.64.08,1.27.15,1.91,0,.01,0,.03,0,.04.08.73.18,1.45.3,2.17.02.14.04.28.07.42.08.44.17.88.26,1.31.03.14.07.26.11.38.04.21.09.43.15.64.34,1.4.89,2.79,1.93,3.82.25.25.53.48.81.7.95.7,2.06,1.23,3.1,1.72,1.3.6,2.66,1.15,4.06,1.57,1.21.55,2.51.98,3.82,1.21.64.11,1.29.18,1.94.17.27,0,.54-.01.81-.04h0c.53-.06,1.06-.17,1.58-.36.68-.24,1.33-.59,1.91-1.01.83-.43,1.58-1.02,2.18-1.8,1.09-1.4,1.62-3.1,1.85-4.86.06-.45.28-2.17.29-2.44.04-.67.08-1.34.13-2.01.01-.2.02-.39.04-.59.02-.27-.19-.41-.41-.42Zm-13.73,3.76c1.5-.41,2.92-1.08,4.41-1.51,1.39-.4,2.91-.62,4.31-.13.66.24,1.25.65,1.89.93.29.13.64.25.98.29.05,0,.1.01.15.01-.25.6-.57,1.17-1.01,1.64-.11-.03-.22-.05-.32-.08-.09-.03-.18-.05-.27-.08-.3-.1-.6-.21-.9-.32-1.52-.77-3.37-.91-4.96-.26-.78.32-1.52.88-2.31,1.26-.18.07-.38.13-.56.19-.12-.04-.24-.08-.35-.13-.84-.31-1.62-.7-2.39-1.13-.08-.11-.17-.22-.25-.33.55-.08,1.09-.21,1.58-.34Z"/>
      <path class="cls-2" d="m47.26,38.41c.67.41,1.7,1.37.98,2.38-.85.9-2.08-.13-2.69-.6-.56-.36-1.19.57-.67.99,4.38,3.24,6.15-2.67,2.73-3.25-.38-.06-.52.36-.34.48Z"/>
    </g>
  </g>
</svg>