<?xml version="1.0" encoding="UTF-8"?>
<svg id="Layer_2" data-name="Layer 2" xmlns="http://www.w3.org/2000/svg" viewBox="0 0 93.97 113.07">
  <defs>
    <style>
      .cls-1 {
        fill: #010101;
      }

      .cls-1, .cls-2, .cls-3 {
        fill-rule: evenodd;
        stroke-width: 0px;
      }

      .cls-2 {
        fill: #171717;
      }

      .cls-3 {
        fill: #fff;
      }
    </style>
  </defs>
  <g id="Layer_1-2" data-name="Layer 1">
    <g>
      <path class="cls-3" d="m92.78,113.07H1.06c-.03-.19-.06-.39-.08-.6-.05-.61-.04-1.28.01-1.97.03-.36.06-.73.1-1.09.11-1.09.27-2.12.33-2.91.02-.22.02-.41.02-.58v-.04c.03-.3.07-.59.1-.89l.02-.17c.22-1.93.44-3.87.69-5.81.13-1.03.27-2.05.42-3.08.08-.56.16-1.11.25-1.67.16-1.11.34-2.22.54-3.32h0c1.26-7.22,3.14-14.33,6.44-21.01,1.99-3.84,4.16-7.43,7.27-10.62.61-.81,1.36-1.79,2.02-2.59,3.16-3.8,7.18-5.67,11.92-7.16,1.03-.32,2.72-.06,3.75-.43,1.15-.41,2.13-1.57,3.24-2.05,0,0,.01,0,.02,0,.53-.23,1.14-.47,1.74-.72.55-.24,1.1-.48,1.57-.74.05-.02.1-.06.15-.08.24-1.36.74-2.57,1.42-3.62,1.2-1.82,2.97-3.13,4.91-3.77.46-.15.92-.28,1.4-.35,1.2-.2,2.44-.15,3.62.17.61.17,1.21.41,1.78.73,1.23.68,2.34,1.74,3.18,3.2.29.5.53,1.21.78,1.97.07.22.14.44.22.65.04.13.09.26.13.39.09.27.19.53.3.78.3.72.66,1.35,1.13,1.73.74.59,1.5.57,2.17.41.03,0,.04-.03.04-.06v-.02c0-.13-.14-.39-.15-.54v-.02s0-.02,0-.03h0s.03-.08.1-.06c.21.06.41.15.61.26,1.73.98,3.05,3.69,4.41,4.38,6.33,2.16,11.35,6.08,13.94,11.15.04.09.09.18.13.26.39.79.72,1.61.98,2.45.01.02.02.05.02.07.13.38.23.76.32,1.15,1.02,3.67,1.97,7.34,2.87,11.04,0,.02.01.03.01.04.91,3.76,1.76,7.52,2.54,11.31.83,4,1.6,8.02,2.29,12.04.48,1.09.73,2.25.82,3.43.05.68.05,1.37.02,2.05.36,2.11.68,4.23,1.18,6.32Z"/>
      <path class="cls-1" d="m91.68,107.23c.33,1.95.63,3.91,1.09,5.84H1.05c-.03-.19-.05-.39-.07-.6-.05-.61-.04-1.28.01-1.97.1-1.46.36-2.95.43-4,.02-.22.02-.41.02-.58l.1-.93.02-.17c.22-1.93.44-3.87.69-5.81.13-1.03.27-2.05.42-3.08,1.26-8.9,3.17-17.75,7.23-25.96l.16-.31c1.95-3.73,4.08-7.21,7.11-10.31l.19-.25c.57-.76,1.24-1.63,1.83-2.35,3.16-3.79,7.18-5.67,11.92-7.15,1.03-.32,2.72-.06,3.75-.43,1.07-.39,2-1.43,3.03-1.95v3.91l14.86,13.04,8.42-11.52.86-4.71c.21-.02.4-.05.6-.09.04-.01.05-.05.04-.1-.02-.15-.16-.43-.15-.56,0-.02,0-.03,0-.04.02-.02.05-.03.1-.01.2.06.39.14.59.25,1.74.98,3.07,3.7,4.44,4.39,6.53,2.23,11.67,6.33,14.18,11.64.3.62.55,1.25.77,1.9.18.51.32,1.03.45,1.55,1.08,3.89,2.08,7.78,3.03,11.7.82,3.41,1.59,6.84,2.3,10.26.87,4.14,1.66,8.3,2.38,12.46.48,1.08.72,2.23.82,3.4.05.68.05,1.37.02,2.05v.03l.08.45Z"/>
      <path class="cls-2" d="m82.69,111.34c-.45-2.36-.83-4.72-1.21-7.09-.37-2.3-.71-4.6-1.04-6.9-.34-2.35-.78-4.69-1.07-7.05l-.07-.57c-.14-1.12-.31-2.25-.45-3.38l-.02-.17-.02-.17c.08-.05.14-.11.18-.19.29-.62.72-1.17,1-1.8.3-.64.51-1.32.67-2,.02-.07-.09-.09-.12-.03-.39.89-1.06,1.96-1.96,2.61-.14-.8-.28-1.61-.35-2.41,0-.08-.13-.08-.14,0-.03.94-.14,1.88-.22,2.83-.2.16-.26.42-.2.64l.02.09c.02.06.05.13.11.19-.01.17-.02.34-.02.51-.04,1.38-.07,2.77-.03,4.15v.36c.03,1.3,0,2.6.06,3.89.06,1.38.16,2.76.27,4.14.39,4.7,1.17,9.4,2.09,14.06h2.87c-.11-.57-.23-1.15-.34-1.73Zm11,.64c-.32-1.27-.62-2.55-.91-3.83-.58-2.53-1.15-5.06-1.73-7.58-.86-3.78-1.72-7.57-2.58-11.35-.03-.13-.05-.25-.09-.38-.26-1.18-.53-2.36-.8-3.54-.5-2.24-1-4.48-1.5-6.73-.04-.22-.09-.44-.15-.66,0-.02,0-.03-.01-.04-.55-2.45-1.12-4.89-1.73-7.32-.41-1.63-.88-3.26-1.46-4.87,0-.02-.01-.05-.02-.07-.03-.09-.07-.19-.1-.28-.24-.64-.49-1.28-.77-1.9-.04-.09-.08-.18-.11-.27-.04-.09-.08-.18-.13-.26-.8-1.74-1.78-3.4-3.01-4.94-2.63-3.27-6.47-5.76-10.93-6.42-.41-.5-.84-.98-1.28-1.45-.9-.96-2.01-1.84-3.01-2.73-.03-.03-.09-.02-.12.01-.01,0-.02.02-.02.03,0,.02,0,.03.01.06,1.11,1.31,2.17,2.68,3.11,4.1.31.47.61.94.9,1.43,1.07,1.82,1.84,3.84,1.68,5.93-.08,1.12-.53,2.14-.79,3.24-.3,1.25-.13,2.35.45,3.51.49,1,1.12,1.94,1.57,2.95.47,1.04.86,2.12,1.18,3.2,1.27,4.32,1.36,8.85,1.08,13.29-.3,4.85-.91,9.69-1.67,14.5-.21,1.35-.47,2.68-.72,4.02l-.26,1.34c-.03-1.12-.08-2.24-.11-3.35-.15-4.44-.36-8.87-.69-13.3-.33-4.4-.79-8.79-1.34-13.17-.41-3.28-.96-6.54-1.52-9.8l-.34-1.96-.36-2.08c-.82-4.72-1.77-9.4-2.81-14.09,0-.03-.03-.05-.06-.06h-.01c-.07-.02-.14.02-.14.09l.04.33c-.24-.23-.6-.34-.94-.29-.24-.14-.49-.25-.71-.41-.26-.19-.48-.42-.66-.66-.19-.24-.35-.49-.48-.74-.14-.25-.25-.51-.32-.78-.01-.05-.03-.1-.04-.15-.04-.14-.28-.18-.36-.04,0,0,0,.01,0,.02-.13.22-.22.45-.28.69-.09.33-.13.67-.09,1.02.02.18.04.36.1.55.21.74.79,1.69,1.54,2.13-.05.12-.1.24-.15.36-.22.52-.51,1.02-.78,1.52l-.15.28c-.49.92-1.01,1.82-1.55,2.72-1.19,1.96-2.51,3.87-3.93,5.71l-.07.09c-.28.36-.55.75-.88,1.08-.36.36-.65.32-1.07.07l-.05-.03c-1-.6-1.84-1.51-2.69-2.27l-.27-.24c-1.62-1.48-3.18-3.02-4.68-4.59-.9-.94-1.78-1.87-2.65-2.83-.54-.6-1.06-1.22-1.6-1.82-.36-.57-.75-1.12-1.23-1.57-.13-.13-.28-.18-.43-.19.03-.03.07-.06.1-.09,0,0,0-.01.01-.01.04-.06-.03-.13-.1-.09-1.29.61-2.57,1.32-3.76,2.13-2.39,0-4.67.38-6.91,1.19-2.51.9-4.84,2.14-6.91,3.7-4.34,3.27-7.46,7.68-9.89,12.21-5.16,9.62-7.8,20.11-9.22,30.65-.41,3-.72,6.01-.96,9.03-.11,1.48-.21,2.95-.28,4.43v.13c-.05.87-.09,1.74-.07,2.61h1.95c.08-.69.12-1.38.18-2.07.11-1.32.19-2.64.28-3.95.19-2.57.42-5.14.72-7.7.59-5.14,1.46-10.27,2.74-15.31,1.29-5.02,2.99-9.96,5.28-14.69,2.19-4.51,4.87-8.89,8.62-12.53,1.99-1.93,4.28-3.64,6.84-4.93,2.16-1.09,4.62-1.96,7.1-2.39-2.79,2.02-5,4.65-5.45,7.9-.31,2.21.62,4.22,1.44,6.25l.07.16.09.24c.38.98.73,2.01.71,3.05-.03,1.04-.51,1.93-1.11,2.78l-.08.11-.08.11c-.69.94-1.42,1.84-1.89,2.88-.51,1.14-.72,2.37-.79,3.58-.1,1.95.11,3.93.37,5.88l.05.35.16,1.2c.68,5.03,1.76,10.02,3.24,14.91.84,2.75,1.79,5.45,2.88,8.13.55,1.35,1.13,2.69,1.72,4.02.3.67.6,1.33.91,2,0,0,0,.01,0,.02h34.58c.27-1.24.57-2.49.79-3.73.45-2.55,1.04-5.08,1.49-7.64.87-4.97,1.64-9.99,2.04-15.02.37-4.62.38-9.31-.7-13.86-.54-2.27-1.37-4.48-2.52-6.56-.5-.92-1.24-1.84-1.28-2.9-.05-1.19.45-2.34.57-3.52.24-2.41-.78-4.81-2.17-6.84-.22-.33-.45-.64-.69-.95,3.43,1.2,6.35,3.57,8.44,6.23,2.73,3.46,4.23,7.4,5.31,11.48l.07.26.07.27c1.2,4.73,2.14,9.52,3.19,14.28,1.1,4.96,2.2,9.91,3.3,14.87.31,1.39.61,2.77.92,4.16l1.14,5.2c.23,1.04.45,2.08.66,3.13.07.38.15.76.22,1.13h2.57c-.09-.36-.19-.73-.28-1.09Zm-56.69-1.02c-.55-1.14-1.09-2.27-1.55-3.44-.92-2.34-1.85-4.67-2.64-7.06-1.57-4.76-2.76-9.62-3.55-14.54-.39-2.42-.7-4.87-.85-7.32-.14-2.34.05-4.56,1.49-6.59.67-.93,1.41-1.81,1.87-2.84.45-1.01.54-2.09.36-3.16-.34-2.14-1.64-4.03-2.19-6.11-.68-2.51.29-5.03,1.92-7.09.89-1.12,1.95-2.1,3.06-3.04l.23-.19.23-.19c.63-.52,1.27-1.04,1.9-1.57,0,.06,0,.11.02.17h-.02l.02.07c.06.19.14.38.23.56-.31,1.81-.49,3.63-.64,5.45l-.04.43c-.17,2.03-.36,4.06-.46,6.09-.21,4.32-.31,8.63-.32,12.94-.03,8.63.36,17.26.89,25.87.15,2.41.31,4.83.5,7.25.09,1.19.19,2.38.27,3.57.05.83.05,1.69.16,2.52-.3-.59-.6-1.19-.89-1.78Zm-15.05-26.27c.15-2.93.21-5.87.32-8.8,0-.08-.12-.07-.13,0-.44,2.97-.94,5.93-1.44,8.88l-.87-.66c-.99-.74-1.98-1.48-3.02-2.17-.05-.03-.13.04-.09.08.74.95,1.55,1.85,2.36,2.76.42.47.85.94,1.26,1.42l.1.12c-.29,1.71-.57,3.42-.85,5.14-.66,4.1-1.24,8.21-1.8,12.32l-.45,3.29c-.28,2-.58,4-.89,6h2.71c.57-4.22,1.13-8.46,1.63-12.69.49-4.17.77-8.35,1-12.54l.05-.93c.16-.05.29-.18.33-.33.11-.38-.03-.66-.27-.9l.05-1Zm20.85-44.28s-.09-.05-.1,0c-.27,1.02-.49,2.05-.97,3.01-.22.45-.49.88-.79,1.28-.11.15-.24.29-.37.43-.26.29-.54.57-.68.92-.04.09-.04.2-.02.31.03.13.11.25.21.33.02.01.03.02.05.03l.1.07c.2.13.55.12.74,0,.39-.24.64-.6.85-.98.05-.08.09-.16.14-.24l.1-.19c.28-.55.52-1.1.68-1.68.16-.58.27-1.19.28-1.79.02-.51-.04-1.03-.21-1.51Z"/>
      <path class="cls-3" d="m63.6,25.91c-.23-2.05.07-6.34.09-6.6.13-1.65-.64-8.14-2.09-7.55-2.43-1.94-5.66-2.36-8.69-2.57-6.28-.42-12.96.55-17.81,4.81-2.4,2.21-4.73,5.43-4.55,8.77-2.18,3.17-5.25,7.53-2.54,11.24.92,1.19,2.39,1.63,3.55,2.52,2.33,1.89,3.8,4.61,6.15,6.5,6.24,5.64,16.83,6.82,22.96.4,4.74-4.65,3.97-11.61,3.14-17.54-.56-3.99.24,4-.22,0Z"/>
      <path class="cls-1" d="m65.41,13.7c-.23-.79-.61-1.47-1.15-2.03.72-.78,1.11-1.89,1.19-2.93.07-.76.12-1.74-.71-2.09-.16-.07-.33-.09-.5-.09.04-.27.07-.54.09-.82.03-.44-.42-.92-.86-.87-.14.01-.27.03-.41.04.08-.13.16-.26.25-.39.35-.54-.12-1.14-.67-1.19-1.47-.13-2.93-.43-4.33-.89-1.41-.46-2.88-.93-4.22-1.57-.09-.04-.2-.01-.26.06-1.13-.76-2.76-.87-4.05-.93h-.14c-1.71-.07-3.44.14-5.12.49-3.33.68-6.75,1.79-9.77,3.37-1.27.66-2.44,1.49-3.5,2.44-.95-.46-2.46-.5-2.76.56-.09.3-.04.57.08.81-.04.02-.07.04-.11.07-.24.16-.37.28-.51.43l-.12.12c-.37.38-.4,1.08,0,1.44l.05.05.04.03c.07.06.14.11.22.15-1.43,2.21-2.4,4.72-2.8,7.34-.24,1.54-.3,3.08-.13,4.63.09.76.22,1.57.48,2.28.13.35.31.69.47,1.03.18.36.46.63.71.96.02.03.07.05.1.05-.07.15-.14.3-.2.45-.36.87-.62,1.8-.78,2.72-.3,1.74-.11,3.69,1.2,5,.53.52,1.33.93,2.13,1.04-.25.26-.46.58-.62.94-.31.67.21,1.59,1.02,1.33.15-.04.31-.1.46-.18.24.47.73.79,1.27.71.31-.04.54-.17.69-.34.39.87.91,1.65,1.56,2.34.69.74,1.46,1.4,2.14,2.14.67.71,1.07,1.65,1.85,2.24.25.18.62-.01.69-.29.07-.25.07-.5.03-.73-.11-.74-.65-1.37-1.17-1.93l-.08-.09c-.73-.77-1.58-1.41-2.36-2.12-.81-.74-1.46-1.53-2.05-2.46-.05-.08-.1-.17-.15-.25l-.24-.37c-.01-.06-.02-.11-.04-.17-.01-.21-.08-.41-.22-.6-.17-.23-.39-.41-.65-.49-.09-.09-.18-.18-.27-.26.11-.13.22-.28.3-.45.16-.32-.03-.83-.45-.79-.27.03-.53-.03-.8,0-.26.03-.53.08-.79.04-.48-.07-.91-.33-1.21-.69-.78-.91-.86-2.22-.69-3.35.07-.5.19-.98.31-1.47,0-.01,0-.03.01-.04l.2-.74v-.02c.12-.42.26-.87.53-1.21.85-1.08,2.3-.23,3.17.42l.07.06h.01s.02.01.02.01c.05.08.1.15.15.23.11.15.23.29.36.43.2.22.41.43.63.63l.08.07s.1.09.15.13c.42.37.98.09,1.03-.44.02-.24.04-.48.05-.72.01-.23.02-.46.03-.69.01-.53.02-1.06.05-1.59.07-1,.18-2,.35-2.99.17-.99.39-1.96.66-2.93.13-.49.28-.96.44-1.44.12-.37.21-.96.53-1.22.28-.23.82-.27,1.17-.34.49-.1.98-.2,1.47-.3.91-.2,1.83-.41,2.73-.67.9-.25,1.78-.55,2.64-.91-.25.41-.49.83-.73,1.25-.33.57.1,1.19.71,1.23.62.05,1.24,0,1.84-.14.13-.03.25-.07.36-.11.66-.04,1.34-.2,1.96-.35l.29-.07c1.18-.3,2.32-.71,3.44-1.19.12-.06.25-.11.37-.17.46-.14.92-.3,1.37-.49,1.66.25,3.36.15,4.99-.25.71-.18,1.47-.4,2.2-.7.36.62.92,1.13,1.54,1.49.07.55.1,1.09.13,1.63.08,1.73.18,3.46.27,5.18l.03.56c.03.63.07,1.26.09,1.89.02.29.03.57.04.85.1,2.45.16,4.9.19,7.34.02,3.06-.16,6.08-1.81,8.74-.77,1.25-1.79,2.37-2.98,3.24-.94.69-1.97,1.23-3.09,1.59-1.54.49-3.18.65-4.79.5-.79-.08-1.56-.26-2.32-.5l-.1-.04c-.75-.23-1.48-.35-2.26-.45-.52-.06-.65.62-.38.94.55.68,1.14,1.12,1.96,1.43.51.19,1.04.33,1.58.43h.04s.01,0,.02,0c.22.05.46.09.68.13,1.61.23,3.24.21,4.84-.16,1.31-.3,2.55-.82,3.68-1.52.27-.17.54-.34.8-.53.1-.07.2-.14.3-.22.98-.74,1.87-1.64,2.61-2.64,2-2.67,2.65-5.85,2.69-9.14.04-3.52-.13-7.05-.36-10.56l-.05-.73c-.1-1.52-.21-3.04-.38-4.55.28.03.58-.06.82-.31.47-.47.58-1.2.63-1.86l.02-.18c.04-.61-.04-1.22-.21-1.81Zm-32.96,16.17c-.53-.46-1.08-.9-1.72-1.2-.51-.24-1.26-.62-1.82-.44-.24.08-.31.34-.2.52h0l.02.04c.1.15.22.25.37.35l.06.04c-.17.12-.31.3-.36.53-.1.36.05.81.4,1,.14.07.29.11.44.12.22.01.4-.09.57-.22l.05-.04c.08-.06.14-.13.18-.22.4.52.74,1.14,1.45,1.16.34,0,.72-.26.79-.61,0-.03.01-.07.02-.1.07-.33.02-.7-.25-.94Z"/>
      <path class="cls-1" d="m54.81,37.31c-.16-.17-.39-.27-.61-.27-.2,0-.4.09-.57.29-.2.24-.44.45-.69.63-.21.15-.45.27-.69.36-.5.19-1.04.24-1.58.13-.53-.12-.96-.34-1.35-.66-.35-.27-.66-.62-.97-1-.09-.1-.17-.21-.25-.33-.03-.07-.09-.12-.15-.14-.07-.03-.15-.04-.22-.02-.08.02-.14.06-.19.12-.04.06-.08.12-.08.2,0,.55.17,1.06.46,1.52.1.15.21.3.33.45.54.63,1.3,1.1,2.03,1.31.8.24,1.66.21,2.45-.02.75-.22,1.44-.63,2-1.19.05-.05.09-.1.14-.15.18-.19.24-.41.23-.61-.01-.23-.12-.46-.28-.62Zm.39-6.35c-.11-.71-.51-1.37-1.25-1.75-.16-.09-.36-.17-.56-.22-.11-.03-.22-.06-.34-.08-.45-.08-.62.44-.41.58.82.5,2.06,1.65,1.19,2.89-1.02,1.09-2.51-.15-3.24-.71-.68-.43-1.43.69-.8,1.2,3.15,2.33,5.17.72,5.42-1.1.04-.27.04-.54,0-.81Zm-7.86-3.16c-.08-.12-.16-.23-.24-.34-.37-.55-.75-1.08-1.35-1.41-.71-.39-1.53-.36-2.23.02-.41.22-1.03.92-1.37,1.75-.25.61-.35,1.29-.12,1.9.03.07.09.14.21.18.06.02.14.03.21.02.08-.01.15-.04.19-.09.06-.06.1-.14.09-.24-.04-.44.12-.87.34-1.24.32-.53.79-.94,1.05-1.06.34-.16.65-.1.91.07.39.24.68.71.85,1.12.1.25.27.4.45.47.21.09.45.07.65-.02.22-.09.4-.28.47-.49.07-.19.05-.42-.11-.64Zm11.28-.34c-.11-.61-.48-1.14-.97-1.48-.48-.33-1.07-.49-1.66-.35-.43.1-1.08.52-1.41,1.03-.15.21-.24.45-.25.68,0,.22.05.44.34.73.03,0,.05.01.09.01.07,0,.14-.03.19-.07.13-.12.22-.26.31-.41.05-.08.1-.17.16-.24.19-.22.46-.41.75-.46.27-.04.51.03.7.18.22.18.38.45.44.73.02.12.08.22.17.3.08.09.19.15.3.18.2.06.34.03.52-.06.14-.08.23-.19.28-.33.05-.13.07-.29.04-.44Zm-12.29-6.89c-.3-.28-.66-.39-1.03-.4-.53-.02-1.08.15-1.56.33-.77.29-1.44.72-2.06,1.28-.54.49-.98,1.17-1.3,1.82-.13.26-.27.68-.29,1.07,0,.03,0,.06,0,.08,0,.28.05.53.24.69.02.01.03.02.04.03.02.02.04.02.07.03.04,0,.08,0,.13-.03.03-.01.06-.04.11-.14.02-.03.03-.05.04-.08.02-.03.04-.07.05-.09.02-.04.04-.08.05-.11.01-.03.02-.04.08-.13.08-.1.17-.21.26-.31.08-.08.15-.18.23-.27.07-.08.13-.16.2-.24.02-.02.04-.04.05-.07.38-.41.9-.73,1.38-1,.47-.26.97-.44,1.48-.56.19-.04.38-.07.62-.09.43-.05.85-.1,1.2-.46.18-.18.27-.43.27-.68s-.09-.49-.27-.67Zm12.88,2.85c-.03-.11-.06-.22-.09-.33-.11-.31-.26-.61-.43-.88-.15-.23-.31-.44-.47-.61-.54-.57-1.19-.97-1.9-1.27-.05-.02-.11-.04-.16-.07-.73-.31-1.63-.68-2.35-.3-.29.15-.45.41-.49.68-.05.29.04.61.24.87.33.41.85.5,1.36.57.16.03.33.05.48.08.4.1.83.21,1.23.37.11.04.23.09.34.15.3.15.54.33.75.52.49.46.77,1.07.94,1.81.01.04.03.08.06.1.03.02.07.04.1.05s.08,0,.12-.02c.03-.02.07-.04.09-.08.3-.5.32-1.09.19-1.66Z"/>
      <path class="cls-1" d="m63.74,23.69c-.07,0-.15,0-.22,0-.09,0-.18,0-.26,0-.45,0-.91.08-1.31.31-.22-.73-.81-1.31-1.44-1.53-.08-.09-.08-.14-.33-.11-.48-.11-.98-.15-1.48-.13-.7.02-1.4.14-2.07.33-.42.12-.83.26-1.21.41-2.34.37-4.8.71-7.17,1.15-1.4-.52-4.43-.6-6.64-.01-.57.15-1.09.34-1.52.58-.63.36-1.06.84-1.12,1.43-.53-.04-1.46-.39-1.85.2-.91-.09-1.83-.08-2.74,0-.84.07-1.67.2-2.51.35-1.26.23-2.52.51-3.77.76-.12.03-.24.05-.36.07-.14.03-.28.05-.42.08-.8.22-1.12,1.87-.2,1.79h.01c.51-.18-.09-1.02.61-1.14.05-.01.1-.02.15-.03,1.52-.28,3.01-.59,4.51-.87.65-.12,1.29-.23,1.94-.33.9-.14,1.79-.26,2.71-.34-.07.56,2.14.44,2.15.11,0,0,.01,0,.02,0-.4,2.09.3,5,1.37,6.2,1.5,1.57,5,1.79,6.46.61,1.91-1.13,3.63-6.24,2.93-7.84,1.03-.41,2.07-.39,3.18-.29-.2.73-.51,2.51.13,2.62.01.31.05.62.11.91.26,1.22.93,2.19,1.81,2.78,1.21.83,2.82.96,4.29.1,2.42-1.37,3.04-5.18,2.57-7.44.15.25.73.24,1.22.1.08-.02.16-.05.23-.08.53-.2.84-.53.22-.77Zm-14.63,4.61c-1.67,7.86-7.45,4.9-8.12,3.96-1.21-1.55-1.69-5.51-.82-6.64.07-.05.13-.1.2-.14.11-.08.24-.15.36-.22,1.25-.67,2.89-.6,4.28-.72,2.95-.17,5.11.57,4.11,3.77Zm4.23-3.3c-.27-.12-.65-.08-.92-.08-.8.03-1.82.13-2.49.67-.24-.52-.79-1.06-1.33-1.32,1.93-.08,3.9-.42,5.82-.71-.44.35-.84.87-1.08,1.44Zm7.99,1.8c-.33,4.45-3.83,6.12-6.11,4.15-.49-.41-.91-1-1.25-1.75-.16-.35-.29-.73-.4-1.16.16-.09.27-.24.23-.52-.09-1.25.2-2.6,1.26-3.37.79-.57,1.71-.82,2.65-.94.37-.06.75-.08,1.14-.1.09,0,.19-.01.27-.01,2.28-.07,2.36,1.98,2.2,3.71Z"/>
    </g>
  </g>
</svg>