<?xml version="1.0" encoding="UTF-8"?>
<svg id="Layer_2" data-name="Layer 2" xmlns="http://www.w3.org/2000/svg" viewBox="0 0 87.12 117.57">
  <defs>
    <style>
      .cls-1 {
        fill: #231f1f;
      }

      .cls-1, .cls-2, .cls-3 {
        fill-rule: evenodd;
        stroke-width: 0px;
      }

      .cls-2 {
        fill: #010101;
      }

      .cls-3 {
        fill: #fff;
      }
    </style>
  </defs>
  <g id="Layer_1-2" data-name="Layer 1">
    <g>
      <path class="cls-3" d="m86.02,117.57H1.25c-.16-.39-.26-.85-.32-1.36-.02-.17-.03-.35-.04-.53-.02-.56,0-1.16.03-1.78,0-.14.02-.28.03-.41.01-.19.03-.37.05-.55.02-.19.03-.36.05-.55.02-.16.03-.33.05-.49.04-.31.07-.62.1-.92.02-.15.03-.29.04-.43.03-.31.05-.6.07-.86.02-.22.02-.4.02-.57v-.04c.04-.37.07-.73.11-1.1.04-.39.08-.77.11-1.16,0-.04.01-.08.01-.13.2-1.89.39-3.79.61-5.68.17-1.55.37-3.1.59-4.65.15-1.07.3-2.13.47-3.2.17-1.06.34-2.13.54-3.18.07-.4.15-.79.22-1.19.15-.79.31-1.58.48-2.36,1.09-5.12,2.57-10.13,4.67-14.94,1.43-3.13,2.97-6.1,4.94-8.83.56-.78,1.15-1.54,1.79-2.28.56-.85,1.25-1.87,1.87-2.71,2.92-3.97,6.64-5.93,11.02-7.48.96-.34,2.52-.06,3.46-.45,1.06-.43,1.97-1.64,3-2.14,0,0,.02,0,.02-.01h0c.21-.11.45-.21.68-.33.3-.14.61-.28.92-.43.2-.09.39-.19.59-.29.36-.18.7-.37,1-.57.22-1.42.68-2.69,1.32-3.78,3.14-5.4,10.5-6.4,13.78-.02.28.55.51,1.34.75,2.18.05.19.11.37.17.56.1.35.21.71.33,1.04.29.83.64,1.57,1.11,1.99.69.62,1.38.6,2.01.43.02,0,.03-.03.03-.06h0c.02-.14-.11-.42-.14-.58v-.06c0-.06.03-.08.1-.06.19.07.38.15.56.28.21.13.41.3.61.48.05.05.1.1.16.15.16.17.32.35.47.53.26.31.51.64.75.98.74,1.01,1.42,2.03,2.1,2.43,4.92,1.9,8.98,5.09,11.57,9.21h0c.5.79.94,1.6,1.32,2.45.15.35.3.69.43,1.05.07.17.13.35.19.52.12.34.23.68.33,1.03,0,.01,0,.02.01.03.03.11.07.22.1.33.1.38.2.77.28,1.16.95,3.85,1.83,7.71,2.66,11.59,0,.02,0,.05.02.07.82,3.86,1.59,7.75,2.31,11.64.18.95.34,1.9.51,2.84.19,1.1.38,2.19.57,3.3.37,2.18.73,4.37,1.06,6.57.29.74.49,1.52.61,2.32.02.11.03.23.05.34.04.31.07.61.09.92.05.72.05,1.44.02,2.16.05.37.11.74.16,1.11.04.27.08.54.12.81.12.82.25,1.63.38,2.44.18,1.08.39,2.16.64,3.22Z"/>
      <path class="cls-1" d="m86.01,117.57H1.23c-.15-.39-.25-.85-.3-1.36-.02-.17-.03-.35-.04-.53-.02-.56,0-1.16.03-1.78,0-.14.02-.28.03-.41.01-.19.03-.37.05-.55.02-.19.03-.36.05-.55.02-.16.03-.33.05-.49.04-.31.07-.62.1-.92.02-.15.03-.29.04-.43.03-.31.05-.6.07-.86.02-.22.02-.4.02-.57l.11-1.15c.04-.39.08-.77.11-1.16,0-.04.01-.08.01-.13.2-1.89.39-3.79.61-5.68.18-1.55.37-3.1.59-4.65.15-1.07.3-2.13.47-3.2.17-1.06.34-2.13.54-3.18.07-.4.15-.79.22-1.19.15-.79.31-1.58.48-2.36,1.11-5.1,2.58-10.1,4.67-14.9l.15-.33c1.4-3.02,2.9-5.88,4.81-8.53.55-.77,1.14-1.52,1.77-2.25l.17-.26c.53-.79,1.14-1.7,1.7-2.45,2.92-3.97,6.64-5.93,11.02-7.48.96-.34,2.52-.06,3.46-.45,1-.4,1.85-1.49,2.8-2.04v4.1l6.59,6.54,7.16,7.1,6.85-10.58.94-1.46.3-1.86.15-.93.34-2.14c.19-.01.38-.05.56-.1.04-.01.04-.04.03-.1h0c-.01-.17-.14-.45-.14-.58v-.02s0-.02.01-.03c.01-.03.04-.04.09-.02.19.06.37.15.54.26.44.28.84.68,1.23,1.15.26.31.51.65.75.98.75,1.03,1.43,2.06,2.12,2.46,4.93,1.9,9,5.11,11.59,9.24.59.93,1.09,1.9,1.52,2.92.07.17.14.34.21.51.07.17.13.35.19.52.12.34.23.68.33,1.03,0,.01,0,.02.01.03.15.5.27,1.01.38,1.53,1.01,4.08,1.94,8.19,2.82,12.3.74,3.49,1.43,6.99,2.08,10.5.2,1.1.4,2.19.6,3.29.19,1.1.38,2.19.57,3.3.37,2.2.72,4.4,1.06,6.61.28.73.48,1.49.61,2.28.02.11.03.23.05.34.04.31.07.61.09.92.05.72.05,1.44.02,2.16v.03l.07.47c.03.2.06.4.09.61.04.27.08.54.12.81.12.81.24,1.63.38,2.44.18,1.08.38,2.16.63,3.22Z"/>
      <path class="cls-2" d="m76.48,114.79c-.42-2.46-.77-4.94-1.12-7.41-.34-2.4-.66-4.81-.96-7.21-.32-2.45-.73-4.91-.98-7.37l-.07-.59c-.13-1.18-.28-2.36-.42-3.54l-.02-.17-.02-.18c.07-.05.13-.12.16-.2.27-.64.67-1.22.92-1.87.27-.67.48-1.38.62-2.09.02-.07-.08-.1-.11-.03-.37.94-.98,2.05-1.82,2.73-.13-.84-.26-1.68-.32-2.52,0-.08-.12-.08-.13,0-.03.99-.13,1.97-.2,2.96-.18.17-.24.44-.19.67l.02.09c.02.07.05.14.1.2,0,.18-.02.35-.02.53-.04,1.45-.06,2.89-.03,4.34v.37c.03,1.36,0,2.72.06,4.07.05,1.44.14,2.89.25,4.33.39,5.25,1.18,10.49,2.11,15.67h2.66c-.17-.92-.33-1.85-.49-2.78Zm10.63,2.72c-.14-.69-.3-1.37-.45-2.05-.3-1.33-.58-2.67-.85-4.01-.54-2.65-1.07-5.29-1.6-7.93-.81-4-1.6-7.99-2.4-11.98-.03-.15-.06-.3-.09-.45-.24-1.18-.48-2.36-.71-3.54-.46-2.32-.91-4.64-1.37-6.96-.05-.23-.09-.46-.14-.69-.01-.02-.01-.05-.02-.07-.51-2.57-1.04-5.14-1.62-7.71-.38-1.68-.8-3.38-1.32-5.04-.04-.11-.07-.22-.1-.33,0-.01,0-.02-.01-.03-.22-.69-.47-1.38-.73-2.06-.07-.18-.14-.36-.22-.54-.44-1.09-.95-2.16-1.53-3.18-.38-.68-.8-1.35-1.26-2-2.43-3.42-5.98-6.01-10.11-6.71-.38-.51-.78-1.01-1.18-1.51-.23-.28-.48-.55-.73-.82-.28-.31-.59-.61-.89-.9-.17-.17-.34-.34-.51-.5-.05-.06-.1-.1-.16-.15-.16-.17-.33-.33-.49-.49-.03-.03-.09-.02-.11,0-.01.01-.02.02-.02.03,0,.02,0,.04.01.06.32.43.64.87.95,1.31.23.32.45.64.67.97.44.66.86,1.33,1.26,2.01.29.49.57.99.83,1.49.99,1.91,1.7,4.02,1.55,6.2-.07,1.17-.49,2.24-.73,3.38-.24,1.15-.15,2.17.24,3.22.05.15.11.3.18.46.2.45.42.89.63,1.33t0,.01h0c.28.58.57,1.15.82,1.75.44,1.09.8,2.21,1.09,3.35.05.22.11.44.16.66,1.01,4.32,1.08,8.83.84,13.24-.28,5.07-.84,10.13-1.55,15.16-.2,1.41-.43,2.81-.66,4.21l-.24,1.39c-.03-1.17-.07-2.34-.1-3.51-.14-4.64-.33-9.27-.64-13.9-.31-4.6-.73-9.19-1.24-13.77-.38-3.43-.88-6.84-1.4-10.24l-.32-2.05-.03-.21-.3-1.97c-.59-3.83-1.25-7.64-1.97-11.44-.06-.34-.13-.67-.19-1.01-.14-.76-.29-1.52-.44-2.28,0-.03-.03-.06-.06-.06,0,0,0,0-.01,0-.06-.02-.13.02-.13.09l.04.34c-.22-.23-.55-.35-.87-.3-.22-.15-.45-.26-.66-.43-.24-.2-.44-.44-.61-.69-.17-.25-.32-.5-.45-.77-.15-.31-.26-.64-.33-.98-.03-.15-.26-.18-.33-.04,0,0,0,0,0,.01-.15.33-.26.67-.31,1.01-.07.44-.05.9.06,1.35.19.78.73,1.77,1.42,2.23-.04.13-.09.25-.14.38-.18.49-.42.95-.64,1.43-.03.06-.05.11-.08.17l-.14.29c-.04.1-.09.2-.14.29-.07.16-.15.31-.23.47-.33.7-.69,1.39-1.06,2.08-1.11,2.06-2.32,4.05-3.63,5.97l-.06.09c-.26.39-.51.78-.81,1.13-.33.38-.61.34-1,.08l-.05-.03c-.92-.63-1.71-1.58-2.48-2.38l-.25-.25c-1.28-1.32-2.51-2.68-3.7-4.07-.21-.24-.42-.48-.62-.72-.83-.98-1.65-1.96-2.45-2.96-.5-.62-.98-1.27-1.48-1.91-.33-.6-.7-1.17-1.13-1.63-.13-.13-.26-.2-.4-.2.03-.03.06-.06.09-.09,0,0,.01-.01.01-.02h0c.02-.06-.04-.13-.1-.09-1.19.63-2.37,1.38-3.48,2.23-2.2,0-4.32.4-6.39,1.24-2.33.94-4.48,2.24-6.39,3.87-2.25,1.91-4.14,4.2-5.77,6.68-1.28,1.95-2.4,4.01-3.38,6.09-4.78,10.06-7.21,21.03-8.53,32.05-.38,3.14-.67,6.29-.88,9.44-.11,1.54-.2,3.09-.26,4.63v.14c-.06,1.22-.12,2.48-.01,3.7h1.62c.16-1.04.21-2.09.29-3.14.1-1.37.17-2.75.26-4.13.18-2.68.39-5.37.66-8.04.55-5.38,1.35-10.74,2.54-16.01,1.19-5.24,2.76-10.42,4.88-15.36,1.18-2.73,2.5-5.42,4.08-7.93,1.15-1.83,2.43-3.57,3.89-5.17,1.84-2.02,3.97-3.8,6.33-5.16,2-1.15,4.27-2.05,6.56-2.5-2.58,2.11-4.63,4.86-5.04,8.26-.28,2.31.57,4.4,1.33,6.53l.06.17.09.25c.36,1.03.67,2.09.65,3.19,0,.35-.06.69-.15,1.02-.17.67-.5,1.29-.88,1.89l-.07.12-.08.12c-.64.98-1.31,1.92-1.75,3.02-.48,1.19-.67,2.48-.73,3.75-.09,2.03.1,4.11.34,6.15l.04.37.15,1.25c.63,5.26,1.62,10.48,3,15.59.78,2.87,1.66,5.71,2.66,8.5.51,1.41,1.05,2.81,1.6,4.21.27.7.55,1.39.84,2.08.14.33.26.66.41.97,0,0,0,.02.01.02h31.38c.02-.1.04-.21.07-.32l.11-.63c.25-1.31.53-2.61.74-3.93.42-2.66.97-5.31,1.38-7.98.8-5.2,1.52-10.46,1.89-15.71.34-4.83.34-9.74-.65-14.5-.03-.13-.05-.26-.09-.39-.5-2.23-1.24-4.41-2.24-6.47-.47-.96-1.15-1.92-1.19-3.03-.04-1.25.42-2.45.53-3.69.22-2.52-.72-5.03-2-7.15-.2-.34-.42-.67-.65-.99,3.18,1.26,5.87,3.74,7.81,6.52,1.58,2.26,2.71,4.72,3.58,7.29.52,1.54.95,3.12,1.32,4.72l.07.28.07.28c1.11,4.95,1.97,9.96,2.95,14.94,1.02,5.18,2.04,10.36,3.05,15.55.28,1.45.57,2.9.85,4.35l1.06,5.44c.21,1.09.42,2.18.61,3.27.13.72.25,1.43.38,2.15h2.41s0-.03-.01-.06Zm-52.89-3.12c-.51-1.19-1.01-2.38-1.43-3.59-.86-2.45-1.72-4.89-2.45-7.39-1.46-4.98-2.55-10.06-3.28-15.2-.36-2.54-.65-5.09-.79-7.66-.13-2.45.05-4.77,1.38-6.89.61-.97,1.3-1.9,1.72-2.98.12-.3.21-.61.28-.92.16-.78.17-1.58.05-2.38-.32-2.23-1.51-4.21-2.03-6.39-.63-2.64.27-5.26,1.78-7.42.82-1.17,1.81-2.19,2.83-3.18l.21-.2.21-.2c.59-.55,1.18-1.09,1.76-1.64,0,.06,0,.12.02.18h-.02s.02.07.02.07c.05.2.13.4.21.59-.29,1.89-.45,3.79-.6,5.7l-.03.45c-.16,2.12-.33,4.24-.42,6.37-.16,3.57-.24,7.14-.28,10.72-.01.94-.02,1.87-.02,2.81-.02,9.02.33,18.04.82,27.05.14,2.53.3,5.06.46,7.58.09,1.25.18,2.49.25,3.73.05.87.05,1.76.15,2.64-.28-.62-.56-1.24-.83-1.86Zm-13.92-27.48c.15-3.07.2-6.14.3-9.2,0-.09-.11-.08-.13,0-.4,3.1-.86,6.19-1.33,9.28l-.8-.68c-.92-.78-1.83-1.55-2.8-2.27-.05-.04-.12.03-.08.08.69,1,1.43,1.94,2.18,2.89.39.49.79.98,1.17,1.48l.09.12c-.27,1.79-.54,3.58-.79,5.37-.61,4.28-1.14,8.58-1.66,12.88l-.42,3.44c-.3,2.42-.62,4.83-.96,7.25h2.53c.57-4.75,1.13-9.49,1.62-14.25.45-4.37.71-8.73.92-13.11l.04-.97c.15-.06.27-.19.31-.34.1-.4-.03-.69-.25-.94l.05-1.05Zm19.3-46.31s-.09-.05-.1,0c-.25,1.07-.45,2.14-.9,3.15-.2.47-.45.92-.73,1.34-.24.36-.55.67-.78,1.03-.08.12-.15.25-.2.39-.03.09-.04.2-.01.31.03.14.09.28.19.35.02.01.03.02.04.03l.09.07c.18.13.51.13.69,0,.07-.05.13-.1.19-.16.32-.3.53-.71.72-1.12l.09-.2c.26-.56.48-1.15.63-1.75.15-.6.26-1.24.26-1.87.02-.53-.04-1.07-.19-1.58Z"/>
      <path class="cls-3" d="m68.04,26.43c-.42-6.9-2.64-14.73-9.18-18.12-14.42-5.83-33.38,8.86-34.39,23.86-.35,5.14,2.48,10.75,7.65,12.18,1.15,1.54,2.89,2.47,4.6,3.29,20.44,10.69,33.65,2,31.31-21.2h0Z"/>
      <path class="cls-2" d="m72.7,22.14c-.72-2.02-1.49-4.03-2.29-6.02-.78-1.94-1.49-3.92-2.46-5.76C62.15-.67,51.61-.67,46.16.78c-2.83-1.23-8.12-.88-11.07.23-4.77,1.79-10.57,8.85-12.56,12.01-4.38,7-7.12,16.31-4.21,24.39.38,1.06.87,2.04,1.41,2.98-.34.47-.74.92-1.18,1.35-1.3,1.3-2.61,2.56-3.74,4.03-1.12,1.46-2.05,3.01-2.74,4.72-1.3,3.22-1.37,6.87.36,9.95,1.5,2.68,4.16,4.67,7.15,4.86.15.02.31.04.46.06.4.66.88,1.26,1.43,1.79,1.69,1.62,5.72,2.45,8.02,2.5.12.1.24.19.36.29,1.41,1.12,2.88,2.24,4.5,3.03,1.09.54,2.53.99,3.67.6.52.35,1.37.28,1.88,0,.84-.47,1.53-1.31,1.95-2.18,1.01-2.1.77-4.39.51-6.63-.29-2.47-.56-4.95-.84-7.42-.22-1.93-.45-3.9-1.03-5.76-.3-.97-.7-1.89-1.21-2.77.01-.07.01-.15,0-.22-.17-.55-.51-.84-.92-1.21-.05-.05-.11-.1-.16-.15-.2-.24-.42-.45-.66-.64-.09-.09-.18-.19-.27-.28-.74-.78-1.44-1.6-2.06-2.49-.6-.85-1.15-1.75-1.67-2.66-.53-.92-.88-1.94-1.4-2.86-.05-.08-.16-.09-.22-.03-.16.17-.27.36-.25.56h-.08c-.03-.29-.31-.53-.68-.47-.56.1-1.02.13-1.5-.05.08-.57.16-1.14.24-1.7.14-1.05.27-2.1.38-3.15.27.07.54.16.81.28.38.17.73.4,1.04.68.3.28.51.65.87.84.42.22.93-.14.8-.62-.25-.97-1.67-1.52-2.54-1.71-.3-.06-.61-.09-.92-.08.07-.67.13-1.35.18-2.03.02-.32.05-.64.07-.96.68-.21,1.41-.27,2.12-.17.23.19.47.37.69.56.72.6,1.43,1.2,2.14,1.81.06.05.13.11.19.16.42.36.94,0,.87-.51-.57-4.21,1.98-7.56,4.98-10.15,3.32-2.87,9.35-3.21,13.29-8.18,1.82.37,5.87,1.48,7.55,4.17,2.34,3.77,2.04,7.14,2.22,11.41.18,4.28.63,8.74-.33,12.95-.89,3.89-3.29,7.21-7.03,8.74-.09.04-.19.07-.28.11-1.93.73-4.04.94-6.07.55-2.25-.43-4.12-1.46-5.99-2.74-.11-.07-.27.08-.18.19,2.46,3.29,7.31,4.39,11.15,3.52.18-.04.36-.09.54-.13-.86,2.49-.69,5.22.43,7.64.67,1.46,1.7,2.72,2.95,3.72,1.38,1.1,3.09,1.98,4.04,3.52.88,1.41.62,3-.88,3.81-.38.21-.52.87-.15,1.17.14.11.29.22.43.34.84.64,3.14,1.84,3.52,1.88,3.31.4,5.54-2.06,6.97-4.95,1.68-3.4,1.24-7.53-.61-10.77-1.48-2.59-4.4-5.15-3.24-8.43.41-1.17,1.26-2.17,2.08-3.08.94-1.03,1.95-1.99,2.85-3.06.89-1.06,1.69-2.21,2.13-3.54.65-1.94.32-4.04-.16-5.97-1.04-4.16-2.39-8.26-3.83-12.29Z"/>
      <path class="cls-2" d="m62.66,28.94c-.16-.71-.56-1.39-1-1.86-.55-.59-1.21-1-1.95-1.31-.05-.02-.11-.04-.16-.07-.75-.33-1.67-.71-2.41-.32-.3.16-.46.41-.51.7-.05.3.04.63.25.88.34.42.86.51,1.39.59.16.03.33.05.49.09.54.13,1.11.29,1.61.55,1.01.51,1.48,1.32,1.72,2.39,0,.04.03.08.06.1.03.03.07.04.1.06.04,0,.09,0,.12-.02.04-.02.07-.04.09-.08.31-.5.34-1.11.2-1.7Zm-13.17-2.97c-.31-.29-.67-.41-1.06-.42-.54-.02-1.11.15-1.6.34-.79.3-1.48.73-2.12,1.3-.55.5-1.01,1.2-1.35,1.86-.14.29-.3.76-.31,1.18,0,.28.05.55.24.71.04.03.08.05.11.06.04,0,.09,0,.14-.03.03-.01.06-.04.12-.14.04-.06.07-.12.1-.18.02-.04.04-.08.06-.12.01-.02.02-.04.08-.13.09-.1.18-.22.27-.31.08-.09.16-.18.24-.28.09-.1.18-.21.27-.31.39-.42.93-.74,1.42-1.01.48-.26,1-.44,1.52-.56.19-.04.39-.07.63-.09.44-.05.88-.1,1.24-.46.19-.18.28-.44.28-.7s-.09-.5-.28-.68Zm12.56,7.1c-.11-.62-.49-1.16-.99-1.52-.48-.34-1.09-.5-1.7-.37-.44.1-1.11.52-1.45,1.04-.15.23-.24.46-.25.69-.01.23.05.45.34.75.03,0,.06.01.09.01.08,0,.15-.03.2-.08.13-.12.22-.26.32-.42.05-.09.1-.17.16-.25.2-.23.48-.41.77-.46.27-.05.52.03.72.19.23.18.39.46.45.76.02.12.09.23.18.31.08.09.2.15.31.18.2.07.35.03.53-.06.14-.07.24-.19.29-.33.06-.14.07-.3.04-.45Zm-11.55.29c-.08-.12-.16-.23-.25-.35-.38-.56-.76-1.1-1.37-1.44-.72-.4-1.56-.38-2.28.01-.42.23-1.06.94-1.41,1.79-.26.62-.36,1.32-.13,1.94.03.07.09.14.21.18.06.02.14.03.21.02.08-.01.15-.04.2-.09.06-.06.1-.14.09-.24-.03-.46.13-.9.36-1.27.33-.55.81-.96,1.08-1.09.34-.16.66-.1.93.07.39.25.69.73.86,1.16.11.26.27.41.45.49.22.09.46.08.67-.01.22-.09.4-.28.48-.5.07-.2.05-.43-.11-.66Zm5.85,1.17c-.47-.08-.64.44-.42.6.83.51,2.1,1.7,1.2,2.96-1.06,1.11-2.57-.16-3.32-.74-.69-.45-1.47.71-.83,1.22,5.4,4.03,7.59-3.31,3.36-4.04Zm1.75,8.61c-.17-.17-.39-.28-.62-.28-.2,0-.4.09-.58.29-.39.45-.88.81-1.43,1.01-.37.13-.75.2-1.15.18-.15,0-.31-.03-.46-.06-1.03-.23-1.69-.87-2.37-1.71-.09-.11-.17-.22-.26-.33-.03-.07-.09-.12-.15-.15-.07-.03-.15-.04-.23-.02-.07.02-.14.06-.19.12-.05.06-.08.13-.08.21-.01.74.31,1.44.8,2.01.55.65,1.32,1.14,2.07,1.36.24.07.48.12.73.14.21.03.43.04.65.03.11,0,.22-.01.34-.03.27-.03.53-.08.79-.15.84-.24,1.61-.72,2.2-1.36.18-.19.25-.41.24-.62,0-.24-.12-.47-.29-.64Z"/>
    </g>
  </g>
</svg>