<?xml version="1.0" encoding="UTF-8"?>
<svg id="Layer_2" data-name="Layer 2" xmlns="http://www.w3.org/2000/svg" viewBox="0 0 83.26 108.56">
  <defs>
    <style>
      .cls-1 {
        fill: #010101;
      }

      .cls-1, .cls-2, .cls-3, .cls-4 {
        stroke-width: 0px;
      }

      .cls-1, .cls-3, .cls-4 {
        fill-rule: evenodd;
      }

      .cls-2, .cls-4 {
        fill: #fff;
      }

      .cls-3 {
        fill: #171717;
      }
    </style>
  </defs>
  <g id="Layer_1-2" data-name="Layer 1">
    <g>
      <rect class="cls-2" x="46.42" y="68.89" width="24.32" height="28.76"/>
      <path class="cls-4" d="m76.69,74.35c-1.4-9.88-3.12-18.72-12.64-21.99-.97-.33-2.02-.61-3.16-.82-.24-.04-.48-.08-.73-.13-.03,0-.05,0-.08-.01-.03,0-.06-.01-.08-.01-.13-.29-.21-.73-.29-1.16-.03-.15-.06-.31-.09-.46-.09-.42-.2-.79-.38-1.01-.07-.2-.19-.39-.35-.57-.04-.04-.08-.09-.13-.13-.03-.03-.06-.05-.09-.08-.11-.1-.24-.18-.38-.27-.04-.02-.08-.05-.13-.07-.16-.08-.34-.16-.52-.22-.06-.02-.12-.04-.18-.06,0,0-.02,0-.03,0h0s-.07-.02-.11-.03c-.05-.01-.11-.03-.16-.04-.09-.01-.18-.03-.27-.04-.06,0-.12-.01-.18-.01-.37-.01-.74.04-1.05.18-.59-1.26-.97-2.57-1.48-3.79-.02-.05-.04-.11-.07-.16-.14-.33-.29-.66-.46-.97-.09-.18-.19-.35-.3-.52-.13-.22-.28-.43-.43-.63-.43-.57-.95-1.08-1.62-1.53-2.46-1.62-7.83-1.15-10.88.28-.42.2-.8.42-1.12.65-.13.1-.24.2-.34.31-.04.04-.07.08-.11.11-.65.75-.54,1.48-.65,2.28v.07c-.14.81-.73,1.7-.79,2.74-.47-.27-.92-.6-1.33-.84-.04-.03-.08-.05-.13-.07-.05-.03-.1-.06-.15-.08-.01,0-.02-.01-.04-.02-.05-.03-.1-.05-.14-.07-.15-.06-.29-.1-.42-.09-.03,0-.06,0-.08,0-.02,0-.03,0-.05,0h-.03c-.05,0-.1.01-.15.02-.1.02-.2.05-.29.08-.05.02-.09.04-.14.06-.09.04-.18.09-.27.14-.13.08-.26.18-.38.29-.04.03-.08.07-.12.11-.04.04-.08.08-.12.12-.04.04-.08.08-.12.13-.04.04-.08.08-.11.13-.53.62-1.03,1.39-1.67,2.04-.05.06-.11.11-.17.16-.13.13-.27.25-.42.36-1.16.69-2.58.88-3.95,1.04-.11.01-.21.03-.32.04h0c-.21.03-.42.05-.62.07l-.16.02-.16.02c-5.78.79-10.81,4.29-14.25,8.72C3.72,69.52,3,83.59.94,96.3c-.33,3.71-1.44,8.86,2.28,11.31-.15.04-1.09-.11-.81.17,1.34.39,2.7.62,4.08.72,1.1.08,2.21.07,3.31,0,1.7-.12,3.39-.41,5.04-.83-.02.12-.04.24-.06.35-.02.16-.05.32-.07.48h66.76c2.02-11.61-2.7-22.86-4.78-34.15Zm-23.98,12.89c.02-.07.04-.14.06-.21.01-.03.02-.06.03-.09.02-.06.04-.11.06-.17.48-1.33,1.45-2.67,1.71-4.03.12-.62-.59-1.35-.63-1.97,0-.48.14-1.34,0-1.81-.02-.06-.04-.13-.06-.18-.23-.7-.59-1.32-.84-1.94-.03-.07-.06-.14-.08-.21-.08-.21-.14-.42-.17-.64-.02-.14-.03-.27-.03-.41,0-.2.02-.39.07-.6-.59.22-.97-.39-.46-.55.21-.03.42-.06.63-.08l.14-.02c.26-.39.47-.42.95-.72.22-.14,9.74-1.37,13.42,1.08.13.09.24.27.32.51.03.1.06.2.08.32.03.12.05.24.07.38.01.09.02.18.03.27.01.14.03.29.04.44.03.5.03,1.07.03,1.68,0,.16,0,.32-.01.49,0,.14-.01.27-.01.41,0,.24-.02.48-.03.73-.03.6-.07,1.22-.11,1.84-.02.33-.04.66-.07.98l-.11,1.45c-.49.92-1.44,3.87-2.26,5.04-1.54,2.19-6.14,3.21-8.79,2.23-1.28-.41-3.2-1.02-3.84-2.23-.3-.66-.28-1.32-.11-1.99Z"/>
      <path class="cls-1" d="m76.69,74.35c-1.4-9.88-3.12-18.72-12.64-21.99-.97-.33-2.02-.61-3.16-.82-.24-.04-.48-.08-.73-.13-.03,0-.05,0-.08-.01-.03,0-.06-.01-.08-.01-.13-.29-.21-.73-.29-1.16-.03-.15-.06-.31-.09-.46-.09-.42-.2-.79-.38-1.01-.07-.2-.19-.39-.35-.57-.04-.04-.08-.09-.13-.13-.03-.03-.06-.05-.09-.08-.11-.1-.24-.18-.38-.27-.04-.02-.08-.05-.13-.07-.16-.08-.34-.16-.52-.22-.06-.02-.12-.04-.18-.06,0,0-.01,0-.03,0h0s-.07-.02-.11-.03c-.05-.01-.11-.03-.16-.04-.09-.01-.18-.03-.27-.04-.06,0-.12-.01-.18-.01l.08.24.04.12.05.14v.05s-.12.13-.12.13l-1.62,1.47c-4.03,2.66-6.04,4.19-6.04,4.6,0,.38.1,1.12.29,2.23l.05.26-2.06,1.97c-2.23-2.15-3.34-3.52-3.34-4.13v-4.54c0-.45-.59-.83-1.78-1.15l-6.12-2.91-.99-.59-.06-.03h0s-.02,0-.03,0c-.05,0-.1.01-.15.02-.1.02-.2.05-.29.08-.05.02-.09.04-.14.06-.09.04-.18.09-.27.14-.13.08-.26.18-.38.29-.04.03-.08.07-.12.11-.04.04-.08.08-.12.12-.04.04-.08.08-.12.13-.04.04-.08.08-.11.13-.53.62-1.03,1.39-1.67,2.04-.05.06-.11.11-.17.16-.13.13-.27.25-.42.36-1.16.69-2.58.88-3.95,1.04-.11.01-.21.03-.32.04h0c-.21.03-.42.05-.62.07l-.16.02-.16.02c-5.78.79-10.81,4.29-14.25,8.72C3.72,69.52,3,83.59.94,96.3c-.33,3.71-1.44,8.86,2.28,11.31-.15.04-1.09-.11-.81.17,1.34.39,2.7.62,4.08.72,1.1.08,2.21.07,3.31,0,1.7-.12,3.39-.41,5.04-.83-.02.12-.04.24-.06.35-.02.16-.05.32-.07.48h66.76c2.02-11.61-2.7-22.86-4.78-34.15Zm-44.88,16.61l.85-5.94h1.2l3.16-1.8c2.19-3.29,3.65-5.31,4.39-6.07l.03-.03c.73-.74,2.22-1.61,4.47-2.61l.17-.07c.12-.11.23-.22.34-.32,1.67-1.57,2.78-2.36,3.35-2.36s1.82.49,3.72,1.45l.27.14-.76.98.14-.02c.26-.39.47-.42.95-.72.22-.14,9.74-1.37,13.42,1.08.13.09.24.27.32.51.03.1.06.2.08.32.03.12.05.24.07.38.01.09.02.18.03.27.01.14.03.29.04.44.03.5.03,1.07.03,1.68,0,.16,0,.32-.01.49,0,.14-.01.27-.01.41,0,.24-.02.48-.03.73-.03.6-.07,1.22-.11,1.84-.01.18-.03.36-.04.55l-.14,1.89c-.49.92-1.44,3.87-2.26,5.04-1.54,2.19-6.14,3.21-8.79,2.23-1.28-.41-3.2-1.02-3.84-2.23-.3-.66-.28-1.32-.11-1.99.02-.07.04-.14.06-.21.01-.03.02-.06.03-.09.02-.06.04-.11.06-.17l-2.45.79-4,3.89-.34.34-7.56,1.92-4.64,1.5-2.05-4.24Zm21.22-14.12c-.03-.07-.06-.14-.08-.21-.08-.21-.14-.42-.17-.64-.02-.14-.03-.27-.03-.41,0-.2.02-.39.07-.6-.03.01-.06.02-.09.03v1.67l1.14,2.1c-.23-.7-.59-1.32-.84-1.94Zm0,0c-.03-.07-.06-.14-.08-.21-.08-.21-.14-.42-.17-.64-.02-.14-.03-.27-.03-.41,0-.2.02-.39.07-.6-.03.01-.06.02-.09.03v1.67l1.14,2.1c-.23-.7-.59-1.32-.84-1.94Zm0,0c-.03-.07-.06-.14-.08-.21-.08-.21-.14-.42-.17-.64-.02-.14-.03-.27-.03-.41,0-.2.02-.39.07-.6-.03.01-.06.02-.09.03v1.67l1.14,2.1c-.23-.7-.59-1.32-.84-1.94Zm0,0c-.03-.07-.06-.14-.08-.21-.08-.21-.14-.42-.17-.64-.02-.14-.03-.27-.03-.41,0-.2.02-.39.07-.6-.03.01-.06.02-.09.03v1.67l1.14,2.1c-.23-.7-.59-1.32-.84-1.94Zm0,0c-.03-.07-.06-.14-.08-.21-.08-.21-.14-.42-.17-.64-.02-.14-.03-.27-.03-.41,0-.2.02-.39.07-.6-.03.01-.06.02-.09.03v1.67l1.14,2.1c-.23-.7-.59-1.32-.84-1.94Zm0,0c-.03-.07-.06-.14-.08-.21-.08-.21-.14-.42-.17-.64-.02-.14-.03-.27-.03-.41,0-.2.02-.39.07-.6-.03.01-.06.02-.09.03v1.67l1.14,2.1c-.23-.7-.59-1.32-.84-1.94Zm0,0c-.03-.07-.06-.14-.08-.21-.08-.21-.14-.42-.17-.64-.02-.14-.03-.27-.03-.41,0-.2.02-.39.07-.6-.03.01-.06.02-.09.03v1.67l1.14,2.1c-.23-.7-.59-1.32-.84-1.94Z"/>
      <path class="cls-3" d="m68.05,74.44c-.03-.17-.19-.29-.35-.34-4.17-1.22-8.91-1.7-13.17-.66.04-.18.03-.37-.06-.55-.2-.46-.73-.58-1.17-.72l-.06-.02c-.6-.2-1.2-.39-1.81-.58-1-.31-2.02-.64-2.99-.07-.44.26-.82.64-1.16,1.01-.2.22-.39.45-.59.68-.03.04-.12.18-.21.33l-.06.09-.11.17s0-.01-.02-.01c-.11-.05-.17-.02-.26.06-.03.03-.05.08-.04.13-1.67.45-3.27,1.16-4.55,2.31-1.58,1.41-2.58,3.31-3.75,5.03-.63.93-1.37,1.86-2.22,2.61-.42.37-.89.66-1.38.87-.01-.01-.02-.03-.03-.04-.39-.35-1.02-.52-1.47-.28h-.07c-.17-.24-.5-.39-.85-.2-3.25,1.75-6.59,3.38-10,4.83-1.06.45-2.13.89-3.2,1.32,0-.21-.09-.42-.26-.61-.13-.15-.36-.15-.52-.06,1.19-1.39,1.23-3.26,1.3-5.07v-.48c.13-2.93.36-5.84.34-8.78,0-.12-.21-.15-.22-.03-.39,2.36-.64,4.75-.89,7.13l-.14,1.36c-.18,1.83,0,4.32-1.74,5.55-.16.11-.27.3-.29.49-.59-.14-1.2-.25-1.79-.35l-.35-.06c-.95-.16-1.99-.43-2.95-.36-.07,0-.1.09-.04.13.85.42,1.89.6,2.8.88.99.3,1.99.66,2.99.89.03,0,.07.01.1.01l-.28.11c-1.72.66-3.47,1.26-5.16,1.98-.1.04-.02.17.07.16,1.73-.3,3.45-.8,5.13-1.33l.36-.11c1.77-.56,3.52-1.17,5.24-1.86,3.37-1.33,6.64-2.83,9.83-4.51-.04.24-.07.48-.1.7-.09.57-.18,1.14-.25,1.72-.14,1.13-.31,2.28-.27,3.43.06,1.42.55,3.18,1.73,4.16-.17.24-.08.53.12.71-.41.23-.79.52-1.19.78-.7.46-1.41.91-2.12,1.35-1.45.9-2.92,1.77-4.4,2.62-2.91,1.66-5.9,3.19-8.96,4.57-2.98,1.34-6.22,2.87-9.58,2.82-1.45-.02-3.09-.34-4.17-1.34-1.04-.97-1.27-2.45-1.38-3.77l-.02-.25c-.14-1.81-.15-3.62-.11-5.44.03-1.09.11-2.18.2-3.26l.07-.82c.33.02.67-.16.81-.59.33-.99.36-2.05.48-3.08.12-.96.25-1.93.4-2.89.31-2,.69-3.98,1.15-5.94.91-3.87,2.05-7.69,3.4-11.44,1.3-3.6,2.78-7.16,4.88-10.41.94-1.45,1.97-2.94,3.29-4.1,1.24-1.09,2.74-1.9,4.27-2.57,1.73-.77,3.57-1.27,5.41-1.71l.2-.05c1.84-.44,3.65-.88,5.24-1.91,1.03.86,1.96,1.73,2.83,2.75.88,1.03,1.72,2.08,2.73,3.01,1.01.93,2.14,1.65,3.45,2.13,1.35.49,2.81.64,4.05,1.37.24.14.52-.14.38-.36-.71-1.15-2.07-1.73-3.34-2.16l-.25-.08c-1.26-.43-2.31-1.07-3.25-1.99-.96-.93-1.76-2-2.62-3.01-.67-.8-1.37-1.65-2.19-2.33.32-.33.64-.66.93-1.02.49-.58.86-1.2,1.22-1.86.02-.04.04-.08.04-.13h0c.01-.24-.29-.41-.5-.22-1.06.9-2.16,1.88-3.34,2.63-.35.22-.53.71-.32,1.07-1.65.7-3.52.84-5.29,1.07-1.75.23-3.46.6-5.13,1.14-1.66.55-3.28,1.26-4.71,2.25-1.53,1.06-2.67,2.39-3.75,3.87-2.26,3.07-3.89,6.5-5.28,10l-.13.33c-1.52,3.83-2.78,7.75-3.73,11.74-.54,2.24-1,4.51-1.39,6.78-.2,1.13-.37,2.25-.53,3.38-.16,1.16-.42,2.37-.28,3.53.03.25.15.45.32.58-.32,1.22-.52,2.47-.7,3.7-.25,1.83-.36,3.71-.31,5.56.04,1.5.14,3.06.9,4.41.35.62.83,1.14,1.4,1.55h4.18c1.1.08,2.21.07,3.31,0h3.79c.4-.15.8-.31,1.19-.48h0s.29-.12.29-.12l.22-.1c-.08.23-.15.46-.21.69h.95c-.02-.32-.06-.64-.12-.96,3.01-1.3,5.97-2.73,8.86-4.25,1.8-.94,3.58-1.93,5.31-2.98.85-.51,1.7-1.04,2.54-1.57l.06-.04c.85-.54,1.8-1.02,2.36-1.86.2-.3.1-.62-.12-.82.16-.13.26-.33.29-.55,1.28-.73,2.75-1.1,4.2-1.4l.13-.03c1.92-.4,3.87-.7,5.69-1.45.41-.17.8-.36,1.17-.58.44-.25.85-.54,1.24-.87.79-.67,1.38-1.53,2.14-2.23.36-.33.75-.62,1.22-.79.11-.04.22-.08.34-.11.25.87.55,1.75,1.12,2.48.67.84,1.61,1.3,2.69,1.47,1.21.18,2.46.19,3.68.25,1.26.06,2.62.26,3.85-.07,2.04-.55,3.38-2.71,4.22-4.46l.05-.11c.89-1.89,1.37-3.91,1.56-5.97.22-2.39,0-4.8-.48-7.15Zm-50.89,16.5l.02-.02s.02-.02.03-.04l.04.03-.08.03Zm46.2-.67c-.88.68-1.91.67-2.98.62l-.7-.04c-.93-.05-1.86-.1-2.8-.15h-.05c-1.02-.05-2.22-.04-2.99-.78-.6-.57-.86-1.4-1.07-2.18l-.04-.17c.81-.34,1.44-.89,1.6-1.79.11-.62.12-1.1.46-1.65.31-.51.7-1.03.72-1.65.03-.55-.22-1.13-.63-1.49.49-.85.55-1.87.06-2.78-.35-.66-.94-1.12-1.61-1.38.32-.7.27-1.6-.18-2.26.58-.02,1.18-.48,1.35-1.02,2.15-.06,4.29-.1,6.43.12,2.1.21,4.18.65,6.19,1.27.6,3.56.58,7.32-.72,10.74-.62,1.63-1.6,3.47-3.03,4.59Zm-15.17-1.58l-.1.1c-.53.59-1.04,1.19-1.68,1.66-.08.06-.16.12-.25.17-.71.47-1.5.82-2.31,1.08-1.7.55-3.48.82-5.21,1.23-1.44.34-2.85.78-4.11,1.52-.51-.36-.93-.74-1.25-1.31-.43-.78-.56-1.69-.6-2.56-.04-.98.01-1.97.01-2.96,0-.47,0-.94-.02-1.41,0-.17,0-.34,0-.51.37.04.79-.03,1.07-.08h.07c.14-.04.25-.13.31-.25.96-.21,1.89-.68,2.68-1.2,1.56-1.02,2.52-2.78,3.51-4.27l.05-.07c1.02-1.52,2.17-2.89,3.86-3.74.68-.34,1.42-.62,2.19-.84,1.08-.3,2.2-.49,3.27-.56.73-.04,2.01-.06,2.36.73.05.11.08.29.08.48,0,.33-.11.67-.43.69h0c-.06.01-.12.01-.18.02-.21.03-.35.14-.43.28-.34.03-.67.08-.94.11l-.17.02c-.81.11-1.72.27-2.36.77-.13.11,0,.28.13.29.83.09,1.72-.12,2.56-.13.42,0,.84.02,1.26.06.42.03.76.13,1.15-.03,1.05.39,1.46,1.82.7,2.72-.3.01-.61.08-.9.12-.44.06-.88.1-1.31.17-.78.11-1.66.21-2.39.51-.08.03-.06.17.03.18.59.12,1.25.11,1.88.08l.59-.03c.59-.03,1.26,0,1.89-.07.15.23.42.38.74.28.02,0,.03-.01.04-.02.04.03.08.07.1.12l.02.04c.06.11.09.26.07.39-.05.42-.45.84-.66,1.2-.15.26-.26.52-.33.78-.41-.09-.85,0-1.27.04h-.11c-.46.07-.91.11-1.37.22-.07.02-.07.12,0,.14.38.1.76.14,1.15.19l.21.03c.41.04.85.14,1.26.08-.03.38-.06.74-.4.99-.64.48-1.62.54-2.35.85-.85.36-1.52,1-2.12,1.67Zm1.22-16.32c.44-.07.88.13,1.29.27.44.15.88.29,1.33.43h0c.07.03.48.18.82.29l.16.06-.07.07s-.03.02-.04.03c-.13.13-.25.25-.36.4,0,0,0,.01-.01.01-1.29-.94-3.32-.63-4.86-.35l-.3.06c.6-.47,1.27-1.17,2.02-1.29Zm-4.21,11.93c-.07-.27-.06-.55-.08-.83-.06-.68-.29-1.12-.68-1.67-.38-.53-.3-1.07-.46-1.66-.11-.41-.41-.75-.85-.8h-.02c-.14,0-.21.17-.15.28.29.51-.23,1.18-.19,1.75.02.3.08.58.2.85.13.28.34.5.46.78.21.49.01,1.12.16,1.65.18.61.7,1.09,1.38.88.21-.06.31-.22.33-.42.03-.22-.01-.42-.07-.62l-.04-.19Zm11.49-37.49l-.04-.03c-1-.79-1.47-2.04-1.14-3.26v-.02s.02-.06.02-.1c.06-.67-1.05-.92-1.24-.2-.03.1-.05.2-.07.29-.01.06-.02.11-.03.16-.23,1.5.35,3.06,1.6,4.02.36.28.81.11,1.01-.16.05-.07.08-.15.1-.23.03-.16-.03-.33-.21-.47Zm3.45,1.81c-.52-.39-1.03-.78-1.55-1.18-.46-.36-.89-.77-1.39-1.09-.08-.05-.21.04-.18.13.1.3.25.6.41.89h0c.5.84,1.22,1.6,1.9,2.23.09.08.19.14.28.16.6.18,1.16-.66.51-1.15Zm-.42,1.61c-.35-.08-.78.07-.93.45-.21.54-.26,1.12-.51,1.65-.25.52-.53,1.03-.85,1.52-.62.96-1.29,1.96-2.03,2.85-.7.85-1.83,1.21-2.92.88-.73-.22-1.59-1.13-2.35-.54-.06.04,0,.13.07.11.66-.21,1.22.64,1.73.92.43.24.93.36,1.43.39,1.17.08,2.19-.42,2.97-1.23.86-.9,1.66-1.86,2.34-2.89.36-.54.66-1.09.92-1.68l.03-.06c.17-.39.36-.78.47-1.19.05-.18.08-.36.09-.55.02-.35-.19-.56-.46-.63Zm-2.8-2.66s-.05.04-.07.06c-1.45,1.23-3.05,2.33-4.7,3.3-.81.48-1.69.86-2.48,1.37-.67.44-1.33,1.02-1.46,1.82-.07.43.04.84.26,1.22.23.4.46.53.14.94-.45.57-.87,1.07-1.19,1.69-.34-.55-.87-1.05-1.34-1.45l-.11-.1c-.52-.45-1.11-.92-1.4-1.56-.27-.6-.19-1.23-.08-1.85l.04-.19c.22-1.21.67-3.07-.51-3.97-.56-.42-1.37-.5-2.03-.71-.73-.23-1.45-.49-2.16-.78-.55-.23-1.09-.49-1.62-.75,0-.01.01-.02.02-.03.85-1.48,1.25-3.15,1.11-4.84-.03-.31-.24-.49-.48-.56-.38-.1-.83.08-.79.56.12,1.48-.19,2.93-.94,4.23l-.03.07c-.34-.2-.67-.41-1.01-.6-.04-.03-.08-.05-.13-.07-.05-.03-.1-.06-.15-.08-.01,0-.02-.01-.04-.02-.05-.03-.1-.05-.14-.07-.13-.07-.25-.12-.38-.17-.06-.03-.12.03-.12.08,0,.01,0,.02,0,.03,0,0,0,.01,0,.02.39.57.99,1.03,1.57,1.45l.37.27c.73.53,1.5.98,2.31,1.38.84.43,1.73.78,2.63,1.09.35.12.96.19,1.23.45.23.24.22.7.2,1.05v.2c-.14,1.65-.81,3.33.27,4.84.49.7,1.17,1.2,1.8,1.78.6.55.92,1.15,1.25,1.85l.12.25s.01.02.01.03c-.17,1.45.15,2.95.62,4.33.37,1.08.81,2.13,1.2,3.2.18.51.31,1.04.46,1.56.17.61.38,1.21.71,1.75.18.28.61.21.71-.09.2-.56.17-1.11.06-1.66-.06-.31-.15-.63-.25-.94l-.08-.26c-.3-.94-.67-1.86-1.01-2.78l-.03-.07c-.64-1.71-1.25-3.61-.81-5.43.2-.85.63-1.47,1.19-2.13l.03-.03c.56-.68.79-1.43.32-2.24-.15-.25-.43-.48-.3-.79.13-.31.49-.55.78-.72l.21-.13c.71-.44,1.43-.85,2.1-1.36,1.57-1.16,2.86-2.52,3.96-4.08.04-.06.08-.11.12-.17.04-.05.07-.09.1-.14.03-.05-.04-.09-.08-.06Zm-21.4,25.87c-.46-.17-.98.03-1.44.12-.47.1-.95.18-1.43.27-1.05.19-2.11.36-3.17.52-1.06.16-2.13.29-3.19.42-1,.12-2.07.19-3.03.48-.11.03-.13.21,0,.23.88.13,1.82.08,2.73.01l.41-.03c1.07-.08,2.14-.2,3.2-.32,1.03-.13,2.07-.27,3.09-.43.55-.09,1.09-.18,1.64-.28h.04c.46-.08.96-.1,1.3-.43.2-.19.08-.46-.15-.55Zm9.73,11.06l-.04-.19c-.07-.27-.06-.55-.08-.83-.06-.68-.29-1.12-.68-1.67-.38-.53-.3-1.07-.46-1.66-.11-.41-.41-.75-.85-.8h-.02c-.14,0-.21.17-.15.28.29.51-.23,1.18-.19,1.75.02.3.08.58.2.85.13.28.34.5.46.78.21.49.01,1.12.16,1.65.18.61.7,1.09,1.38.88.21-.06.31-.22.33-.42.03-.22-.01-.42-.07-.62Zm0,0l-.04-.19c-.07-.27-.06-.55-.08-.83-.06-.68-.29-1.12-.68-1.67-.38-.53-.3-1.07-.46-1.66-.11-.41-.41-.75-.85-.8h-.02c-.14,0-.21.17-.15.28.29.51-.23,1.18-.19,1.75.02.3.08.58.2.85.13.28.34.5.46.78.21.49.01,1.12.16,1.65.18.61.7,1.09,1.38.88.21-.06.31-.22.33-.42.03-.22-.01-.42-.07-.62Zm-36.05,7.71c-.78-.05-1.44.71-1.96,1.2l-.17.16c-.58.55-1.12,1.12-1.62,1.73-.5.62-1.08,1.29-1.4,2.01-.17.38-.2.75.25.89.05.01.1-.05.07-.09h0c-.11-.25.93-1.15,1.08-1.31l.15-.16c.41-.42.83-.84,1.26-1.23.49-.45.98-.89,1.51-1.31.48-.38,1.14-.7,1.28-1.33.06-.29-.13-.54-.44-.56Zm42.18,5.45c-.01-.69-.04-1.38-.07-2.07-.04-.67-.1-1.34-.16-2v-.06c-.06-.55-.08-1.16-.36-1.65-.07-.13-.3-.14-.36,0-.23.49-.23,1.07-.26,1.6l-.04.63c-.02.42-.04.85-.07,1.27-.04.75-.07,1.51-.11,2.27-.03.55-.06,1.09-.09,1.64-.06.95-.13,1.9-.21,2.85l-.08.95c-.1,1.22-.29,2.63.09,3.82.12.36.67.47.88.11.56-.99.67-2.25.74-3.38l.02-.35c.07-1.3.1-2.6.11-3.9,0-.58,0-1.16-.02-1.74Zm31.18-.7l-.04-.31c-.64-4.31-1.51-8.57-2.44-12.83l-.18-.85c-.99-4.57-1.9-9.17-2.88-13.74-.89-4.12-2.01-8.24-4.73-11.63-1.4-1.74-3.15-3.16-5.22-4.11-.98-.45-1.98-.81-3-1.12-1.04-.31-2.09-.57-3.16-.82-.1-.03-.21-.05-.32-.07l-.31-.07s-.08,0-.1.02c-.08.04-.08.18.04.22,3.77,1.49,7.62,3.03,10.32,6.09,2.65,3.01,3.96,6.99,4.84,10.78l.06.23c.9,3.94,1.71,7.91,2.49,11.88l.52,2.65c.35,1.77.7,3.54,1.04,5.31l.06.33c.41,2.08.87,4.16,1.17,6.26.37,2.5.62,5.01.73,7.52.09,1.94.04,3.87-.07,5.81h1.74c.35-3.83-.01-7.74-.57-11.54Zm-11.39-12.5c.35-2.31.89-4.58,1.47-6.84.02-.09-.1-.13-.14-.06-.74,1.08-1.31,2.25-1.74,3.47-.99,2.75-1.31,5.76-1.54,8.61l-.02.31c-.19,2.57-.27,5.14-.26,7.71,0,1.79.05,3.58.13,5.37l.03.72c.05,1.04.1,2.09.22,3.12.06.56.15,1.09.31,1.62h1.16c.06-.34.12-.67.13-1.02.04-1.14-.04-2.29-.08-3.44-.07-2.13-.11-4.26-.14-6.39,0-.13,0-.27,0-.4v-.22c-.04-2.8-.1-5.6.05-8.4.08-1.4.2-2.8.42-4.19Zm-25.91.03l-.04-.19c-.07-.27-.06-.55-.08-.83-.06-.68-.29-1.12-.68-1.67-.38-.53-.3-1.07-.46-1.66-.11-.41-.41-.75-.85-.8h-.02c-.14,0-.21.17-.15.28.29.51-.23,1.18-.19,1.75.02.3.08.58.2.85.13.28.34.5.46.78.21.49.01,1.12.16,1.65.18.61.7,1.09,1.38.88.21-.06.31-.22.33-.42.03-.22-.01-.42-.07-.62Zm0,0l-.04-.19c-.07-.27-.06-.55-.08-.83-.06-.68-.29-1.12-.68-1.67-.38-.53-.3-1.07-.46-1.66-.11-.41-.41-.75-.85-.8h-.02c-.14,0-.21.17-.15.28.29.51-.23,1.18-.19,1.75.02.3.08.58.2.85.13.28.34.5.46.78.21.49.01,1.12.16,1.65.18.61.7,1.09,1.38.88.21-.06.31-.22.33-.42.03-.22-.01-.42-.07-.62Zm0,0l-.04-.19c-.07-.27-.06-.55-.08-.83-.06-.68-.29-1.12-.68-1.67-.38-.53-.3-1.07-.46-1.66-.11-.41-.41-.75-.85-.8h-.02c-.14,0-.21.17-.15.28.29.51-.23,1.18-.19,1.75.02.3.08.58.2.85.13.28.34.5.46.78.21.49.01,1.12.16,1.65.18.61.7,1.09,1.38.88.21-.06.31-.22.33-.42.03-.22-.01-.42-.07-.62Zm0,0l-.04-.19c-.07-.27-.06-.55-.08-.83-.06-.68-.29-1.12-.68-1.67-.38-.53-.3-1.07-.46-1.66-.11-.41-.41-.75-.85-.8h-.02c-.14,0-.21.17-.15.28.29.51-.23,1.18-.19,1.75.02.3.08.58.2.85.13.28.34.5.46.78.21.49.01,1.12.16,1.65.18.61.7,1.09,1.38.88.21-.06.31-.22.33-.42.03-.22-.01-.42-.07-.62Z"/>
      <path class="cls-4" d="m46.38,1.28c5.86,0,11.92,4.25,14.06,6.97,2.48,3.14,4.44,18.2,3.52,23.31-.92,5.11-5.48,10.68-13.41,10.68s-12.74-.91-12.94-2.24c-.19-1.33-5.23-8.72-5.23-8.72,0,0-5.15-1.36-5.17-4.59-.02-3.24,2.76-4.42,2.76-4.42,0,0-.99-12.78,1.5-16.11,2.49-3.33,9.03-4.88,14.89-4.88Z"/>
      <path class="cls-1" d="m33.31,28.24s0-.03-.01-.04c-.02.15-.03.3-.05.45.08-.11.11-.25.06-.41Zm31.48,1.5l-.06-.91c-.3-4.54-.88-9.07-1.79-13.55-.25-1.25-.51-2.5-.84-3.73-.17-.63-.36-1.25-.59-1.87l-.03-.07c-.09-.25-.17-.5-.29-.74-.14-.27-.33-.53-.49-.8-.03-.04-.14-.21-.15-.21l-.12-.15C56.57,2.83,49.98.04,43.5,0h-.1c-3.45,0-7.08.76-9.79,2.84-2.54,1.95-4.13,4.79-5.06,7.7-.62,1.97-1.02,4-1.19,6.04-.09,1.12-.11,2.24-.07,3.35.04,1.08.13,2.28.59,3.28,0,.02.03.04.06.06-.07.06-.14.12-.21.18-.67.62-.95,1.45-1.03,2.31-.16,1.64.42,3.39,1.67,4.58.99.94,2.52,1.65,3.93,1.33.21.48.49.94.78,1.39l.3.47c.44.68.91,1.35,1.38,2.01l.28.39c.5.69.99,1.37,1.4,2.11.41.75.65,1.57,1.08,2.32.08.14.25.17.38.11h0c.07-.03.14-.1.17-.17.24-.64.16-1.31-.08-1.97-.36-.98-1.09-1.92-1.66-2.68l-.27-.36c-.56-.75-1.13-1.49-1.73-2.21-.33-.4-.67-.83-1.05-1.22-.13-.14-.26-.27-.4-.4.2-.15.11-.53-.15-.58l-.13-.02c-1.17-.23-2.33-.46-3.24-1.25-.98-.87-1.46-2.13-1.46-3.37,0-.65.1-1.36.57-1.86.42-.45,1.09-.81,1.69-1.02,1.13-.4,2.57-.21,3.49.56.04.03.08.07.12.1.01.01.03.02.05.02,0,0,.01,0,.02,0h0c.05.19.22.29.41.3.7.05,1.39.1,2.09.15.16.01.35-.1.42-.23.31-.56.11-1.34.08-1.95-.04-.7-.18-4.71-.47-5.94h0c.33.1.57-.03.82-.2l.62-.42.47-.32c.46-.31,1.39-.72,1.57-1.27.08-.25-.06-.49-.17-.71h0c-.21-.47-1.02-3.35-1.38-3.46-1.25-.41-2.51-.79-3.76-1.19-.61-.2-1.22-.39-1.82-.63-.46-.18-.91-.41-1.38-.59,1.43.35,2.87.59,4.34.75h.03c.8.09,3.77.43,4.04.46l.25.03c3.35.29,6.77.17,10.13.18h5.13s1.28.01,1.28.01c.43,0,.85,0,1.28,0,.41,0,.82,0,1.23,0,.39,0,.78.06,1.13-.12.09-.05.11-.15.08-.24.01-.01.03-.03.04-.04,0,.33,0,.66.05.99.09.56.17,1.11.29,1.66.23,1.07.48,2.13.71,3.19.46,2.16.85,4.34,1.16,6.53.31,2.18.53,4.38.67,6.57v.18c.14,2.06.35,4.2-.4,6.17-.22.59-.51,1.15-.85,1.69-.25.4-.53.78-.83,1.14-.23.28-.48.53-.73.78l-.34.34c-.22.22-.41.45-.6.69-.98.63-1.89,1.33-2.98,1.8-1.11.49-2.29.83-3.5,1.03-.2.03-.39.06-.59.08-3.02.38-6.14.07-8.92-1.14-.1-.04-.26.06-.17.16.59.75,1.44,1.28,2.37,1.64l.06.02s.03.01.05.02c.38.14.77.25,1.15.33.18.04.36.08.55.11,1.62.26,3.28.31,4.92.12.44-.05.88-.11,1.32-.2,1.15-.21,2.27-.53,3.33-1,.89-.4,1.79-.9,2.5-1.56.43-.15.88-.31,1.27-.56.06-.03.11-.07.16-.11.42-.29.76-.65,1.09-1.02.69-.78,1.3-1.63,1.77-2.55.51-1,.85-2.03.98-3.13.11-.94.07-1.89.01-2.84Z"/>
      <path class="cls-1" d="m61.93,35.58c-.08-1.08-.36-2.13-.42-2.26-.18-.46-.4-.91-.66-1.33-.86-1.39-2.19-2.49-3.76-3.13-.7-.28-1.43-.47-2.18-.57-.47-.07-.94-.11-1.42-.11-.3,0-.6,0-.89.02-.72.04-1.44.15-2.15.32-1.83.43-3.56,1.25-4.91,2.36-1.03.84-2.07,2.07-2.38,3.39-.1.02-.18.07-.26.13-2.17-1.28-4.41-2.52-6.17-4.29-1.27-1.29-2.16-2.82-2.7-4.5-.04-.14-.28-.12-.28.03,0,.04,0,.07,0,.11-.02-.07-.13-.03-.14.03-.11.8-.24,1.61-.33,2.43-.02.15-.03.3-.05.45-.1,1.08-.13,2.15.03,3.21,0,.06.02.11.03.17.06.38.16.73.29,1.05,0,0,0,0,0,.01.29.73.74,1.36,1.29,2.02.04.04.07.09.11.13h0s0,.01.01.02c.82.98,1.73,1.9,2.67,2.78.1.09.2.19.3.28.53.51,1.1,1.05,1.74,1.41.23.13.48.25.72.37.69.33,1.43.61,2.13.9.96.39,1.94.75,2.94,1.07.03.01.06.02.09.03h0s0,0,0,0c.03,0,.05.02.08.02.02,0,.03.01.05.02.38.12.77.23,1.15.33,1.56.42,3.16.71,4.78.86.79.07,1.63.14,2.46.14h.09c.44,0,.88-.03,1.31-.09.46-.07.92-.17,1.35-.33,1.23-.45,2.23-1.27,3.02-2.26.39-.48.73-.99,1.03-1.52.38-.66.68-1.35.89-2.07.07-.23.1-.49.12-.76.02-.28.01-.58-.01-.87Zm-16.62-.88c.84-1.83,2.66-3.18,4.76-3.67,1.54-.36,3.16-.35,4.73-.21.82.07,1.71.14,2.48.42.66.24,1.2.71,1.61,1.25.48.64.81,1.38,1.04,2.13.03.11.06.22.09.32-.1.57-.31,1.05-.88,1.41-.55.35-1.2.49-1.86.54-.06-.03-.13-.06-.18-.09-1.02-.55-1.73-1.84-3.02-1.66-1.15.15-1.9,1.51-2.59,2.3-2.19.24-4.38-.38-6.16-1.55-.09-.4-.1-.81-.03-1.21Z"/>
      <path class="cls-1" d="m59.79,18.94c-.74-1.5-2.82-2.15-4.43-2.49l-.15-.03c-.17-.03-.35-.02-.5.03-.15.06-.28.15-.38.3-.13.19-.14.35-.09.57.04.16.13.29.26.38.13.1.3.15.47.18.8.1,1.59.28,2.36.52.36.12.7.27,1.03.43l.29.14c.27.13.54.25.89.34.03,0,.06.01.08.02.1-.03.11-.06.14-.09h0s.06-.08.03-.29Zm-12.49-1.96c-.42-.46-1.16-.38-1.76-.29l-.2.03c-.63.09-1.25.31-1.82.57-1.07.49-2.14,1.3-2.71,2.29-.06.11.07.26.19.18.96-.58,1.87-1.11,2.98-1.39.51-.13,1.01-.2,1.54-.22.64-.02,1.22.14,1.76-.25.31-.22.24-.67.01-.91Zm9.91,3.49c-.39-.11-.72.07-.95.35-.03.03-.05.07-.07.1-.72.6-.47,1.84.08,2.46.34.39,1.09.29,1.33-.14.45-.79.83-2.41-.39-2.77Zm-11.47.4c-.14-.99-1.78-.79-1.88.21-.06.62-.21,1.04-.12,1.97.06.7,1.08,1.07,1.5.31.44-.79.63-1.6.49-2.49Zm7.52,3.91c-.44-.08-.61.38-.41.52.77.46,1.94,1.51,1.09,2.59-.14.14-.29.23-.45.29-.29.11-.59.1-.89.02-.68-.18-1.34-.7-1.75-1-.64-.4-1.39.59-.79,1.06.13.1.26.18.39.26,2.18,1.38,3.77.83,4.47-.23.81-1.23.42-3.15-1.65-3.51Zm1.85,7.38c-.05-.07-.13-.12-.21-.15-.09-.03-.18-.03-.27,0-.08.02-.15.07-.2.14-.08.07-.16.15-.24.22-.63.57-1.22,1-2.07,1.08-.45.04-.88-.05-1.26-.23-.4-.18-.74-.47-1.01-.81l-.03-.04c-.15-.21-.34-.31-.53-.34-.22-.04-.46.03-.64.15-.19.13-.32.32-.36.53-.04.19,0,.4.15.6.44.57,1.05,1.02,1.74,1.3.67.27,1.42.37,2.15.25.67-.1,1.38-.42,1.92-.88.49-.42.83-.95.9-1.56.01-.09-.01-.17-.06-.24Z"/>
    </g>
  </g>
</svg>