<?xml version="1.0" encoding="UTF-8"?>
<svg id="Layer_2" data-name="Layer 2" xmlns="http://www.w3.org/2000/svg" viewBox="0 0 91.27 115.12">
  <defs>
    <style>
      .cls-1 {
        fill: #181818;
      }

      .cls-1, .cls-2, .cls-3 {
        fill-rule: evenodd;
        stroke-width: 0px;
      }

      .cls-2 {
        fill: #010101;
      }

      .cls-3 {
        fill: #fff;
      }
    </style>
  </defs>
  <g id="Layer_1-2" data-name="Layer 1">
    <path class="cls-3" d="m85,110.07c-.22.22-.49.55-.77.92-.21.26-.43.54-.66.81-.03.04-.06.08-.1.12-.07.08-.13.15-.2.22-.4.44-.83.79-1.24.9-.05.02-.1.03-.15.03-.24.19-.57.42-.88.62-.09.07-.18.12-.25.18h0l.41.5c.02.21.04.42.08.63,0,.04.02.09.03.13H9.85c-3.96-1.39-6.49-4.56-7.87-8.78-2-6.07-1.6-14.31.37-22.52,3.23-13.58,10.74-27.05,18.75-30.43.62-.27,1.25-.47,1.88-.61.7-.11,1.45-.18,2.22-.2.2,0,.4-.01.6-.01.14-.04.28-.08.43-.11,0,0,.01,0,.02,0,.01,0,.02,0,.03,0,.09-.02.19-.04.28-.06.42-.09.84-.15,1.27-.22.16-.03.31-.05.47-.08.14-.02.28-.04.42-.07.14-.02.28-.05.42-.08h0c.16-.04.32-.07.48-.11,0-.03.02-.06.03-.09,0-.01,0-.02.01-.03.01-.04.02-.07.03-.11.02-.06.03-.1.05-.14.01-.02.02-.04.04-.06,0-.01.02-.03.03-.04,0,0,0,0,.01,0,0,0,0-.01.01-.01.02-.02.04-.03.07-.04.07-.03.16-.04.29-.02.04,0,.08.01.13.02.11-.1.22-.19.34-.29.42-.34.89-.66,1.38-.92.02-.01.04-.02.06-.03,1.11-.58,2.33-.91,3.32-.57.5.17.96.51,1.3,1.06.15.23.28.5.39.8.11-.15.22-.3.33-.45.06-.08.11-.16.17-.24.05-.08.1-.15.15-.23h0c.04-.07.08-.13.13-.19h0c.27-.43.51-.86.74-1.3.14-.28.28-.57.4-.85.07-.14.13-.29.19-.44.38-.9.69-1.83.96-2.77.03-.12.07-.23.1-.35l.11.02c.13-.29.3-.62.49-.89,0,0,0-.01.01-.01.22-.34.5-.61.81-.68.11-.03.24-.07.38-.09.06,0,.11-.02.18-.03.25-.03.51-.06.79-.08.1,0,.21-.01.31-.02.21-.01.42-.02.62-.03.3-.01.58-.02.83-.04.07,0,.14-.01.2-.02.07,0,.13-.01.19-.02.32-.02.66-.04,1-.07.06,0,.12-.01.19-.02.62-.05,1.25-.1,1.88-.13.15,0,.3-.02.44-.02.61-.02,1.22-.01,1.81.04.39.03.78.09,1.15.17.14.03.27.07.39.1.19.06.37.12.54.19.1.04.2.08.29.13.1.05.2.1.3.16.02.01.05.03.07.04.09.06.18.12.26.18,0,0,0,0,0,0,.09.07.19.14.27.22.09.08.17.16.25.25.08.08.15.17.22.26.06.08.12.15.18.24.03.04.05.08.08.13.1.15.19.31.27.48.08.16.15.32.22.49.02.06.05.12.08.19.01.03.02.07.03.1.05.13.09.25.14.38.03.1.07.19.1.29.01.03.02.07.03.1.02.07.04.14.07.21h0c.06.2.11.39.18.59h0c.16.56.33,1.12.54,1.69.13.34.26.68.43,1.01.05.11.1.23.17.34.05.11.11.22.19.33.07.13.15.25.24.37.05.09.12.19.19.28.07.1.15.21.24.31.07.08.14.17.21.25.06.07.13.14.2.21l.16.17c.1.1.21.2.32.3.07-.03.14-.05.21-.08.19-.06.39-.12.6-.16.09-.02.18-.04.28-.06.11-.02.24-.04.36-.06.08-.01.17-.02.25-.03.09-.02.18-.02.26-.03.11,0,.22-.01.33-.02.13,0,.27-.01.4-.01.72,0,1.45.07,2.13.22.62.13,1.2.31,1.7.55.61.45.73.93.68,1.41,0,.06-.02.11-.03.17-.01.06-.02.12-.04.18-.03.14-.08.29-.12.44-.04.16-.09.31-.13.47.31-.03.62-.04.92-.05.37-.01.74-.01,1.1,0,.14,0,.28.01.42.02.21.02.43.04.63.06.13.01.26.03.38.05.13.02.26.04.38.06.11.02.23.04.34.07.9.19,1.74.46,2.52.8.02,0,.04.01.05.02.1.04.2.09.3.14.73.35,1.42.78,2.05,1.25.18.13.35.27.52.41.91.76,1.73,1.64,2.46,2.6.18.23.35.47.52.71.03.04.05.08.09.12.08.12.16.25.25.37.14.21.27.41.39.62.08.13.15.25.23.39s.15.26.22.39c.08.13.15.26.22.39.07.14.14.27.21.4.07.14.14.27.21.41.83,1.65,1.52,3.4,2.13,5.15.09.27.19.54.27.8.09.29.19.57.28.86.09.29.19.57.27.86.11.36.22.71.32,1.06.04.14.09.29.13.44.19.62.36,1.23.54,1.82.11.38.22.76.33,1.12,1.06,2.97,2.1,4.98,3.89,7.27,2.33,2.68,3.64,6.19,1.25,9.01,3.4,6.23-.3,12.09-4.21,16.8Z"/>
    <path class="cls-2" d="m58.69,52.55c-.08.02-.15.04-.22.07-.11-.1-.22-.2-.32-.3l-.16-.17c-.07-.07-.14-.14-.2-.21-.07-.08-.14-.17-.21-.25-.09-.1-.16-.2-.24-.31-.07-.09-.13-.18-.19-.28-.08-.12-.16-.25-.24-.37-.07-.11-.13-.22-.19-.33-.06-.11-.11-.23-.17-.34-.16-.34-.3-.68-.43-1.01-.21-.57-.37-1.14-.54-1.69h0c-.06-.2-.11-.4-.18-.59h0c-.02-.08-.04-.15-.07-.22-.01-.03-.02-.07-.03-.1-.03-.1-.06-.2-.09-.29-.04-.13-.09-.25-.14-.38-.01-.03-.02-.07-.04-.1-.02-.06-.05-.13-.07-.19-.07-.17-.14-.33-.22-.49-.08-.17-.17-.33-.27-.48-.02-.04-.05-.09-.08-.13-.05-.08-.11-.16-.18-.24-.07-.09-.14-.18-.22-.26-.08-.09-.16-.17-.25-.25-.09-.08-.18-.15-.27-.22,0,0,0,0,0,0-.08-.06-.17-.12-.26-.18-.02-.02-.05-.03-.07-.04-.09-.06-.19-.11-.3-.16-.09-.05-.19-.09-.29-.13-.16-.07-.34-.13-.54-.19-.13-.04-.26-.07-.39-.1-.37-.08-.76-.13-1.15-.17-.59-.05-1.2-.06-1.81-.04-.14,0-.29.01-.44.02-.63.03-1.26.08-1.88.13-.07,0-.13.01-.19.02-.34.03-.67.05-1,.07-.06,0-.12.01-.19.02-.07,0-.13.01-.2.02-.25.02-.54.03-.83.04-.2,0-.41.02-.62.03-.1,0-.21.01-.31.02-.27.02-.54.04-.79.08-.06.01-.11.02-.18.03-.14.03-.26.06-.38.09-.31.07-.59.34-.81.68-.01,0-.01,0-.01.01-.2.28-.36.61-.49.89l-.11-.02c-.03.12-.07.23-.1.35-.27.94-.58,1.86-.96,2.77-.05.15-.12.29-.19.44-.13.29-.26.57-.4.85l-.5,1.44-.35,1.03.03.02h.01c.19.14.38.27.56.4.18.12.35.23.53.34,3.4,2.17,6.88,3.12,10.43,2.88,3.89-.26,7.17-.57,9.83-.93l.13-.02v-1.71c-.21.05-.4.1-.59.17Zm-40.42,52.02s.01.01.02.02c.02.02.03.03.05.04-.03-.02-.05-.04-.07-.07Zm.07.07l.02.02s.01,0,.02,0c-.01,0-.02-.01-.03-.02Zm13.75-13.15c-1.76-.97-3.82-1.14-6.18-.49h0s-.02,0-.02,0l-1.82.2c-3.29,1.19-5.59,2.38-6.9,3.55-.97.88-1.82,2.59-2.34,4.1-.26.75-.44,1.44-.5,1.95-.04.25-.04.45-.03.57.01.06.02.09.03.11.08,0,.21-.04.42-.13.21-.08.49-.21.82-.39.58-.3,1.33-.75,2.27-1.33l.41-.25.44-.28.12-.07.11-.08-.02.28-.17,1.96v.02c-.3,1.17-.45,2.03-.46,2.6,0,.29.03.49.08.6.03.06.05.09.08.11.03.02.06.03.1.03.11,0,.26-.03.47-.12.2-.08.45-.21.73-.38.54-.33,1.21-.79,2.02-1.42l.16-.13.24-.18.07-.06.07-.06.03.09.03.08.03.07c.29.7.65,1.22,1.07,1.57.44.36.95.53,1.55.53.27,0,.63-.14,1.09-.46.46-.31,1-.8,1.62-1.44,1.24-1.29,2.79-3.24,4.66-5.83v-.02s.03-.02.03-.02h.02s.02-.02.02-.02l5.22-1.56c-1.99-1.52-3.85-2.76-5.58-3.71Zm40.57,2.3l-3.94-2.31-.43-.06v.03s.01,0,.01,0l1.59,6.61,3.85-.18-1.08-4.11Zm-40.57-2.3c-1.76-.97-3.82-1.14-6.18-.49h0s-.02,0-.02,0l-1.82.2c-3.29,1.19-5.59,2.38-6.9,3.55-.97.88-1.82,2.59-2.34,4.1-.26.75-.44,1.44-.5,1.95-.04.25-.04.45-.03.57.01.06.02.09.03.11.08,0,.21-.04.42-.13.21-.08.49-.21.82-.39.58-.3,1.33-.75,2.27-1.33l.41-.25.44-.28.12-.07.11-.08-.02.28-.17,1.96v.02c-.3,1.17-.45,2.03-.46,2.6,0,.29.03.49.08.6.03.06.05.09.08.11.03.02.06.03.1.03.11,0,.26-.03.47-.12.2-.08.45-.21.73-.38.54-.33,1.21-.79,2.02-1.42l.16-.13.24-.18.07-.06.07-.06.03.09.03.08.03.07c.29.7.65,1.22,1.07,1.57.44.36.95.53,1.55.53.27,0,.63-.14,1.09-.46.46-.31,1-.8,1.62-1.44,1.24-1.29,2.79-3.24,4.66-5.83v-.02s.03-.02.03-.02h.02s.02-.02.02-.02l5.22-1.56c-1.99-1.52-3.85-2.76-5.58-3.71Zm-13.73,13.16s.01,0,.02,0c-.01,0-.02-.01-.03-.02l.02.02Zm-.07-.06s.03.03.05.04c-.03-.02-.05-.04-.07-.07,0,0,.01.01.02.02Zm54.37-10.8l-3.94-2.31-.43-.06v.03s.01,0,.01,0l1.59,6.61,3.85-.18-1.08-4.11Zm16.55-.52c2.39-2.82,1.08-6.33-1.25-9.01-1.79-2.29-2.83-4.3-3.89-7.27-.1-.36-.22-.74-.33-1.12-.18-.6-.35-1.2-.54-1.82-.04-.14-.09-.29-.13-.44-.1-.35-.21-.71-.32-1.06-.09-.29-.18-.57-.27-.86-.09-.29-.19-.57-.28-.86-.09-.27-.18-.54-.27-.8-.61-1.75-1.31-3.51-2.13-5.15-.07-.14-.14-.27-.21-.41-.07-.13-.14-.26-.21-.4-.07-.13-.14-.26-.22-.39-.07-.13-.15-.26-.22-.39s-.15-.26-.23-.39c-.13-.21-.26-.41-.39-.62-.08-.13-.16-.25-.25-.37-.03-.04-.06-.08-.09-.12-.17-.24-.34-.48-.52-.71-.73-.96-1.55-1.84-2.46-2.6-.17-.14-.34-.28-.52-.41-.63-.47-1.32-.9-2.05-1.25-.07-.04-.14-.07-.21-.1-.03-.02-.06-.03-.09-.04-.02-.01-.03-.02-.05-.02-.78-.35-1.62-.62-2.52-.8-.11-.02-.23-.04-.34-.07-.13-.02-.25-.04-.38-.06-.13-.02-.26-.04-.38-.05-.21-.02-.42-.04-.63-.06-.14-.01-.27-.02-.42-.02-.36-.02-.73-.02-1.1,0-.3,0-.61.02-.92.05.03-.15.08-.31.13-.47.04-.14.09-.29.12-.44.02-.06.03-.12.04-.18.01-.06.02-.11.03-.17.05-.49-.07-.96-.68-1.41-.49-.23-1.07-.42-1.7-.55-.68-.14-1.41-.22-2.13-.22-.14,0-.27,0-.4.01-.11,0-.22.01-.33.02-.09,0-.18.01-.26.03-.08,0-.17.02-.25.03-.12.02-.24.03-.36.06v2l-.12.02-.25.03h0c-1.33.18-2.82.35-4.46.51-1.64.16-3.43.3-5.38.43-4,.27-7.91-.95-11.71-3.66h0s-.11-.09-.11-.09l-.08-.06.02-.05.02-.05.34-.99.07-.18c-.04.07-.09.13-.13.19-.05.08-.1.15-.15.23-.05.08-.11.16-.17.24-.11.15-.22.3-.33.45-.11-.31-.24-.57-.39-.8-.34-.56-.8-.9-1.3-1.06-1-.34-2.21-.01-3.32.57-.02.01-.04.02-.06.03-.49.26-.96.58-1.38.92-.12.09-.24.19-.34.29-.05-.01-.09-.02-.13-.02-.13-.02-.22,0-.29.02-.03.01-.05.03-.07.04,0,0-.01,0-.01.01-.02.01-.03.03-.04.04-.02.02-.03.04-.04.06-.02.04-.04.09-.05.14-.01.04-.02.07-.03.11,0,.01,0,.02-.01.03-.01.03-.02.06-.03.09-.16.04-.32.07-.48.11h0c-.14.03-.28.06-.42.08-.14.03-.28.05-.42.07-.16.03-.31.05-.47.08-.43.07-.85.13-1.27.22-.09.02-.19.04-.28.06-.01,0-.02,0-.03,0,0,0-.01,0-.02,0-.14.03-.28.07-.43.11-.2,0-.4,0-.6.01-.77.03-1.52.09-2.22.2-.63.14-1.26.34-1.88.61-8.01,3.38-15.52,16.85-18.75,30.43-1.96,8.21-2.36,16.45-.37,22.52,1.38,4.22,3.91,7.39,7.87,8.78h71.41s-.02-.09-.03-.13c-.02-.1-.03-.21-.04-.32,0-.05,0-.09-.01-.14,0-.06-.01-.12-.02-.17l-.4-.5h0s.09-.06.13-.09c.04-.03.08-.06.13-.08.3-.2.64-.43.88-.62.05,0,.1-.02.15-.03.41-.11.84-.46,1.24-.9.07-.07.14-.14.2-.22.04-.04.08-.08.1-.12.23-.27.45-.55.66-.81.28-.36.55-.7.77-.92,3.91-4.71,7.61-10.57,4.21-16.8Zm-19.53,5.09v-.06s-.03-.06-.03-.06l-1.67-6.96-.03-.1-.02-.1.1.02h.1s.39.07.39.07l.25.03h.03s.02.01.02.01h.01s.25.15.25.15l3.76,2.21.03.02h.02s.01.04.01.04v.03s1.14,4.32,1.14,4.32l.02.08.02.08h-.08s-.09,0-.09,0l-4.13.19h-.11Zm-45.69-7.42h.01s0,0,0,0h.01s0,0,0,0l1.83-.2c2.41-.66,4.54-.5,6.37.51,1.81,1,3.75,2.3,5.83,3.9l.11.08.1.08-.13.04-.13.04-5.44,1.63c-1.86,2.59-3.41,4.53-4.66,5.83-.63.66-1.18,1.15-1.66,1.48-.48.33-.9.51-1.25.51-.65,0-1.23-.2-1.72-.6-.45-.36-.82-.89-1.12-1.58l-.09.07h0c-.89.7-1.62,1.22-2.21,1.57-.29.18-.55.31-.77.4-.22.09-.41.14-.57.14-.09,0-.17-.03-.25-.07h-.02c-.08-.07-.13-.14-.18-.23-.08-.18-.11-.42-.1-.72,0-.6.16-1.49.46-2.66l.14-1.67-.21.13h0c-1.13.71-2.02,1.24-2.69,1.6-.34.18-.62.31-.84.4-.22.09-.4.14-.53.14-.1,0-.17-.05-.22-.12-.04-.06-.06-.14-.07-.23-.03-.16-.02-.39.02-.64l.02-.1c.08-.52.25-1.19.5-1.9.53-1.52,1.39-3.29,2.42-4.21,1.36-1.22,3.7-2.42,7.01-3.61Zm44.73.54l-.43-.06v.03s.01,0,.01,0l1.59,6.61,3.85-.18-1.08-4.11-3.94-2.31Zm-54.4,9.32c-.04.25-.04.45-.03.57.01.06.02.09.03.11.08,0,.21-.04.42-.13.21-.08.49-.21.82-.39.58-.3,1.33-.75,2.27-1.33l.41-.25.44-.28.12-.07.11-.08-.02.28-.17,1.96v.02c-.3,1.17-.45,2.03-.46,2.6,0,.29.03.49.08.6.03.06.05.09.08.11.03.02.06.03.1.03.11,0,.26-.03.47-.12.2-.08.45-.21.73-.38.54-.33,1.21-.79,2.02-1.42l.16-.13.24-.18.07-.06.07-.06.03.09.03.08.03.07c.29.7.65,1.22,1.07,1.57.44.36.95.53,1.55.53.27,0,.63-.14,1.09-.46.46-.31,1-.8,1.62-1.44,1.24-1.29,2.79-3.24,4.66-5.83v-.02s.03-.02.03-.02h.02s.02-.02.02-.02l5.22-1.56c-1.99-1.52-3.85-2.76-5.58-3.71-1.76-.97-3.82-1.14-6.18-.49h0s-.02,0-.02,0l-1.82.2c-3.29,1.19-5.59,2.38-6.9,3.55-.97.88-1.82,2.59-2.34,4.1-.26.75-.44,1.44-.5,1.95Zm4.04,3.85s.01,0,.02,0c-.01,0-.02-.01-.03-.02l.02.02Zm-.07-.06s.03.03.05.04c-.03-.02-.05-.04-.07-.07,0,0,.01.01.02.02Zm54.37-10.8l-3.94-2.31-.43-.06v.03s.01,0,.01,0l1.59,6.61,3.85-.18-1.08-4.11Zm-54.38,10.78s.01.01.02.02c.02.02.03.03.05.04-.03-.02-.05-.04-.07-.07Zm.07.07l.02.02s.01,0,.02,0c-.01,0-.02-.01-.03-.02Zm13.75-13.15c-1.76-.97-3.82-1.14-6.18-.49h0s-.02,0-.02,0l-1.82.2c-3.29,1.19-5.59,2.38-6.9,3.55-.97.88-1.82,2.59-2.34,4.1-.26.75-.44,1.44-.5,1.95-.04.25-.04.45-.03.57.01.06.02.09.03.11.08,0,.21-.04.42-.13.21-.08.49-.21.82-.39.58-.3,1.33-.75,2.27-1.33l.41-.25.44-.28.12-.07.11-.08-.02.28-.17,1.96v.02c-.3,1.17-.45,2.03-.46,2.6,0,.29.03.49.08.6.03.06.05.09.08.11.03.02.06.03.1.03.11,0,.26-.03.47-.12.2-.08.45-.21.73-.38.54-.33,1.21-.79,2.02-1.42l.16-.13.24-.18.07-.06.07-.06.03.09.03.08.03.07c.29.7.65,1.22,1.07,1.57.44.36.95.53,1.55.53.27,0,.63-.14,1.09-.46.46-.31,1-.8,1.62-1.44,1.24-1.29,2.79-3.24,4.66-5.83v-.02s.03-.02.03-.02h.02s.02-.02.02-.02l5.22-1.56c-1.99-1.52-3.85-2.76-5.58-3.71Zm40.57,2.3l-3.94-2.31-.43-.06v.03s.01,0,.01,0l1.59,6.61,3.85-.18-1.08-4.11Zm-40.57-2.3c-1.76-.97-3.82-1.14-6.18-.49h0s-.02,0-.02,0l-1.82.2c-3.29,1.19-5.59,2.38-6.9,3.55-.97.88-1.82,2.59-2.34,4.1-.26.75-.44,1.44-.5,1.95-.04.25-.04.45-.03.57.01.06.02.09.03.11.08,0,.21-.04.42-.13.21-.08.49-.21.82-.39.58-.3,1.33-.75,2.27-1.33l.41-.25.44-.28.12-.07.11-.08-.02.28-.17,1.96v.02c-.3,1.17-.45,2.03-.46,2.6,0,.29.03.49.08.6.03.06.05.09.08.11.03.02.06.03.1.03.11,0,.26-.03.47-.12.2-.08.45-.21.73-.38.54-.33,1.21-.79,2.02-1.42l.16-.13.24-.18.07-.06.07-.06.03.09.03.08.03.07c.29.7.65,1.22,1.07,1.57.44.36.95.53,1.55.53.27,0,.63-.14,1.09-.46.46-.31,1-.8,1.62-1.44,1.24-1.29,2.79-3.24,4.66-5.83v-.02s.03-.02.03-.02h.02s.02-.02.02-.02l5.22-1.56c-1.99-1.52-3.85-2.76-5.58-3.71Zm-13.75,13.15l.02.02s.01,0,.02,0c-.01,0-.02-.01-.03-.02Zm-.07-.07s.01.01.02.02c.02.02.03.03.05.04-.03-.02-.05-.04-.07-.07Zm54.38-10.78l-3.94-2.31-.43-.06v.03s.01,0,.01,0l1.59,6.61,3.85-.18-1.08-4.11Zm0,0l-3.94-2.31-.43-.06v.03s.01,0,.01,0l1.59,6.61,3.85-.18-1.08-4.11Zm-40.57-2.3c-1.76-.97-3.82-1.14-6.18-.49h0s-.02,0-.02,0l-1.82.2c-3.29,1.19-5.59,2.38-6.9,3.55-.97.88-1.82,2.59-2.34,4.1-.26.75-.44,1.44-.5,1.95-.04.25-.04.45-.03.57.01.06.02.09.03.11.08,0,.21-.04.42-.13.21-.08.49-.21.82-.39.58-.3,1.33-.75,2.27-1.33l.41-.25.44-.28.12-.07.11-.08-.02.28-.17,1.96v.02c-.3,1.17-.45,2.03-.46,2.6,0,.29.03.49.08.6.03.06.05.09.08.11.03.02.06.03.1.03.11,0,.26-.03.47-.12.2-.08.45-.21.73-.38.54-.33,1.21-.79,2.02-1.42l.16-.13.24-.18.07-.06.07-.06.03.09.03.08.03.07c.29.7.65,1.22,1.07,1.57.44.36.95.53,1.55.53.27,0,.63-.14,1.09-.46.46-.31,1-.8,1.62-1.44,1.24-1.29,2.79-3.24,4.66-5.83v-.02s.03-.02.03-.02h.02s.02-.02.02-.02l5.22-1.56c-1.99-1.52-3.85-2.76-5.58-3.71Zm-13.75,13.15l.02.02s.01,0,.02,0c-.01,0-.02-.01-.03-.02Zm-.07-.07s.01.01.02.02c.02.02.03.03.05.04-.03-.02-.05-.04-.07-.07Zm13.82-13.08c-1.76-.97-3.82-1.14-6.18-.49h0s-.02,0-.02,0l-1.82.2c-3.29,1.19-5.59,2.38-6.9,3.55-.97.88-1.82,2.59-2.34,4.1-.26.75-.44,1.44-.5,1.95-.04.25-.04.45-.03.57.01.06.02.09.03.11.08,0,.21-.04.42-.13.21-.08.49-.21.82-.39.58-.3,1.33-.75,2.27-1.33l.41-.25.44-.28.12-.07.11-.08-.02.28-.17,1.96v.02c-.3,1.17-.45,2.03-.46,2.6,0,.29.03.49.08.6.03.06.05.09.08.11.03.02.06.03.1.03.11,0,.26-.03.47-.12.2-.08.45-.21.73-.38.54-.33,1.21-.79,2.02-1.42l.16-.13.24-.18.07-.06.07-.06.03.09.03.08.03.07c.29.7.65,1.22,1.07,1.57.44.36.95.53,1.55.53.27,0,.63-.14,1.09-.46.46-.31,1-.8,1.62-1.44,1.24-1.29,2.79-3.24,4.66-5.83v-.02s.03-.02.03-.02h.02s.02-.02.02-.02l5.22-1.56c-1.99-1.52-3.85-2.76-5.58-3.71Zm-13.75,13.15l.02.02s.01,0,.02,0c-.01,0-.02-.01-.03-.02Zm-.07-.07s.01.01.02.02c.02.02.03.03.05.04-.03-.02-.05-.04-.07-.07Z"/>
    <path class="cls-1" d="m26.36,56.31c.48.3,1.04.52,1.62.32,1.9-1.25-4.69-2.37-1.62-.32Zm-6.51,2.42c-.53-.31-1.23-.09-1.82-.09-.11,0-.16.13-.09.2.75.99,2.69.71,1.91-.12Zm50.79,4.92c-1.76.52-.33,2.86,1.09,1.71,2.4-2.54,2.31-1.97-1.09-1.71Zm-46.09-.2c-1.09.3-4.01,2.06-4.6,2.92.28.49,4.93-.73,5.43-1.12.98-.61.39-2.09-.83-1.8Zm28.22,5.61c-.45.19-1.11.23-1.6.2-1.36.14-.31,1.93.57.92.26-.36.71-.78,1.12-.98.09-.05.01-.17-.09-.13Zm-13.26.77c-.59-1.36-2.03-2.37-3.34-3.17l-.18-.1c-1.18-.29,1.24,4.34,1.9,4.42.82.52,1.85-.34,1.62-1.14Zm-24.61,4.16c-.51.39,1.59.17,1.88.18h.02c.56-.04,1.07-.05,1.46-.46.61-1.49-2.71.37-3.35.28Zm46.67-.12c-.44-.72-1.22-1.21-1.53-2.02-.9-.65-.91,2.67.6,2.87.5.14,1.15-.35.92-.85Zm-12.38.58c-.98-.06-2,.72-2.45,1.47-.12.3,2.41-.3,2.74-.42h.02c.53-.27.3-1.06-.31-1.05Zm31.01,3.03c-1.07-.18-2.17.46-3.22.67-.59.51,3.28.64,3.42.06.25-.25.13-.61-.21-.72Zm-48.91-1.14c-.51-.2-1.27.02-1.22.64.16.74.2,1.44.45,2.17.45.79,1.86.61,2.1-.25.29-.86-.42-2.19-1.33-2.56Zm-14.1,3.86c-.26.2-1.73.02-1.32.46.8.56,2.11.98,2.82.1.37-.83-.97-.8-1.5-.56Zm36,2.51c-.24-.26-1.02-1.7-1.4-1.08-.14.55,0,1.19.29,1.68.48.63,1.44.09,1.11-.6Zm12.55-1.01h-.03c-.94.19-1.1,1.47-.28,1.9,1.28.58,2.1-1.04,2.73-1.86l.04-.05c0-.45-2-.03-2.46.02Zm-24.95,2.4c-.1-.14-.23-.23-.38-.29-.14-.05-.29-.07-.45-.08-.18.06-.96-.35-.75.02.04.02.07.03.1.06.37.24.31.77.73.98.47.23,1.06-.25.76-.69Zm-31.14,3.79l-.02-.1s-.04-.08-.09-.08c-.98-.33-2.95.92-3.28,1.76v.03c-.33.79.45,1.58,1.35,1.32.92-.28,1.37-1.15,1.85-1.86.27-.33.24-.69.19-1.06Zm72.96,1.12l-.19-.19c-2.66-1.14-1.13,4.18.98,3.04,1.18-.8-.02-2.09-.79-2.86Zm-26.87,4.93c-.25.06-1.23.35-.94.65.52.37,1.4.9,2.04.51.89-.64-.3-1.46-1.11-1.16Zm-47.72,4.51c-.28.22-1.13.61-.84,1,3.48,1,3.2-2.41.84-1Zm30.23-.16c.07.74,1.04,1.83,1.89,1.23.89-.82-1.61-2.4-1.89-1.23Zm43.68,3.16h-.03c-.31-.1-.59.02-.82.2-.11.14-.81.22-.62.4.32.1.61.25.88.44.79.41,1.5-.74.58-1.04Zm-23.45,1.88c-.34.88-.88,1.84-.53,2.77.03.09.09.17.17.22.18.12.42.13.6,0,.04-.03.08-.07.11-.12.5-.25.48-3.9-.36-2.87Zm-29.15,2.99c-.36-.62-1.64-.44-2.2,0-.35.26-.43.63.16.95.7.3,2.19.36,2.13-.65-.01-.12-.04-.21-.09-.3Zm44.43,0c-.39-.21-.76-.27-.9-.03,0,.01,0,.02,0,.03-.06.28.14.58.24.83.2.64.56,1.7,1.5,1.25.94-.48,0-1.64-.83-2.08Zm-62.33,1.81c.06.47.27.91.53,1.32.4.91,2.18,1.54,2.36.19.29-.98-2.82-3.3-2.88-1.52Zm71.19-19.13l-.19-.19c-2.66-1.14-1.13,4.18.98,3.04,1.18-.8-.02-2.09-.79-2.86Zm-.69,12.45h-.03c-.31-.1-.59.02-.82.2-.11.14-.81.22-.62.4.32.1.61.25.88.44.79.41,1.5-.74.58-1.04Zm-1.71-24c-1.07-.18-2.17.46-3.22.67-.59.51,3.28.64,3.42.06.25-.25.13-.61-.21-.72Zm-6.46,28.87c-.39-.21-.76-.27-.9-.03,0,.01,0,.02,0,.03-.06.28.14.58.24.83.2.64.56,1.7,1.5,1.25.94-.48,0-1.64-.83-2.08Zm-3.1-42.7c-1.76.52-.33,2.86,1.09,1.71,2.4-2.54,2.31-1.97-1.09-1.71Zm-4.91,18.06h-.03c-.94.19-1.1,1.47-.28,1.9,1.28.58,2.1-1.04,2.73-1.86l.04-.05c0-.45-2-.03-2.46.02Zm-4.17-7.84c-.44-.72-1.22-1.21-1.53-2.02-.9-.65-.91,2.67.6,2.87.5.14,1.15-.35.92-.85Zm-3.1,29.49c-.34.88-.88,1.84-.53,2.77.03.09.09.17.17.22.18.12.42.13.6,0,.04-.03.08-.07.11-.12.5-.25.48-3.9-.36-2.87Zm-2.74-9.4c-.25.06-1.23.35-.94.65.52.37,1.4.9,2.04.51.89-.64-.3-1.46-1.11-1.16Zm-2.54-11.24c-.24-.26-1.02-1.7-1.4-1.08-.14.55,0,1.19.29,1.68.48.63,1.44.09,1.11-.6Zm-.42-13.67c-.45.19-1.11.23-1.6.2-1.36.14-.31,1.93.57.92.26-.36.71-.78,1.12-.98.09-.05.01-.17-.09-.13Zm-3.58,5.39c-.98-.06-2,.72-2.45,1.47-.12.3,2.41-.3,2.74-.42h.02c.53-.27.3-1.06-.31-1.05Zm-8.4,9.66c-.1-.14-.23-.23-.38-.29-.14-.05-.29-.07-.45-.08-.18.06-.96-.35-.75.02.04.02.07.03.1.06.37.24.31.77.73.98.47.23,1.06-.25.76-.69Zm-2.55,14.2c.07.74,1.04,1.83,1.89,1.23.89-.82-1.61-2.4-1.89-1.23Zm1.27-28.49c-.59-1.36-2.03-2.37-3.34-3.17l-.18-.1c-1.18-.29,1.24,4.34,1.9,4.42.82.52,1.85-.34,1.62-1.14Zm-8.22,6.52c-.51-.2-1.27.02-1.22.64.16.74.2,1.44.45,2.17.45.79,1.86.61,2.1-.25.29-.86-.42-2.19-1.33-2.56Zm-1.97,30c-.36-.62-1.64-.44-2.2,0-.35.26-.43.63.16.95.7.3,2.19.36,2.13-.65-.01-.12-.04-.21-.09-.3Zm-2.95-50.03c.48.3,1.04.52,1.62.32,1.9-1.25-4.69-2.37-1.62-.32Zm-1.81,7.13c-1.09.3-4.01,2.06-4.6,2.92.28.49,4.93-.73,5.43-1.12.98-.61.39-2.09-.83-1.8Zm-4.7-4.71c-.53-.31-1.23-.09-1.82-.09-.11,0-.16.13-.09.2.75.99,2.69.71,1.91-.12Zm-2.66,21.48c-.26.2-1.73.02-1.32.46.8.56,2.11.98,2.82.1.37-.83-.97-.8-1.5-.56Zm-2.29-6.22c-.51.39,1.59.17,1.88.18h.02c.56-.04,1.07-.05,1.46-.46.61-1.49-2.71.37-3.35.28Zm-3.48,34.17c.06.47.27.91.53,1.32.4.91,2.18,1.54,2.36.19.29-.98-2.82-3.3-2.88-1.52Zm-1.77-20.25l-.02-.1s-.04-.08-.09-.08c-.98-.33-2.95.92-3.28,1.76v.03c-.33.79.45,1.58,1.35,1.32.92-.28,1.37-1.15,1.85-1.86.27-.33.24-.69.19-1.06Zm-1.64,10.57c-.28.22-1.13.61-.84,1,3.48,1,3.2-2.41.84-1Zm36.63,15.76c-1.37-.91-1.73-.04-1.48.89h2.58c-.16-.36-.51-.7-1.09-.89Zm12.25.89h1.14c-.58-.36-1-.33-1.14,0Zm-48.89-16.65c-.28.22-1.13.61-.84,1,3.48,1,3.2-2.41.84-1Zm1.64-10.57l-.02-.1s-.04-.08-.09-.08c-.98-.33-2.95.92-3.28,1.76v.03c-.33.79.45,1.58,1.35,1.32.92-.28,1.37-1.15,1.85-1.86.27-.33.24-.69.19-1.06Zm1.77,20.25c.06.47.27.91.53,1.32.4.91,2.18,1.54,2.36.19.29-.98-2.82-3.3-2.88-1.52Zm3.48-34.17c-.51.39,1.59.17,1.88.18h.02c.56-.04,1.07-.05,1.46-.46.61-1.49-2.71.37-3.35.28Zm2.29,6.22c-.26.2-1.73.02-1.32.46.8.56,2.11.98,2.82.1.37-.83-.97-.8-1.5-.56Zm2.66-21.48c-.53-.31-1.23-.09-1.82-.09-.11,0-.16.13-.09.2.75.99,2.69.71,1.91-.12Zm4.7,4.71c-1.09.3-4.01,2.06-4.6,2.92.28.49,4.93-.73,5.43-1.12.98-.61.39-2.09-.83-1.8Zm1.81-7.13c.48.3,1.04.52,1.62.32,1.9-1.25-4.69-2.37-1.62-.32Zm2.95,50.03c-.36-.62-1.64-.44-2.2,0-.35.26-.43.63.16.95.7.3,2.19.36,2.13-.65-.01-.12-.04-.21-.09-.3Zm1.97-30c-.51-.2-1.27.02-1.22.64.16.74.2,1.44.45,2.17.45.79,1.86.61,2.1-.25.29-.86-.42-2.19-1.33-2.56Zm8.22-6.52c-.59-1.36-2.03-2.37-3.34-3.17l-.18-.1c-1.18-.29,1.24,4.34,1.9,4.42.82.52,1.85-.34,1.62-1.14Zm-1.27,28.49c.07.74,1.04,1.83,1.89,1.23.89-.82-1.61-2.4-1.89-1.23Zm2.55-14.2c-.1-.14-.23-.23-.38-.29-.14-.05-.29-.07-.45-.08-.18.06-.96-.35-.75.02.04.02.07.03.1.06.37.24.31.77.73.98.47.23,1.06-.25.76-.69Zm8.4-9.66c-.98-.06-2,.72-2.45,1.47-.12.3,2.41-.3,2.74-.42h.02c.53-.27.3-1.06-.31-1.05Zm3.58-5.39c-.45.19-1.11.23-1.6.2-1.36.14-.31,1.93.57.92.26-.36.71-.78,1.12-.98.09-.05.01-.17-.09-.13Zm.42,13.67c-.24-.26-1.02-1.7-1.4-1.08-.14.55,0,1.19.29,1.68.48.63,1.44.09,1.11-.6Zm2.54,11.24c-.25.06-1.23.35-.94.65.52.37,1.4.9,2.04.51.89-.64-.3-1.46-1.11-1.16Zm2.74,9.4c-.34.88-.88,1.84-.53,2.77.03.09.09.17.17.22.18.12.42.13.6,0,.04-.03.08-.07.11-.12.5-.25.48-3.9-.36-2.87Zm3.1-29.49c-.44-.72-1.22-1.21-1.53-2.02-.9-.65-.91,2.67.6,2.87.5.14,1.15-.35.92-.85Zm4.17,7.84h-.03c-.94.19-1.1,1.47-.28,1.9,1.28.58,2.1-1.04,2.73-1.86l.04-.05c0-.45-2-.03-2.46.02Zm4.91-18.06c-1.76.52-.33,2.86,1.09,1.71,2.4-2.54,2.31-1.97-1.09-1.71Zm3.1,42.7c-.39-.21-.76-.27-.9-.03,0,.01,0,.02,0,.03-.06.28.14.58.24.83.2.64.56,1.7,1.5,1.25.94-.48,0-1.64-.83-2.08Zm6.46-28.87c-1.07-.18-2.17.46-3.22.67-.59.51,3.28.64,3.42.06.25-.25.13-.61-.21-.72Zm1.71,24h-.03c-.31-.1-.59.02-.82.2-.11.14-.81.22-.62.4.32.1.61.25.88.44.79.41,1.5-.74.58-1.04Zm.69-12.45l-.19-.19c-2.66-1.14-1.13,4.18.98,3.04,1.18-.8-.02-2.09-.79-2.86Zm0,0l-.19-.19c-2.66-1.14-1.13,4.18.98,3.04,1.18-.8-.02-2.09-.79-2.86Zm-.69,12.45h-.03c-.31-.1-.59.02-.82.2-.11.14-.81.22-.62.4.32.1.61.25.88.44.79.41,1.5-.74.58-1.04Zm-1.71-24c-1.07-.18-2.17.46-3.22.67-.59.51,3.28.64,3.42.06.25-.25.13-.61-.21-.72Zm-6.46,28.87c-.39-.21-.76-.27-.9-.03,0,.01,0,.02,0,.03-.06.28.14.58.24.83.2.64.56,1.7,1.5,1.25.94-.48,0-1.64-.83-2.08Zm-3.1-42.7c-1.76.52-.33,2.86,1.09,1.71,2.4-2.54,2.31-1.97-1.09-1.71Zm-4.91,18.06h-.03c-.94.19-1.1,1.47-.28,1.9,1.28.58,2.1-1.04,2.73-1.86l.04-.05c0-.45-2-.03-2.46.02Zm-5.7-9.86c-.9-.65-.91,2.67.6,2.87.5.14,1.15-.35.92-.85-.44-.72-1.22-1.21-1.53-2.02Zm-1.58,31.51c-.34.88-.88,1.84-.53,2.77.03.09.09.17.17.22.18.12.42.13.6,0,.04-.03.08-.07.11-.12.5-.25.48-3.9-.36-2.87Zm-2.74-9.4c-.25.06-1.23.35-.94.65.52.37,1.4.9,2.04.51.89-.64-.3-1.46-1.11-1.16Zm-3.94-12.32c-.14.55,0,1.19.29,1.68.48.63,1.44.09,1.11-.6-.24-.26-1.02-1.7-1.4-1.08Zm1.07-12.45c.09-.05.01-.17-.09-.13-.45.19-1.11.23-1.6.2-1.36.14-.31,1.93.57.92.26-.36.71-.78,1.12-.98Zm-3.67,5.26c-.98-.06-2,.72-2.45,1.47-.12.3,2.41-.3,2.74-.42h.02c.53-.27.3-1.06-.31-1.05Zm-8.78,9.38c-.14-.05-.29-.07-.45-.08-.18.06-.96-.35-.75.02.04.02.07.03.1.06.37.24.31.77.73.98.47.23,1.06-.25.76-.69-.1-.14-.23-.23-.38-.29Zm-2.17,14.49c.07.74,1.04,1.83,1.89,1.23.89-.82-1.61-2.4-1.89-1.23Zm1.27-28.49c-.59-1.36-2.03-2.37-3.34-3.17l-.18-.1c-1.18-.29,1.24,4.34,1.9,4.42.82.52,1.85-.34,1.62-1.14Zm-8.22,6.52c-.51-.2-1.27.02-1.22.64.16.74.2,1.44.45,2.17.45.79,1.86.61,2.1-.25.29-.86-.42-2.19-1.33-2.56Zm-4.17,30c-.35.26-.43.63.16.95.7.3,2.19.36,2.13-.65-.01-.12-.04-.21-.09-.3-.36-.62-1.64-.44-2.2,0Zm.88-49.71c1.9-1.25-4.69-2.37-1.62-.32.48.3,1.04.52,1.62.32Zm-3.44,6.81c-1.09.3-4.01,2.06-4.6,2.92.28.49,4.93-.73,5.43-1.12.98-.61.39-2.09-.83-1.8Zm-4.7-4.71c-.53-.31-1.23-.09-1.82-.09-.11,0-.16.13-.09.2.75.99,2.69.71,1.91-.12Zm-2.66,21.48c-.26.2-1.73.02-1.32.46.8.56,2.11.98,2.82.1.37-.83-.97-.8-1.5-.56Zm-.42-6.04h.02c.56-.04,1.07-.05,1.46-.46.61-1.49-2.71.37-3.35.28-.51.39,1.59.17,1.88.18Zm-5.36,33.99c.06.47.27.91.53,1.32.4.91,2.18,1.54,2.36.19.29-.98-2.82-3.3-2.88-1.52Zm-3.8-17.33c.92-.28,1.37-1.15,1.85-1.86.27-.33.24-.69.19-1.06l-.02-.1s-.04-.08-.09-.08c-.98-.33-2.95.92-3.28,1.76v.03c-.33.79.45,1.58,1.35,1.32Zm.4,7.65c-.28.22-1.13.61-.84,1,3.48,1,3.2-2.41.84-1Zm83.22-.13c-.16-1.49-.6-2.95-1.23-4.33,3.19-4.37-.62-8.11-3.08-11.75-4.37-8.11-5.11-21.68-14.71-25.57-.03-.02-.06-.03-.09-.04-.02-.01-.03-.02-.05-.02-1.65-.65-3.56-1.01-5.79-1.02,0-.02.01-.03.01-.05.51-1.94-1.06-2.84-2.98-3.16-1.24-.2-2.64-.16-3.73,0-.1.01-.19.03-.28.04-.21.03-.4.07-.58.12t-.01-.01h0c-1.48-1.46-2.13-3.34-2.58-5.24-.07-.29-.13-.58-.2-.87-.01-.06-.02-.1-.03-.16l-.07-.3c-.11.14-.21.3-.28.47-.04.1-.08.2-.11.32h0c-.05.19-.08.4-.09.61-.15,2.15,1.32,5.42,2.69,6.61-6.41,1.31-13.09.38-19.12-1.84-.2-.07-.39-.14-.59-.22.02-.04.04-.08.07-.12.23-.4.51-.96.8-1.6.78-1.77,1.54-4.13,1-5.34-.05-.12-.11-.23-.2-.33-.46.49-.53,1.2-.71,1.81-.43,1.44-1.02,2.83-1.86,4.11-.06.1-.13.2-.2.31-.05-.09-.11-.18-.18-.26-.43-.58-.99-.9-1.61-1.03-1.03-.22-2.24.07-3.32.57-.02.01-.04.02-.06.03-.56.26-1.08.59-1.53.93h-.01c-.11.08-.22.17-.32.25-.02.02-.04.04-.07.06-.1-.01-.21,0-.3.02,0,0-.01,0-.01,0-.31.07-.57.31-.67.59h0l-.02.05c-1.03.21-1.96.35-2.83.46-.01,0-.02,0-.03,0,0,0-.01,0-.02,0-.35.04-.69.08-1.02.12-1.47.18-2.78.35-4.1.81-1.31.45-2.62,1.18-4.11,2.48-5.77,4.13-11.98,15.85-15.04,27.95-2.04,8.04-2.69,16.25-.9,22.52,1.07,3.79,3.04,6.87,6.12,8.78h15.82c5.87-2.14,11.33-5.44,17.06-7.7,1.95-.44,3.62.66,5.28,1.41l.11.05c1.44.48,2.8,1.16,4.22,1.69,3.69,1.31,9.33,3.26,14.98,4.55h17.24c-.02-.17-.06-.33-.16-.47.16-.11.32-.22.48-.34,1.49-.45,2.35-2.18,3.38-3.21,2.92-3.77,6.15-7.92,5.65-12.76Zm-28.83-44.68c3.71.19,2.75,1.94,1.07,3.88l-.1.12c-.37-1.17-.78-2.34-1.52-3.38.06-.24,0-.51-.16-.69.24.02.48.04.72.07Zm-2.25,1.54c.71.94,1.72,1.66,2.72,2.34l.37.25c-1.65,1.78-3.64,3.35-6.15,3.91,0-1.84-.53-3.62-.79-5.43.17-.06.28-.23.27-.4,1.21-.16,2.41-.37,3.58-.67Zm-14.9.24c1.31.27,2.64.47,3.98.58.08,2.08-.25,4.18.12,6.24-2.46-.2-4.9-.72-7.22-1.51,1.08-1.58,1.97-3.27,2.99-4.88.08-.13.13-.28.14-.43Zm4.8,5.87c.31-1.44.42-2.91.66-4.36.52.07.67-.45.49-.8,1.18.03,2.36,0,3.55-.09.55,1.94.91,3.92,1.72,5.79-2.19.51-4.48.6-6.72.44.11-.33.22-.65.3-.99Zm-15.93-10.52c.42-.1.86-.14,1.3-.11h0c.54.04,1.07.18,1.54.44-.05.07-.1.14-.15.2-.08-.05-.16-.03-.21.03-.31-.04-.46.08-.27.34-.86.42-3.47,2.01-3.8,2.76-.19.49.39.94.89.82,1.21-.51,1.93-1.86,2.87-2.72.02.05.04.1.07.14.19-.04.41-.2.57-.08.23-.05.67-.12.72.17.03-.03.07-.06.1-.09.77.45,1.56.85,2.39,1.2-1.26.77-2.35,1.78-3.18,2.91-.52.83.71,1.71,1.43,1.01.65-.74,1.11-1.64,1.79-2.38.3-.36.78-.72.88-1.19.75.28,1.52.52,2.3.74-.84,1.78-1.57,3.67-1.71,5.6-3.52-1.26-6.72-3.17-9.57-5.45-.53-.59-1.15-1.27-1.56-1.98.08-.02.15-.04.22-.09.6-.34,1.05-.92,1.58-1.35.49-.45,1.12-.76,1.81-.93,0,0,.01,0,.02,0Zm16.85,58.63c-1.69-.54-3.36-1.11-5.06-1.64-1-.49-1.99-1.07-3.06-1.42-.2-.07-.4-.13-.61-.18,6.81-3.44,14.03-6.01,21.42-8.19,3.46,1.78,7.88,2.83,11.68,1.37.45-.19.78-.89.58-1.32-1.38-3.02-.82-6.43-.96-9.61-.13-1.54-.38-3.07-.65-4.59-.4-2.23-.88-4.45-1.21-6.69-.42-2.16-.56-4.38-1.31-6.47,0-.05-.09-.05-.09,0,.01.42-.2.78-.24,1.2-.28,4.01.25,7.98.67,11.96.34,3.1.62,6.2.41,9.32-1.13-.68-2.25-1.3-3.46-1.76-.18-.08-.37-.14-.56-.2-.25-.09-.49-.17-.74-.23-.66-1.79-4.97-2.17-6.53-1.25-1.34.08-2.6.19-3.93.34-2.65-2.62-18.67-3.05-22.48-1.81-2.5-.27-7.89-1.49-8.09,2-1.94.08-3.88.53-5.66,1.43.63-1.55.49-3.19.82-4.8.02-.67.27-1.88.39-3.03.11-1.12.11-2.18-.35-2.63-.62.55-.94,1.57-1.17,2.63-.22,1.02-.35,2.07-.56,2.82-.19,1.63-.9,3.19-.73,4.85-.11.44-.27.88-.35,1.32-1.59,1.05-3.04,2.39-4.22,3.82-1.18,1.54-1.83,3.39-1.84,5.28.26,2,4.1-1,5.03-1.64l.05-.04c-.5,1.33-1.52,2.59-1.33,4.05.84,2.78,3.59.55,4.85-.74l.07-.08c.47,2.9,4.27,2.33,5.81.45,1.7-1.78,4.54-4.43,5.1-6.71,9.75-2.44,19.52-5.46,29.7-5.85.67,1.65,1.21,3.38.97,5.15-9.84,1.12-18.43,5.5-27.04,9.85-5.92,2.98-11.86,5.95-18.21,7.84-6.21,1.98-11.68-.46-13.9-6.17-.19-.56-.37-1.11-.53-1.67-2.13-7.35-1.46-15.07.52-22.52,1.27-4.77,3.07-9.44,5.02-13.84l.08-.18c2.57-5.82,6-11.74,11.94-15.18,2.43-1.39,5.39-1.1,8.04-1.78l.2.33c6.69,10.45,29.88,15.9,36.68,2.78,14.77,1.71,12.84,18.22,18.87,27.86.48.77,1.01,1.48,1.6,2.15.18.21.36.43.54.65.86,1.1,1.66,2.33,1.64,3.69-.16,1.58-1.04,3.01-1.64,4.49-.07.15-.12.3-.18.45-.14.28-.03.58.18.74.21.18.54.22.82-.03.4-.35.82-.69,1.2-1.05.09,1.43.24,2.86.13,4.29-.22,2.06-1.05,3.93-2.16,5.69-.31.49-.65.98-.99,1.45-1.09,1.5-2.33,2.92-3.5,4.31l-.27.32c-1.61,1.9-2.83,2.97-5.54,3.39-8.82.47-17.56-2.64-25.9-4.95Zm11.89-19.32c-.16-.12-.34-.21-.54-.27l.28-.04c1.77-.11,3.57.56,4.5,2.07-1.17-.13-2.34-.04-3.32.58-.27-.48-.57-.94-.9-1.38.26-.24.26-.73-.03-.95Zm5.37,7.09c-1.11-.26-2.23-.52-3.37-.64.02-.2.02-.39.02-.59.89.6,2.24.88,3.34.61,0,.1,0,.21.01.31v.31Zm4.87.43c-.86.15-1.77.13-2.64,0,.02-.36-.08-.75-.13-1.1-.23-1.8-.74-3.64-2.02-5.05,1.87.92,3.2,2.41,4.36,4,.08.73.21,1.44.43,2.15Zm-4.98-2.37c-.52,0-1.02.25-1.56.28-.54.02-1.17-.02-1.73-.16-.1-.86-.4-1.7-.8-2.49,1.37-.08,2.53.21,3.81.69.14.55.23,1.12.29,1.69Zm-44.68,2.49c-.93,2.37-2.58,4.55-4.81,6.04.6-2.43,2.02-4.7,2.95-7.05.29-.83-1.07-1.35-1.54-.6-1.43,1.84-3.26,3.31-5.33,4.49.35-2.77,2.29-5.2,4.56-6.97-.18.04-.35.09-.52.15.68-.37,1.36-.95,2.12-1.16,5.18-2.38,12.1-1.38,15.94,2.63-1.52.39-3.19.49-4.57,1.32-1.11-.21-1.63,1.22-2.22,1.87-1.2,1.39-3.89,5.46-5.9,5.35-.62-.13-.54-.57-.39-1.06l.11-.38c.44-1.4.92-2.79,1.38-4.18.34-1.05-1.39-1.47-1.78-.45Zm-4.87,6.32l.02-.06s.02.01.03.02c.08-.07-.14.37-.04.04Zm13.18-13.31c.68-.5,1.47-.87,2.14-1.37,1.4.21,2.78.53,4.09,1.03-1.08.3-2.11.73-2.96,1.39-1.04-.45-2.14-.8-3.27-1.06Zm-.93-.2c-1.18-.23-2.36-.35-3.53-.34.67-1.27,2.66-1.15,4.05-1.08l.3.02c-.36.43-.65.92-.82,1.41Zm5.37,1.82l-.09-.05c1.05-.53,3.34-.1,3.69-1.08,1.01.55,1.93,1.23,2.73,2.05-1.35.43-2.7.88-4.04,1.36-.19-.98-1.28-1.74-2.29-2.28Zm.4-3.79l-.16-.05c6.32-.18,12.9-.24,18.93,1.74-3.88.54-7.69,1.46-11.42,2.58-1.42-2.34-4.61-3.52-7.34-4.27Zm46.8,3.29c1.18-.8-.02-2.09-.79-2.86l-.19-.19c-2.66-1.14-1.13,4.18.98,3.04Zm-1.48,9.6h-.03c-.31-.1-.59.02-.82.2-.11.14-.81.22-.62.4.32.1.61.25.88.44.79.41,1.5-.74.58-1.04Zm-1.71-24c-1.07-.18-2.17.46-3.22.67-.59.51,3.28.64,3.42.06.25-.25.13-.61-.21-.72Zm-6.46,28.87c-.39-.21-.76-.27-.9-.03,0,.01,0,.02,0,.03-.06.28.14.58.24.83.2.64.56,1.7,1.5,1.25.94-.48,0-1.64-.83-2.08Zm-3.1-42.7c-1.76.52-.33,2.86,1.09,1.71,2.4-2.54,2.31-1.97-1.09-1.71Zm-4.91,18.06h-.03c-.94.19-1.1,1.47-.28,1.9,1.28.58,2.1-1.04,2.73-1.86l.04-.05c0-.45-2-.03-2.46.02Zm-5.7-9.86c-.9-.65-.91,2.67.6,2.87.5.14,1.15-.35.92-.85-.44-.72-1.22-1.21-1.53-2.02Zm-1.58,31.51c-.34.88-.88,1.84-.53,2.77.03.09.09.17.17.22.18.12.42.13.6,0,.04-.03.08-.07.11-.12.5-.25.48-3.9-.36-2.87Zm-1.63-8.24c.89-.64-.3-1.46-1.11-1.16-.25.06-1.23.35-.94.65.52.37,1.4.9,2.04.51Zm-5.04-13.47c-.14.55,0,1.19.29,1.68.48.63,1.44.09,1.11-.6-.24-.26-1.02-1.7-1.4-1.08Zm1.07-12.45c.09-.05.01-.17-.09-.13-.45.19-1.11.23-1.6.2-1.36.14-.31,1.93.57.92.26-.36.71-.78,1.12-.98Zm-3.67,5.26c-.98-.06-2,.72-2.45,1.47-.12.3,2.41-.3,2.74-.42h.02c.53-.27.3-1.06-.31-1.05Zm-8.78,9.38c-.14-.05-.29-.07-.45-.08-.18.06-.96-.35-.75.02.04.02.07.03.1.06.37.24.31.77.73.98.47.23,1.06-.25.76-.69-.1-.14-.23-.23-.38-.29Zm-.28,15.72c.89-.82-1.61-2.4-1.89-1.23.07.74,1.04,1.83,1.89,1.23Zm-.61-29.73c-.59-1.36-2.03-2.37-3.34-3.17l-.18-.1c-1.18-.29,1.24,4.34,1.9,4.42.82.52,1.85-.34,1.62-1.14Zm-8.22,6.52c-.51-.2-1.27.02-1.22.64.16.74.2,1.44.45,2.17.45.79,1.86.61,2.1-.25.29-.86-.42-2.19-1.33-2.56Zm-4.01,30.95c.7.3,2.19.36,2.13-.65-.01-.12-.04-.21-.09-.3-.36-.62-1.64-.44-2.2,0-.35.26-.43.63.16.95Zm-.91-50.98c.48.3,1.04.52,1.62.32,1.9-1.25-4.69-2.37-1.62-.32Zm-1.81,7.13c-1.09.3-4.01,2.06-4.6,2.92.28.49,4.93-.73,5.43-1.12.98-.61.39-2.09-.83-1.8Zm-4.7-4.71c-.53-.31-1.23-.09-1.82-.09-.11,0-.16.13-.09.2.75.99,2.69.71,1.91-.12Zm-2.66,21.48c-.26.2-1.73.02-1.32.46.8.56,2.11.98,2.82.1.37-.83-.97-.8-1.5-.56Zm-.42-6.04h.02c.56-.04,1.07-.05,1.46-.46.61-1.49-2.71.37-3.35.28-.51.39,1.59.17,1.88.18Zm-5.36,33.99c.06.47.27.91.53,1.32.4.91,2.18,1.54,2.36.19.29-.98-2.82-3.3-2.88-1.52Zm-3.8-17.33c.92-.28,1.37-1.15,1.85-1.86.27-.33.24-.69.19-1.06l-.02-.1s-.04-.08-.09-.08c-.98-.33-2.95.92-3.28,1.76v.03c-.33.79.45,1.58,1.35,1.32Zm.4,7.65c-.28.22-1.13.61-.84,1,3.48,1,3.2-2.41.84-1Zm0,0c-.28.22-1.13.61-.84,1,3.48,1,3.2-2.41.84-1Zm1.64-10.57l-.02-.1s-.04-.08-.09-.08c-.98-.33-2.95.92-3.28,1.76v.03c-.33.79.45,1.58,1.35,1.32.92-.28,1.37-1.15,1.85-1.86.27-.33.24-.69.19-1.06Zm1.77,20.25c.06.47.27.91.53,1.32.4.91,2.18,1.54,2.36.19.29-.98-2.82-3.3-2.88-1.52Zm3.48-34.17c-.51.39,1.59.17,1.88.18h.02c.56-.04,1.07-.05,1.46-.46.61-1.49-2.71.37-3.35.28Zm2.29,6.22c-.26.2-1.73.02-1.32.46.8.56,2.11.98,2.82.1.37-.83-.97-.8-1.5-.56Zm2.66-21.48c-.53-.31-1.23-.09-1.82-.09-.11,0-.16.13-.09.2.75.99,2.69.71,1.91-.12Zm4.7,4.71c-1.09.3-4.01,2.06-4.6,2.92.28.49,4.93-.73,5.43-1.12.98-.61.39-2.09-.83-1.8Zm1.81-7.13c.48.3,1.04.52,1.62.32,1.9-1.25-4.69-2.37-1.62-.32Zm2.95,50.03c-.36-.62-1.64-.44-2.2,0-.35.26-.43.63.16.95.7.3,2.19.36,2.13-.65-.01-.12-.04-.21-.09-.3Zm1.97-30c-.51-.2-1.27.02-1.22.64.16.74.2,1.44.45,2.17.45.79,1.86.61,2.1-.25.29-.86-.42-2.19-1.33-2.56Zm8.22-6.52c-.59-1.36-2.03-2.37-3.34-3.17l-.18-.1c-1.18-.29,1.24,4.34,1.9,4.42.82.52,1.85-.34,1.62-1.14Zm-1.27,28.49c.07.74,1.04,1.83,1.89,1.23.89-.82-1.61-2.4-1.89-1.23Zm2.55-14.2c-.1-.14-.23-.23-.38-.29-.14-.05-.29-.07-.45-.08-.18.06-.96-.35-.75.02.04.02.07.03.1.06.37.24.31.77.73.98.47.23,1.06-.25.76-.69Zm8.4-9.66c-.98-.06-2,.72-2.45,1.47-.12.3,2.41-.3,2.74-.42h.02c.53-.27.3-1.06-.31-1.05Zm3.58-5.39c-.45.19-1.11.23-1.6.2-1.36.14-.31,1.93.57.92.26-.36.71-.78,1.12-.98.09-.05.01-.17-.09-.13Zm.42,13.67c-.24-.26-1.02-1.7-1.4-1.08-.14.55,0,1.19.29,1.68.48.63,1.44.09,1.11-.6Zm2.54,11.24c-.25.06-1.23.35-.94.65.52.37,1.4.9,2.04.51.89-.64-.3-1.46-1.11-1.16Zm2.74,9.4c-.34.88-.88,1.84-.53,2.77.03.09.09.17.17.22.18.12.42.13.6,0,.04-.03.08-.07.11-.12.5-.25.48-3.9-.36-2.87Zm3.1-29.49c-.44-.72-1.22-1.21-1.53-2.02-.9-.65-.91,2.67.6,2.87.5.14,1.15-.35.92-.85Zm4.17,7.84h-.03c-.94.19-1.1,1.47-.28,1.9,1.28.58,2.1-1.04,2.73-1.86l.04-.05c0-.45-2-.03-2.46.02Zm4.91-18.06c-1.76.52-.33,2.86,1.09,1.71,2.4-2.54,2.31-1.97-1.09-1.71Zm3.1,42.7c-.39-.21-.76-.27-.9-.03,0,.01,0,.02,0,.03-.06.28.14.58.24.83.2.64.56,1.7,1.5,1.25.94-.48,0-1.64-.83-2.08Zm6.46-28.87c-1.07-.18-2.17.46-3.22.67-.59.51,3.28.64,3.42.06.25-.25.13-.61-.21-.72Zm1.71,24h-.03c-.31-.1-.59.02-.82.2-.11.14-.81.22-.62.4.32.1.61.25.88.44.79.41,1.5-.74.58-1.04Zm.69-12.45l-.19-.19c-2.66-1.14-1.13,4.18.98,3.04,1.18-.8-.02-2.09-.79-2.86Zm0,0l-.19-.19c-2.66-1.14-1.13,4.18.98,3.04,1.18-.8-.02-2.09-.79-2.86Zm-.69,12.45h-.03c-.31-.1-.59.02-.82.2-.11.14-.81.22-.62.4.32.1.61.25.88.44.79.41,1.5-.74.58-1.04Zm-1.71-24c-1.07-.18-2.17.46-3.22.67-.59.51,3.28.64,3.42.06.25-.25.13-.61-.21-.72Zm-6.46,28.87c-.39-.21-.76-.27-.9-.03,0,.01,0,.02,0,.03-.06.28.14.58.24.83.2.64.56,1.7,1.5,1.25.94-.48,0-1.64-.83-2.08Zm-3.1-42.7c-1.76.52-.33,2.86,1.09,1.71,2.4-2.54,2.31-1.97-1.09-1.71Zm-4.91,18.06h-.03c-.94.19-1.1,1.47-.28,1.9,1.28.58,2.1-1.04,2.73-1.86l.04-.05c0-.45-2-.03-2.46.02Zm-4.17-7.84c-.44-.72-1.22-1.21-1.53-2.02-.9-.65-.91,2.67.6,2.87.5.14,1.15-.35.92-.85Zm-3.1,29.49c-.34.88-.88,1.84-.53,2.77.03.09.09.17.17.22.18.12.42.13.6,0,.04-.03.08-.07.11-.12.5-.25.48-3.9-.36-2.87Zm-2.74-9.4c-.25.06-1.23.35-.94.65.52.37,1.4.9,2.04.51.89-.64-.3-1.46-1.11-1.16Zm-2.54-11.24c-.24-.26-1.02-1.7-1.4-1.08-.14.55,0,1.19.29,1.68.48.63,1.44.09,1.11-.6Zm-.42-13.67c-.45.19-1.11.23-1.6.2-1.36.14-.31,1.93.57.92.26-.36.71-.78,1.12-.98.09-.05.01-.17-.09-.13Zm-3.58,5.39c-.98-.06-2,.72-2.45,1.47-.12.3,2.41-.3,2.74-.42h.02c.53-.27.3-1.06-.31-1.05Zm-8.4,9.66c-.1-.14-.23-.23-.38-.29-.14-.05-.29-.07-.45-.08-.18.06-.96-.35-.75.02.04.02.07.03.1.06.37.24.31.77.73.98.47.23,1.06-.25.76-.69Zm-2.55,14.2c.07.74,1.04,1.83,1.89,1.23.89-.82-1.61-2.4-1.89-1.23Zm1.27-28.49c-.59-1.36-2.03-2.37-3.34-3.17l-.18-.1c-1.18-.29,1.24,4.34,1.9,4.42.82.52,1.85-.34,1.62-1.14Zm-8.22,6.52c-.51-.2-1.27.02-1.22.64.16.74.2,1.44.45,2.17.45.79,1.86.61,2.1-.25.29-.86-.42-2.19-1.33-2.56Zm-1.97,30c-.36-.62-1.64-.44-2.2,0-.35.26-.43.63.16.95.7.3,2.19.36,2.13-.65-.01-.12-.04-.21-.09-.3Zm-2.95-50.03c.48.3,1.04.52,1.62.32,1.9-1.25-4.69-2.37-1.62-.32Zm-1.81,7.13c-1.09.3-4.01,2.06-4.6,2.92.28.49,4.93-.73,5.43-1.12.98-.61.39-2.09-.83-1.8Zm-4.7-4.71c-.53-.31-1.23-.09-1.82-.09-.11,0-.16.13-.09.2.75.99,2.69.71,1.91-.12Zm-2.66,21.48c-.26.2-1.73.02-1.32.46.8.56,2.11.98,2.82.1.37-.83-.97-.8-1.5-.56Zm-2.29-6.22c-.51.39,1.59.17,1.88.18h.02c.56-.04,1.07-.05,1.46-.46.61-1.49-2.71.37-3.35.28Zm-3.48,34.17c.06.47.27.91.53,1.32.4.91,2.18,1.54,2.36.19.29-.98-2.82-3.3-2.88-1.52Zm-1.77-20.25l-.02-.1s-.04-.08-.09-.08c-.98-.33-2.95.92-3.28,1.76v.03c-.33.79.45,1.58,1.35,1.32.92-.28,1.37-1.15,1.85-1.86.27-.33.24-.69.19-1.06Zm-1.64,10.57c-.28.22-1.13.61-.84,1,3.48,1,3.2-2.41.84-1Z"/>
    <path class="cls-3" d="m68.59,27.1c-.19-8.01-2.36-16.88-9.82-21.83-.48-.32-1.19-.16-1.58.2-.32.06-.62.24-.82.57-4.41,7.38-9.05,14.65-13.93,21.79-3.13,4.61-6.93,9.23-7.43,14.83-.09.11-.89.94-.42.88.21-.1.42-.18.64-.24.6.8,1.98.67,2.31-.23,1.14.03,2.27.3,3.36.61,2.66.77,5.37,1.52,8.09,2.11,8.96,2.18,18.59-.59,19.3-10.18.96-1.24.44-6.78.3-8.49h0Z"/>
    <path class="cls-2" d="m75.11,46.79c-1.27-5.46-2.08-10.99-2.81-16.53-.35-2.68-.63-5.37-.96-8.06-.3-2.5-.66-5.01-1.37-7.44-.66-2.26-1.63-4.5-3.05-6.46-1.34-1.83-3.01-3.4-4.94-4.71C58.17,1.01,53.3-.37,48.56.09c-.72.07-1.42.18-2.13.33.22-.06.45-.12.68-.17.07-.02.04-.11-.03-.1-19.28,1.61-23.81,32.36-24.23,38.57-.03.48-.06.96-.08,1.45-.14,1.08-.25,2.15-.3,3.24-.06,1.25-.03,2.5.1,3.75.13,1.28.28,2.58.86,3.75.36.72,16.94-.27,17.11-1.12.35-1.72.52-3.5.42-5.25-.05-.84-.15-1.67-.34-2.49-.05-.22-.11-.65-.25-.98,1.51-2.64,3.18-5.2,4.89-7.73,3.56-5.27,7.35-10.44,10.27-16.06,1.46-2.81,2.9-5.8,3.59-8.88l.11.02s0,.08.04.11c3.17,2.01,5.28,5.05,6.65,8.31,1.6,3.79,2.37,7.89,2.26,11.95-.18,6.46-2.84,14.44-10.39,16.48-1.72.47-3.58.6-5.35.26-.83-.16-1.65-.41-2.4-.78-.83-.41-1.52-.98-2.3-1.46-.71-.43-1.56.41-1.15,1.05.91,1.42,2.86,2.28,4.54,2.71,1.79.46,3.68.48,5.5.19.14-.02.28-.05.41-.07.03.42.23.84.55,1.18.14.15.32.29.52.4.03.41.31.82.78.91,2.5.48,12.88-.77,15.37-1.46.67-.18,1.01-.79.87-1.4h0Z"/>
    <path class="cls-2" d="m67.57,26.64c-1.06,6.57-8.46,7.3-9.77.77.21-.08.36-.25.33-.58,0-1.42.47-2.93,1.87-3.72,1.45-.82,3.14-.9,4.81-.88,3.19-.07,3.12,2.38,2.76,4.39m-10.93-2.86c-1-.04-2.27,0-3.17.55-.25-.61-.89-1.26-1.54-1.61,2.41.06,4.89-.15,7.31-.32-.58.36-1.12.91-1.47,1.54-.33-.16-.79-.14-1.14-.16m-4.42,3.56c-2.78,8.77-9.71,4.95-10.47,3.82-1.36-1.86-1.62-6.38-.43-7.59,1.7-1.09,4.11-.81,6.12-.84,3.69.05,6.31,1.06,4.78,4.61m18.62-4.03c-.75-.09-1.56-.11-2.26.2-.22-.84-.89-1.55-1.66-1.86-.09-.11-.08-.16-.4-.15-1.94-.54-4.12-.25-5.99.3-2.95.23-6.05.41-9.02.72-2.79-1.15-11.2-1.32-11.72,1.51-.66-.09-1.78-.57-2.33.08-4.05-.63-8.24.25-12.31.64-1.02.17-1.55,2.04-.39,2.01.65-.16-.02-1.16.86-1.24,3.93-.39,7.77-.95,11.74-1.02-.14.63,2.62.67,2.66.3,0,0,.01,0,.02,0-.68,2.33-.07,5.69,1.17,7.14,1.73,1.89,6.07,2.44,7.99,1.22,2.48-1.13,5.06-6.77,4.34-8.65,1.32-.38,2.62-.27,3.98-.07-.31.81-.85,2.81-.08,2.98-.14,3.96,3.79,6.43,7.41,4.81,3.14-1.35,4.23-5.62,3.85-8.22.39.69,3.67-.06,2.14-.71"/>
    <path class="cls-2" d="m57.29,35.51c.38-.62,1.52-.52,1.69.2.35,1.46-1.54,2.81-2.98,2.84-1.43.03-3.04-1.08-2.83-2.5.05-.35.56-.31.73-.09l.07.08c.47.58,1.09,1.18,1.97,1.04.36-.06.69-.27.91-.53.26-.32.24-.71.45-1.05Zm-9.1-10.68c.19-.05.39-.03.56.04.38.06.7.36.82.69,0,.03.02.06.03.09l.02.04-.05-.11c.02.11.12.22.15.32.04.13.05.28.04.42.12,0,.24,0,.37.01h.12c.66.07,1.38.17,1.77.69.22.29.01.82-.39.88-.62.09-1.15-.23-1.77-.29-.58-.06-1.19-.03-1.77.07-1.19.2-2.28.64-3.44.92l-.16.04h0c-.2.04-.42-.21-.23-.36.93-.7,2.12-1.27,3.29-1.61-.17-.25-.22-.58-.11-.84.02-.06.04-.11.06-.16l.05-.11h0c0-.05.02-.1.03-.15v-.02h0c.09-.26.32-.48.61-.56Zm11.85.04c.25-.23.61-.2.88-.02l.04.03h0c.25.1.46.32.59.53.14.21.23.43.24.67.61,0,1.2.17,1.66.63.15.15.25.37.17.57l-.05.12h0c-.15.38-.83.59-1.06.15v-.02c-.26-.53-1.2-.47-1.7-.42-.35.04-.7.12-1.03.21-.12.03-.24.07-.36.1l-.12.04c-.06.02-.39.18-.19.14.05-.01.1.06.04.09-.24.11-.5-.11-.49-.34.03-.42.75-.64,1.09-.79h.02c.13-.06.27-.12.42-.17-.08-.11-.15-.23-.2-.36-.05-.12-.09-.24-.11-.38-.02-.06-.02-.13,0-.19v-.02h0s-.01-.09-.01-.13v-.02s0,0,0,0c0-.16.07-.31.18-.41Zm-4.06,4.43c.98.28,2.59,1.03,2.08,2.19-.71,1.07-2.59.28-3.51-.06-.82-.25-1.25.81-.45,1.12,6.55,2.38,6.53-3.9,2.12-3.81-.49.01-.5.46-.24.55Zm-8.67-8.18l.17-.04c.87-.23,1.75-.63,2.52,0,.3.24.36.75.15,1.05-.49.69-1.22.59-2.01.64-.6.04-1.2.21-1.76.41-.46.17-.89.4-1.29.66-.4.26-.67.66-1.07.89-.15.08-.32,0-.37-.14-.19-.49.13-1.1.4-1.51.33-.51.83-.92,1.38-1.24.59-.34,1.25-.54,1.91-.72h0Zm12.61-.52c1.46,0,2.87.75,3.69,1.84.28.37.07.92-.32,1.14-.45.24-.93.07-1.22-.28l-.02-.02c-.47-.57-1.07-1.02-1.79-1.32-.35-.14-.74-.26-1.11-.32l-.12-.02c-.17-.03-.37-.05-.53-.03-.08,0-.16.04-.23.07.03.07-.05.15-.13.11-.36-.18-.32-.51-.02-.76.42-.36,1.26-.41,1.81-.41Z"/>
  </g>
</svg>