<?xml version="1.0" encoding="UTF-8"?>
<svg id="Layer_2" data-name="Layer 2" xmlns="http://www.w3.org/2000/svg" viewBox="0 0 105.72 104.72">
  <defs>
    <style>
      .cls-1 {
        fill: #010101;
      }

      .cls-1, .cls-2 {
        fill-rule: evenodd;
        stroke-width: 0px;
      }

      .cls-2 {
        fill: #fff;
      }
    </style>
  </defs>
  <g id="Layer_1-2" data-name="Layer 1">
    <g>
      <path class="cls-2" d="m105.72,56.87v29.84c-.54.03-.99-.17-1.24-.7-6,1.16-12.21,1.66-18.31,2.39-.63,3.03.72,6.28-.87,9.12-1.73,2.55-4.12,4-3.99,4.03l-4.85,1.12-.75.17c.43.04.73.25.89.52.11.18.15.38.13.59-.03.29-.18.58-.48.77,0,0-.01.01-.03.02,0,0-.01-.01-.01-.02H17.72c.04-.13.11-.27.19-.41-.48.16-.97.3-1.49.41h-6.65c-2.11-.51-3.87-1.56-4.61-3.21-.71.06-2.29-8.5-2.21-12.29-.08-.04-.17-.08-.25-.12-.01,0-.03-.01-.04-.02-.29-.11-.61-.18-.98-.22-1.29-.16-1.24-1.72-.15-2.01,0-.04,0-.08,0-.11.01-.25.03-.5.05-.75.03-.29.06-.58.09-.87.01-.14.03-.29.06-.43.06-.43.13-.86.21-1.3.06-.29.11-.57.17-.86.08-.39.18-.78.28-1.17.13-.49.26-.97.41-1.45.08-.28.17-.56.27-.84.27-.84.58-1.68.91-2.51.19-.49.39-.97.6-1.45.27-.62.54-1.23.82-1.83.56-1.51.52-3.16,1.04-4.7,3.61-16.27,12.77-16.08,28.52-22.64-1.86-1.24,2.32-5.32,2.74-4.94h.02s.06,0,.06,0h.04s.08-.01.14-.01c0,0,.01,0,.01,0,.1,0,.22-.01.36-.02.07,0,.15,0,.23-.01.05,0,.1,0,.16,0,.11,0,.23-.01.34-.02h.2c.59-.04,1.17-.06,1.45-.07h0c.07,0,.12,0,.14,0,.01-.03.03-.05.04-.07.04-.08.09-.15.14-.23.07-.11.15-.22.22-.32h0c.25-.33.53-.63.85-.89.35-.29.73-.55,1.14-.78.25-.14.5-.26.77-.37h0c.44-.19.91-.35,1.39-.48,2.62-.72,5.74-.67,8.27-.38,2.92.29,4.95,1.53,6.13,3.27.21.31.39.63.54.96.11.23.2.46.28.7.21.6.34,1.24.39,1.91,0,.09.01.18.02.27,0,.06,0,.11,0,.17h0s0,.07,0,.1h0s0,.06,0,.08c.01-.01.04-.01.08-.01.56-.05,3.45.51,2.73,1.61.39.24.64.64.71,1.03.15-.01.32-.02.49-.02.14,0,.28,0,.43.02.06,0,.12,0,.18.01,1.24.12,2.77.54,4.28,1.06.24.08.48.17.71.26.35.13.71.27,1.05.4.23.09.45.18.67.28s.44.18.65.27.41.18.61.27c.1.04.2.09.29.13.19.08.37.17.55.25.13.06.25.12.37.18.12.06.23.11.34.16.25.14.48.29.69.46.07.06.14.11.21.17.09.08.18.15.26.24.74.71,1.25,1.56,1.68,2.43l.15.31.15.32.15.32c.21.44.42.88.64,1.31.08.16.16.32.25.48.14.27.29.54.44.81.24.43.48.85.75,1.27.13.21.27.42.41.62.14.21.28.41.43.62.03,0,.05,0,.07,0,.35-.28.77-.3,1.19-.25,0,0,.02,0,.03,0,.4.05.81.15,1.2.16.13-.11.29-.17.46-.17.05,0,.1,0,.15.02.05.01.1.04.14.07.01.01.03.02.04.04.01.01.03.02.04.04,6.98-.92,13.98-2.15,21.02-3.07Z"/>
      <path class="cls-1" d="m84.69,59.92s-.01-.01-.02-.02c-.01-.01-.03-.03-.04-.04-.04-.03-.09-.06-.14-.07-.05-.01-.1-.02-.15-.02-.17,0-.33.07-.46.17-.38,0-.8-.11-1.2-.16,0,0-.02,0-.03,0-.42-.05-.84-.03-1.19.25-.03,0-.05,0-.07,0-.15-.2-.29-.41-.43-.62-.14-.21-.27-.41-.41-.62-.26-.42-.51-.84-.75-1.27-.15-.27-.29-.54-.44-.81-.08-.16-.17-.32-.25-.48-.22-.43-.43-.87-.64-1.31l-.15-.32-.15-.32-.15-.31c-.42-.87-.94-1.72-1.68-2.43-.08-.08-.17-.16-.26-.24-.07-.06-.14-.11-.21-.17-.21-.16-.45-.32-.69-.46-.11-.06-.22-.11-.34-.17-.12-.06-.24-.12-.37-.18-.17-.08-.35-.16-.55-.25-.09-.04-.19-.08-.29-.13-.2-.09-.4-.18-.61-.27-.21-.09-.43-.18-.65-.27s-.45-.18-.67-.28c-.34-.14-.7-.27-1.05-.4-.24-.09-.48-.17-.71-.26-1.51-.52-3.04-.95-4.28-1.06-.06,0-.13-.01-.18-.01-.15-.01-.29-.02-.43-.02-.17,0-.34,0-.49.02-.07-.39-.32-.79-.71-1.03.72-1.1-2.16-1.66-2.73-1.61-.04,0-.07,0-.08.01,0-.03,0-.05,0-.08h0v-.1c0-.06,0-.11,0-.17,0-.09-.01-.18-.02-.27l-.59.08-.69.09.79,2.98-.16.45-.74,2.1-.74,2.12-2.49,2.96-1.43,2.12-.03.04-.29.42-3.41-2.32-.13-2.51-.1-1.94-.03-.65v-.27s-.9-.51-.9-.51l-.65-.38-9.16-5.29,1.98-2.92-1-.53h0c-.08.1-.15.21-.22.32-.05.07-.1.15-.14.23-.01.03-.03.05-.04.07h0s-.08,0-.14,0h0c-.28,0-.87.03-1.45.06h-.2c-.11.02-.23.02-.34.03-.06,0-.11,0-.16,0-.08,0-.15.01-.23.01-.14,0-.26.01-.36.02,0,0,0,0-.01,0-.04,0-.08,0-.11.01h-.07s-.06,0-.06,0h-.02c-.42-.38-4.6,3.7-2.74,4.94-15.75,6.56-24.91,6.36-28.52,22.64-.52,1.54-.48,3.19-1.04,4.7-.28.6-.56,1.22-.82,1.83-.21.48-.41.96-.6,1.45-.33.83-.63,1.66-.91,2.51-.09.28-.18.56-.27.84-.15.48-.28.97-.41,1.45-.1.39-.19.78-.28,1.17-.06.29-.12.57-.17.86-.08.43-.15.86-.21,1.3-.02.14-.04.29-.06.43-.03.29-.06.58-.09.87-.02.25-.04.5-.05.75h0l1.45.31,16.08,2.24.95-.05.89-.05.89-.05,21.24-5.9,9.31-2.47,7.97-2.78,3.05-.53,4.43,2.57.89.52.58.34,5.6-18.82,9.85-2.1v-.02Zm-7.96,44.01l-.13-.59-.14-.7-.96-4.59-.38-7.29-5.26.95-6.51-.32-10.74-2.18-1.33-.59-6.24,2.7-12.88,6.67-14.41,6.65v.05h58.46s0,.01.01.02c.01,0,.02-.01.03-.02h.64l-.16-.77Z"/>
      <path class="cls-2" d="m67.45,86.34c-.14,0-.28-.02-.43-.05-.05,0-.1-.02-.15-.03-.07-.01-.15-.03-.22-.05-.22-.06-.45-.12-.66-.17-.05-.01-.1-.03-.15-.04-.3-.08-.57-.13-.78-.1h0c.15.19.27.39.33.6.02.07.04.14.05.21.01.07.01.14.01.21,0,.05,0,.1-.01.15,0,.04,0,.08-.02.12,0,.02,0,.03-.01.05,0,.01-.01.03-.01.04-.06.19-.14.34-.25.46-.11.13-.25.22-.4.28-.04.02-.09.04-.14.05-.49.16-1.11.11-1.7,0-.24-.05-.48-.1-.69-.17-.07-.02-.14-.04-.21-.06l-.11-.03-.11-.04-.1-.03-.06-.02c-.46-.16-.92-.34-1.39-.49-.21-.07-.42-.13-.64-.18-.01,0-.02,0-.03,0-.23-.06-.46-.1-.7-.13-.84-.1-1.46.1-2.1.4l-.09.04-.09.04-.14.07-.34.17c-.75.37-1.57.66-2.42.83-.06.01-.11.02-.16.03-.11.02-.22.03-.32.05-.14.01-.27.03-.4.03-.08,0-.15,0-.23,0-.07,0-.13,0-.2,0-.03.02-.06.03-.09.05l-.22.11h.11c.13,0,.25,0,.38.01.25,0,.5.03.75.06.14.01.28.03.42.06.17.02.34.05.51.08.1.01.19.03.29.05l.21.04.41.08c1.01.19,2,.43,2.99.68l.97.25.35.08c.38.1.77.19,1.15.28.32.07.64.14.96.21h0c.32.07.65.13.98.18.13.03.26.04.39.06.27.04.53.07.79.11.13.02.26.03.39.04.13.01.27.03.4.03.26.02.52.04.78.04,0,0,.01,0,.02,0,.27.01.54.01.81,0,0,0,.01,0,.02,0,.13,0,.26-.01.39-.02.18-.01.34.02.46.08l.5-4.8h0s-.05,0-.05,0Zm31.1-28.24c-5.18.71-10.33,1.55-15.45,2.54-1.07.21-2.14.42-3.2.64l-.71.15c-1.05.21-2.32.35-3.23.85-.33.18-.58.42-.76.68-.03.04-.05.08-.08.12-.03.04-.06.09-.08.14-.06.1-.11.21-.16.32-.08.2-.15.39-.22.59,0,0,0,.02-.01.03l-.15.47-.2.59c-.11.34-.22.67-.33,1.01-.1.29-.2.59-.29.88-.07.21-.14.42-.21.62-1.28,4.01-2.43,8.05-3.44,12.11-.5,2.01-.93,4.03-1.38,6.05-.41,1.79-.87,3.57-1.36,5.35,0,0,0,0,0,0,.07-.04.15-.08.25-.11,2.83-.64,5.73-1.01,8.62-1.43l.28-.04,1.79-.27c.87-.13,1.74-.26,2.61-.38.07,0,.15-.02.22-.03,1.44-.21,2.89-.42,4.33-.63l19.77-2.85.13-.02c.14-.02.29-.04.43-.06v-28.19c-2.39.27-4.78.56-7.17.88Z"/>
      <path class="cls-1" d="m64.75,46.05c-.29-.42-.82-.66-1.35-.86l-.07-.03c-.66-.25-1.38-.56-2.1-.64-.07,0-.14.03-.17.08h0s-.02.07,0,.1h0s0,.01.01.01l.07.05.94.65.35.19c.43.23,1,.47,1.26.83.28.38.17.91.14,1.33v.12c-.04.39-.1.8-.1,1.19-.09.01-.17.06-.23.12-.45.52-.69,1.11-1.19,1.61-.45.45-.98.84-1.32,1.35-.48.73-.57,1.55-.51,2.36-.19-.1-.38-.21-.57-.31h-.03c-.4-.23-.95-.63-1.48-.51-.43.1-.74.59-.98.88l-.07.08c-.35.43-.64.89-.89,1.37-.03.07.08.11.13.05.28-.34.59-.66.94-.96l.02-.02c.18-.16.71-.69.95-.67.1,0,.44.28.52.34l.17.11c.12.07.24.14.35.22.14.08.28.17.42.25l.84.49c.36.22,1.03.06.98-.38-.15-1.08-.39-2.29.49-3.24.69-.75,1.65-1.46,1.96-2.38.3.06.64-.05.71-.36.13-.61.11-1.25.12-1.86v-.05c0-.06,0-.11,0-.17,0-.46-.03-.94-.31-1.34Zm-3.11.98l-.03-.05c.01-.06.02-.11.03-.17,0-.06-.09-.1-.14-.04h0s-.03-.04-.03-.04c-.02-.03-.04-.07-.05-.1-.26-.52-.49-1.05-.69-1.58-.1-.27-.2-.54-.29-.81-.08-.24-.16-.47-.25-.7-.09-.25-.18-.5-.27-.75,0-.03-.03-.1-.07-.2-.06-.15-.14-.36-.21-.46.06-.04.08-.09.04-.15,0-.01-.02-.03-.03-.04-.05-.05-.11-.06-.18-.03l-.06.22-.18.67-.07.24v.15c0,.61.08,1.2.21,1.8.14.63.35,1.24.6,1.85v.03c.12.26.22.6.42.87.08.12.18.22.3.3-.34.58-.67,1.17-1.01,1.74-.01.02-.02.04-.03.06-.54.92-1.11,1.86-2.03,2.59-.87.69-1.74,1.28-2.32,2.16-.42.63-1.13,1.85-.36,2.44.01,0,.02.01.03.02.1.06.25.06.35,0,.35-.2.48-.51.59-.82l.06-.17c.15-.45.35-.87.64-1.27.63-.87,1.66-1.44,2.39-2.25.67-.74,1.1-1.57,1.51-2.41l.08-.17c.27-.58.52-1.18.72-1.78.14-.03.25-.1.34-.21.26-.3.14-.63-.03-.95Zm-8.6,10.85c-.55-.31-1.22-.24-1.83-.41-1.22-.34-1.56-1.36-2.28-2.1-.07-.07-.24-.04-.22.06l1.35,2.17c.36.27.8.45,1.29.53.38.07.82.06,1.15.22.24.12.34.32.52.49.13.11.36.05.44-.07.25-.36-.04-.7-.41-.91Zm-22.57,1.01c-.07-.13-.32-.07-.27.07l.86,8.81c-.08.46.76.61.88.14.77-3.05.12-6.26-1.47-9.03Zm-4.46,5.44c-.35-1.18-.74-2.35-1.2-3.5-.44-1.1-.88-2.33-1.65-3.31-.04-.06-.17-.03-.16.04l.84,3.44c.32,1.19.66,2.38.96,3.57.59,2.37,1.16,4.75,1.75,7.13.09.36.8.22.78-.13-.15-2.46-.59-4.85-1.3-7.24Zm24.72,27.76c0-.05-.07-.08-.13-.05l-.91.89-.17.21c-.28.34-.55.69-.81,1.03-.63.83-1.26,1.67-1.89,2.5-1.25,1.67-2.46,3.34-3.49,5.11-.21.36.4.75.74.41,1.52-1.54,2.78-3.21,3.9-4.94.56-.86,1.09-1.73,1.61-2.61.25-.44.5-.89.72-1.34l.02-.04c.18-.37.43-.77.39-1.16Zm33.4-32.58c-.48.09-.95.18-1.43.28,0,0-.01,0-.02,0,0,0,0,0,0,0-.2-.43-.61-.85-.84-1.22-.29-.47-.55-.96-.8-1.44l-.17-.32c-.62-1.22-1.19-2.5-2.04-3.63-.86-1.14-1.97-2.08-3.36-2.82-1.24-.66-2.69-1.06-4.11-1.43l-.35-.09c-.11-.03-.21-.06-.32-.08-1.67-.42-3.39-.78-5-1.32-.03,0-.05-.02-.08-.03-.04-.01-.08,0-.11.01-.06.03-.09.1-.02.13,2.6,1.5,5.77,2.12,8.44,3.51,1.31.68,2.38,1.54,3.2,2.6.78,1.01,1.38,2.1,1.96,3.19l.24.46c.32.61.65,1.21,1.01,1.8l.03.05c.17.28.36.65.61.98-.27.05-.54.11-.81.16-1.21.24-2.46.45-3.64.78-1.04.29-1.9.78-2.42,1.59-.55.85-.78,1.84-1.1,2.75l-.14.4c-1.37,3.98-2.56,7.99-3.56,12.04-.22.89-.43,1.79-.63,2.69-.33,1.45-.63,2.91-.92,4.37-.05.24-.09.48-.13.72-.4.09-.74.04-1.16-.03l-.25-.04c-.47-.07-.92-.06-1.26.23-.44-.46-1.09-.82-1.7-1.05-.84-.31-1.77-.49-2.68-.62l-.48-.07c-.91-.13-1.94-.24-2.79-.04-.32.08-.25.43.03.49.57.12,1.16.08,1.75.11.52.03,1.03.08,1.54.15.89.13,1.8.28,2.6.62.67.29,1.72.99,1.44,1.72-.29.75-1.75.31-2.45.08l-.36-.12c-1.57-.53-3.36-1.25-5.04-.5-.87.39-1.58.92-2.52,1.23-.56.18-1.17.34-1.78.46-.08-.21-.39-.38-.71-.22-1.72.82-3.44,1.64-5.16,2.46-.28,0-.56-.08-.79-.2-.92-.48-1.41-1.48-1.75-2.3l-.06-.15c-.41-1.02-.84-2.24-.71-3.32.04-.3.15-.55.31-.78.98-.27,1.97-.53,2.95-.78,1.56-.41,3.21-.75,4.7-1.31.32-.12.34-.39.15-.54,1.92-.53,3.8-1.16,5.69-1.73.69-.21,1.38-.41,2.07-.62l1.38-.41c.96-.29,2.7-1.06,3.39-.11.13.18.4.18.59.09.35.31.74.6,1.12.89.5.36,1.1.99,1.8,1.01.15,0,.25-.09.29-.2.02-.05.02-.1,0-.15-.08-.29-.29-.4-.56-.56l-.06-.04c-.33-.21-.66-.43-.99-.63-.47-.28-.95-.57-1.46-.8-.43-.78-1.59-.89-2.56-.7-1.32.27-2.64.74-3.91,1.16l-.29.1c-2.49.81-5.03,1.64-7.38,2.71-1.29.27-2.56.68-3.82,1.02l-1.68.46c.17-.1.35-.18.52-.27.08-.04.07-.13,0-.17-.95-.41-1.96-.09-2.69.55-.22.19-.4.41-.54.63-2.8.75-5.6,1.5-8.4,2.26-3.87,1.05-7.73,2.11-11.59,3.19.14-.35.16-.76.22-1.05l.03-.16c.11-.59.17-1.19.25-1.79l.03-.24c.15-1.25.27-2.49.29-3.75.02-1.28.07-2.56.03-3.83-.02-.65-.07-1.31-.16-1.96-.09-.57-.16-1.21-.56-1.69-.04-.05-.13-.04-.16.01-.37.43-.5.98-.6,1.49l-.04.21s-.01.07-.02.1c-.5-.67-1.1-1.3-1.86-1.79-.08-.06-.25.01-.2.11.47.8,1,1.58,1.39,2.42.15.31.29.63.41.95l-.02.15c-.15,1.29-.24,2.58-.38,3.86l-.03.29c-.12,1.19-.19,2.36-.24,3.55-.02.62-.07,1.25-.07,1.87v.03c0,.46-.13,1.22.23,1.62t0,0c-.31.09-.62.18-.92.26.02-.07.03-.15.02-.22-.01-.29-.21-.59-.65-.7-4.44-1.11-9.05-1.64-13.7-1.88-1.02-.06-2.4-.35-3.58-.25.5-1.69.83-3.4,1.25-5.1.48-1.93.99-3.85,1.54-5.77,1.07-3.75,2.23-7.5,3.68-11.18,1.26-3.19,3.01-6.3,6.12-8.63,2.65-1.98,5.97-3.3,9.21-4.51l.56-.21c1.88-.7,3.79-1.36,5.62-2.14,1.67-.71,3.48-1.5,4.84-2.6.63.71,1.4,1.35,2.09,2.04,1.14,1.13,2.17,2.35,3.09,3.62.89,1.22,1.57,2.52,2.45,3.74.43.6,2.1,2.97,3.12,1.73.08-.1.08-.24.03-.35.19-.24.44-.47.62-.7.23-.3.47-.61.71-.91.53-.68,1.09-1.34,1.66-1.99.56-.64,1.12-1.27,1.68-1.91.21-.24.47-.51.69-.78.07-.09.14-.18.2-.27.25.54.22,1.13.04,1.75-.04.15-.09.31-.14.46-.24.75-.49,1.5-.31,2.26.21.86.96,1.37,1.79,1.86l.32.18c1.05.62,1.96,1.37,2.64,2.26.35.46.63.96.81,1.49.17.5.19,1.04.39,1.54.09.22.53.27.66.03.43-.83.13-1.82-.27-2.62l-.04-.08c-.46-.9-1.16-1.7-2-2.39-.06-.04-.11-.09-.17-.13-.34-.27-.7-.52-1.08-.75-.5-.3-1.07-.56-1.48-.95-.8-.76-.31-1.82-.03-2.68l.03-.1c.26-.87.4-1.77-.06-2.61-.43-.78-1.24-1.36-2.11-1.83-.94-.5-1.97-.88-2.96-1.31-1.13-.49-2.22-1.04-3.27-1.64-.96-.55-1.89-1.13-2.8-1.73.47-.37.81-.83,1.1-1.3.36-.57.76-1.27.84-1.91.08-.62-.46-.98-1.02-.97-.41,0-.81.2-1,.64l-.2.58c-1.17-.03-2.4-.03-3.45.35-.07-.05-.32.07-.29.11-.33.14-.64.33-.92.57-.6.52-1.06,1.15-1.51,1.76l-.17.23c-.26.37-.51.74-.8,1.1l-.03.04c-.24.31-.35.63.04.89.14.1.37.13.53.03,0,0,0,0,.01-.01l.03-.02c.05.07.11.15.16.22-1.57.6-3.06,1.33-4.64,1.92-1.78.67-3.57,1.31-5.37,1.94l-.16.06c-3.47,1.22-7.01,2.48-9.98,4.43-1.59,1.04-2.96,2.24-4.1,3.61-1.23,1.47-2.1,3.1-2.85,4.76-1.5,3.31-2.59,6.77-3.62,10.19l-.29.98c-.66,2.18-1.27,4.37-1.81,6.57-.55,2.24-1.15,4.48-1.33,6.76-.43.42-.52.99-.11,1.45.5.57,1.34.64,2.14.63h.13c.05,0,.09-.02.12-.04.08-.07.05-.21-.08-.24-.53-.12-2.18-.61-1.57-1.21.29.01.62-.1.77-.32.34-.04.71,0,1.05.04-.06.58-.1,1.16-.13,1.75-.06,1.45-.04,2.9.03,4.35.08,1.9.22,3.82.89,5.65.59,1.61,1.6,3.08,2.99,4.31.55.49,1.16.95,1.83,1.31h2.16c-.79-.19-1.47-.53-2.11-.96-1.52-1.01-2.71-2.36-3.49-3.83-.96-1.8-1.26-3.78-1.5-5.73l-.04-.32c-.2-1.75-.3-3.5-.38-5.26l-.06-1.24.49.07c.63.1,1.25.22,1.88.29.91.11,1.82.17,2.73.28,3.53.41,6.99,1.06,10.4,1.85-.45.13-.91.25-1.36.38-2.44.7-4.99,1.5-6.72,3.14-.06.06.04.12.1.07,1.62-1.37,3.81-2.02,5.98-2.59l.45-.12c2.75-.7,5.52-1.37,8.27-2.09,5.56-1.44,11.09-2.97,16.62-4.46l.15-.04-.08,1.22c.07,1.03.32,2.1.69,3.09.35.93.85,1.88,1.74,2.54.15.11.32.22.5.3-6.26,2.99-12.52,5.99-18.78,8.99-3.58,1.72-7.23,3.74-11.36,4.39h3.77s0-.06,0-.1c1.73-.58,3.41-1.32,4.96-2.04l.33-.15c4.49-2.11,8.94-4.29,13.41-6.44l2.24-1.08c2.24-1.08,4.48-2.17,6.72-3.25.38.01.78-.05,1.15-.2.39-.15.77-.35.95-.68.03-.05.05-.11.07-.18l2.95-1.43c1.17.39,2.44.6,3.64.94,1.28.36,2.54.75,3.83,1.12,2.54.72,5.13,1.3,7.88,1.16.31-.01.52-.14.64-.31.12.12.31.19.54.18,1.97-.13,3.91-.39,5.85-.67l1.27-.18c-.01.1-.03.2-.04.3-.04.27-.07.54-.1.81-.07.64-.09,1.28-.1,1.91-.02,1.24.03,2.49.14,3.72.11,1.2.32,2.4.58,3.59.13.61.28,1.22.44,1.83.11.4.17.8.38,1.15,0,0,0,.01.01.02.01,0,.02-.01.03-.02h1.24c.08-.52-.18-1.05-.33-1.55,1.12.08,2.63-.39,3.42-.69l.12-.04c.91-.35,1.7-.86,2.46-1.39.74-.51,1.49-1.04,2.11-1.65.67-.66,1.1-1.39,1.21-2.24.09-.67.11-1.35.11-2.02v-.84c.03-1.54-.07-3.02-.35-4.53l14.12-2.05c1.78-.26,3.58-.48,5.36-.74v-1.54c-.19.02-.37.05-.56.07l-19.77,2.85c-1.44.21-2.89.42-4.33.63-.07.01-.15.03-.22.03-1.47.22-2.93.43-4.4.65l-.28.04c-2.88.42-5.79.79-8.62,1.43-.1.03-.19.06-.26.11h0c.49-1.78.95-3.56,1.36-5.35.46-2.02.89-4.04,1.38-6.05,1.01-4.05,2.15-8.09,3.44-12.1.07-.21.14-.42.2-.63.1-.29.19-.59.29-.88.17-.5.34-1.01.51-1.51.07-.19.13-.38.19-.58.07-.2.14-.39.22-.59.05-.11.1-.22.16-.32.03-.04.06-.09.08-.14.03-.04.05-.08.08-.12.2-.27.44-.5.77-.68.93-.51,2.24-.65,3.3-.87l.64-.13c1.06-.22,2.13-.43,3.2-.64,5.11-.99,10.26-1.83,15.44-2.54,2.39-.32,4.78-.62,7.17-.88v-.96c-7.25.81-14.47,1.89-21.61,3.24Zm-34.03-10.19c.24.15.46.32.65.5.1.09.18.18.25.27-.62.3-1.13.88-1.54,1.28l-.22.21c-.59.57-1.16,1.15-1.72,1.75-.61.65-1.21,1.3-1.77,1.98l-.02.03c-.25.29-.76.81-.94,1.27-.02-.02-.05-.04-.07-.06-.57-.5-1.03-1.09-1.45-1.68-.83-1.19-1.52-2.42-2.41-3.58-.91-1.18-1.96-2.28-3.12-3.3-.76-.67-2.92-2.38-2.95-2.4-.08-.08-.16-.15-.24-.24.06-.08.19-.21.24-.28.09-.14.18-.28.27-.43.2-.33.39-.66.59-.99.37-.61.75-1.24,1.3-1.77.18-.17.37-.3.58-.41l1.47,1.49.29.27c.81.74,1.76,1.4,2.71,2.03,1.81,1.18,3.83,2.11,5.89,2.98l.55.23c.34.15.68.3,1.02.47.22.11.44.24.65.38Zm-9.39-8.49s.1-.01.15-.02h0s-.19.93-.19.93c-.1.4-.21.81-.26,1.21-.78-.56-1.55-1.15-2.35-1.69.81-.28,1.76-.33,2.66-.43h0Zm12.11,47.76c.13,0,.27-.02.4-.03.11-.01.21-.03.32-.05.06,0,.11-.01.17-.02.85-.17,1.67-.45,2.42-.83.91-.46,1.64-.85,2.75-.72.24.03.47.07.69.12,0,0,.01,0,.03,0,.22.06.43.12.64.18.47.15.93.33,1.39.49.08.03.18.06.27.09.1.03.21.06.32.09.22.07.45.12.69.17.59.11,1.22.16,1.7,0,.05-.01.09-.03.14-.05.15-.07.29-.16.4-.28.11-.12.2-.27.26-.46,0-.02,0-.03.01-.05,0-.01.01-.03.01-.05.01-.04.02-.08.02-.12.01-.05.01-.1.01-.15,0-.07,0-.14-.01-.21,0-.07-.03-.14-.05-.21-.06-.21-.18-.41-.33-.59.21-.03.48.02.78.1.05.01.1.03.15.04.21.06.44.12.66.17.07.02.15.04.22.05.05.01.1.02.15.03.15.03.29.05.43.05.02,0,.03,0,.05,0h0l-.5,4.81h0c-.12-.06-.27-.09-.46-.08-.13,0-.26.01-.39.01,0,0-.01,0-.02,0-.27.01-.54.01-.81,0,0,0-.01,0-.02,0-.26,0-.52-.02-.78-.04-.13,0-.27-.02-.4-.03-.13-.01-.27-.02-.39-.04-.27-.03-.53-.06-.79-.11-.13-.02-.26-.04-.39-.06-.33-.05-.65-.11-.98-.18h0c-.32-.06-.64-.13-.96-.21-.5-.11-1-.23-1.5-.36l-.97-.25c-.99-.25-1.99-.49-2.99-.68-.29-.06-.6-.11-.91-.17-.17-.03-.34-.06-.51-.08-.14-.02-.28-.04-.42-.06-.25-.03-.5-.05-.75-.06-.16,0-.32-.01-.49,0h0s.21-.11.21-.11c.03-.01.06-.03.09-.05.07,0,.13,0,.2,0,.08,0,.15,0,.23,0Zm22.86,2.68l3.54-.5c1.63-.23,3.26-.46,4.88-.7l1.48-.22-.92,3.64c-.12.77-.23,1.54-.31,2.31-.07.62-.08,1.33-.4,1.91-.23.43-.63.81-1.03,1.17l-.41.36c-.49.43-1.01.85-1.58,1.21-.59.37-1.23.74-1.92.98-.42.14-1.5.48-1.81.21-.14-.13-.31-.18-.48-.18l-.03-.13-.06-.24c-.27-1.21-.46-2.43-.63-3.65-.17-1.26-.27-2.53-.3-3.8-.02-.64-.03-1.27-.04-1.9,0-.13.01-.29.01-.45Z"/>
      <path class="cls-2" d="m66.16,15.19c1.06-.77-.52-3.32-1.05-4.08-.47-.99-.93-1.98-1.4-2.97.06-.81-.72-1.53-1.49-1.29-.67-.49-1.79-.25-2.13.51-7.38-3.28-20.15-1.91-20.82,8.2-1.43,2.88-2.84,5.79-4.11,8.74-1.76.1-2.61,2.27-1.56,3.68.14,2.29,1.56,2.47,3.46,2.36.76.2,1.55.32,2.12.92.43.45.73,1.03,1.01,1.58,1.31,2.57,2.98,4.79,5.25,6.57,3.52,2.69,8.28,4.61,12.67,3.31,9.44-3.78,11.29-18.88,8.04-27.54h0Z"/>
      <path class="cls-1" d="m67.94,15.58c-.34-1.7-.85-3.34-1.66-4.87-.65-1.24-1.57-2.29-2.66-3.13h0c-.16-.12-.32-.24-.48-.35.07-.03.13-.05.2-.08.02-.01.04-.02.06-.03.07.1.15.2.22.3l.15.2c.1.13.33.11.44,0,.11-.11.13-.34,0-.45-.12-.11-.24-.21-.37-.31.27-.29.3-.73,0-1.07C59.56.97,52.63-.99,46.47.47c-6.27,1.48-10.97,6.71-12.5,13.01-.42,1.74-.63,3.56-.5,5.35.06.88.19,1.74.41,2.59.15.59.36,1.2.67,1.74-.22.12-.43.27-.61.43-1.74,1.56-1.56,4.49-.03,6.12,1.11,1.19,2.87,1.44,4.41,1.33.05,0,.1-.01.15-.02.04.12.08.23.13.35.16.39.35.77.52,1.15.3.67.65,1.31,1.02,1.95l.19.34c.7,1.23,1.45,2.64,2.59,3.5.1.08.22.15.34.22.45.26,1.01.45,1.49.3.06-.02.11-.04.16-.07.37-.18.64-.6.53-1.04,0-.01,0-.03-.02-.05-.13-.4-.48-.59-.86-.69-1.15-.29-1.83-1.62-2.5-2.55l-.05-.07c-.57-.77-1.17-1.53-1.81-2.24-.22-.24-.44-.48-.67-.71l-.33-.34c-.1-.1-.2-.2-.31-.29.03-.03.05-.07.07-.11.13-.28.14-.48,0-.77-.11-.24-.39-.36-.64-.38-1.27-.05-2.69.05-3.56-1.08-.59-.77-.78-1.84-.52-2.77.28-1.01,1.17-1.64,2.14-1.85,1.09-.23,2.11.01,3.05.58.05.03.09-.03.07-.07-.1-.23-.21-.43-.36-.61l.07-.06h0s.05.06.08.06c.68.11,1.31.28,1.87.68.06.04.13.09.18.14.31.26.87.12.85-.36-.06-1.44-.33-2.88-.45-4.32-.12-1.48-.16-2.97-.12-4.46v-.03c.01-.52-.01-1.14.36-1.54.32-.34,3.12,0,4.28-.61.59-.31.45-1.07,0-1.41-.69-.52-1.28-2.17-.4-3.05.81-.81,2.17-1.16,3.27-1.33l.11-.02c2.67-.39,5.41.22,8.07.46.75.07,1.51.11,2.26.11h.1c.73,0,1.47-.01,2.1-.39.35-.03.68-.14,1.01-.27,1.5,2.28,2.56,4.91,3.18,7.58.64,2.78.74,5.66.68,8.5-.14,5.82-.77,13.02-5.97,16.6-.29.2-.58.38-.88.54-1.12.6-2.33.92-3.62.96-.93.03-1.85-.08-2.75-.28-.93-.21-1.82-.61-2.76-.75-.77-.12-1.25.84-.55,1.33.68.47,1.52.71,2.32.91l.21.06c.5.13,1.02.23,1.54.31.01,0,.02,0,.03,0,.37.05.75.1,1.12.12,1.31.09,2.61-.06,3.86-.44.21-.06.42-.14.63-.21.18-.07.35-.14.52-.21.09-.04.18-.08.27-.13,2.63-1.24,4.71-3.68,5.91-6.34,1.54-3.42,1.9-7.2,2-10.92v-.17c.08-3.09,0-6.2-.6-9.24Z"/>
      <path class="cls-1" d="m63.45,18.93c-.68-1.02-1.86-1.71-3.09-1.71-.46,0-1.16.05-1.51.39-.25.24-.29.54.02.71.07.04.14-.04.11-.1.06-.04.12-.06.19-.07.13-.02.29,0,.44.03l.1.02c.32.06.64.16.93.29.6.27,1.1.69,1.5,1.23v.02c.26.32.66.48,1.03.26.33-.2.5-.71.27-1.06Zm-11.38-1.27c-.64-.58-1.38-.21-2.11,0l-.14.04c-.56.17-1.1.35-1.6.67-.45.29-.87.68-1.15,1.15-.23.39-.5.95-.34,1.4.04.13.19.21.31.13.34-.21.57-.59.9-.82.34-.24.69-.46,1.08-.62.47-.19.97-.34,1.48-.38.66-.06,1.27.04,1.68-.6.18-.28.13-.75-.12-.98Zm5.2,7.14c-.41,0-.42.43-.2.51.82.26,2.17.96,1.74,2.04-.59.99-2.17.27-2.93-.06-.69-.23-1.04.75-.38,1.04,5.48,2.21,5.46-3.62,1.77-3.54Zm6.04-1.9c-.38-.42-.87-.58-1.38-.58,0-.22-.08-.42-.2-.62-.11-.2-.29-.4-.5-.49l-.03-.03c-.22-.17-.52-.2-.73.01-.09.1-.15.24-.15.38h0c0,.06,0,.1.01.14v.02c-.01.06-.01.12,0,.18.01.12.04.24.09.35.05.12.1.24.17.34-.12.04-.24.1-.35.15h-.02c-.29.14-.89.35-.91.74-.01.22.2.42.41.32.05-.02.01-.09-.03-.08-.17.03.1-.12.15-.13l.1-.03c.1-.03.2-.07.3-.1.28-.08.57-.15.87-.19.42-.05,1.21-.1,1.41.39v.02c.08.16.22.23.36.23.22,0,.46-.15.53-.37l.04-.11c.07-.18-.01-.4-.14-.53Zm-9.56.31c-.33-.49-.93-.58-1.48-.63h-.1c-.1-.02-.2-.02-.31-.02.01-.14,0-.27-.03-.39-.02-.07-.06-.13-.09-.2-.02-.03-.03-.07-.04-.1l.02.06s-.01-.05-.02-.08c-.1-.31-.36-.58-.69-.64-.14-.06-.31-.08-.47-.03-.24.07-.43.28-.5.52h0c-.01.06-.02.11-.03.16l-.04.1c-.02.05-.04.1-.05.15-.1.25-.06.55.09.78-.98.32-1.97.85-2.75,1.5-.15.13,0,.34.15.34.01,0,.03,0,.04,0l.13-.03c.97-.26,1.88-.67,2.88-.85.48-.09.99-.12,1.48-.07.52.06.96.35,1.48.27.34-.05.51-.54.32-.81Zm5.83,8.06c-.15-.67-1.1-.76-1.42-.19-.18.32-.15.68-.37.98-.18.25-.46.44-.76.5-.73.13-1.25-.43-1.64-.97l-.06-.08c-.15-.2-.57-.24-.62.08-.17,1.31,1.17,2.35,2.37,2.32,1.2-.03,2.79-1.28,2.5-2.64Z"/>
    </g>
  </g>
</svg>