<?xml version="1.0" encoding="UTF-8"?>
<svg id="Layer_2" data-name="Layer 2" xmlns="http://www.w3.org/2000/svg" viewBox="0 0 72.83 115.21">
  <defs>
    <style>
      .cls-1 {
        fill: #2d2e2d;
      }

      .cls-1, .cls-2, .cls-3 {
        fill-rule: evenodd;
        stroke-width: 0px;
      }

      .cls-2 {
        fill: #010101;
      }

      .cls-3 {
        fill: #fff;
      }
    </style>
  </defs>
  <g id="Layer_1-2" data-name="Layer 1">
    <g>
      <path class="cls-3" d="m71.07,113.13c.09.68.26,1.35.55,2-.03.02-.05.04-.08.05h-17.18c-4.09-.15-9.43-.14-14.92-.06-1.21.02-2.43.04-3.65.06-.52,0-1.04.02-1.55.03.22-.01.43-.02.65-.03H12.74c.19-.46.57-1.17.09-1.19-.43,0-2.7,1.12-3.5,1.19-.06.01-.11.01-.15,0-.03,0-.05-.01-.07-.02-13.18-5.88-8.79-30.12-4.15-40.92-.74-1.55,1.4-3.73,2.18-5.09.04-.08.09-.15.13-.22h0c.27-.46.55-.9.83-1.32.01-.01.02-.03.03-.04.33-.5.67-.98,1-1.42,0,0,0-.01.01-.02,4.5-5.99,9.08-7.05,13.18-8.34.03-.01.05-.02.08-.03.13-.04.26-.08.39-.13.25-.08.51-.17.76-.25.22-.08.46.52.69.49,2.97-.4,5.63-.8,7.74-2.96.62-.64.87-2.04,1.4-3.01.21-.49.37-1,.5-1.52.03-.12.06-.24.09-.36.03-.1.05-.2.08-.3.01-.06.02-.1.04-.15.04-.18.09-.35.13-.53.32-1.2.76-2.33,1.87-3.14,3.21-1.96,8.79-.66,11,.12h0c.09.03.17.07.25.09.31.12.55.38.73.76.39.82.55,2.19.81,3.84.11.69.24,1.42.41,2.18.03.15.07.31.11.47h0c.1.4.21.81.34,1.22.43,1.36,1.04,2.75,1.98,4.06.23-.16.47-.28.72-.35.02,0,.04-.01.06-.02,0,0,0,0,0,0,.58-.17,1.2-.13,1.83.01,1.55.36,3.21,1.38,4.67,1.86.81.46,1.54.84,2.37,1.3.53.3,8.92,8.2,8.55,12.11h0c0,.06-.01.1-.02.15-.02.11-.04.22-.07.32-.07.17-.3.32-.53.51,0,0,0,0-.01.01-.24.2-.48.44-.56.78h0c-.04.14-.04.29,0,.47.06.3.12.63.18.99h0c.3,1.82.59,4.12.75,4.83.38,1.48.13,3.04.17,4.52.01.37.04.74.11,1.11v.02c.04.25.11.51.2.76.8,2.17,2.07,8.68.6,10.43-.14,2.38,1.95,10.47.36,11.65-.03.3-.07.6-.08.9h0c-.05.73-.05,1.44.04,2.16,0,0,0,.01,0,.02Z"/>
      <path class="cls-1" d="m69.99,73.56s-.04.05-.08.1c-.11.15-.32.44-.6.83,0,0,0,0-.01.01-.16.23-.35.5-.56.78h0c-1.42,2-3.58,5.08-3.88,5.65,0,.02-.02.03-.02.05h0c.01.35.11,3.06.26,6.79.36,9.39,1.01,25.65,1.06,26.14.03.29.04.97.09,1.24-.31.02-11.01-.56-30.9-.2-1.76.03-4.22.12-6.87.23h-15.21c0-.34,0-.69,0-.92.6-.35,1.19-.71,1.77-1.07.02-.02.04-.03.07-.04.03-.02.05-.03.08-.05.02-.01.03-.02.05-.03,1.78-1.28,9.49-8.34,15.21-14.65,3.35-3.71,7.51-6.28,8.13-6.75h0s.05-.05.07-.06c0,0,0-.01.01-.02,0,0,.01,0,.02,0,0,0,.01,0,.02,0,0,0,.01,0,.02,0,.02,0,.03,0,.04,0h.01c2.77-.4,6.9.35,9.92-1.2,1.36-.7,5.92-5.41,7.27-6.71.04-.04.07-.08.09-.12.9-.55,4.41-3.31,4.66-3.64l.08-.1c.27-.38.68-.79.19-1.15-.51-.37-1.48.1-2.01.33l-.08.03c-.26.11-.51.23-.77.35-.33-.86-1.11-.87-1.94-.74-.6.09-1.17.3-1.75.45-.73.2-1.47.39-2.22.57-1.33.32-2.88.89-4.23,1.14-.04-.04-.09-.07-.15-.09-.46-.1-.98-.02-1.46,0-.4.01-.82.02-1.23.02h-.24c-.88,0-2.05-.39-2.93-.39l-.05-.03-.05-.03c-.23-.14-.48-.33-.55-.56,0-.03.86-2.03.85-3.64,0-.89-.33-1.73-.42-2.17-.2-1.08-.6-.38-1.19.69s-1.37,2.05-1.96,2.82c-.75,1.01-1.51,1.32-1.9,1.9-.07.1-.13.2-.19.31-.15-.15-1.38,2.74-1.19,3.36h0s0,.02,0,.02h0c-.07,0-.84.93-2.38,2.38-.36.34-.75.71-1.19,1.09-3.22,2.85-8.69,6.95-16.66,10.34.06-.37,1.2-7.65,1.63-12.62h0c.18-2.01.23-3.63.05-4.29-.6-2.18-7.81-9.88-9.28-10.86-.09-.06-.15-.09-.2-.1h0s0,0,0,0c-.02-.02-.79.47-.81.25-.01-.08.09-.28.42-.67,0-.01,0-.02.02-.03.34-.41.91-1.02,1.81-1.92.13-.14.27-.28.43-.42,0,0,0-.01.01-.02.23-.23.48-.47.74-.73,5.54-5.4,9.32-6.49,12.16-7.51.09-.04.19-.07.28-.1.03-.01.05-.02.08-.03.13-.04.26-.08.39-.12,0,.01-.01.02-.01.03s0,.03.01.04.02.02.03.03c.02,0,.04,0,.07,0h0s.01,0,.02,0c.09-.07.18-.12.26-.15.03-.01.05-.02.08-.02.09-.02.18-.02.27.01.03,0,.05.02.08.03.04.02.09.05.14.08.03.02.05.03.08.06.02.02.04.04.07.06.02.02.04.04.07.06h0s-.05.04-.05.04c0,0-.02.01-.02.02-.02.02-.03.04-.03.06,0,.02,0,.03.01.04.01.01.02.02.04.03.02,0,.04.01.06.02.01,0,.02,0,.03.01.02,0,.04,0,.05.01.03.01.07.02.1.03.27.37.48.82.63,1.05.04.06.07.12.11.17.73.97,3.75,4.44,4.4,5.13.02.02.04.04.05.06.07.07.13.13.2.19,1.18,1.05,4.9,3.85,5.02,3.85h0c.17.1.34.19.52.28.15.08.31.15.46.23.38.18.76.35,1.15.51.24.09.49.19.74.27.2.07.4.14.61.2.02,0,.04.01.05.02.22.07.44.13.66.18.12.04.24.07.36.09,0,0,.01,0,.02,0,.15.04.31.07.47.1.16.04.31.07.47.09.31.06.63.11.94.14h.02c.16.02.32.03.47.05.18.02.34.03.51.04.11,0,.22.01.33.02.09,0,.17,0,.26,0,.26,0,.53,0,.79,0,.22,0,.44-.02.66-.03.44-.03.88-.08,1.31-.16.21-.04.43-.08.64-.13.14-.03.28-.07.42-.1h0c.32-.08.63-.18.94-.29.16-.06.31-.12.46-.18.31-.12.6-.26.89-.41h0c.11-.06.22-.12.33-.18.1-.06.2-.12.31-.19.1-.06.2-.13.3-.19.1-.08.21-.15.32-.23.13-.1.26-.2.39-.3h.02c.31,0,2.71-3.42,3.22-4.83.02-.04.03-.09.04-.14h.02c.2-.03.41-1.35.28-1.35h0s0-.06,0-.09h0c-.01-.93-1.39-3.57-1.52-3.7.02,0,.04-.01.06-.02,0,0,0,.01.01.01.01.02.03.03.06.02.28-.07.56-.12.84-.11.11,0,.56.17.99.34.4.17.78.32.81.34.04.02.08.03.11.05.02,0,.03.01.04.02,0,0,.02,0,.02.01.32.14.64.29.95.45.02.01.04.02.07.03.01.01.03.02.04.02,1.46.72,2.76,1.49,3.92,2.29.63.43,1.22.87,1.77,1.31,1.57,1.26,2.82,2.56,3.83,3.79.5.62.95,1.22,1.33,1.79.72,1.06,1.25,2.02,1.64,2.81h0c.56,1.14.84,1.92,1,2.11h0s.04.04.05.04Z"/>
      <path class="cls-2" d="m72.25,114.3c-.03-.69-.04-1.38-.05-2.08-.02-1.36-.05-2.71-.08-4.06-.07-2.74-.13-5.49-.28-8.23-.29-5.41-.78-10.81-1.54-16.17-.35-2.48-.78-4.94-1.33-7.39-.03-.13-.06-.27-.09-.4,0,0,.02-.02.02-.03.04-.06.08-.1.13-.16t0-.01s.03-.05.05-.07c.51-.65,1.06-1.26,1.55-1.92.05-.07.07-.15.07-.24.02-.01.04-.02.06-.03.46-.26.03-.94-.42-.68.05-.03-.74-1.92-.82-2.11-.3-.68-.63-1.35-1.01-2-.23-.39-.47-.77-.73-1.15-.04-.28-.21-.54-.48-.67-.48-.65-1-1.28-1.56-1.87-2.26-2.43-5.08-4.39-8.15-5.77-.44-.2-.9-.36-1.35-.53-.49-.19-.94-.43-1.41-.62-.19-.08-.37-.13-.55-.17-.59-.12-1.17-.04-1.73.23-.03.01-.04.04-.02.07,0,0,0,0,0,0t0,0s0,.01.01.01c.02.02.03.02.05.02.49-.13.99-.15,1.48-.03.11.03.21.07.32.11.34.14.63.36.96.53.02,0,.03.02.04.03,0,0,.02,0,.02.01.31.17.62.31.95.45.02.01.04.02.07.03.01.01.03.02.04.02.42.18.84.35,1.24.55,1.01.52,2.01,1.09,2.97,1.72-.1,0-.19.01-.29.02-.88.06-1.77.1-2.65.13-.69.03-1.38.04-2.07.08-.04,0-.08,0-.11,0-.51.03-1.05.03-1.56.12h-.01s.01-.06.01-.09h0c.1-.81.09-1.61-.07-2.38-.04-.19-.09-.39-.15-.58-.13-.4-.51-.46-.79-.3-.03-.02-.05-.04-.08-.06-.15-.12-.3-.24-.43-.37,0,0,0,0,0,0-.17-.16-.32-.33-.46-.51-.55-.68-1-1.47-1.34-2.25-.13-.31-.25-.62-.36-.94-.14-.4-.27-.81-.38-1.22-.03-.11-.07-.22-.1-.33-.01-.04-.02-.08-.04-.13-.11-.37-.22-.76-.34-1.13-.11-.36-.19-.77-.38-1.1-.04-.06-.13-.05-.15.01,0,0,0,0,0,.01-.1.42-.04.89-.02,1.32.02.28.03.55.06.82.02.17.03.34.06.51,0,.03,0,.06.01.08.05.37.13.74.21,1.11.14.58.31,1.16.53,1.73.34.88.8,1.7,1.41,2.44.4.49.97,1.14,1.63,1.4.1.93.1,1.86-.11,2.78-.28,1.21-.84,2.36-1.6,3.35-1.61,2.08-4.14,3.27-6.78,3.54-2.73.28-5.54-.28-8.01-1.41-.05-.02-.11-.05-.16-.08-2.68-1.26-4.92-3.2-6.95-5.29-1.19-1.23-2.43-2.44-3.53-3.74-.19-.23-.51-.7-.88-1.12.37,0,.76-.07,1.08-.11.68-.09,1.35-.23,2.01-.4,1.24-.33,2.55-.77,3.63-1.46,1.85-1.17,2.78-2.6,3.21-4.42.07-.31.13-.63.18-.96h0c.02-.14.04-.26.05-.4.05-.47-.43-.72-.85-.68-.1.01-.21.04-.3.09-.05.02-.09.06-.13.09-.08.08-.14.19-.16.32-.19,1.22-.49,1.82-.88,2.99-.37,1.12-.92,1.55-1.99,2.18-1,.6-2.13.95-3.23,1.31-.61.2-1.23.38-1.85.57-.39.12-.85.22-1.25.4-.21-.18-.43-.3-.65-.35.02-.03,0-.07-.04-.06-.07.02-.13.03-.19.04-.07,0-.13.02-.19.04-3.85.85-7.52,2.62-10.63,4.99-.16.07-.31.15-.45.25-.08.05-.13.13-.14.21-.16.13-.32.26-.48.4h-.01c-.3.26-.59.51-.86.78-1.46,1.35-2.68,2.88-3.72,4.51-.02.01-.02.02-.02.03-.15.22-.28.44-.42.67-1.29,2.14-2.28,4.45-3.09,6.8-1.5,4.36-2.49,8.93-3.01,13.5-.53,4.66-.54,9.4.38,14.01.49,2.48,1.27,4.91,2.4,7.18.94,1.9,2.42,4.05,4.66,4.51h1.38s.09.01.15,0h2.12c.13-.06.26-.12.38-.17.16-.08.32-.15.48-.24-.03.13-.06.27-.08.41h1.02c-.02-.31,0-.62,0-.92.6-.34,1.19-.71,1.77-1.07.02-.01.05-.03.07-.04.03-.02.05-.03.08-.05.02-.01.03-.02.05-.03,2.05-1.28,3.98-2.71,5.8-4.27.28-.24.57-.5.85-.75-.2.42-.03.95.54,1.12.69.2,1.4.12,2.12.09.73-.02,1.46-.05,2.18-.07,1.42-.04,2.84-.09,4.27-.13,2.78-.08,5.55-.15,8.33-.2,5.59-.11,11.18-.1,16.77-.07,1.57,0,3.14.02,4.72-.03.78-.03,1.58-.04,2.36-.09.63-.04,1.26-.13,1.89-.22.09,1.06.19,2.12.3,3.18.07.7.14,1.4.21,2.1.03.29.03.58.08.85-.6.04-1.2.06-1.82.05-.89-.02-1.79-.03-2.68-.05-1.76-.03-3.51-.07-5.27-.1-3.47-.07-6.95-.13-10.43-.18-3.47-.05-6.94-.1-10.41.04-3.47.15-6.94.46-10.41.72-.56.04-1.12.08-1.68.12h11.94c1.52-.04,3.04-.06,4.56-.06,1.48,0,2.96.03,4.44.06h23.22c0-.12-.02-.24-.07-.34.05-.29,0-.6-.04-.94-.06-.63-.12-1.27-.18-1.91-.1-1.23-.21-2.48-.31-3.72-.2-2.51-.38-5.03-.55-7.54-.3-4.34-.55-8.69-.75-13.05-.03-.65-.07-1.31-.09-1.96-.05-1.22-.12-2.44-.2-3.66.08-.12.15-.24.22-.35.24-.39.47-.79.71-1.18.48-.78.96-1.57,1.47-2.34.44-.66.89-1.32,1.36-1.96.05.4.11.79.16,1.2h0c.38,2.88.73,5.76,1.01,8.65.04.37.07.74.11,1.11v.02c.11,1.22.2,2.45.28,3.68.34,5.41.55,10.82.69,16.24.04,1.27.07,2.55.1,3.83h0c0,.24.01.47.02.71.01.49.02.96.03,1.45,0,0,0,.01,0,.02,0,.3.01.6.01.9,0,.37-.02.77-.02,1.15h1.23c0-.29-.02-.59-.03-.88Zm-48.67-34.99c-.71.01-1.41.03-2.12.07-.28.02-.56.03-.84.06-.48.03-.96.06-1.44.09-.53.04-1.09.08-1.61.24-1.22-2.01-2.58-3.94-4.05-5.79,3.29.35,6.64.27,9.96.34,2.8.06,5.6.06,8.4.08.95,0,1.9.01,2.85.02,1.03.01,2.06.02,3.09.04.53.01,1.06.02,1.59.03.16,0,.34,0,.51,0-.01.02-.03.05-.04.08-.28.58-.64,1.12-1.06,1.62-.89,1.06-1.97,1.98-2.74,3.14-.07.1-.13.2-.19.3-.15-.14-.37-.24-.65-.25-1.51-.03-3.03-.05-4.54-.07-1.56-.01-3.12-.02-4.69,0-.81.01-1.63,0-2.45.01Zm-3.59,8.02c.19,0,.38,0,.57,0,.84-.01,1.68-.05,2.52-.08.23,0,.46-.02.69-.02,2.26-.07,4.53-.2,6.79-.31-2.25,1.81-4.63,3.47-7.12,4.98-.03.02-.07.04-.1.07-.07-.17-.19-.32-.32-.42-.54-.39-1.52-.15-2.16-.12-.76.04-1.52.09-2.28.14-.23.01-1.41.08-2.26.27.16-1.3.31-2.61.43-3.92.03-.28.05-.55.08-.83.41.12.85.17,1.27.18.63.02,1.26.07,1.89.07Zm1.55,5.66c-1.9,1.03-3.86,1.96-5.79,2.94.16-1.04.3-2.07.44-3.1.19.02.38.03.53.04.73.06,1.45.12,2.18.12.73,0,1.45,0,2.18,0h.47Zm13.28-9.86c-.67.66-1.35,1.29-2.04,1.91-.21.19-.43.37-.64.56-.12-.3-.4-.54-.84-.51-.82.04-1.63.09-2.45.13-1.71.09-3.41.18-5.11.31-.6.04-1.21.09-1.81.13-.62.04-1.25.09-1.87.15-.3.03-.59.07-.89.11-.33.04-.66.1-1,.14-.43.06-.88.13-1.29.28.05-.66.1-1.32.14-1.98.02-.2.03-.4.04-.6.04-.69.04-1.38.03-2.07,0-.35-.02-.7-.04-1.05.03.01.07.01.11,0,.07,0,.13-.02.18-.03.58.21,1.24.25,1.85.29.46.02.92.05,1.38.08.27.01.54.03.8.04.91.05,1.83.07,2.74.07h0c.64,0,1.27.01,1.91.02,1.65.03,3.29.06,4.93.07,1.41.02,2.83.03,4.24.05-.14.58-.13,1.17.1,1.74h0s0,.02,0,.02c-.16-.05-.34-.02-.5.13Zm28.21,3.86c-.75-.02-1.52.05-2.25.07-.96.03-1.91.03-2.87.09-.96.06-1.91.12-2.87.18-.45.03-.89.05-1.33.12-.31.04-.69.04-1.02.13,1.35-1.3,2.7-2.6,4.04-3.9.04-.04.07-.08.09-.12.9-.55,1.77-1.16,2.55-1.86.63.23,1.35.25,2.01.29.67.04,1.35.09,2.02.1.18,0,.37,0,.55,0,.06,0,.11,0,.16-.02-.03.87-.05,1.74-.06,2.62-.01.81-.02,1.62-.01,2.44-.07-.04-.15-.07-.25-.08-.25-.03-.5-.05-.76-.06Zm-14.37,3.89c1.36-.7,2.47-1.8,3.56-2.84v.02c.01.08.05.19.14.22.36.15.78.15,1.17.2.45.06.89.09,1.33.11.99.04,1.98.09,2.97.14.99.04,1.98.03,2.97.04,1,.01,2.04.12,3.01-.03.09-.01.17-.04.24-.08.02,1.22.04,2.45.07,3.68,0,.2.01.4.02.6-.14-.12-.32-.2-.55-.21-1.82-.13-3.65-.04-5.48-.01-1.79.03-3.59.05-5.38.08-3.62.06-7.24.13-10.86.24-1.76.06-3.52.22-5.25.52.67-.61,1.32-1.23,1.94-1.89h0s.04-.04.06-.07c0,0,.01-.01.01-.02,0,0,0,0,0,0,0,0,.01,0,.02,0,0,0,.01,0,.02,0h.07c3.25-.1,6.9.83,9.92-.72Zm-16.71,6.76c1.3-1.21,2.7-2.34,4.04-3.52,3.5.57,7.04.49,10.58.51,3.62.02,7.24-.07,10.86-.1,2.06-.02,4.13.04,6.18-.16.24-.03.43-.12.56-.24.06,2.11.16,4.21.28,6.32-.13-.06-.28-.08-.43-.09-4.63-.2-9.26-.39-13.89-.48-4.63-.09-9.27-.21-13.9-.1-2.26.06-4.65-.06-6.87.45.83-.88,1.68-1.75,2.58-2.57Zm32.89-16.65c-.07-1.25-.1-2.52-.27-3.77-.01-.09-.17-.13-.18-.02-.15,1.13-.17,2.29-.22,3.43-.07-.02-.15-.03-.24-.03-.19,0-.38,0-.57.02-.67.02-1.33.08-2,.14-.38.04-.79.07-1.18.13.31-.34.6-.7.87-1.07.27-.39.58-.98.09-1.34-.54-.4-1.58.14-2.1.35-.26.11-.51.23-.76.35-.33-.86-1.31-.96-2.14-.83-.6.09-1.17.3-1.75.45-.74.2-1.48.39-2.22.57-1.33.32-2.68.6-4.03.84-.04-.04-.09-.07-.15-.08-.46-.11-.97-.02-1.45,0-.49.01-.98.02-1.47.02-.88-.01-1.75,0-2.62-.01-.25-.14-.57-.35-.65-.62-.1-.34.2-.72.33-1.01.52-1.12.69-2.38.47-3.59-.04-.22-.12-.45-.24-.68.96.09,1.9.15,2.87.17,1.92.04,3.85.08,5.77.07,3.69-.02,7.37-.06,11.06-.13.16,0,.32,0,.48,0,2.18-.04,4.34-.08,6.52-.22-.18.22-.34.44-.51.67-.03-.01-.08.01-.08.05,0,.02,0,.03,0,.04-.3.42-.59.84-.88,1.26-.71,1.02-1.35,2.07-1.94,3.16-.28.55-.56,1.1-.8,1.66,0,.02-.02.03-.02.05Zm-8.37-17.35h0c.39.01.79.01,1.18,0,1.21,0,2.43-.03,3.64-.08.42-.01.7-.24.84-.53.03-.07.06-.14.08-.22.01.01.02.02.04.03,1.49,1.16,2.85,2.5,4,3.97-.1,0-.19,0-.29,0-2.55.03-5.1.07-7.65.12h0c-.09,0-.17,0-.26,0-1.44.03-2.89.1-4.34.15-.71.03-1.41.09-2.11.17-.02,0-.03,0-.04,0,.08-.09.15-.17.22-.26.8-.99,1.46-2.19,1.86-3.46.02-.04.03-.09.04-.14h0s0,0,.01,0h0c.54.14,1.11.15,1.68.19.37.02.73.04,1.09.04Zm-21.88,4.91h0c.17.09.34.19.52.28.15.08.31.15.46.23.38.18.76.35,1.15.51.24.09.49.19.74.27.2.07.4.14.61.2.02,0,.04.01.05.02.22.07.44.13.66.18.12.03.24.06.36.09,0,0,.01,0,.02,0,.15.04.31.07.47.1.15.03.31.06.47.09.31.06.62.1.94.14h.02c.16.02.32.03.47.05.18.02.34.03.51.04.11,0,.22.01.33.02.09,0,.17,0,.26,0,.26,0,.53,0,.79,0,.22,0,.44-.02.66-.03.44-.03.88-.09,1.31-.16.21-.04.43-.08.64-.13.14-.03.28-.07.42-.1h0c.32-.09.63-.18.94-.29.16-.06.31-.12.46-.18.31-.13.6-.26.89-.41h0c.11-.06.22-.12.33-.18.1-.06.2-.12.31-.19.1-.06.2-.13.3-.19.1-.08.21-.15.32-.23.13-.1.26-.2.39-.3h.02c.37.09.78.12,1.1.15.74.06,1.47.12,2.22.13,1.44.03,2.89.08,4.34.07.43,0,.86,0,1.29,0,2.5,0,4.99-.01,7.49-.02.17,0,.32-.04.44-.1.05-.03.11-.06.15-.09.3.48.59.98.84,1.48.24.46.45.94.64,1.42h0c.11.29.22.58.32.88-.05-.01-.11-.02-.18-.02-2.6-.01-5.2.06-7.8.12-1.25.03-2.49.06-3.74.08-3.85.06-7.69.09-11.54.16-1.07.02-2.12.03-3.18.13-.55.04-1.11.07-1.66.16-.06.01-.12.02-.19.03-.74-.4-1.65-.3-2.48-.31-.96-.01-1.93-.01-2.89-.02-.89,0-1.77,0-2.66,0-1.01,0-2.01,0-3.02,0-3.75.02-7.5.15-11.25.33-1.87.08-3.73.21-5.56.51l-.38-.46c-1.32-1.58-2.9-3.62-5.05-4.08.08-.13.16-.26.25-.39,1.49.36,3.13.33,4.66.39,1.76.07,3.51.11,5.26.13,3.49.04,6.98.06,10.47.06.97,0,1.94,0,2.91.01.52,0,1.04,0,1.56,0,.3,0,.55,0,.83-.1.26-.09.5-.22.76-.33.09-.04.15-.09.21-.16h0Zm-5.23-4.05c.07.07.13.13.2.19.82.8,1.68,1.55,2.59,2.25-.19,0-.38,0-.57,0-.88,0-1.75.01-2.62.02-1.76.01-3.51.03-5.26.04-3.49.03-6.99.1-10.47.31-.97.06-1.94.09-2.9.19-.53.06-1.04.12-1.56.18-.11.01-.21.03-.31.04.5-.72,1.04-1.41,1.63-2.06.78-.87,1.62-1.68,2.52-2.42.39.11.82.13,1.24.13.64,0,1.29.02,1.93,0,1.24-.03,2.47-.08,3.7-.1,2.53-.04,5.05-.07,7.58-.08.33,0,.57-.14.71-.34.5.54,1.02,1.06,1.54,1.58.02.02.04.04.05.06Zm-6.94-6.74c.14-.06.27-.1.41-.15,0,0-.01,0-.01.01,0,0-.01.01-.01.02h0s-.01.03-.01.04,0,.03.01.04.02.02.03.03c.02,0,.04,0,.07,0h0s.01,0,.02-.01c.09-.07.18-.12.26-.14.03-.01.05-.02.08-.02.09-.02.18-.02.27.01.03,0,.05.02.08.03.05.02.09.04.14.08.03.02.05.03.08.06.02.02.04.04.07.06.02.02.04.04.07.06-.02.02-.05.03-.07.05s-.03.04-.03.07c0,.02,0,.03.01.04.01.01.02.02.04.02.02,0,.04.02.06.02.01,0,.02,0,.03.01.02,0,.04,0,.05.01.03,0,.07.02.1.02h0c.27.37.48.83.63,1.05.04.06.07.12.11.17.39.61.84,1.18,1.29,1.74.1.12.2.24.3.36-2.35.02-4.69.06-7.04.18-1.23.06-2.47.12-3.7.22-.5.04-1.01.11-1.52.18,2.38-1.71,5.04-3.06,7.82-4.1.09-.04.19-.07.28-.1.03-.01.05-.02.08-.03Zm-9.95,55.61c-.62.35-1.25.69-1.94.91-.67.2-1.33.13-2,.27-.04.01-.08.03-.11.04-2.02-.8-3.38-2.45-4.32-4.31-.99-1.96-1.68-4.05-2.16-6.17-.97-4.38-1.03-8.93-.62-13.38.41-4.37,1.28-8.73,2.55-12.94.84-2.81,1.91-5.63,3.41-8.22t0-.01c.04-.08.09-.16.14-.24,1.87,1.18,3.33,2.89,4.7,4.56,1.65,2,3.13,4.12,4.46,6.32-.13.38-.14.86-.2,1.2-.11.66-.22,1.32-.3,1.98-.02.15-.04.3-.05.45-.15,1.27-.3,2.54-.45,3.8-.34,2.8-.77,5.59-1.24,8.37-.04.23.03.41.15.56-1,.52-1.97,1.06-2.93,1.65-2.1,1.3-4.05,2.8-5.58,4.71-.04.05.02.12.07.07,3.29-3.01,7.4-4.93,11.43-6.82,2.06-.97,4.11-1.95,6.09-3.08,2.07-1.17,4.04-2.5,5.92-3.94,2.16-1.64,4.17-3.42,6.07-5.34.22-.23.16-.5,0-.68.05-.02.1-.07.1-.14.03-1.23.4-2.29,1.14-3.3.68-.94,1.56-1.71,2.35-2.56.35-.38.68-.77.98-1.19.31-.43.49-.9.75-1.35.31-.52.59-.26.74.21.18.53.17,1.16.11,1.71-.06.58-.24,1.15-.49,1.68-.24.5-.52,1-.35,1.57.29.93,1.47,1.45,2.36,1.65,1,.22,2.03.17,3.03.03,1.25-.17,2.5-.4,3.74-.66,1.44-.29,2.86-.62,4.27-.99.67-.18,1.32-.4,2-.55.24-.05.68-.13.96-.02-3.59,2.13-7.53,3.58-11.53,4.83-.5.16-.28.89.22.76,4.3-1.08,8.33-3.02,12.17-5.13.06-.03.11-.08.14-.14.39-.14.78-.25,1.18-.35.18-.05,1.1-.35,1.22-.24.16.16-.39.69-.54.84-1,1.09-2.18,1.99-3.47,2.73-1.31.76-2.7,1.36-4.1,1.94-1.57.64-3.23,1.15-4.75,1.89-.61.29-.16,1.26.47,1.05.83-.26,1.62-.65,2.42-.97.68-.28,1.36-.55,2.04-.84.47-.2.94-.4,1.4-.62-.69.64-1.38,1.28-2.07,1.93-1.19,1.11-2.33,2.38-3.79,3.17-1.45.78-3.11.89-4.73.89-.82,0-1.63-.02-2.45.03-.85.04-1.61.18-2.42.45-.02,0-.03.01-.04.02-.03-.03-.08-.05-.13-.02-2.19,1.29-4.19,2.95-6.1,4.6-1.97,1.69-3.83,3.49-5.6,5.39-1.69,1.81-3.36,3.64-5.21,5.31-1.8,1.63-3.73,3.12-5.74,4.5-1.09.75-2.22,1.48-3.39,2.13Zm48.8-5.66c-1.41-.1-2.82-.18-4.23-.25-2.75-.14-5.5-.35-8.26-.4-5.61-.11-11.23.02-16.84.12-1.59.03-3.18.07-4.76.1-.79.02-1.59.04-2.38.06-.8.02-1.66-.04-2.41.23-.01,0-.02,0-.02.01,2.25-2.12,4.26-4.45,6.36-6.71,2.1.62,4.36.59,6.54.69,2.31.11,4.63.2,6.95.26,4.63.12,9.27.3,13.9.43,2.64.08,5.29.17,7.94.26.19,0,.36-.04.52-.13.11,1.68.24,3.37.38,5.04.02.21.04.42.05.63-1.24-.14-2.48-.26-3.74-.35Z"/>
      <path class="cls-3" d="m66.49,30.08c-.44-6.24-2.79-13.31-9.7-16.38-15.23-5.27-35.25,8-36.31,21.57-.37,4.64,2.62,9.72,8.08,11.01,1.21,1.39,3.05,2.23,4.86,2.97,21.59,9.66,35.53,1.81,33.07-19.17h0Z"/>
      <path class="cls-2" d="m54.77,45.03c-.19-.16-.44-.26-.69-.26-.22,0-.45.08-.65.28-.43.42-.97.76-1.57.95-.56.18-1.18.23-1.79.11-1.13-.21-1.86-.81-2.61-1.62-.09-.1-.19-.2-.28-.31-.03-.07-.09-.12-.16-.14-.08-.03-.16-.03-.25-.02-.08.02-.16.06-.21.11-.05.05-.08.12-.09.2-.01.6.24,1.16.65,1.65h0c.07.09.15.17.23.25.22.22.47.42.74.6.48.31,1.01.55,1.54.68.91.23,1.87.21,2.77-.01.92-.23,1.77-.67,2.43-1.28.2-.18.27-.39.26-.59-.01-.23-.13-.44-.32-.6Zm-1.94-8.13c-.51-.08-.71.42-.47.57.92.48,2.31,1.6,1.33,2.79-1.17,1.05-2.84-.15-3.66-.7-.77-.42-1.62.66-.91,1.16,5.96,3.8,8.38-3.13,3.71-3.82Zm-6.46-1.1c-.09-.1-.18-.22-.27-.33-.42-.52-.84-1.04-1.52-1.36-.79-.37-1.72-.36-2.52.01-.46.22-1.17.88-1.55,1.68-.29.59-.4,1.25-.14,1.84.03.06.1.14.23.17.07.02.16.03.24.02.09,0,.17-.04.22-.08.07-.06.11-.13.1-.23-.04-.43.14-.84.39-1.2.37-.52.89-.91,1.19-1.03.38-.15.73-.09,1.03.07.43.24.76.69.96,1.1.11.24.3.38.5.46.24.08.51.07.74-.01.25-.09.45-.26.53-.47.07-.18.05-.4-.13-.62Zm12.75-.28c-.13-.58-.54-1.1-1.09-1.43-.54-.33-1.2-.47-1.88-.35-.49.09-1.22.49-1.61.98-.16.21-.26.44-.27.66-.01.21.05.42.38.71.03,0,.07.01.1.01.08,0,.16-.03.21-.07.15-.11.25-.25.36-.4.05-.08.11-.16.19-.23.21-.21.52-.39.85-.44.3-.04.57.03.79.18.25.17.43.43.5.71.03.12.09.21.19.3.1.08.22.14.34.18.22.06.38.03.59-.06.15-.07.26-.18.32-.31.06-.13.07-.28.04-.42Zm-13.86-6.7c-.33-.28-.74-.38-1.17-.4-.59-.02-1.22.14-1.77.31-.88.28-1.64.69-2.34,1.22-.61.47-1.12,1.13-1.48,1.76-.16.27-.33.71-.34,1.11,0,.26.05.51.26.66.04.03.08.05.13.05.04,0,.09,0,.15-.02.03-.01.07-.04.13-.14.04-.05.08-.11.11-.17.02-.04.04-.07.06-.1.01-.02.03-.04.09-.13.09-.1.19-.2.3-.3.09-.08.17-.17.26-.26.09-.1.19-.2.29-.29.43-.4,1.03-.71,1.58-.96.52-.25,1.09-.41,1.67-.53.21-.04.43-.06.69-.09.49-.04.96-.1,1.37-.44.2-.17.31-.41.31-.66s-.1-.48-.31-.64Zm14.54,2.81c-.18-.67-.62-1.32-1.11-1.76-.61-.56-1.35-.94-2.15-1.23-.06-.02-.12-.04-.18-.07-.83-.31-1.84-.66-2.66-.3-.33.14-.51.39-.56.66-.05.28.04.6.27.84.38.4.96.49,1.53.56.19.02.37.04.54.08.6.12,1.23.28,1.77.52,1.11.49,1.63,1.24,1.9,2.25.01.04.04.08.07.1.03.03.07.04.11.06.04,0,.09,0,.14-.02.04-.02.07-.04.1-.08.34-.47.37-1.04.22-1.6Z"/>
      <path class="cls-2" d="m70.86,60.45c-.4-1.18-.9-2.32-1.37-3.48-.1-.58-.16-1.16-.18-1.74-.06-2.09.34-4.2.78-6.24.91-4.14,1.88-8.24,2.36-12.46.87-7.54.35-15.39-3.16-22.27-3.04-5.96-8.19-10.84-14.84-12.67-1.97-.54-3.99-.84-6.03-.96-.25-.04-.5-.08-.75-.11-2.83-.42-5.7-.63-8.57-.45-4.75.3-9.46,1.63-13.41,4.28-3.98,2.66-6.81,6.39-8.13,10.94-1.37,4.73-1.25,9.86-3.62,14.29-.7,1.31-1.51,2.56-2.29,3.82-2.06,2.25-4.31,4.76-4.8,7.86-.61,3.83,1.65,7.07,3.78,10.05,1.93,2.7,4.54,6.43,2.56,9.75-.94,1.57-2.43,2.74-3.56,4.17-1.17,1.48-2.08,3.19-2.55,5.01-.88,3.42-.07,6.98,2.29,9.65,1.23,1.39,2.81,2.31,4.52,3.03,1.75.73,3.46,1.43,4.91,2.67.66.57,1.27,1.19,1.84,1.85.53.82,1.16,1.58,1.86,2.28.77.77,2.28-.28,1.58-1.19-.05-.07-.1-.13-.16-.2-.52-.66-1.04-1.32-1.58-1.96-1.63-2.52-2.25-5.6-1.44-8.55.21-.76.5-1.49.87-2.17.08.2.16.4.25.59.35.75.84,1.65,1.47,2.41.02.52.1,1.04.26,1.55.97,3.15,4.19,4.71,7.11,5.91.29.12.57.23.84.35.76.31,1.57-.75,1.09-1.39-.12-.17-.24-.34-.36-.51-1.37-2.07-2.02-4.54-1.65-7.01.39-2.61,1.96-4.76,3.52-6.83,1.53-2.04,3.18-4.11,3.86-6.59.76-2.74.07-5.48-1.1-8-1.07-2.31-2.5-4.44-3.7-6.69.41.4.83.79,1.27,1.16.49.42.99.9,1.57,1.2.43.22.86-.3.52-.66-.45-.47-1.02-.82-1.52-1.24-.48-.4-.94-.81-1.39-1.24-.56-.52-1.08-1.07-1.59-1.64-.41-1.02-.74-2.06-1.02-3.12-.37-1.43-.72-2.96-.69-4.45.03-1.52.84-2.59,1.91-3.62.46-.43.92-.86,1.38-1.29.98-.7,1.9-1.49,2.8-2.27,1.6-1.4,3.15-2.87,4.62-4.39.4-.41.79-.82,1.18-1.24,1.36-1.36,2.65-2.78,3.87-4.26,1.21-.43,2.38-1,3.47-1.68-.48.47-1.71.83-2.19,1.3-1.06,1.05-1.42,2.2-2.65,3.05-.13.09-.05.28.11.25,1.57-.31,3.04-.82,4.41-1.63,1.39-.83,2.62-1.95,3.77-3.08.65-.29,1.27-.65,1.85-1.02.03-.02.06-.04.09-.06-.56,1.75-1.39,3.72-3.15,4.35-.06.02-.05.11.01.11,1.48-.09,2.68-.74,3.62-1.69.76-.53,1.48-1.1,2.17-1.71.67-.6,1.3-1.24,1.9-1.9-.84,1.63-1.78,3.22-2.71,4.79-.05.08.05.2.14.14,1.96-1.3,3.45-2.97,4.66-4.95.18-.29.35-.59.52-.89-.13.47-.26.93-.41,1.39-.27.84-.53,1.67-.8,2.51-.14.45-.32.89-.51,1.32-.14.31-.32.62-.35.96,0,.02.02.04.04.03.78-.19,1.51-1.06,2.07-1.6.31-.3.6-.63.87-.98.05,2.01.08,4.01.04,6.02-.08,3.69-.33,7.39-.64,11.07-.28,3.25-.48,6.67-2.33,9.5-1.44,2.19-3.76,3.7-6.29,4.44-.22.07-.45.12-.67.18-3.66.85-7.31-.11-10.55-1.82-.97-.51-1.8.88-.87,1.45,3.51,2.14,7.97,2.87,11.94,1.91-.13,4.6,2.19,8.96,4.49,12.86,1.29,2.18,2.58,4.35,3.49,6.72.77,2.01,1.3,4.09,1.48,6.24.21,2.53,0,5.07-.36,7.57-.02.14-.04.27-.06.41-.08.54.41.99.95.71,2.37-1.22,3.39-3.81,4.01-6.21.58-2.25.97-4.54,1.19-6.84.32.87.58,1.76.79,2.67.03.13.05.26.08.39.15.76,1.33.71,1.52,0,.03-.13.07-.26.1-.38.97-3.84,1.23-7.84.72-11.76-.27-2.06-.72-4.1-1.39-6.07Z"/>
    </g>
  </g>
</svg>