<?xml version="1.0" encoding="UTF-8"?>
<svg id="Layer_2" data-name="Layer 2" xmlns="http://www.w3.org/2000/svg" viewBox="0 0 77.74 111.4">
  <defs>
    <style>
      .cls-1 {
        fill: #010101;
      }

      .cls-1, .cls-2, .cls-3 {
        fill-rule: evenodd;
        stroke-width: 0px;
      }

      .cls-2 {
        fill: #171717;
      }

      .cls-3 {
        fill: #fff;
      }
    </style>
  </defs>
  <g id="Layer_1-2" data-name="Layer 1">
    <g>
      <path class="cls-3" d="m76.61,109.18c-.02-.23-.04-.47-.07-.69-.03-.18-.05-.36-.07-.52-.03-.2-.06-.37-.08-.52v-.07c-1.47-4.37-1.13-9.13-1.7-13.72-.36-4.27-.82-8.53-1.21-12.81l-.02-.26s-.01-.1-.02-.15c-.03-.28-.06-.57-.1-.86-.02-.15-.04-.3-.06-.45-.02-.15-.04-.3-.07-.46-.02-.15-.05-.31-.07-.47-.05-.31-.11-.64-.16-.97-.03-.17-.06-.33-.09-.5-.06-.33-.13-.67-.2-1.01-.12-.61-.26-1.23-.41-1.87-.04-.18-.08-.36-.13-.53-.07-.28-.13-.55-.2-.83-.11-.45-.24-.9-.36-1.37-.25-.93-.53-1.86-.82-2.81-.06-.18-.11-.36-.18-.54-.18-.56-.36-1.12-.56-1.68-.1-.3-.21-.61-.32-.91-.09-.25-.18-.49-.27-.74-.07-.18-.14-.36-.21-.55-.07-.18-.14-.36-.21-.54-.07-.18-.14-.36-.21-.53-.22-.53-.44-1.05-.67-1.57-.45-1.03-.93-2.02-1.43-2.95-.15-.27-.3-.54-.44-.8-.1-.18-.2-.35-.31-.52-.08-.14-.17-.29-.26-.42-.34-.56-.69-1.07-1.05-1.56-.09-.12-.18-.24-.27-.36-.95-1.23-1.94-2.18-2.96-2.75,0,0-.01,0-.02-.01-.13-.07-.26-.13-.39-.2-.02-.11-.05-.22-.08-.33-.05-.21-.12-.41-.2-.62,0,0,0-.01,0-.02-.08-.2-.15-.4-.25-.6-.04-.1-.09-.2-.14-.3-.1-.2-.21-.4-.32-.59-.17-.29-.36-.57-.56-.84-.28-.37-.59-.72-.92-1.04-.07-.07-.14-.14-.22-.2-.23-.21-.47-.41-.72-.59-.08-.06-.16-.12-.25-.18-.15-.1-.31-.2-.46-.29-.1-.06-.2-.12-.31-.17-.18-.1-.36-.19-.55-.27-.09-.04-.18-.08-.26-.11-.11-.04-.22-.09-.34-.13-.31-.11-.62-.2-.94-.26-.07-.02-.14-.03-.22-.04-.09-.02-.19-.03-.28-.04h0c-.27-.04-.55-.07-.84-.08-.09,0-.18,0-.27,0-.13-.15-.26-.31-.39-.46-.13-.14-.25-.28-.38-.42-.05-.06-.11-.13-.18-.19-.24-.25-.47-.49-.72-.72-.22-.21-.44-.41-.66-.6-2.31-2-4.98-3.18-8.17-2.83-.83.04-1.64.47-2.45.95-.21.13-.42.26-.63.39h0c-.27.17-.54.33-.8.48-.44.24-.88.44-1.32.53,0,0-.01,0-.02,0-.55.08-3.59,0-6.4.1-2.08.08-4.04.27-4.77.71-.51.26-1.01.63-1.37,1.07,0,0,0,0,0,0-.31.37-.53.81-.58,1.28-.04.26-.03.54.04.83.35,1.09-.2.77-1.53.82-.26.01-.55.04-.88.09h0c-.66.11-1.46.34-2.37.82-7.36,4.45-2.96,10.41-2.77,10.6-4.59,6.44-8.61,11.66-10.46,19.53-1.2,5.84-1.07,11.87-2.08,17.75-.04.25-.09.51-.14.76-.1.5-.21,1-.33,1.5-.06.25-.12.5-.19.74-.06.25-.13.5-.2.74-.07.25-.13.5-.21.74-.14.5-.28.99-.43,1.48-.64,2.59-.95,9.04-1.3,9.1-.26.07-.25.33-.1.61h75.22c.24-.38.32-.94.32-1.52,0-.23-.01-.47-.03-.71Z"/>
      <path class="cls-1" d="m76.61,109.18c-.02-.23-.04-.47-.07-.69-.03-.18-.05-.36-.07-.52-.03-.2-.06-.37-.08-.52v-.07c-1.47-4.37-1.13-9.13-1.7-13.72-.36-4.27-.82-8.53-1.21-12.81l-.02-.26s-.01-.1-.02-.15c-.03-.28-.06-.57-.1-.86-.02-.15-.04-.3-.06-.45-.02-.15-.04-.3-.07-.46-.02-.15-.05-.31-.07-.47-.05-.31-.11-.64-.16-.97-.03-.17-.06-.33-.09-.5-.06-.33-.13-.67-.2-1.01-.12-.61-.26-1.23-.41-1.87-.04-.18-.08-.36-.13-.53-.07-.28-.13-.55-.2-.83-.11-.45-.24-.9-.36-1.37-.25-.93-.53-1.86-.82-2.81-.06-.18-.11-.36-.18-.54-.18-.56-.36-1.12-.56-1.68-.1-.3-.21-.61-.32-.91-.09-.25-.18-.49-.27-.74-.07-.18-.14-.36-.21-.55-.07-.18-.14-.36-.21-.54-.07-.18-.14-.36-.21-.53-.22-.53-.44-1.05-.67-1.57-.45-1.03-.93-2.02-1.43-2.95-.15-.27-.3-.54-.44-.8-.1-.18-.2-.35-.31-.52-.08-.14-.17-.29-.26-.42-.34-.56-.69-1.07-1.05-1.56-.09-.12-.18-.24-.27-.36-.95-1.23-1.94-2.18-2.96-2.75,0,0-.01,0-.02-.01-.13-.07-.26-.13-.39-.2-.02-.11-.05-.22-.08-.33-.05-.21-.12-.41-.2-.62,0,0,0-.01,0-.02-.08-.2-.15-.4-.25-.6-.04-.1-.09-.2-.14-.3-.1-.2-.21-.4-.32-.59-.17-.29-.36-.57-.56-.84-.28-.37-.59-.72-.92-1.04-.07-.07-.14-.14-.22-.2-.23-.21-.47-.41-.72-.59-.08-.06-.16-.12-.25-.18-.15-.1-.31-.2-.46-.29-.1-.06-.2-.12-.31-.17-.18-.1-.36-.19-.55-.27-.09-.04-.18-.08-.26-.11-.11-.04-.22-.09-.34-.13-.31-.11-.62-.2-.94-.26-.07-.02-.14-.03-.22-.04-.09-.02-.19-.03-.28-.04h0c-.27-.04-.55-.07-.84-.08,0,.01,0,.02.01.03v.03s.69,2.74.69,2.74v2.58c-3.25,3.99-5.68,6.15-7.29,6.48-2.32.48-8.89-6.5-9.36-8.82-.02-.09-.03-.17-.03-.24,0-.14,0-.29.02-.46.07-.97.34-2.35.83-4.13.12-.43.25-.88.39-1.36l.08-.26c-.44.24-.88.44-1.32.53,0,0-.01,0-.02,0-.55.08-3.59,0-6.4.1-2.08.08-4.04.27-4.77.71-.51.26-1.01.63-1.37,1.07,0,0,0,0,0,0-.31.37-.53.81-.58,1.28-.04.26-.03.54.04.83.35,1.09-.2.77-1.53.82-.26.01-.55.04-.88.09h0c-.66.11-1.46.34-2.37.82-7.36,4.45-2.96,10.41-2.77,10.6-4.59,6.44-8.61,11.66-10.46,19.53-1.2,5.84-1.07,11.87-2.08,17.75-.04.25-.09.51-.14.76-.1.5-.21,1-.33,1.5-.06.25-.12.5-.19.74-.06.25-.13.5-.2.74-.07.25-.13.5-.21.74-.1.36-.2.72-.31,1.08l-.13.41c-.64,2.59-.95,9.04-1.3,9.1-.26.07-.25.33-.1.61h75.22c.24-.38.32-.94.32-1.52,0-.23-.01-.47-.03-.71Z"/>
      <path class="cls-2" d="m56.19,91.64c-.31-.4-.82-.29-1.27-.26l-.66.04-1.61.1c-.63.04-1.26.08-1.89.12-.93.06-1.86.12-2.79.19-.02-6.94-.05-13.87-.21-20.8-.04-1.99-.14-3.97-.28-5.96-.11-1.59-.27-3.18-.43-4.76l-.13-1.3c-.01-.09-.13-.09-.14,0-.19,1.8-.39,3.58-.52,5.38-.12,1.76-.24,3.53-.29,5.29-.1,3.56-.1,7.11-.17,10.67-.04,2.75-.08,5.49-.08,8.23,0,1.14,0,2.27.02,3.4l-.48.03c-2.71.21-5.42.39-8.13.57l-3.05.2s-.05.04-.04.07c-.04.02-.08.04-.09.09-.14.63-.14,1.3-.27,1.94-.14.67-.33,1.35-.57,1.98-.48,1.29-1.16,2.51-1.96,3.62-.8,1.11-1.75,2.13-2.78,3.03-.55.47-1.08.93-1.44,1.57-.36.62-.54,1.32-.7,2.01l-1.01,4.25s-.01.04-.01.06h2.29c.03-.18.05-.34.09-.49l.55-2.52.02-.08c.14-.67.24-1.39.51-2.02.28-.61.79-1.09,1.24-1.57l.06-.07c1.9-2.04,3.57-4.5,4.22-7.26.18-.77.29-1.55.3-2.34,0-.69-.02-1.51-.29-2.16,0-.01-.01-.02-.02-.02,3.73.03,7.46.02,11.19,0h.39c.04,2.91.11,5.81.25,8.72.14,3.27.29,6.54.49,9.8h.73c.18-2.82.31-5.64.43-8.46l.06-1.32c.13-2.92.25-5.84.26-8.77,1-.02,1.99-.04,2.99-.07.95-.03,1.89-.07,2.84-.1.44-.02.89-.04,1.33-.06.46-.02.88,0,1.15-.44.12-.19.05-.4-.07-.56Zm-35.55-5.42c-.26-2.41-.89-4.66-2.19-6.72-.11-.18-.36-.06-.33.14.34,2.05.44,4.16.5,6.24.05,2.08-.03,4.17-.14,6.25-.25,4.47-.59,8.93-.88,13.4l-.37,5.74s0,.09-.01.14h2.29l.54-8.42.22-3.5c.15-2.28.3-4.56.42-6.84.11-2.14.19-4.3-.05-6.43Zm22.25-27.51c-.28-.65-1.28-.8-1.89-1.05-.71-.28-1.4-.66-2.04-1.07-1.24-.78-2.35-1.74-3.44-2.72l-.22-.2c-1.24-1.12-2.46-2.26-3.85-3.19-.48-.33-1.09-.74-1.71-.95l.14-.09s.02-.12-.04-.1c-.12.03-.24.07-.37.11-.57-.13-1.13-.06-1.6.44-.04.04.01.1.06.08.11-.06.23-.08.35-.08-1.5.61-2.94,1.41-4.31,2.21-1.8,1.06-3.5,2.29-5.08,3.65-.63.55-1.25,1.11-1.85,1.69-.08-.2-.3-.33-.54-.29-.11.02-.32-.62-.35-.79-.07-.54-.07-1.11-.05-1.66.04-1.08.23-2.18.68-3.16.74-1.63,2.23-2.95,4.05-3.1,1.03-.08,2.12,0,3.01-.62.7-.47,1.1-1.2,1.42-1.95l.04-.1c.31-.77.63-1.6,1.29-2.14.68-.57,1.57-.82,2.42-1.03l.24-.06c.5-.12,1.01-.22,1.52-.28,1.87-.26,3.75-.21,5.64-.14l.76.03s.01,0,.02,0c.01-.01.01-.03,0-.04-2.36-1.25-5.16-1.33-7.75-.9l-.07.02c-1.13.19-2.33.49-3.29,1.15-.65.45-1.09,1.01-1.43,1.66,0,0,0,0,0,0-.14.25-.26.51-.37.78v.04c-.07.15-.14.3-.21.46-.29.67-.66,1.39-1.36,1.62-.04.01-.08.03-.13.03-.28.08-.58.09-.88.09h0c-.24,0-.48-.01-.71,0-.59.02-1.19.09-1.75.3-2.17.79-3.66,2.76-4.23,4.96-.36,1.37-.4,2.83-.22,4.23.08.6.32,1.26.86,1.59.18.1.36.17.55.18-2.06,2.12-3.9,4.44-5.57,6.89-1.38,2.01-2.7,4.09-3.75,6.3-1.16,2.42-1.93,4.96-2.34,7.62-.42,2.69-.55,5.41-.78,8.12-.22,2.61-.62,5.17-1.23,7.72-.68,2.89-1.5,5.77-2.04,8.69-.27,1.49-.46,2.99-.48,4.51-.01,1.08.03,2.21.24,3.28h2.07c-.12-.95-.24-1.89-.26-2.85-.02-1.27.08-2.55.23-3.81.28-2.37.86-4.67,1.43-6.98l.15-.61c.62-2.58,1.17-5.16,1.44-7.8.27-2.57.35-5.17.59-7.74.25-2.6.69-5.17,1.61-7.61.84-2.22,2.02-4.29,3.27-6.31l.16-.27c2.2-3.51,4.72-6.82,7.66-9.73,1.61-1.58,3.34-3.06,5.18-4.38.95-.69,1.91-1.35,2.91-1.97.71-.45,1.44-.86,2.16-1.29.38.22.74.59.98.83l.25.24c.49.47.97.95,1.46,1.43,1.13,1.1,2.23,2.22,3.39,3.28,1.12,1.01,2.31,1.97,3.61,2.73.67.4,1.37.73,2.09,1.01.6.23,1.61.59,2.11.03.3-.21.4-.61.15-.92Zm32.89,38.82l-.06-.31c-.8-4.24-1.11-8.53-1.37-12.83l-.12-1.99c-.49-7.86-1.21-16.14-5.31-23.02-1.03-1.74-2.25-3.34-3.69-4.75-1.13-1.1-2.41-2-3.79-2.72,0,0-.01,0-.02-.01-.13-.07-.26-.13-.39-.2,0-.02.01-.04.02-.07.19-.85-.24-1.92-.61-2.71l-.04-.08c-.41-.84-1-1.59-1.7-2.2-.67-.58-1.45-1.06-2.29-1.33-.72-.23-1.63-.46-2.39-.25h0s-.08.02-.11.03c-.03.01-.02.04,0,.06.72.3,1.47.42,2.15.83.68.41,1.29.9,1.81,1.5.49.55.91,1.2,1.2,1.88.14.34.25.7.33,1.06.09.39.05.83.18,1.2.19.54.93.73,1.3.36,1.15.95,2.18,2.03,3.17,3.15,1.14,1.31,2.12,2.77,2.98,4.28,1.73,3.07,2.95,6.39,3.73,9.83,2,8.75,1.29,17.87,2.7,26.7.8,5.02,1.99,9.95,2.2,15.06,0,.15.04.29.09.4h1.93c.05-.12.08-.25.08-.4.13-4.55-1.1-9.03-1.95-13.47Zm-9.89,11.85l-.02-.15c-.05-.5-.11-.99-.17-1.49-.13-1.02-.26-2.04-.42-3.05l-.03-.18c-.25-1.71-.45-3.53-1.66-4.86-.57-.63-1.29-1.15-1.93-1.73-.59-.53-1.15-1.09-1.68-1.68-.57-.63-1.14-1.28-1.65-1.96-.26-.34-.5-.69-.73-1.05-.2-.31-.37-.67-.64-.93-.02-.02-.07,0-.07.03-.02.73.43,1.59.71,2.25l.05.12c.28.68.6,1.36.98,1.98.45.73.96,1.43,1.52,2.08.53.61,1.12,1.15,1.68,1.72.57.57.91,1.16,1.09,1.94.2.89.3,1.81.4,2.71l.05.4c.09.8.18,1.59.25,2.39.09.96-.04,2.3.65,3.05.4.44,1.08.28,1.37-.18.27-.42.26-.92.22-1.41Zm5.84-1.43v-.19c-.11-1.48-.33-2.95-.58-4.41-.26-1.48-.6-2.96-.91-4.43-.33-1.51-.67-3.02-1-4.53-.64-2.95-1.2-5.91-1.5-8.92-.63-6.37-.55-12.79-.68-19.18-.02-.79-.03-1.59-.05-2.38,0-.09-.14-.09-.15,0-.2,3.21-.4,6.41-.57,9.62-.17,3.16-.5,6.32-.49,9.49.02,3.14.42,6.25.98,9.33.55,3.01,1.29,5.99,1.81,9,.25,1.44.48,2.9.66,4.36.09.75.18,1.5.25,2.25.07.73-.03,1.83.39,2.45.45.66,1.26.64,1.69-.04.39-.63.19-1.69.14-2.4Zm-16.83-59.27c-.06-.22-.19-.37-.36-.45-.04-.06-.09-.1-.14-.15h-.01c-.04-.12-.08-.23-.12-.34-.06-.18-.13-.35-.19-.52-.14-.37-.28-.75-.44-1.12-.15-.35-.3-.71-.45-1.05v-.03s-.02-.02-.02-.03c-.12-.28-.22-.52-.5-.67-.02-.01-.04-.01-.05,0-.05.07-.09.13-.11.2-.1.23-.09.47-.08.72v.1c0,.52,0,1.03.03,1.55.03.73-.09,1.91.42,2.52-.22.34-.45.67-.68,1-1.06,1.48-2.28,2.86-3.59,4.11l-.03.03c-.53.51-1.23,1.34-2,1.41-.32.03-.61-.14-.88-.31l-.14-.09c-.38-.26-.75-.53-1.12-.8-1.62-1.21-3.1-2.57-4.55-3.97-.49-.48-.97-.98-1.44-1.47l-.61-.64c-.18-.19-.36-.37-.53-.57l-.07-.07-.28-.31c.09-.14.18-.26.28-.39.27-.34.57-.66.8-1.04.34-.56.74-1.08.97-1.69.21-.57-.24-1.22-.78-1.37-.05-.02-.11-.03-.18-.03-.53-.06-1.03.28-1.18.8-.18.6-.16,1.28-.22,1.9-.05.51.04,1.02.03,1.53-.32-.34-.65-.68-.98-1-.09-.08-.2.02-.16.12.69,1.63,1.79,3.14,2.91,4.5,1.15,1.39,2.44,2.66,3.8,3.85.67.58,1.35,1.14,2.06,1.67l.07.06c.74.56,1.53,1.04,2.5.9.83-.13,1.5-.63,2.12-1.17l.12-.1c.69-.6,1.35-1.24,1.98-1.91,1.27-1.35,2.41-2.83,3.41-4.38.25-.39.52-.78.39-1.26Z"/>
      <path class="cls-3" d="m44.46,1.95c5.43,0,11.04,4.24,13.03,6.95,1.67,2.28,2.57,12.56,2.57,19.52,0,1.45.8,4.2.56,5.59-.85,5.1-4.56,9.37-11.9,9.37s-12.61-2.93-18.07-10.81c-2.65,0-3.93-2.05-3.95-5.28-.02-3.23,2.56-4.4,2.56-4.4,0,0-.92-12.75,1.39-16.06,2.31-3.32,8.37-4.87,13.8-4.87Z"/>
      <path class="cls-1" d="m60.8,30.42c.14-.79.14-1.64.18-2.44v-.28c.04-.74.05-1.49.05-2.23-.01-1.65-.11-3.3-.32-4.93-.29-2.3-.69-4.66-1.48-6.86.21-.05.42-.24.43-.47.06-.69-.04-1.37-.24-2.02.49-.23.91-.57,1.01-1.15.05-.29,0-.58-.11-.82.81-.77,1.5-1.86,1.44-2.93-.04-.72-.55-1.25-1.24-1.34-.13-.02-.26-.02-.39-.01.07-.15.12-.31.15-.47.13-.63-.1-1.32-.69-1.64-.46-.25-.98-.17-1.46-.02l-.07.03c.05-.1.11-.2.16-.3.26-.52-.06-1.1-.64-1.12-1.59-.09-3.18-.21-4.77-.28-.05-.2-.2-.37-.46-.42-3.38-.61-6.74-.9-10.16-.55-1.67.17-3.34.45-4.97.89-1.43.39-3.06.85-4.29,1.74-.47-.61-1.23-1.12-2.02-.88-.85.25-.98,1-.82,1.78.04.19.1.19.03.23l-.05.03c-.16.09-.36.1-.51.21-.3.19-.49.51-.57.85-.19.73.17,1.38.62,1.92-1.59,2.32-2.49,5.06-2.84,7.85-.19,1.48-.22,3-.08,4.49.07.7.14,1.42.29,2.11.13.59.33,1.15.55,1.71l.03.07c-.78.69-1.26,1.75-1.38,2.77-.21,1.7.27,3.78,1.23,5.2.28.42.62.79,1.01,1.09-.14.28-.25.57-.36.84l-.04.1c-.18.47-.39,1.03-.19,1.52.22.54.82.65,1.3.4.06-.03.12-.07.18-.1.11,0,.24-.02.36-.04.13.44.39.83.73,1.06.65.45,1.6.41,2.25-.04.66,1.07,1.49,2.05,2.41,2.9l.02.02c.5.46,1.16,1.17,1.9.87.06-.02.11-.05.16-.09.24-.15.33-.39.32-.64,0-.29-.13-.59-.33-.82-.42-.47-.99-.85-1.45-1.3-.49-.47-.96-.95-1.4-1.47-.31-.35-.61-.72-.93-1.07-.15-.19-.32-.37-.48-.56-.26-.29-.53-.57-.78-.87-.1-.15-.21-.3-.31-.44l-.15-.2s.03-.04.04-.07c.2-.34,0-.71-.33-.83-.5-.19-1.03-.13-1.53-.33-.49-.2-.87-.6-1.14-1.05-.62-1.03-.99-2.37-.98-3.57.01-1.02.43-2.13,1.33-2.67.4-.24,1.05-.34,1.62-.24.25.21.51.41.73.64l-.03.07s.03.09.07.09c.02,0,.03,0,.04-.02l.02-.02c.07.08.13.17.18.25.26.45.37.93.91,1.11.15.05.3.07.45.06.08,0,.16-.01.24-.03.26-.05.51-.14.77-.18.4-.06.59-.57.51-.92-.24-1.09-.46-2.18-.73-3.27l-.09-.37c.65-1.12,1.25-2.27,1.82-3.43.02.22.04.44.07.66.04.37.55.74.85.35.98-1.26,1.97-2.49,2.78-3.86.55-.92,1.03-1.89,1.46-2.87.04.15.09.3.14.44.17.46.59.78,1.09.64.48-.13.77-.58.98-.99l.22-.42c.15-.28.29-.56.44-.83.72.94,1.61,1.73,2.64,2.34.26.15.66.02.73-.3.16-.83.32-1.66.48-2.49,1.38,1.01,2.83,1.9,4.34,2.68.34.18.77-.04.77-.45,0-.66.05-1.31.18-1.95.67.51,1.41.9,2.21,1.15.77.24,1.59.35,2.39.27h.02l.11.07h.02c.21.13.42.07.56-.06.39,2.92,1.04,5.79,1.29,8.74.13,1.6.2,3.23.18,4.84-.01.78-.04,1.55-.09,2.33-.04.68-.16,1.38-.2,2.06-.18.19-.26.46-.18.74.2.68.49,1.31.65,1.99.04.17.07.34.08.51.09.88.01,1.78-.21,2.63-.43,1.68-1.41,3.24-2.76,4.31-1.75,1.38-3.94,2.23-6.2,2.56-1.37.19-2.76.2-4.09.01-2.03-.29-3.9-.88-5.51-2.19-.04-.04-.12,0-.08.07.21.34.45.64.7.93.39.45.83.85,1.31,1.2,2.39,1.73,5.65,2.1,8.57,1.62.22-.04.44-.08.67-.13.22-.04.43-.1.65-.15,2.58-.68,5.03-2.11,6.7-4.18.72-.89,1.3-1.91,1.67-3.05.36-1.11.53-2.31.42-3.47-.08-.94-.28-1.98-.77-2.82Z"/>
      <path class="cls-1" d="m58.11,18.02c-.8-1.43-2.78-1.92-4.3-2.13l-.14-.02c-.16-.02-.33,0-.47.07-.14.07-.25.18-.33.33-.1.2-.1.36-.03.57.05.16.15.28.27.36.13.08.29.13.45.14.75.03,1.49.15,2.22.33.34.09.67.22.99.35l.28.12c.26.1.52.2.85.26.03,0,.05.01.08.02.09-.03.1-.07.12-.1h0s.05-.09,0-.29Zm-11.7-.96c-.43-.42-1.11-.28-1.65-.14l-.18.04c-.57.14-1.13.4-1.64.71-.95.57-1.87,1.46-2.31,2.49-.04.11.08.25.19.17.84-.66,1.64-1.25,2.64-1.62.46-.17.92-.28,1.41-.34.59-.07,1.14.04,1.6-.39.26-.25.16-.68-.06-.91Zm9.44,2.68c-.37-.08-.66.13-.85.42-.02.04-.04.07-.05.1-.61.66-.28,1.87.27,2.45.34.35,1.03.2,1.23-.25.34-.82.56-2.46-.59-2.72Zm-10.56,1.31c-.21-.98-1.71-.64-1.72.35,0,.62-.1,1.05.05,1.97.12.68,1.09.97,1.42.19.34-.82.44-1.64.25-2.51Zm7.27,3.29c-.4-.04-.53.42-.33.54.75.39,1.92,1.35,1.22,2.49-.85,1.03-2.24.02-2.92-.44-.63-.34-1.23.7-.65,1.11.24.15.48.29.71.4,1.38.68,2.45.55,3.13.03h0c1.47-1.1,1.23-3.9-1.17-4.14Zm2.33,7.19c-.05-.07-.12-.11-.2-.13-.08-.02-.17-.02-.25.01-.07.03-.13.08-.16.15-.07.08-.14.17-.2.24-.53.62-1.04,1.09-1.82,1.23-.41.08-.82.02-1.18-.13-.38-.15-.72-.41-1-.73l-.03-.04c-.15-.2-.34-.28-.52-.3-.21-.02-.42.06-.58.2-.16.14-.27.34-.29.55-.02.19.03.4.19.58.46.53,1.06.94,1.72,1.15.65.22,1.34.26,2.01.08.61-.15,1.24-.52,1.7-1.03.42-.45.69-1.01.7-1.62,0-.09-.03-.17-.08-.23Z"/>
      <path class="cls-1" d="m60.41,35.09h0c-.11-.78-.28-1.41-.32-1.51-.13-.34-.27-.67-.44-1-.07-.12-.13-.24-.2-.35-.85-1.42-2.14-2.54-3.68-3.19-.65-.27-1.33-.46-2.03-.57h0c-1.02-.17-2.08-.17-3.13-.03-2.26.3-4.47,1.25-6.12,2.65-1,.85-2.02,2.11-2.33,3.46-.09.02-.18.07-.25.13-2.12-1.31-4.31-2.56-6.02-4.37-1.24-1.32-2.11-2.88-2.64-4.59,0-.02-.01-.03-.02-.04-.06-.08-.2-.07-.24.03-.01.01-.01.03-.01.05,0,.03,0,.07,0,.1-.02-.07-.13-.03-.13.03-.28,2.08-.64,4.28-.31,6.37.12.79.4,1.46.79,2.08.22.36.48.71.76,1.06.83,1.05,1.77,2.03,2.73,2.98.2.2.4.41.62.61.43.42.88.82,1.37,1.11.36.22.75.41,1.14.58.54.25,1.09.47,1.62.7,0,0,.01,0,.02,0,.95.4,1.9.77,2.88,1.1,1.01.34,2.04.61,3.08.83.97.2,1.95.36,2.93.45.47.04.96.09,1.46.12.27.02.55.03.83.03.97,0,1.93-.09,2.8-.43,1.2-.46,2.18-1.3,2.95-2.3.35-.46.67-.94.95-1.45.39-.7.71-1.44.92-2.21.2-.69.14-1.65.02-2.46Zm-16.14-.09c.82-1.87,2.6-3.24,4.64-3.74,1.51-.36,3.09-.35,4.62-.21.8.08,1.66.14,2.42.43.65.25,1.17.72,1.57,1.27.47.66.79,1.41,1.02,2.17.03.11.06.22.09.33-.1.58-.31,1.07-.85,1.44-.54.36-1.18.5-1.82.56-.06-.03-.12-.06-.18-.09-1-.56-1.7-1.87-2.95-1.69-1.12.16-1.86,1.54-2.53,2.34-2.13.24-4.27-.38-6.01-1.58-.09-.41-.09-.82-.03-1.23Z"/>
    </g>
  </g>
</svg>