<?xml version="1.0" encoding="UTF-8"?>
<svg id="Layer_2" data-name="Layer 2" xmlns="http://www.w3.org/2000/svg" viewBox="0 0 87.53 116.24">
  <defs>
    <style>
      .cls-1 {
        fill: #010101;
      }

      .cls-1, .cls-2 {
        fill-rule: evenodd;
      }

      .cls-1, .cls-2, .cls-3 {
        stroke-width: 0px;
      }

      .cls-2 {
        fill: #fff;
      }

      .cls-3 {
        fill: #ecdcc0;
      }
    </style>
  </defs>
  <g id="Layer_1-2" data-name="Layer 1">
    <path class="cls-2" d="m12.3,115.59c6.25.18,12.16.37,18.41,0,9.99-.62,39.31.5,45.75,0,.49-.04,2.16.5,2.19,0,.28-3.48.47-38.69-.37-41.11-.84-2.42-5-14.07-10.29-19.5-1.48-1.47-3.72-2.04-4.96-3.73-1.07-1.85-.99-2.93-2.04-3.91-.46-.42-1.54-.59-2.34-1.18-.81-.81-.04-2.59-.37-3.72-.68-2.81-3.2-4.62-5.95-5.04-3.82-.92-7.86-.05-9.69,2.98-.68,1.13-.32,2.5-1.16,4.3.06,1.36-1.52,1.69-2.47,2.24l-1.88,1.91c-5.78,3.28-12.58,5.05-17.65,9.45-4.31,4.4-8.59,9.49-10.5,15.45-.4,1.62-.52,3.3-.69,4.96-.47,4.85-1.77,9.55-2.89,14.27-1.28,5.95-2.47,12.26-.75,18.27.5,1.27,6.53,4.3,7.66,4.36Z"/>
    <path class="cls-2" d="m41.43,44.67l.49.05v3.79l6.39,6.7,1.17,1.34c-.7,2.5,0,3.75,2.1,3.75,3.15,0,.71-.92,1.31-2.17l.02-.05c.43-.85,1.9-2.66,4.4-5.43l2.87-4.84v-.88l.1.04c.27.11.51.23.66.38,1.06.97.97,2.06,2.04,3.91,1.24,1.7,3.49,2.26,4.96,3.73,5.29,5.43,9.45,17.08,10.29,19.5.84,2.42.66,37.63.37,41.11-.03.5-1.71-.04-2.19,0-6.44.5-35.76-.62-45.75,0-6.24.37-12.15.18-18.41,0-1.13-.06-7.17-3.09-7.66-4.36-1.72-6-.53-12.32.75-18.27l.11-.46c1.08-4.49,2.29-8.97,2.76-13.57l.02-.24c.16-1.66.29-3.34.69-4.96,1.91-5.96,6.2-11.05,10.5-15.45,5.02-4.36,11.73-6.14,17.48-9.35l.17-.1,1.88-1.91.06-.03c.95-.52,2.47-.87,2.41-2.2v-.02h0Z"/>
    <path class="cls-1" d="m42.38,41.08c.05-.16.29-.12.31.04.18,1.55-.05,3.17-.26,4.72-.1.74-.16,1.52-.32,2.25-.02.08-.04.16-.06.24.05.08.2.18.27.24l.31.28.63.56c1.23,1.1,2.46,2.21,3.69,3.31l1.81,1.62c.62.56,1.32,1.09,1.87,1.71.29.34.36.75.07,1.11-.14.18-.4.31-.66.33.1.13.18.28.23.45.1.34-.27.75-.66.61-.45-.16-.81-.44-1.27-.58-.46-.14-.96-.16-1.43-.09-.22.03-.43.08-.64.15,2.22.95,4.63,1.49,7.08,1.57.5.02,1,0,1.5-.02.84-.05,1.67-.17,2.48-.36.64-.15,1.28-.34,1.89-.56.3-.11.6-.23.89-.37h.03c.07-.05,1.27-.69,1.29-.78.02-.1.02-.13-.02-.21-.04-.08-.15-.14-.15-.14-.37-.15-.76-.29-1.17-.29-.94,0-1.96.64-2.74,1.07-.85.48-1.64,1.04-2.46,1.56-.02.01-.04.02-.06.02-.09,0-.17-.1-.11-.18.59-.8,1.38-1.47,2.21-2.05l.33-.23c.76-.52,1.65-1.11,2.57-1.23,1.13-.15,2.32.5,3.33.88l1.79.68c.32.12.67.22.99.36l-.75-2.17c-.37-1.09-.75-2.17-1.12-3.26l-.07-.21c-.37-1.1-.71-2.25-1.32-3.26-.15-.24-.31-.47-.48-.7-.17-.24-.24-.5-.45-.71-.43-.42-1.04-.67-1.63-.83-.14-.04-.1-.21.03-.23.6-.06,1.18.07,1.72.31l.23.1c.51.23,1.02.44,1.4.84.87.92,1.32,2.09,1.74,3.24l.11.31c.16-.05,1.21.25,1.34.32,3.96,1.55,7.01,4.44,9.25,7.82,2.45,3.71,3.78,7.95,4.88,12.14.34,1.29.66,2.59.98,3.89-1.39.49-2.86.75-4.16,1.45-.5.27-.05.98.45.71,1.22-.65,2.6-.89,3.91-1.35.71,3.01,1.34,6.04,1.86,9.08,1.62,9.33,2.64,18.82,2.57,28.28,0,.21-.07.44-.19.64.07-.03.13-.07.16-.12.41-.6,1.44-.04,1.03.56l-.06.09c-.31.44-.6.78-1.14,1.03-.55.25-1.14.29-1.75.31-2.05.05-4.11.08-6.17.11-.28-2.04-.4-4.1-.79-6.12-.1-.52-.96-.3-.86.22.38,1.96.5,3.94.76,5.91-4.4.04-8.8.04-13.19.06-5.96.02-11.91,0-17.86,0h-2.55c-6.88,0-13.76-.02-20.64-.06h-1.64c-.65-3.56-1.09-7.15-1.1-10.76,0-.53-.89-.53-.89,0,0,3.61.45,7.19,1.09,10.74-1.63,0-3.26,0-4.89.05l-.83.03c-1.66.05-3.32.08-4.98-.04-1.84-.14-3.7-.45-5.35-1.25-.74-.36-1.4-.82-1.95-1.37.57-.31,1.14-.6,1.69-.93.48-.29.03-1-.45-.71-.59.36-1.22.67-1.83,1-.44-.55-.8-1.15-1.08-1.81-.43-1.03-.6-2.14-.75-3.24-.17-1.29-.24-2.59-.24-3.88,0-2.73.31-5.45.74-8.14.41-2.58.96-5.14,1.54-7.7l.08-.35c.57-2.51,1.11-5.03,1.77-7.52.6-2.3,1.3-4.6,2.13-6.85.74.42,1.52.8,2.25,1.24.48.29.93-.42.45-.71-.78-.47-1.61-.86-2.39-1.32.93-2.41,2.02-4.76,3.33-7.01,2.62-4.51,6.16-8.55,10.68-11.53,2.27-1.49,4.75-2.71,7.36-3.6,2.66-.91,5.42-1.4,8.24-1.61.08,0,.13.06.12.13h0s.11.03.11.03c.04-.26.13-.51.29-.74.37-.52,1.06-.86,1.62-1.18l.13-.08c.66-.38,1.36-.75,2.13-.89.03,0,.04.02.03.04-.51.54-1.16.95-1.75,1.41l-.14.11c-.49.38-1.18.8-1.2,1.43-.02.74.14,1.51.2,2.25.06.73.1,1.47.12,2.21.08,2.64-.02,5.28-.27,7.91l1.12-.69c1.74-1.08,3.48-2.15,5.26-3.16,1.08-.61,2.29-1.13,3.57-1.11.36,0,.77.05,1.16.16-.42-.37-.82-.76-1.24-1.13-.68-.61-1.36-1.22-2.04-1.84l-1.96-1.77-1.96-1.77c-.61-.55-1.32-1.05-1.25-1.92.05-.69.43-1.38.69-2.04.04-.1.07-.19.1-.28.52-1.61.82-3.27,1.35-4.88Zm25.31,68.99c-.4-.37-1.03.21-.63.58l.21.2c.36.33.71.67.96,1.08l.04.06c.27.47,1.03.05.77-.42-.33-.58-.85-1.05-1.35-1.51Zm-17.35-.11c-1.29-.23-2.53-.23-3.82,0-.56.1-.32.89.24.79,1.13-.2,2.22-.2,3.35,0,.56.1.8-.69.24-.79Zm-17.41-8.3c-.55-.13-.79.66-.24.79l.27.06c.93.21,1.81.37,2.78.17.55-.11.33-.89-.21-.8h-.02c-.89.19-1.72-.03-2.58-.23Zm30.92-5.35c-.41-.37-1.04.21-.63.58.51.46,1.12.81,1.85.83.56.01.57-.78.03-.82h-.03c-.49-.01-.88-.29-1.22-.59Zm-52.33-2.2c.51-.24.06-.95-.45-.71l-3.07,1.42h0c-.51.24-.06.95.45.71l3.07-1.42h0Zm60.72.18c-.57-.01-.57.81,0,.82.54.01,1.09.2,1.57.42.51.23.96-.48.45-.71-.63-.28-1.31-.51-2.02-.53Zm-28.71-3.98c.47-.3.03-1.01-.45-.71-.65.41-1.24.89-1.87,1.31l-.18.11c-.47.3-.03,1.01.45.71.71-.44,1.34-.98,2.05-1.42Zm33.06-5.99c-.57,0-.57.82,0,.82h.11c.47,0,.97-.01,1.41.16l.05.02c.51.22.97-.49.45-.71-.64-.28-1.32-.29-2.02-.29Zm-49.38-.59l.07-.03c.53-.18.3-.97-.24-.79-.81.27-1.45.78-2.15,1.23-.47.3-.03,1.01.45.71.61-.38,1.18-.87,1.87-1.12h0Zm33.35-2.14l.12-.06c.51-.24.06-.95-.45-.71-.4.19-.76.45-1.16.65l-.12.06c-.51.24-.06.95.45.71.4-.19.76-.45,1.16-.65h0Zm-13.53-7.98l-.09-.08c-.41-.37-1.04.21-.63.58,1.02.93,2.23,1.63,3.45,2.31l.22.12c.49.27.94-.44.45-.71l-.33-.18c-1.08-.61-2.16-1.23-3.08-2.04h0Zm-24.6-.77c.34-.41-.4-.82-.76-.43h-.01c-.36.45-.78.84-1.23,1.19l-.08.07c-.26.21-.75.66-1.12.69-.57.04-.57.87,0,.82.58-.05,1.07-.42,1.51-.74.63-.47,1.2-1,1.69-1.6Zm47.3-3c.41-.36-.2-.93-.61-.59h-.01c-.77.68-1.88.86-2.88,1.09-.56.13-.32.92.24.79l.45-.1c1.02-.23,2.03-.51,2.82-1.19Zm-17.61-5.19c-.55-.13-.79.66-.24.79.94.22,1.84.51,2.71.91.51.23.96-.48.45-.71-.94-.43-1.91-.75-2.92-.99Zm9.08-17.36s.03-.08.07-.07c1,.34.47,1.55.16,2.28l-.06.13c-.49,1.16-1.16,2.29-1.9,3.33-.77,1.09-1.63,2.13-2.57,3.11-.4.42-.82.84-1.26,1.24l-.16.15c-.44.4-1,1.1-1.68,1.02-.73-.08-1.14-.8-.61-1.35.38-.39.9-.7,1.32-1.05.42-.35.82-.71,1.22-1.08.81-.76,1.57-1.57,2.27-2.42.68-.82,1.32-1.67,1.91-2.54l.12-.18c.45-.68,1.48-1.69,1.17-2.57Zm-35.35,8.63c-.47-.3-.92.41-.45.71.86.55,1.62,1.21,2.56,1.66.5.24.95-.45.47-.7h-.02c-.94-.46-1.7-1.12-2.56-1.67Z"/>
    <path class="cls-2" d="m54.76,47.09c-2.27.01-4.19-.63-5.66-1.71-1.83-.66-4.05-1.68-5.39-2.74-.52.13-1.15-.43-1.55-.72-2.5-1.88-4.45-4.63-5.03-7.38-.9,1.14-2.17,1.19-3.39.62-2.56-1.46-2.46-4.54-1.54-6.84-1.94-4.38-3.28-15.95-.32-20.61.6-.7,1.49-1.12,2.13-1.83.57-.63,1.11-1.27,1.77-1.76,2.02-1.55,5.5-2.37,7.67-2.76,9.09-1.98,16.07,1.58,24.31,4.58-.47,1.19-1.13,2.28-1.88,3.3,2.04.77,1.11,2.5-.48,3.37l-.94-.46c1.47,5.31,4.86,18.5,3.4,22.74-1.17,6.61-6.28,12.26-13.08,12.21Z"/>
    <path class="cls-3" d="m45.17,8.76c1.89,0,4.55.74,6.89,1.47,1.18.37,2.27.74,3.16,1.01.44.14.83.25,1.16.33.32.08.57.12.73.12.32,0,.75-.16,1.25-.4.5-.24,1.05-.57,1.61-.89.56-.32,1.12-.64,1.63-.87.51-.23.98-.37,1.34-.34.38.04.68.3.92.65.24.35.42.81.56,1.25.14.45.23.89.29,1.21,0,0,0,.01,0,.02l-.14-.07c-.06-.32-.15-.72-.28-1.12-.14-.44-.32-.88-.55-1.22-.23-.34-.5-.56-.82-.59-.33-.03-.77.1-1.28.33-.5.23-1.06.54-1.62.86-.56.32-1.11.65-1.62.89-.5.24-.96.42-1.31.42-.18,0-.44-.05-.76-.13-.32-.08-.72-.2-1.16-.33-.89-.28-1.99-.65-3.16-1.01-2.35-.74-4.99-1.47-6.85-1.47s-3.58.77-5,1.83c-1.42,1.06-2.53,2.4-3.16,3.52-.62,1.1-.16,2.34.47,3.32.31.49.67.91.94,1.21.14.15.25.27.34.35.04.04.07.07.1.09.01.01.02.02.03.02,0,0,0,0,0,0,0,0,0,0,0,0,0,0,0,0,0,0h0s.04.04.04.04l-.04.05h0s0,0,0,0c0,0,0,0,0,0,0,0,0,0,0,0,0,0,0,.01-.02.02-.01.02-.03.04-.06.08-.05.07-.13.17-.21.29-.18.24-.41.58-.65.95-.24.37-.47.77-.65,1.15-.18.38-.29.72-.29.97,0,.53.11,1.63.22,2.6.06.48.11.94.15,1.27.02.17.04.3.05.39,0,.05.01.08.01.11,0,.01,0,.02,0,.03,0,0,0,0,0,0,0,0,0,0,0,0,0,0,0,0,0,0h0s.01.1.01.1l-.1-.03h0s0,0,0,0c0,0,0,0,0,0,0,0,0,0,0,0,0,0,0,0-.02,0-.02,0-.04-.01-.07-.02-.06-.02-.14-.04-.25-.08-.21-.06-.5-.15-.82-.23-.65-.17-1.45-.33-2.02-.33s-1.05.31-1.4.63c-.18.16-.32.32-.41.44-.05.06-.09.11-.11.14-.01.02-.02.03-.03.04,0,0,0,0,0,.01,0,0,0,0,0,0,0,0,0,0,0,0h0s-.02.03-.02.03h-.25s-.03-.08-.05-.13h.23s.01-.02.02-.03c.03-.04.07-.09.12-.15.1-.12.25-.29.43-.45.36-.33.88-.67,1.49-.67s1.4.17,2.05.34c.33.08.62.17.83.23.1.03.18.06.24.07,0-.01,0-.03,0-.05-.01-.09-.03-.23-.05-.39-.04-.33-.1-.78-.15-1.27-.11-.97-.22-2.08-.22-2.61,0-.28.12-.65.3-1.03.18-.38.42-.79.65-1.16.24-.37.47-.71.65-.96.09-.12.16-.22.21-.29.02-.02.03-.04.05-.06-.02-.02-.05-.05-.09-.09-.08-.08-.2-.2-.34-.35-.28-.3-.64-.73-.95-1.22-.63-.99-1.12-2.29-.47-3.45.64-1.14,1.76-2.49,3.2-3.56,1.43-1.07,3.19-1.86,5.08-1.86Z"/>
    <path class="cls-1" d="m56.07,47.66c-2.94.3-6.44-.4-8.4-2.81-.06-.07-.08-.15-.09-.23,0-.09.03-.17.08-.24.05-.07.13-.12.22-.13.07-.01.16,0,.24.04l.18.1c1.34.75,2.73,1.38,4.25,1.65,1.56.28,3.16.25,4.71-.11,2.82-.65,5.11-2.3,6.79-4.48,1.88-2.43,3-5.52,3.29-8.61.35-3.74-.46-7.46-1.29-11.09-.88-3.81-1.84-7.6-2.95-11.34-.03-.11-.04-.22-.03-.32-.33-.13-.68-.09-1.03.02-.64.22-1.27.7-1.8,1.11-.19.15-.37.28-.53.39-.66.45-1.37.78-2.17.83-.83.05-1.65-.21-2.41-.53-.38-.17-.76-.34-1.14-.51-1.07-.49-2.13-.97-3.29-1.29-1.55-.42-3.16-.63-4.76-.61-2.87.03-5.75.77-7.51,3.22-.71.99-1.18,2.13-.81,3.35.2.67.57,1.27.97,1.82l.14.19c.22.3.42.61.47.93.05.27.01.56-.18.87-.12.2-.27.37-.43.55-.11.13-.22.25-.32.39-.19.28-.37.57-.5.88-.26.61-.38,1.26-.4,1.92-.03.79.08,1.57.19,2.35.08.55.16,1.1.19,1.66,0,.1-.02.17-.07.22-.05.07-.12.11-.21.12-.03,0-.05,0-.08,0,.01.05.02.11.03.16-.05-.07-.11-.14-.17-.2,0,0,0,0-.01,0-.06-.03-.11-.09-.15-.15-.08-.08-.17-.15-.27-.23-.49-.37-1.06-.59-1.64-.59-.55,0-1.11.18-1.53.58-.85.8-1.1,2.1-1.1,3.21,0,1.14.25,2.51,1.24,3.21.4.28.88.45,1.37.46.4,0,.79-.14,1.17-.28.12-.04.23-.08.35-.12.13-.04.25-.04.36,0,.12.04.22.11.29.21.07.1.12.22.14.35.01.12,0,.25-.05.37-.01.03-.03.06-.04.09l.22.36c.83,1.37,1.68,2.72,2.78,3.9.64.68,1.31,1.32,2.05,1.88l.11.08c.06.05.13.11.21.17.22.18.47.42.72.43.07,0,.13,0,.19-.01.14-.02.25-.02.37.02.09.04.19.11.28.25.07.1.1.22.1.34s-.03.25-.09.35c-.13.2-.28.33-.44.4-.18.08-.39.09-.6.05-.52-.1-1.1-.53-1.46-.82l-.07-.05c-.81-.62-1.58-1.31-2.26-2.09-1.15-1.32-2.19-2.87-2.72-4.56-.37.25-.84.37-1.32.38-.7.03-1.45-.16-2-.42-1.21-.58-1.95-1.67-2.29-2.93-.4-1.46-.27-3.14.24-4.46.01-.04.03-.08.05-.11-1.56-3.99-2.04-8.41-1.91-12.66.06-1.99.2-4.08.66-6.02.21-.87.57-1.7,1.15-2.38.33-.39.74-.69,1.14-1,.35-.26.71-.52,1-.85l.14-.16s.06-.07.09-.1c.51-.57,1.02-1.13,1.64-1.59.72-.54,1.52-.97,2.35-1.32,1.79-.76,3.71-1.22,5.62-1.57,4.12-.76,8.35-.8,12.42.27,1.89.5,3.73,1.18,5.56,1.86.17.06.34.13.51.19,1.42.53,2.85,1.05,4.28,1.58.66.24,1.32.49,1.99.73.14.05.28.17.36.31.08.14.1.3.04.46-.41,1.04-.92,2.01-1.54,2.92.22.15.4.35.54.58.18.29.28.64.29,1.01.02,1.23-1.09,2.07-2.01,2.67-.09.06-.17.09-.25.1.89,3.44,1.75,6.9,2.48,10.38l.05.24c.75,3.65,1.23,7.37.52,11.06-.61,3.18-2.03,6.25-4.24,8.62-2.17,2.32-5.08,3.78-8.23,4.11Zm-20.36-16.94c-.68-.27-1.4-.35-2.12-.23-.08.01-.15,0-.21-.04-.06-.04-.11-.09-.14-.16-.03-.07-.03-.15,0-.22.02-.06.07-.12.15-.16.78-.38,1.65-.54,2.51-.42h.09c.44.08,1.06.22,1.53.49.37.21.63.51.7.9.03.2-.01.41-.13.56-.11.15-.28.25-.5.24-.39-.01-.62-.18-.9-.39-.03-.03-.07-.05-.1-.08-.27-.2-.56-.37-.87-.49Z"/>
    <path class="cls-1" d="m64.52,28.86c-1.53.74-3.67-.35-4.7-1.5-.38-.42-.66-1.62-.52-2.38.39-2.06,1.86-3.29,3.41-3.71,2.15-.58,4.31.9,4.06,2.64-.24,1.66-.6,4.06-2.25,4.95m-10.43-3.95c-.12,2.24-1.91,4.2-4.04,4.78-3.44.97-5.14-1.47-5.91-4.09-.08-.26-.26-1.06.23-1.74,1.9-2.69,6.52-2.23,8.82-1.49.68.65.95,1.59.9,2.54m12.1-3.87s0,0,0,0c0,0-.02,0-.02-.01,0,0,.02,0,.03.01m2.88.26c-.2-2.28-7.31-1.41-8.14-1.22-2.27.67-4.23,2.5-6.76,1.7-2.63-2.95-11.47-2.1-13.33-.6-.35-.14-.78-.06-1.23.07-2.32-.08-12.92.72-10.76,3.71.33.23.66,0,.67-.48,11.3-4.11,10.21-.26,11.55-.71.2.06.42.1.61.14,1.04.34,1.39.23,1.53,1.41.94,9.06,12.92,5.94,11.93-1.5.97-.05,1.82-.48,2.85-.06.71,7,6.31,7.29,7.99,4.86,1.27-1.69.77-4.23,2.51-5.55.69.58.73-1.38.57-1.75"/>
    <path class="cls-1" d="m60.26,42.77s-4.85.73-7.03-.3c-2.17-1.02-4.27-2.02-6.24-3.37-2.01-1.39-3.72-3.04-4.94-5.16-1.13-1.97-2.08-4.05-3.03-6.13-.06-.12-.6-1.32-.79-1.73-.3-.63-1.16-.43-1.16.54s-.04,8.33,1.62,11.22c1.5,2.61,4.05,4.44,6.57,6.03,2.8,1.76,6.51,3.67,9.85,4.17,3.02.46,6.47-.82,8.65-2.93,2.29-2.2,2.93-5.2,4.11-8.06.26-.64-.67-1.03-.94-.4-.52,1.19-6.68,6.11-6.68,6.11Z"/>
    <path class="cls-1" d="m64.69,34.42c-.11-.34-.69-.31-.66.09.04.46-.11.97-.55,1.19-.45.23-.97.02-1.24-.37-.24-.35-.41-.72-.71-1.02-.28-.28-.62-.5-1-.63-.29-.1-.6-.13-.89-.09-.73-.17-1.58.21-2.04.79-.03.04-.06.08-.08.11-.05-.06-.09-.12-.14-.18-.13-.16-.29-.19-.43-.15-.83-.62-1.98-.7-2.92-.14-.75.45-1.37,1.11-2.3,1.16-.73.04-1.53-.38-1.58-1.19-.03-.42-.6-.78-.92-.38-.67.82-.81,1.92-.44,2.91.39,1.05,1.2,1.79,2.21,2.23,1.1.47,2.38.63,3.57.6,1.18-.04,2.26-.5,2.97-1.47.09-.12.16-.23.23-.35.69.89,1.78,1.26,2.88,1.29,1.16.03,2.52-.18,3.34-1.08.79-.87,1.06-2.17.69-3.29"/>
    <path class="cls-1" d="m55.1,40.91c-.81-.34-1.54-.9-2.07-1.62-.18-.25-.23-.51-.19-.76.04-.27.2-.52.42-.68.22-.17.49-.25.75-.21.23.04.45.16.63.42l.04.05c.32.43.73.79,1.2,1.02.45.22.96.32,1.48.26,1-.11,1.68-.66,2.41-1.4.09-.09.18-.19.27-.29.06-.09.14-.15.23-.18.1-.03.21-.03.31,0,.1.03.19.1.24.19.06.08.09.19.08.31-.07.77-.46,1.46-1.03,2-.63.6-1.45,1.01-2.24,1.16-.86.16-1.74.05-2.53-.28h0Zm2.94-11.88c.91.56,2.31,1.88,1.32,3.28-1.16,1.23-2.83-.18-3.65-.82-.76-.5-1.62.78-.91,1.36,5.94,4.47,8.35-3.67,3.7-4.48-.51-.09-.7.49-.46.66Zm-10.64-5.19c.1-1.27,2.01-1.56,2.2-.3.17,1.13-.03,2.17-.53,3.18-.48.97-1.68.52-1.77-.37-.12-1.19.04-1.72.1-2.51Zm14.55-.56c.27-.35.65-.6,1.11-.46,1.44.43,1.02,2.5.51,3.51-.27.55-1.16.69-1.56.2-.65-.79-.97-2.36-.14-3.14.02-.04.05-.08.08-.12Zm-12.9-5.01l.23-.04c.7-.12,1.58-.24,2.08.33.26.3.35.87,0,1.16-.62.51-1.31.31-2.06.36-.62.04-1.21.14-1.8.31-1.3.38-2.36,1.07-3.48,1.83-.15.1-.29-.09-.23-.23.64-1.28,1.89-2.33,3.13-2.97.67-.34,1.39-.62,2.13-.75Zm11.58-.57l.17.04c1.89.4,4.36,1.21,5.25,3.1.03.27,0,.32-.03.36h0s-.04.09-.16.12c-.03,0-.06-.02-.1-.02-.41-.11-.74-.26-1.05-.42l-.34-.17c-.4-.2-.8-.39-1.22-.53-.9-.3-1.83-.51-2.78-.62-.2-.02-.4-.09-.56-.21-.15-.11-.26-.27-.31-.48-.07-.27-.05-.48.1-.72.11-.18.26-.31.44-.39.18-.07.39-.09.59-.05Z"/>
  </g>
</svg>