<?xml version="1.0" encoding="UTF-8"?>
<svg id="Layer_2" data-name="Layer 2" xmlns="http://www.w3.org/2000/svg" viewBox="0 0 85.95 115.89">
  <defs>
    <style>
      .cls-1 {
        fill: #010101;
      }

      .cls-1, .cls-2, .cls-3 {
        fill-rule: evenodd;
        stroke-width: 0px;
      }

      .cls-2 {
        fill: #171717;
      }

      .cls-3 {
        fill: #fff;
      }
    </style>
  </defs>
  <g id="Layer_1-2" data-name="Layer 1">
    <g>
      <path class="cls-3" d="m83.87,115.89H2.03s.04-.09.08-.11c-.12-.18-.2-.4-.21-.64-.26-3.61-.11-7.29.06-10.9.18-3.67.59-7.33,1.11-10.96.11-.8.23-1.6.37-2.39.1-.57.28-1.16.35-1.73,0-.02,0-.05.01-.07,0-.08.01-.17.02-.25.02-.89-1.26-1.18-1.9-1.62-.16-.11-.32-.23-.45-.37h0c-.08-.07-.15-.15-.21-.23-.05-.06-.09-.12-.14-.18-.05-.08-.1-.15-.14-.24-.04-.08-.08-.17-.11-.25-.07-.21-.1-.42-.1-.63,0-.09,0-.18.02-.27.02-.19.06-.39.1-.58.02-.06.03-.11.04-.17s.03-.13.05-.19l.04-.14c.32-1.16.69-2.31,1.1-3.44,1.69-4.67,4.06-9.14,7.11-13.13,2.46-3.21,5.34-6.12,8.64-8.54.19-.14.38-.28.57-.41.39-.28.78-.54,1.18-.8.2-.13.39-.26.6-.39.53-.33,1.07-.66,1.62-.96.27-.15.54-.3.82-.44,1.4-.73,2.84-1.37,4.33-1.92.21-.08.41-.15.62-.24.22-.09.45-.18.68-.28.11-.04.22-.09.34-.14.08-.03.17-.07.25-.1.24-.09.49-.18.73-.26.09-.03.18-.05.27-.08.01,0,.02-.01.03-.01.22-.06.44-.1.66-.14.11-.02.22-.03.33-.04.11,0,.22-.01.33-.01h.03c.11,0,.22,0,.34.02.13.01.25.03.38.06.02,0,.19.02.43.06.06.01.12.02.19.03.09.02.19.03.3.06.06,0,.11.02.18.03.03,0,.07.02.11.02.02,0,.03,0,.05,0,.08.02.16.03.24.05.02,0,.03,0,.04,0,.07.01.14.03.21.04,0,0,.02,0,.03,0,.05.01.1.02.15.03.38.07.67.12.7.1,1.59-.56,1.31-1.31,2.54-2.4.74-.66,1.2-1.5,1.61-2.36.14-.28.27-.56.4-.84.24-.49.48-.98.79-1.43.11-.17.24-.34.37-.49h0c.19-.23.4-.45.62-.65.19-.18.39-.34.6-.48,2.47-1.8,6.13-2.08,9.02-1.31,1.65.44,3.23,1.26,4.41,2.45.34.35.58.71.73,1.09.05.11.09.23.12.34.04.1.07.21.08.32.05.19.08.4.1.6.09.72.1,1.48.26,2.3.16.84,1.26,1.86,1.7,2.58.4.67,1.07,1.06,1.79,1.36.08.03.16.06.22.07h.01c.62.12.74-.55,1.41-.4.05.01.11.03.17.05,1,.37,2.94,2.02,3.9,2.48,3.83,1.86,6.94,4.64,8.78,8.39.35.72.67,1.45.96,2.19.1.24.2.49.29.74.02.05.04.1.06.15.09.24.18.48.27.72.1.26.19.52.28.77.16.45.32.9.48,1.35l.07.2c.79,2.21,1.58,4.42,2.29,6.65.34,1.05.66,2.1.95,3.16.09.33.19.65.27.98.05.2.11.41.16.62.14.53.27,1.07.39,1.6l.07.29c.24,1.07.63,2.27.54,3.37,0,.07-.02.15-.03.21-.01.07-.02.14-.04.2-.02.07-.03.13-.05.19-.02.07-.04.13-.07.19-.02.06-.05.12-.08.18-.02.04-.03.08-.05.12-.3.58-.78,1.06-1.28,1.59-.02.02-.04.04-.05.06-.18.2-.27.43-.31.68-.09.48,0,1.02.07,1.52.15,1.12.32,2.24.49,3.36.36,2.35.76,4.7,1.19,7.04.8,4.34,1.81,8.63,2.71,12.95Z"/>
      <path class="cls-1" d="m81.36,87.59c0,.07-.02.15-.03.21-.01.07-.02.14-.04.2-.02.07-.03.13-.05.19-.02.07-.04.13-.07.19-.02.06-.05.12-.08.18-.02.04-.03.08-.05.12l-8.64,2.98,3.7,24.22H17.35v-1.48l1.76-21.9-8.91-1.6-8.74-4.07h0c-.08-.07-.15-.15-.21-.23-.05-.06-.09-.12-.14-.18-.05-.08-.1-.15-.14-.24-.04-.08-.08-.17-.11-.25-.07-.21-.1-.42-.1-.63,0-.09,0-.18.02-.27.02-.19.06-.39.1-.58.02-.06.03-.11.04-.17s.03-.13.05-.19l.04-.14c.32-1.16.69-2.31,1.1-3.44,1.69-4.67,4.06-9.14,7.11-13.13,2.46-3.21,5.34-6.12,8.64-8.54.19-.14.38-.28.57-.41.39-.27.78-.54,1.18-.8.2-.13.39-.25.6-.38.53-.34,1.07-.66,1.62-.96.27-.15.54-.3.82-.44,1.4-.73,2.84-1.37,4.33-1.92l.12-.04c.16-.06.33-.13.5-.2.22-.09.45-.18.68-.28.11-.04.22-.09.34-.14.08-.03.17-.07.25-.1.24-.09.49-.18.73-.26.09-.03.18-.05.27-.08.01,0,.02-.01.03-.01.22-.06.44-.1.66-.14.11-.02.22-.03.33-.04.1-.01.2-.02.3-.02.14,0,.27,0,.4.02.13.01.25.03.38.06.02,0,.19.02.43.06.06.01.12.02.19.03.09.02.19.03.3.06.06,0,.11.02.18.03.03,0,.07.02.11.02.02,0,.03,0,.05,0,.08.02.16.03.24.05.02,0,.03,0,.04,0,.07.01.14.03.21.04,0,0,.02,0,.03,0,.05.01.1.02.15.03l-.72.72-1.26.24c.19.3.38.59.57.87,4.25,6.32,9.23,9.48,14.94,9.48s10.5-3.45,13.58-10.35l.42-.12c.05.01.11.03.17.05,1,.37,2.94,2.02,3.9,2.48,3.83,1.86,6.94,4.64,8.78,8.39.35.72.67,1.45.96,2.19.1.24.2.49.29.74.02.05.04.1.06.15.09.24.18.48.27.72.1.26.19.52.28.77.16.45.32.9.48,1.35l.07.2c.79,2.21,1.58,4.42,2.29,6.65.34,1.05.66,2.1.95,3.16.09.33.19.65.27.98.05.2.11.41.16.62.14.53.27,1.07.39,1.6l.07.29c.24,1.07.63,2.27.54,3.37Z"/>
      <path class="cls-2" d="m84.08,115.42l-.02-.08c-.09-.47-.17-.93-.26-1.4-.17-.86-.34-1.72-.5-2.59-.34-1.79-.65-3.59-.99-5.38-.67-3.5-1.45-6.98-2.09-10.49-.26-1.48-.49-2.98-.82-4.46-.04-.18-.08-.36-.13-.53.15-.05.29-.1.44-.15.67-.23,1.33-.46,2-.7.65-.24.85-.79.59-1.38-1.02-2.3-1.53-4.81-1.98-7.28l-.3-1.64c-.49-2.67-.95-5.36-1.75-7.97-1.64-5.31-5.01-9.81-9.5-13.26-2.17-1.66-4.49-3.17-6.99-4.32h-.02c-.16-.08-.59-.23-.95-.25-.37-.01-.75.22-.82.73h0s-.01,0-.01,0l-.04-.04c-.25-.24-.59-.4-.87-.61-.29-.22-.56-.47-.8-.73-.46-.49-.84-1.06-1.15-1.64-.56-1.04-.79-2.14-.94-3.29-.02-.16-.04-.33-.06-.49l-.02-.13-.02-.13c-.02-.13-.16-.22-.27-.18-.03.02-.07.04-.09.08-.05.08-.09.16-.13.24-.09.19-.17.39-.23.59-.38,1.25-.16,2.69.33,3.86.33.79.78,1.48,1.36,2.13.54.6,1.35,1.43,2.18,1.6.2.04.37.02.52-.04-1.03,3.85-4.55,6.87-8.54,7.84-5.07,1.23-10.32-.5-14.17-3.71-1.68-1.4-3.11-3.06-4.45-4.76-.17-.21-.34-.43-.5-.64l-.19-.24s.03,0,.04.01c2.2.18,4.25-.66,5.96-1.94,1.62-1.22,2.73-2.86,3.47-4.68.09-.22.18-.44.25-.67.16-.47-.12-.89-.53-1.07-.25-.11-.54-.14-.79-.04h0c-.11.04-.22.11-.31.2-.4.41-.56.94-.75,1.46l-.04.1s-.04.1-.06.15c-.12.29-.25.57-.4.84-.03.07-.07.14-.11.2-.46.81-1.04,1.56-1.71,2.22-.91.9-2.01,1.63-3.18,2.21-.59.3-1.2.56-1.82.78-.06.02-.09.07-.08.12-.09-.12-.18-.23-.26-.34-.05-.06-.17-.03-.14.06.12.37.26.74.41,1.1,1.84,4.4,5.98,7.92,10.62,9.47,5.19,1.73,11.2.96,15.25-2.73,2.02-1.84,3.47-4.32,3.85-6.98.02-.12.01-.22-.01-.31,1.79,1.44,3.66,2.78,5.41,4.26,2.04,1.74,4.03,3.59,5.66,5.69,1.65,2.13,2.9,4.49,3.74,7.02.79,2.41,1.26,4.91,1.7,7.39l.22,1.27c.49,2.81,1.07,5.58,1.92,8.31-.95.29-1.89.59-2.84.89l-1.79.57c-.48.15-1.02.41-1.52.51-.34-.06-.69.08-.92.33-.13-1.93-.22-3.86-.3-5.79-.05-1.47-.08-2.93-.14-4.4-.07-1.54-.21-3.07-.3-4.6,0-.05-.08-.05-.08,0-.19,1.37-.4,2.72-.5,4.1-.1,1.37-.15,2.73-.16,4.1-.02,2.67.02,5.34.15,8,.27,5.4.8,10.79,1.64,16.14.24,1.52.5,3.03.79,4.54.14.72.28,1.44.43,2.16.08.39.15.79.25,1.18,0,.02.01.03.02.05h1.79c.02-.09.02-.2,0-.32-.05-.33-.13-.66-.2-.98-.14-.66-.27-1.31-.4-1.96-.26-1.31-.5-2.62-.73-3.94-.47-2.66-.87-5.33-1.23-7.99-.39-2.94-.69-5.89-.91-8.84.18.17.42.26.73.3.05,0,.11.01.16.01.6,0,1.27-.36,1.81-.55l2.37-.8.49-.17c.02,1.39.18,2.79.3,4.16l.1,1.09c.13,1.44.26,2.88.38,4.33.27,3.26.81,6.5,1.37,9.72l.16.93c.18,1,.36,2,.55,2.99.09.5.19,1,.29,1.49.03.17.06.35.1.52h2.08c0-.15-.04-.32-.07-.47ZM31.98,52.7c-.24-.02-.48-.05-.72-.07h-.03s-.02,0-.03,0c-.29-.03-.58-.04-.87-.03-.54.02-1.08.06-1.62.11-1,.11-2.04.37-2.99.67-1.68.52-3.28,1.23-4.8,2.08-.33.18-.66.37-.98.57-3.7,2.25-6.86,5.25-9.53,8.56-2.97,3.68-5.41,7.75-7.29,12.03-.94,2.14-1.75,4.33-2.4,6.57-.16.55-.31,1.1-.45,1.66l-.02.05c-.14.55-.36,1.17-.22,1.74.13.51.52.85.98,1.1.57.32,1.19.59,1.78.88.33.16.66.31.99.47,0,0,0,0,.01,0,0,.02-.02.04-.02.07-.84,2.56-1.27,5.29-1.65,7.94l-.21,1.44c-.53,3.74-.94,7.49-1.14,11.26-.05,1.08-.1,2.16-.14,3.24-.02.54-.03,1.08-.05,1.62,0,.42-.05.85.08,1.23h2.08c.07-.21.09-.45.09-.68l.02-.72c0-.31.02-.63.02-.94.03-.94.07-1.89.1-2.83.09-1.92.19-3.84.32-5.76.27-3.79.63-7.57,1.04-11.36.15-1.36.3-2.71.36-4.07,4.33,2.01,8.86,3.73,13.72,3.88-.14,1.5-.28,3-.41,4.5-.36,4.23-.75,8.46-1.09,12.68-.09,1.16-.19,2.32-.27,3.48-.04.61-.1,1.22-.15,1.83h2.08c.12-1.43.17-2.87.26-4.28.14-2.12.3-4.23.42-6.35.24-4.23.5-8.46.71-12.68.11-2.39.22-4.79-.11-7.16-.01-.09-.16-.13-.19-.02-.59,2.01-.85,4.09-1.06,6.16l-.03.37c-4.58-.11-8.94-1.73-13.01-3.64l-.25-.12c-.16-.08-1.75-.85-2.71-1.32l-.49-.24c-.14-.07-.45-.16-.54-.3-.09-.16.08-.56.11-.71.13-.53.26-1.05.41-1.58.6-2.16,1.33-4.28,2.2-6.35,3.21-7.61,8.28-14.97,15.3-19.82,1.06-.73,2.17-1.41,3.33-2.01.83-.44,1.69-.82,2.56-1.16.3-.12.6-.23.9-.33.04-.02.09-.03.13-.04.71-.24,1.42-.45,2.14-.66l.41-.12c.96-.28,1.92-.54,2.9-.73.05-.01.03-.08-.01-.09Z"/>
      <path class="cls-3" d="m67.24,16.24c.12-1.1-1.19-4.04-1.16-3.45-2.1-3.19-6.21-4.45-9.75-5.5-7.52-2.44-13.4.51-18.68,5.73-3.12,2.87-6.09,6.07-7.66,10.04-3.08,7.57,1.54,16.2,8.56,19.81.57.3,1.18.59,1.72.95,2.9,1.65,6.31,2.22,9.55,2.94,6.05,1.36,13.65.71,17.22-4.95,2.42-4.02,1.78-8.9,1.59-13.36-.28-3.91-.78-8.33-1.39-12.21Z"/>
      <path class="cls-1" d="m85.93,38.02l-.09-.09s-.02-.02-.03-.02c-.02-.01-.04-.01-.06-.01-.03,0-.05.03-.05.06,0,.02,0,.03,0,.05s.01.03.02.04l.1.09h0s.08.03.11,0c.03-.03.03-.08,0-.12Zm-16.26,11.18c-.12-.4-.31-.8-.51-1.19l-.18-.36-.24-.55c-.09-.2-.18-.41-.26-.62-.19-.52-.37-1.05-.51-1.58-.1-.39-.15-.74-.28-1.05,1.39-1.7,2.1-3.78,2.25-6.06.1-1.52-.02-3.05-.16-4.57l-.09-.88c-.14-1.47-.29-2.94-.45-4.4-.09-.87-.19-1.73-.3-2.59-.04-.4-.09-.79-.15-1.19-.09-.79-.2-1.58-.31-2.37-.13-.98-.3-1.95-.48-2.93-.03-.16-.06-.33-.09-.49l-.19-.98c-.07-.36-.18-.72-.27-1.07.42.03.85-.21,1.06-.6.31-.58.07-1.4-.06-2.02l-.04-.2c-.25-1.24-.68-2.44-1.23-3.58-1.15-2.39-2.95-4.4-5.29-5.73-.46-.26-.95-.51-1.43-.74-.73-.52-1.52-.96-2.33-1.35C55.54.9,52.78.2,49.91.03c-5.3-.3-11.09,1.44-15.02,5.04-.56.52-1.07,1.09-1.55,1.7-.62.59-1.21,1.21-1.77,1.85-3.82,4.48-5.94,10.12-6.74,15.87-.41,2.96-.51,5.95-.33,8.93.18,2.88.78,5.76.64,8.66-.07,1.32-.31,2.67-.97,3.84-.62,1.1-1.6,1.85-2.57,2.63l-.2.15c-.98.79-2.02,1.72-2.36,2.98-.36,1.37.24,2.75,1.42,3.51.15.09.3.18.45.25.54.26,1.13.39,1.72.39.1.01.2,0,.3,0,.53-.02,1.04-.13,1.53-.32.71-.28,1.34-.69,1.93-1.17.03-.02.06-.05.09-.07.02.01.03.02.04.03.63.4,1.44.6,2.21.56.7-.04,1.51-.23,2.26-.55.25.19.55.33.85.41.2.07.41.11.62.14.04,0,.08.01.12.02.21.03.43.03.64.03.95-.03,2.02-.29,2.88-.82.39.1.8.15,1.23.13,2.02-.1,3.39-1.64,3.86-3.5.27-1.08.3-2.22.18-3.35-.06-.58-.16-1.16-.28-1.74-.05-.23-.1-.46-.16-.69-.04-.15-.08-.3-.12-.45-.04-.15-.08-.3-.13-.44-.56-1.84-1.42-3.6-2.51-5.19-.21-.3-.43-.6-.65-.89-.24-.51-.51-1-.81-1.47-.22-.34-.46-.7-.74-1.03.08-.1.16-.22.25-.33.18-.24,0-.6-.27-.67-.25-.06-.45-.18-.71-.2-.25-.03-.51-.02-.76-.03-.43-.03-.85-.15-1.24-.36-.03-.02-.06-.03-.09-.05-.03-.02-.06-.03-.09-.06-.82-.51-1.31-1.31-1.49-2.25-.2-1.03-.02-2.17.42-3.11.05-.1.1-.21.17-.32.33-.59.86-1.23,1.48-1.42.32.11.71.37,1.08.53.41.18.82.25,1.12-.1.04-.05.08-.1.1-.17.08-.19.07-.41-.1-.57-.11-.1-.25-.19-.39-.27.07-.09.13-.18.19-.28.01-.02.03-.04.04-.06.12-.14.23-.29.33-.45.05-.07.09-.14.14-.22h0s.36-.52.36-.52c.83-1.2,1.64-2.4,2.45-3.61.61-.42,1.21-.87,1.81-1.31,2.92-2.2,5.65-4.66,8.03-7.42.77-.89,1.49-1.8,2.18-2.75,2.5.55,5.05.9,7.51,1.59,1.6.45,3.19,1,4.65,1.81.71.4,1.37.85,1.95,1.41.27.26.53.54.75.84.27.36.46.52.87.63.04.08.09.15.15.23.08.09.18.16.27.21-.02.24-.05.47-.05.72-.01.43,0,.86,0,1.29,0,.86-.02,1.73,0,2.59.03,1,.08,2,.15,2.99.01.19.02.37.03.55l.1,1.41c.09,1.39.22,2.8.34,4.19.16,1.75.3,3.51.36,5.26.09,2.64-.16,5.58-2,7.67-.83.95-1.87,1.68-3.01,2.23-1.19.58-2.54,1.05-3.83,1.3-1.14.23-2.33.28-3.5.26-.61,0-1.23-.03-1.83-.07l-.25-.02c-.88-.05-1.77-.06-2.64-.19-.66-.1-1.29-.38-1.93-.56-.17-.04-.36.08-.35.26,0,.15.03.29.07.42.33.99,1.75,1.15,2.75,1.22l.41.03c1.14.08,2.29.14,3.44.17.21,0,.42,0,.63,0h.18c.32,0,.66,0,.98-.02.13,0,.26-.01.39-.02-.61,1.09-.51,2.44.1,3.54.17.3.38.57.63.81.75.73,1.81,1.14,2.86,1.19.03.01.06.02.09.03l.07.03c.92.36,1.87.64,2.87.52.67-.08,1.27-.36,1.73-.78.6.19,1.26.17,1.87-.01.7.32,1.46.49,2.18.07.74-.42,1.18-1.31,1.15-2.13-.03-.92-.67-1.59-1.46-2Z"/>
      <path class="cls-1" d="m63.41,24.54c-.05-.21-.12-.43-.21-.63-.17-.37-.4-.71-.64-.97-.47-.51-1.04-.86-1.66-1.13-.04-.02-.09-.04-.14-.06-.64-.28-1.43-.6-2.06-.27-.26.13-.39.36-.43.6-.04.26.03.54.21.76.29.36.74.44,1.18.51.14.02.28.04.42.08.46.11.95.25,1.37.46.16.08.31.18.44.28.47.35.74.82.92,1.39.04.12.08.25.1.39.01.03.03.07.05.09.03.03.05.04.09.04.03.01.07,0,.1-.01.03-.01.06-.03.08-.07.11-.19.18-.39.21-.61.04-.28.02-.57-.04-.85Zm-11.23-2.56c-.26-.25-.57-.35-.91-.36-.45-.02-.94.13-1.36.29-.68.25-1.27.63-1.81,1.12-.37.33-.68.77-.94,1.21-.08.13-.15.26-.21.39-.12.25-.25.65-.26,1.01,0,.24.04.47.2.61.03.03.07.04.1.05.04,0,.08,0,.11-.02.03-.01.05-.04.1-.13.03-.05.07-.1.09-.15.02-.04.04-.07.05-.1.01-.02.02-.04.07-.12.08-.09.15-.19.23-.27.07-.08.13-.16.2-.24.07-.09.15-.18.22-.26.29-.31.68-.57,1.06-.78.05-.03.1-.07.16-.09.4-.22.85-.37,1.3-.48.16-.04.33-.06.54-.08.37-.04.74-.09,1.05-.4.16-.15.24-.38.24-.6s-.08-.44-.24-.58Zm10.71,6.11c-.1-.53-.41-1-.84-1.31-.24-.17-.5-.28-.78-.33-.22-.04-.45-.04-.68.01-.38.08-.94.45-1.24.9-.11.17-.19.34-.21.52,0,.02,0,.05,0,.07v.02c0,.19.04.37.29.62.02.01.05.01.08.01.05,0,.11-.02.15-.05,0,0,.01,0,.02-.01.07-.07.14-.15.19-.24.03-.04.05-.08.08-.13.04-.08.09-.15.14-.21.13-.14.29-.28.47-.35.06-.02.13-.04.19-.05.24-.04.44.03.61.16.2.15.33.4.38.65.02.1.07.19.15.27.07.07.17.13.26.16.18.05.3.03.45-.06.11-.07.2-.17.25-.28.05-.12.06-.26.03-.39Zm-9.85.25c-.07-.1-.14-.2-.21-.3-.33-.48-.65-.95-1.17-1.24-.61-.34-1.33-.33-1.95.01-.36.19-.9.8-1.2,1.53-.22.54-.31,1.14-.11,1.67.02.06.08.13.18.16.05.02.12.02.18.02.07-.01.13-.04.17-.08.05-.05.09-.12.08-.21-.03-.39.11-.77.3-1.09.28-.47.69-.83.92-.94.3-.14.56-.09.79.06.33.22.59.63.74,1,.09.22.23.35.39.42.18.08.39.07.57-.01.2-.08.35-.24.41-.43.05-.17.04-.36-.1-.57Zm6.04,1.44c-.28-.21-.63-.36-1.06-.44-.4-.07-.55.38-.36.52.71.44,1.79,1.46,1.03,2.55-.9.95-2.19-.14-2.83-.64-.59-.39-1.25.61-.71,1.05,2.53,1.91,4.24.85,4.66-.58.26-.87.04-1.87-.73-2.45Zm.44,6.97c-.14-.15-.33-.24-.53-.24-.17,0-.35.08-.5.25-.33.39-.75.69-1.21.87-.43.17-.91.21-1.38.1-.88-.2-1.44-.74-2.02-1.47-.07-.09-.14-.19-.22-.29-.03-.06-.07-.1-.13-.13-.06-.03-.13-.03-.19-.02-.07.02-.13.05-.17.1-.04.05-.07.11-.07.18-.01.64.26,1.24.68,1.74.47.56,1.13.98,1.77,1.16.71.21,1.45.19,2.14-.01.71-.21,1.37-.61,1.88-1.17.15-.17.21-.36.21-.53-.01-.21-.1-.4-.25-.55Z"/>
      <path class="cls-1" d="m68.8,24.17s-.08-.04-.13-.04c-.08-.02-.16-.03-.24-.04-.05-.03-.11-.06-.19-.07,0,0-.02,0-.03,0-.19-.05-.37-.08-.56-.1-.14-.03-.28-.06-.43-.08-1.09-.17-2.58-.14-4.02.08-.45.07-.89.15-1.31.26-1.78.45-3.24,1.22-3.36,2.32-.85.29-1.59.03-2.58.06-.36-1.53-3.53-2.23-6.81-2.32-.66-.02-1.32-.02-1.96.02-2.85.12-5.36.67-5.62,1.49h0c-.6-.19-1.49-.14-2.18-.18-1.24-.03-2.49.07-3.71.29-.22.04-.44.08-.66.13-2.69.44-6.37.94-4.5,4.36h0c.1.1.22.15.34.15.27,0,.53-.23.54-.54-.42-1.09.08-1.53.79-1.84.34-.15.74-.28,1.1-.44.49-.18.97-.33,1.46-.45.4-.11.82-.19,1.23-.26,1.85-.33,3.73-.32,5.62-.11.21.25.54.47.88.59,1.88.31.89,1.74,2.08,1.94-.22,4.95,5.7,7.65,9.12,4.4,1.37-1.36,1.69-3.37,2.01-5.19.17-.04.27-.13.34-.25.4-.41.66-.79,1.45-.9.8-.12,1.41.11,1.49.18.02.04.04.08.07.13.04.07.08.11.14.15h0s0,.05-.01.07v.02c-.1.64-.11,1.25-.07,1.81.08.94.33,1.77.73,2.45,1.2,2.07,3.65,2.81,6.12,1.15.96-.93,1.49-2.13,1.76-3.41.2-.91.28-1.85.31-2.75.22-.14.36-.4.28-.74-.06-.26,0-.5.13-.7.1-.15.24-.28.41-.36.04-.02.08-.05.11-.08.35-.3.28-1-.15-1.19Zm-14.22,6.04c-1.38,6.55-8.92,4.99-9.71-.91.73-.53.54-1.82,1.45-2.29,1.44-.93,3.24-.89,4.87-.87,2.09.15,2.69,1.03,3.76,1.98-.05.65-.2,1.4-.37,2.09Zm11.11,2.04c-.63.86-1.81,1.14-2.89,1.04-2.23-.21-2.99-2.68-3.12-4.72,0-.09-.01-.19-.02-.29.08.02.15.04.22.04.03-.04.05-.08.08-.13.04-.08.09-.15.14-.21.13-.14.29-.28.47-.35.14-.34.32-.77.71-1.17.32-.34.8-.66,1.54-.89.2-.06.41-.12.65-.17.4-.09.87-.15,1.41-.19,1.88-.16,1.36.99,2.19,1.84-.02,1.77-.31,3.7-1.38,5.19Z"/>
    </g>
  </g>
</svg>