<?xml version="1.0" encoding="UTF-8"?>
<svg id="Layer_2" data-name="Layer 2" xmlns="http://www.w3.org/2000/svg" viewBox="0 0 79.91 115.9">
  <defs>
    <style>
      .cls-1 {
        fill: #010101;
      }

      .cls-1, .cls-2 {
        fill-rule: evenodd;
        stroke-width: 0px;
      }

      .cls-2 {
        fill: #fff;
      }
    </style>
  </defs>
  <g id="Layer_1-2" data-name="Layer 1">
    <g>
      <path class="cls-2" d="m57.74,57.19c-1.86-1.48-2.79-3.9-3.48-4.31-.51-.3-.5-2.39-1.53-3.13-1.38-.99-5.76-1.73-7.36-1.87-1.53-.13-4.19.15-5.63.76-2.4,1.02-3.35,2.96-4.41,5.46,0,0,23.68,4.1,22.4,3.09Z"/>
      <polygon class="cls-2" points="78.79 115.9 4.2 115.9 3.42 86.65 22.99 58.92 60.85 58.92 61.19 59.24 73.96 71.61 78.79 115.9"/>
      <path class="cls-1" d="m79.8,113.64c-.19-2.97-.62-5.88-1.07-8.81-.22-1.42-.5-2.86-.45-4.31.05-1.44.62-2.78.22-4.22-.16-.58-.44-1.11-.62-1.68-.19-.62-.18-1.23-.09-1.86.18-1.3.48-2.58,0-3.85-.21-.56-.55-1.06-.72-1.65-.2-.72-.18-1.52-.21-2.27-.07-1.51-.09-3.03-.2-4.54-.05-.68-.16-1.32-.42-1.94-.24-.6-.61-1.14-.77-1.77-.16-.62-.17-1.28-.26-1.91-.09-.67-.23-1.34-.42-1.98-.74-2.5-2.1-4.75-3.69-6.7-1.7-2.07-3.73-3.63-5.89-5.09-1.13-.77-2.26-1.53-3.4-2.29-.03.14-.11.28-.27.34-.12.04-.24.09-.36.13-.31.12-.61.26-.85.51-.38.39-.95-.24-.57-.62.08-.08.15-.14.24-.21.34-.28.74-.44,1.15-.6-.51-.35-1.04-.72-1.62-.93-.51-.18-1.26-.02-1.67-.43-.33-.32-.43-.92-.55-1.35-.16-.54-.3-1.11-.49-1.64-.13-.36-.33-.71-.57-.99-.11-.45-.31-.87-.66-1.12-.92-.66-2.05,0-2.46.94-.33,0-.68.08-1.01.1-.67.05-1.34.07-2.01.07-1.31,0-2.63-.1-3.93-.29-2.33-.34-4.58-1.03-6.87-1.56-.02-.03-.03-.07-.05-.09-.49-.9-1.72-.75-2.49-.41-.33.14-.67.33-.86.67-.2.15-.38.33-.49.52-.24.39-.43,1.18-.91,1.25-.32.04-.65-.02-.97.03-.4.06-.77.21-1.14.4-2.86,1.35-5.81,2.85-8.91,3.37-.73.12-1.47.25-2.1.69-.51.36-.91.85-1.33,1.32-.42.46-.76.66-1.35.74-.71.1-1.33.31-1.85.88-.43.47-.72,1.07-1.06,1.62-.34.56-.85.87-1.38,1.19-1.25.77-2.41,1.69-3.42,2.8-2.13,2.34-3.42,5.34-4.72,8.26-1.41,3.16-2.72,6.37-3.63,9.75-.9,3.32-1.43,6.73-1.67,10.18-.26,3.62-.29,7.24-.51,10.86-.1,1.81-.19,3.62-.27,5.42-.08,1.78-.2,3.54-.18,5.33h18.53c-.1-2.68-.14-5.35-.26-7.99-.02-.56.78-.56.81,0,.12,2.64.15,5.32.26,7.99h50.27c-.02-.26-.04-.53-.06-.8-.04-.56.77-.56.8,0,.02.26.04.53.06.8h9.49c-.02-.76-.05-1.5-.1-2.26Zm-50.47-15.95c0,.42-.05.78-.23,1.17-.09.21-.37.26-.55.15-.2-.13-.24-.39-.15-.6.12-.26.12-.43.12-.72,0-.57.8-.57.8,0Zm-20.91,2.68c-.11.22-.35.26-.55.16-.27-.13-.56-.13-.84-.13-.52,0-.52-.88,0-.88.44,0,.84.05,1.25.25.2.1.25.41.14.6Zm1.84-17.02c-.42.15-.88.3-1.21.65-.38.39-.95-.24-.57-.62.44-.45,1-.67,1.56-.87.5-.18.71.67.21.85Zm2.72,25.19c-.03.21-.19.37-.39.39-.21.01-.41-.21-.4-.44.02-.44.34-.8.75-.82.23-.01.39.21.4.44.01.22-.16.4-.36.43Zm5.38-19.82c-.15.54-.93.31-.78-.23.15-.52.16-1.05.16-1.59s.8-.56.8,0c0,.62-.02,1.23-.19,1.82Zm1.59-17.39c.57-.2,1.16-.36,1.73-.57.5-.18.71.67.21.84-.57.2-1.16.36-1.73.57-.5.18-.71-.67-.21-.84Zm2.19,31.15c-.13,0-.25-.07-.32-.19h-.02c-.22,0-.39-.2-.4-.44,0-.24.19-.44.4-.44.14,0,.28,0,.42.07.21.09.32.31.33.56.01.24-.19.42-.4.44Zm1.22-39.38c-.34.01-.71.15-1.01.31-.47.25-.88-.51-.41-.76.44-.23.92-.42,1.42-.44.52-.02.51.86,0,.88Zm2.71,14.75c-.46.17-.88.41-1.3.71-.43.31-.83-.45-.4-.76.47-.34.96-.61,1.49-.8.49-.18.7.67.21.85Zm3.48,35.48c-.16.17-.4.15-.56,0h0s-.04-.03-.06-.03c-.04-.01-.07-.02-.1-.02-.14-.02-.28-.01-.42-.01-.51,0-.51-.88,0-.88.41,0,.84,0,1.15.31.16.16.15.46,0,.62Zm2.33-27.7h-.87c-.52,0-.52-.88,0-.88h.87c.52,0,.52.88,0,.88Zm2.61-14.01c-.19,0-.37-.04-.55-.09-.08-.02-.15-.05-.23-.07-.02-.01-.09-.02-.11-.02-.21-.03-.38-.2-.38-.44,0-.23.19-.45.4-.44.3.02.57.18.87.19.51.02.51.89,0,.88Zm1.04-9.11c-.17-.36-.39-.78-.72-.98-.46-.27-.05-1.03.4-.76s.78.8,1.01,1.29c.24.5-.46.95-.69.45Zm4.52,43.19c-.52-.02-.96-.31-1.32-.69-.37-.4.2-1.01.57-.62.21.23.45.43.75.44.52.02.52.89,0,.88Zm1.28-22.85c-.29-.34-.45-.79-.46-1.26-.01-.56.79-.56.8,0,.01.24.1.49.23.64.36.41-.21,1.03-.57.62Zm3.3,11.93c-.16-.16-.15-.46,0-.62.18-.19.35-.38.52-.57.16-.18.41-.17.57,0,.16.16.15.46,0,.62-.17.19-.34.38-.52.57-.16.18-.41.16-.57,0Zm1.67,19.04c-.11-.24-.3-.35-.52-.35-.52-.01-.52-.89,0-.88.51.01.97.29,1.21.78.25.5-.45.94-.69.45Zm4.84-40.55c-.27-.14-.54-.3-.84-.31-.51-.02-.52-.9,0-.88.45.02.85.22,1.25.44.47.25.05,1.01-.4.76Zm1.01-10.1c-.38.39-.84.58-1.3.83-.47.24-.87-.51-.4-.76.39-.2.82-.36,1.13-.69.38-.39.95.23.57.62Zm4.75,41.61c-.09.23-.28.35-.51.36-.22.01-.39-.21-.4-.44,0-.15.07-.28.17-.35v-.02c0-.25.18-.43.4-.44.22-.01.4.21.4.44,0,.15-.01.31-.07.45Zm1.43-9.16c-.53.26-1.1.26-1.62,0-.2-.1-.25-.41-.15-.6.12-.22.36-.25.55-.15.24.12.57.12.81,0,.2-.1.43-.07.55.15.1.19.05.5-.15.6Zm.43-12.94c-.15.17-.43.17-.57,0-.09-.1-.16-.21-.22-.34-.02-.04-.04-.09-.07-.14-.01-.02-.03-.04-.04-.06,0,0-.01-.01-.02-.02-.15-.18-.15-.44,0-.62.14-.17.43-.17.57,0,.09.1.16.21.22.34.02.04.04.09.07.14.01.02.02.04.04.06,0,0,.01.02.02.03.15.18.15.44,0,.62Zm5.1-5.96c-.12-.24-.3-.34-.53-.35-.51-.02-.51-.89,0-.88.51.01.97.29,1.22.78.24.5-.45.94-.69.44Zm2.78,30.86c-.44.69-1.06,1.12-1.81,1.34-.5.14-.71-.7-.21-.84.53-.15,1.01-.44,1.32-.94.3-.46.99-.02.69.44Zm.15-17.26c-.35-.19-.7-.37-1.04-.57-.46-.25-.05-1.01.4-.76l1.04.57c.46.25.05,1.01-.4.76Zm2.01-21.35c-.6-.15-1.19-.17-1.81-.17-.52,0-.52-.88,0-.88.68,0,1.35.03,2.02.2.5.13.29.98-.21.84Zm1.01,31.51c-.11.55-.89.31-.77-.24.16-.79.14-1.62,0-2.41-.1-.55.68-.79.77-.23.16.96.2,1.92,0,2.88Zm3.79-9.83c.36,0,.71.05.98.32.16.16.15.46,0,.62-.16.18-.4.16-.57,0,0,0-.01-.01-.02-.01s0,0-.01,0h-.01s-.09-.03-.13-.03c0,0-.09,0-.11,0-.04,0-.09,0-.13,0-.22,0-.4-.2-.4-.44s.18-.44.4-.44Zm.84,24.68c-.27-.14-.54-.31-.84-.32-.51-.02-.52-.9,0-.88.45.02.85.22,1.25.44.46.25.05,1.01-.4.76Z"/>
      <path class="cls-2" d="m64.86,23.85c-.42-6.23-2.64-13.29-9.17-16.35-14.41-5.26-33.35,7.99-34.35,21.53-.35,4.63,2.48,9.7,7.64,10.99,1.15,1.39,2.89,2.23,4.6,2.97,20.42,9.64,33.61,1.8,31.28-19.14h0Z"/>
      <path class="cls-1" d="m69.52,19.98c-.72-1.82-1.48-3.64-2.29-5.43-.78-1.75-1.49-3.53-2.46-5.2C58.98-.6,48.44-.6,43,.7c-2.82-1.11-8.11-.8-11.05.2-4.76,1.62-10.56,7.98-12.55,10.84-4.38,6.31-7.11,14.72-4.2,22.01.38.95.87,1.84,1.41,2.69-.34.42-.74.83-1.18,1.22-1.3,1.17-2.61,2.31-3.73,3.63-1.12,1.32-2.05,2.71-2.74,4.26-1.3,2.91-1.36,6.2.36,8.98,1.5,2.42,4.15,4.21,7.14,4.39.15.02.31.04.46.05.4.59.88,1.14,1.43,1.62,1.69,1.46,5.71,2.21,8.01,2.26.12.09.24.17.36.26,1.4,1.01,2.88,2.02,4.49,2.74,1.09.49,2.52.89,3.66.54.52.31,1.37.25,1.88,0,.84-.42,1.53-1.18,1.95-1.96,1.01-1.89.77-3.96.51-5.98-.29-2.23-.56-4.47-.84-6.7-.22-1.75-.45-3.52-1.03-5.2-.3-.87-.7-1.71-1.21-2.5.01-.07.01-.13,0-.19-.17-.49-.51-.75-.92-1.09-.05-.04-.11-.09-.16-.13-.2-.21-.42-.41-.66-.58-.09-.08-.18-.17-.27-.25-.74-.71-1.44-1.45-2.06-2.24-.6-.77-1.15-1.58-1.67-2.4-.53-.83-.88-1.75-1.4-2.58-.05-.07-.16-.09-.22-.03-.16.15-.27.32-.25.5h-.08c-.03-.26-.3-.48-.68-.42-.56.09-1.01.12-1.5-.05.08-.51.16-1.02.24-1.54.14-.95.27-1.89.38-2.84.27.06.54.14.81.25.38.15.73.36,1.04.61.3.25.51.59.87.76.42.2.93-.13.8-.56-.25-.87-1.66-1.37-2.54-1.54-.3-.06-.61-.08-.91-.08.07-.61.13-1.22.18-1.83.02-.29.05-.58.07-.87.68-.19,1.41-.24,2.12-.16.23.17.47.34.69.51.72.54,1.43,1.08,2.13,1.63.06.05.13.1.19.15.42.33.94,0,.87-.46-.57-3.8,1.98-6.82,4.98-9.16,3.31-2.59,9.34-2.89,13.28-7.39,1.81.34,5.87,1.33,7.54,3.76,2.34,3.4,2.04,6.44,2.21,10.3.18,3.86.63,7.88-.33,11.69-.89,3.51-3.29,6.5-7.02,7.88-.09.03-.19.07-.28.1-1.93.66-4.03.85-6.06.5-2.25-.39-4.12-1.32-5.99-2.47-.11-.07-.27.07-.18.17,2.46,2.97,7.3,3.96,11.13,3.18.18-.04.36-.08.53-.12-.86,2.25-.69,4.71.43,6.9.67,1.32,1.7,2.45,2.95,3.35,1.38.99,3.08,1.79,4.04,3.18.87,1.27.61,2.7-.88,3.44-.38.19-.52.79-.15,1.05.14.1.29.2.43.3.84.58,3.14,1.66,3.51,1.7,3.31.36,5.54-1.86,6.97-4.47,1.68-3.06,1.24-6.8-.61-9.72-1.48-2.34-4.4-4.65-3.24-7.61.41-1.06,1.26-1.96,2.08-2.78.94-.93,1.95-1.8,2.84-2.76.89-.95,1.69-1.99,2.13-3.19.65-1.75.32-3.64-.16-5.39-1.04-3.75-2.39-7.45-3.83-11.09Z"/>
      <path class="cls-2" d="m60.91,31.91c-.89,1.01-4.36,2.12-6.2.91-1.85-1.21-2.58-2.06-2.82-3.58-.03-.16-.35-.27-.48-.15-.76.64-1.25,1.46-1.74,2.28-.55.93-1.09,1.86-2.09,2.48-1.77.86-4.98.99-5.92.61-1.81-.73-3.25-2.29-3.57-4.44,0,0-.33-.95-.62-1.15-.28-.19-1.8-.36-1.96-.39-3-.51-6.8-.83-9.47.95-.36.2-1.6.95-1.62.76-.01-.72.88-2.35,2.92-3.12,2.52-.96,6.27-1.01,8.45-.8.11.01.48-.07.51-.08,3.29-1.3,7.08-.95,10.6-.41.5.09,5.02,1.11,6.82.49,2.97-1.1,6.14-1.9,9.35-1.59.03,0,.43,2.24.12,2.39-.25.12-.68.43-.83.6-.14.15-.22.34-.21.6.06,1.52-.41,2.74-1.2,3.63Zm-12.22-1.35c.38-.5.5-1.61.34-2.42-.08-.41-.23-.74-.43-.9-.13-.11-.28-.16-.44-.15-.09,0-.18.03-.28.08-1.37-.67-3.03-.92-4.6-.85-1.25,0-2.15.27-2.75.69-.73.5-1.06,1.23-1.08,2.01-.02.93.4,1.95,1.09,2.76.66.77,1.56,1.34,2.55,1.48,1.11.2,2.25,0,3.23-.47,1.01-.49,1.87-1.27,2.38-2.22Zm10.98.53c.63-.68,1.06-1.57,1.12-2.45.06-.8-.18-1.59-.83-2.25-.59-.46-1.63-.47-2.73-.21-1.42.33-2.89,1.07-3.38,1.55-.12.06-.22.15-.32.36v.07c-.15.62-.06,1.25.2,1.84.28.63.76,1.21,1.34,1.65.77.58,1.58.76,2.34.66.86-.11,1.65-.57,2.26-1.22Z"/>
      <path class="cls-1" d="m53.58,26.02c3.01-1.12,6.22-1.92,9.48-1.6.27-.09.6-.01.72.33,1.16,3.21-1.43,2.32-1.39,3.52.27,6.73-9.68,7.88-10.8,1.01h-.02c-1.61,1.38-1.95,3.6-3.85,4.79-3.83,2.55-9.25.53-9.95-4l-.02-.06c-.23-.92-.51-1.15-1.67-1.15l-.18-.03c-3-.54-6.99-1.02-9.75.83-.6.32-.63,1.13-1.14,1.49-.56.1-.9-.51-.94-.93-.09-4.19,8.16-4.5,11.86-4.14.07-.07.22-.06.27.02,3.34-1.32,7.11-1.13,10.69-.58,2.22.39,4.41,1.28,6.67.5Zm9.18-.83c-1.81-.08-3.48,0-5.25.4-.93.21-1.65.46-2.54.78-5.58,2.25-6.22-1.75-18.72-.18.16.63.19,1.25.2,1.85,2.55-.09,1.95,2.12,2.91,3.68l.03.05c1.39,2.27,4.68,3.33,7.33,1.82,2.21-1.17,2.43-4.15,4.63-5.33,1.91-.07,1.15,2.28,2.19,3.24,1.46,1.78,4.57,2.02,6.41.35.86-.8,1.32-1.82,1.34-2.92.05-.7-.08-1.41.5-1.9.41-.38,1.13-.25,1.22-.82.05-.34-.1-.7-.24-1.01Zm-19.62.92c1.79-.08,3.69.2,5.23,1,1.14-.83,1.42,2.45.66,3.4-1.09,2.03-3.63,3.36-6.07,2.92-3.81-.5-6.47-7.33.18-7.32Zm5.12,1.22h-.1c-1.65-.24-6.15-1.3-7.89.37-1.68,2.78,2.59,7.45,7.03,3.73,1.24-1.15,1.72-2.53.95-4.1Zm5.24.36c.86-.92,5.22-2.79,6.74-1.59,2.77,2.83-1.63,8.55-5.31,5.76-1.23-.93-2.03-2.42-1.68-3.85v-.06s0-.02.03-.04c.05-.11.13-.18.22-.21Zm6.7,1.71c.94-4.61-2.97-2.86-6.19-1.63.17.14.17.34.12.5-.34,3.42,4.24,5.36,6.06,1.13Zm-24.31-3.1c-1.34.41-10.2-.33-11.02,3.45.86-1.27,2.65-1.78,4.26-2.05,2.19-.37,4.36-.16,6.52.24l.04-.41c.05-.43.1-.83.19-1.23Z"/>
      <path class="cls-1" d="m52.23,40.79c-.81.21-1.68.23-2.51.01-.75-.2-1.52-.64-2.07-1.22-.49-.52-.81-1.15-.79-1.82,0-.08.03-.14.08-.19.05-.05.12-.09.19-.11.08-.02.16-.01.23.02.06.03.12.07.15.13.08.1.17.2.25.3.68.77,1.34,1.34,2.37,1.54.56.11,1.11.06,1.62-.11.55-.18,1.04-.5,1.42-.91.17-.19.38-.26.58-.26.23,0,.45.1.62.25.17.15.28.36.29.57,0,.19-.06.39-.24.56-.59.58-1.37,1.01-2.2,1.23Zm-.03-9.59c.83.46,2.1,1.53,1.2,2.67-1.05,1-2.57-.15-3.31-.67-.69-.4-1.47.63-.83,1.11,5.39,3.63,7.58-2.99,3.36-3.65-.47-.07-.64.4-.42.54Zm-7.77-2.02c-.27-.16-.58-.21-.93-.06-.27.11-.75.49-1.08.98-.23.34-.39.73-.35,1.15,0,.1-.03.17-.09.22-.05.04-.12.07-.2.08-.07,0-.15,0-.21-.02-.12-.03-.18-.11-.21-.16-.23-.56-.13-1.19.13-1.76.35-.76.99-1.4,1.41-1.61.72-.35,1.56-.37,2.28,0,.61.31.99.8,1.37,1.3.08.11.16.21.24.32.17.21.18.42.12.59-.07.2-.25.36-.48.45-.21.08-.45.09-.67,0-.18-.07-.35-.21-.45-.44-.18-.39-.47-.82-.87-1.05h0Zm13.56.87c-.18.09-.33.11-.53.06-.11-.03-.22-.09-.31-.17-.09-.08-.15-.18-.17-.28-.06-.27-.22-.52-.45-.68-.2-.14-.44-.21-.71-.17-.29.04-.58.22-.77.42-.06.07-.12.15-.17.22-.1.14-.19.28-.32.38-.05.04-.12.07-.2.07-.03,0-.06,0-.09-.01-.29-.27-.35-.47-.34-.67,0-.21.1-.43.25-.63.35-.47,1.01-.85,1.45-.94.61-.12,1.21.02,1.7.33.5.32.87.81.98,1.37.03.13.02.28-.04.41-.05.12-.15.23-.29.29Zm-12.22-5.86c-.37.32-.8.37-1.24.42-.24.03-.44.05-.63.08-.53.11-1.04.27-1.52.5-.5.24-1.04.54-1.42.92-.09.09-.18.18-.27.28-.08.09-.16.17-.24.25-.09.09-.18.19-.27.28-.05.08-.06.1-.08.12-.02.03-.04.07-.06.1-.03.05-.06.11-.1.16-.06.09-.09.12-.12.13-.05.02-.09.03-.13.02-.04,0-.08-.02-.12-.05-.19-.14-.24-.38-.24-.63,0-.38.16-.8.31-1.06.33-.6.79-1.23,1.34-1.68.63-.51,1.32-.9,2.11-1.17.49-.17,1.06-.32,1.6-.3.39.01.76.12,1.06.38.19.16.28.39.28.62s-.09.47-.28.63Zm12.96,2.97s-.06.06-.09.07c-.04.02-.08.02-.12.01-.04,0-.08-.02-.11-.05-.03-.02-.05-.06-.06-.1-.24-.97-.71-1.69-1.72-2.16-.5-.23-1.06-.37-1.6-.49-.16-.03-.32-.06-.49-.08-.52-.07-1.05-.15-1.39-.53-.21-.23-.29-.53-.24-.8.05-.25.21-.49.51-.63.74-.35,1.66,0,2.41.28.06.02.11.04.16.06.73.28,1.4.65,1.95,1.18.44.42.84,1.04,1,1.68.14.53.1,1.08-.2,1.53Z"/>
    </g>
  </g>
</svg>