<?xml version="1.0" encoding="UTF-8"?>
<svg id="Layer_2" data-name="Layer 2" xmlns="http://www.w3.org/2000/svg" viewBox="0 0 71.79 112.74">
  <defs>
    <style>
      .cls-1 {
        fill: #010101;
      }

      .cls-1, .cls-2, .cls-3 {
        fill-rule: evenodd;
        stroke-width: 0px;
      }

      .cls-2 {
        fill: #fff;
      }

      .cls-3 {
        fill: #231f20;
      }
    </style>
  </defs>
  <g id="Layer_1-2" data-name="Layer 1">
    <g>
      <path class="cls-2" d="m68.65,112.74H4.93c.04-1.68.09-3.36.14-5.05l.1-3.61c.02-.61.04-1.22.05-1.83.01-.43.65-1.28.54-1.7-.11-.41-1.01-.34-1.24-.67-.3-.44-.55-.88-.76-1.37-.16-.38-.13-.78-.04-1.19h0c.02-.11.05-.22.08-.33.05-.19.1-.39.14-.58.01-.05.02-.09.03-.14.06-.33.09-.65.01-.97-.05-.19-.1-.38-.16-.57-.69-2.08-2.2-4.09-2.7-6.2-.54-2.26-.87-4.51-.54-6.84.32-2.19,1.15-4.26,2.01-6.22,1.73-3.95,3.91-7.65,6.08-11.3.98-1.66,1.31-1.51,2.61-2.88,1.17-1.22,2.99-3.36,4.61-4.42.33-.22.65-.39.95-.51,1.88-.71,3.8-1.26,5.67-2.01,1.84-.73,3.64-1.55,5.41-2.49,1.47-.78,4.39-2.15,5.54-3.49.95-1.12.62-2.28.95-3.45,0-.02.01-.03.02-.04.04-.14.09-.29.16-.44,0,0,0-.01,0-.01.09-.19.2-.38.35-.57.23-.3.46-.56.69-.8.02-.02.03-.03.04-.05.04-.04.08-.07.11-.1h0c2.06-2.05,4.06-1.92,6.61-1.92,1.75,0,4.01,1.14,4.81,2.9.19.41.34.93.49,1.49.05.19.09.37.14.57.03.12.05.25.08.37,0,.02.01.04.02.06.39,1.71.77,3.62,1.56,4.6.35.43.83.85,1.36,1.25,1.25.94,2.81,1.78,3.82,2.54,1.7,1.28,3.4,2.59,5.11,3.86,1.61,1.2,3.07,2.5,3.99,4.47.1.22.2.45.3.67.75,1.77,1.27,3.72,1.77,5.59,1.02,3.85,1.7,7.81,2.06,11.8.05.51.09,1.03.13,1.54.2,2.8.22,5.6.2,8.4,0,.54-.01,1.09-.02,1.63,0,.54-.02,1.09-.03,1.63,0,.54-.02,1.09-.03,1.63h0c0,.36-.02.73-.02,1.09,0,.26-.01.53-.02.8,0,.18,0,.35-.01.53,0,.19-.01.38-.02.57-.04,1.73-.08,3.46-.02,5.18.08,2.35.21,4.71.44,7.06.05.51.1,1.02.16,1.53Z"/>
      <path class="cls-3" d="m2.75,77.12l65.15,4.05c.05.51.09,1.03.12,1.54.33,4.78.19,9.57.09,14.36-.01.63-.03,1.27-.04,1.91l-6.43,1.21-45.69,1.25-11.42-1.55-.47-.93-.33-1.63c.14-.67.42-1.36.26-2.01-.05-.19-.1-.38-.17-.57l.06-1.31-1.14-16.31Z"/>
      <path class="cls-1" d="m71.78,83.94c.05-2.37-.11-4.73-.46-7.05-.01-.49-.03-.98-.06-1.48-.32-4.82-1.64-10.52-5.82-12.77-.02,0-.04-.02-.05-.02-.07-.09-.13-.17-.2-.25-.28-.35-.6-.67-.86-.97-.59-.67-1.2-1.3-1.85-1.89-1.28-1.16-2.69-2.08-4.16-2.92-1.48-.84-2.98-1.64-4.43-2.56-1.22-.78-2.32-1.71-3.36-2.76-.03-.03-.07-.07-.1-.1-1.21-1.23-2.07-2.89-2.41-4.7,0-.04-.04-.07-.08-.06-.03,0-.07.04-.07.08-.09,3.31,1.88,6.25,4.15,8.1.22.18.45.36.69.53t0,0c2.56,1.86,5.51,2.91,8.03,4.87.68.53,1.32,1.14,1.93,1.78-.93-.11-1.88-.04-2.75.25-.34-.02-.69-.03-1.03-.05-.58-.03-1.16-.07-1.74-.09-.21-.01-.42-.02-.62-.03-1.61-.08-3.22-.15-4.83-.22-3.15-.13-6.31-.22-9.46-.29-1.22-.02-2.43-.04-3.65-.06-4.14-.06-8.28-.05-12.41.04,0,0-.01,0-.02,0-.98.02-1.96.05-2.95.08-1.72.06-10.76-.34-11.6-.23,1.23-1.21,2.58-2.2,4.06-3.02.53-.29,1.06-.55,1.6-.79,1.36-.61,2.74-1.08,4.16-1.52,4.09-1.28,8.33-2.51,11.6-5.75.81-.8,1.53-1.73,2.12-2.76.54-.92,1.12-2.09,1.2-3.22,0-.07.01-.14.01-.2,0-.4-.22-.68-.51-.79-.07-.03-.14-.04-.21-.04-.26-.02-.53.1-.67.4-.16.3-.26.63-.37.96,0,0,0,0,0,.01-.05.14-.1.29-.16.44,0,.02-.01.03-.02.04-.19.45-.39.89-.63,1.31-.49.85-1.08,1.6-1.73,2.29-1.4,1.46-3.08,2.52-4.82,3.34-3.84,1.78-8.03,2.55-11.7,4.81-.11.07-.23.14-.34.21-1.64,1.05-3.21,2.51-4.2,4.37-.16.03-.32.07-.48.1.12-.17.24-.34.36-.51.08-.11-.04-.25-.14-.15-1.87,1.89-3.58,3.93-5.14,6.15-1.49,2.13-2.88,4.36-3.86,6.85-1.77,4.47-2.16,9.59-1.24,14.37.25,1.31.6,2.58,1.04,3.81.23.64.48,1.26.75,1.88.31.67.59,1.33,1.18,1.74.08.05.16.08.25.09-.07.32-.1.64-.14.95-.08.67-.1,1.36.05,2.02.14.64.38,1.21.85,1.62.22.19.45.34.7.45-.04.14-.07.27-.05.41-.06.34-.1.69-.14,1.02-.09.73-.19,1.47-.26,2.21-.15,1.47-.27,2.94-.37,4.42-.09,1.35-.15,2.69-.21,4.04h1.66c.03-1.31.06-2.62.09-3.94.03-1.44.07-2.88.09-4.32.02-.76.02-1.51.02-2.26,0-.42.02-.87-.01-1.3.23.06.46.11.68.17,1.74.41,3.5.7,5.26.88.89.09,1.78.16,2.67.19.65.03,1.33.08,2,.05-.05,1.81-.08,3.61-.08,5.42,0,1.3.02,2.6.05,3.91.01.4.02.8.03,1.2h49.56c-.14-.88-.27-1.75-.39-2.63-.33-2.4-.65-4.81-.94-7.22-.21-1.82-.39-.53-.54-2.35.66.06,1.4-.17,2.05-.27.46-.07.94-.12,1.4-.19-.03.53-.02,1.08-.03,1.59-.03,1.03-.02,2.04,0,3.07.04,1.97.14.82.3,2.78.14,1.75.31,3.49.5,5.23h1.54c-.22-1.81-.44-3.62-.63-5.42-.21-1.97-.42-.82-.63-2.79-.1-1-.2-1.98-.32-2.98-.07-.51-.1-1.05-.18-1.58.02,0,.05-.01.08-.02.55-.12,1.03-.47,1.17-1.12.14-.62-.02-1.34-.14-1.95-.09-.52-.18-1.19-.48-1.63,1.04-1.5,1.71-3.4,2.14-5.22.47-1.98.66-4.05.71-6.1Zm-55.14,16.89c-.62-.02-1.25.03-1.87.01-.8-.03-1.6-.07-2.4-.14-1.55-.13-3.1-.34-4.63-.64-.57-.1-1.3-.17-1.95-.39-.61-.2-1.17-.54-1.45-1.18-.25-.54-.29-1.2-.29-1.8,0-.41.06-.83.1-1.25.05-.04.09-.08.12-.13.68.24,1.39.41,2.08.58,1.12.28,2.26.5,3.4.68,2.25.36,4.51.58,6.78.76.1.01.19-.01.26-.04-.07,1.18-.12,2.37-.16,3.54Zm-10.9-10.99c.18.5-.53.72-.71.23-.91-2.62-1.47-5.63-.63-8.37.15-.5.86-.28.71.22-.8,2.61-.24,5.44.63,7.92Zm2.02-2.88c0-.53.72-.53.73,0,.01.8.2,1.52.58,2.19.26.45-.38.87-.63.42-.44-.79-.67-1.67-.68-2.61Zm60.62,11.35c-.06.1-.2.1-.3.11h-.02c-.27.03-.55.05-.82.08-.51.05-1.03.1-1.54.15-.51.05-1.06.04-1.55.19-.08-1.12-.16-2.25-.23-3.37.76.13,1.56.13,2.32.18.3.02.61.03.92.05.26.25.63.39.97.32h0s.02,0,.02,0c.01.03.02.07.03.11.06.27.09.56.13.83.04.27.06.54.08.81,0,.14.07.45,0,.56Z"/>
      <path class="cls-2" d="m61.13,23.3c-.37-6.08-2.33-12.98-8.09-15.97-12.71-5.14-29.42,7.8-30.31,21.03-.31,4.53,2.19,9.47,6.74,10.73,1.01,1.35,2.55,2.18,4.06,2.9,18.02,9.42,29.66,1.76,27.6-18.69h0Z"/>
      <path class="cls-1" d="m65.24,19.51c-.64-1.78-1.31-3.55-2.02-5.31-.69-1.71-1.31-3.45-2.17-5.08C55.94-.59,46.65-.59,41.84.68c-2.49-1.08-7.16-.78-9.75.2-4.2,1.58-9.32,7.8-11.07,10.59-3.86,6.17-6.28,14.37-3.71,21.5.34.93.76,1.79,1.25,2.63-.3.41-.65.81-1.04,1.19-1.15,1.15-2.3,2.26-3.29,3.55-.99,1.29-1.81,2.65-2.41,4.16-1.15,2.84-1.2,6.06.31,8.77,1.32,2.36,3.66,4.12,6.3,4.28.14.02.27.04.41.05.35.58.78,1.11,1.26,1.58,1.49,1.43,5.04,2.16,7.07,2.21.1.08.21.17.31.25,1.24.98,2.54,1.97,3.96,2.67.96.47,2.23.87,3.23.53.46.31,1.2.24,1.66,0,.74-.41,1.35-1.16,1.72-1.92.89-1.85.68-3.87.45-5.84-.25-2.18-.5-4.36-.74-6.54-.19-1.7-.4-3.44-.91-5.08-.27-.85-.61-1.67-1.06-2.44.01-.06,0-.13,0-.19-.15-.48-.45-.74-.81-1.07-.05-.04-.09-.09-.14-.13-.18-.21-.37-.4-.58-.56-.08-.08-.16-.16-.24-.25-.65-.69-1.27-1.41-1.82-2.19-.53-.75-1.01-1.54-1.47-2.34-.46-.81-.77-1.71-1.24-2.52-.04-.07-.14-.08-.2-.03-.14.15-.24.32-.22.49h-.07c-.03-.25-.27-.47-.6-.41-.49.09-.89.12-1.32-.05.07-.5.14-1,.21-1.5.12-.92.24-1.85.34-2.78.24.06.48.14.71.25.33.15.65.35.91.6.26.24.45.57.77.74.37.19.82-.13.71-.55-.22-.85-1.47-1.34-2.24-1.5-.26-.06-.54-.08-.81-.07.06-.59.12-1.19.16-1.79.02-.28.04-.56.06-.85.6-.18,1.24-.24,1.87-.15.21.17.41.33.61.49.63.53,1.26,1.06,1.88,1.59.06.05.11.1.17.14.37.32.83,0,.77-.45-.51-3.71,1.75-6.66,4.39-8.95,2.92-2.53,8.24-2.83,11.72-7.21,1.6.33,5.18,1.3,6.65,3.67,2.07,3.32,1.8,6.29,1.95,10.06.16,3.77.56,7.7-.29,11.41-.78,3.43-2.9,6.35-6.19,7.7-.08.03-.16.07-.25.1-1.7.65-3.56.83-5.35.49-1.98-.38-3.63-1.29-5.28-2.41-.1-.06-.23.07-.16.16,2.17,2.9,6.44,3.87,9.82,3.1.16-.04.32-.08.47-.12-.76,2.19-.6,4.6.38,6.74.59,1.29,1.5,2.4,2.6,3.27,1.21.97,2.72,1.75,3.56,3.1.77,1.24.54,2.64-.78,3.36-.33.18-.46.77-.13,1.03.13.1.25.2.38.3.74.56,2.77,1.62,3.1,1.66,2.92.35,4.89-1.81,6.14-4.36,1.48-2.99,1.09-6.64-.53-9.49-1.31-2.29-3.88-4.54-2.86-7.43.36-1.03,1.11-1.92,1.84-2.71.83-.91,1.72-1.76,2.51-2.69.79-.93,1.49-1.95,1.88-3.12.57-1.71.29-3.56-.14-5.26-.92-3.66-2.11-7.28-3.38-10.83Z"/>
      <path class="cls-1" d="m51.67,36.72c-.05-.07-.13-.12-.2-.14-.08-.02-.18-.02-.25.01-.07.03-.13.08-.17.15-.07.08-.14.17-.21.24-.55.62-1.08,1.09-1.87,1.22-.42.07-.83.01-1.2-.14-.38-.17-.73-.42-1-.76l-.03-.04c-.15-.2-.34-.29-.53-.31-.21-.02-.42.06-.59.2-.16.14-.28.34-.3.56-.02.19.03.4.19.59.45.55,1.06.96,1.73,1.19.65.23,1.36.28,2.04.12.62-.15,1.26-.52,1.74-1.02.43-.46.71-1.02.73-1.63,0-.09-.03-.18-.08-.24Zm-2.26-7.33c-.42-.05-.54.42-.34.55.76.41,1.93,1.39,1.2,2.55-.87,1.03-2.26-.02-2.95-.49-.63-.36-1.26.69-.67,1.12,4.95,3.28,6.52-3.29,2.76-3.72Zm-7.33-3.44c-.21-.99-1.72-.68-1.75.34-.02.63-.12,1.06.03,2,.11.7,1.09,1,1.43.21.36-.83.47-1.66.29-2.55Zm10.73-1.17c-.37-.09-.67.12-.87.41-.02.03-.04.07-.05.1-.63.66-.31,1.89.25,2.49.34.36,1.04.21,1.24-.23.36-.83.61-2.49-.56-2.77Zm-9.55-2.86c-.42-.43-1.12-.3-1.67-.17l-.18.04c-.59.14-1.15.39-1.67.69-.97.56-1.92,1.45-2.38,2.49-.05.12.08.26.19.17.85-.65,1.67-1.25,2.7-1.6.46-.16.94-.27,1.43-.33.6-.07,1.15.06,1.63-.37.27-.25.18-.69-.05-.93Zm11.86,1.15c-.8-1.46-2.8-1.99-4.33-2.22l-.14-.02c-.16-.02-.33,0-.47.07-.14.07-.26.18-.33.33-.1.2-.11.36-.05.58.05.17.15.29.27.37.13.09.29.13.45.14.76.05,1.52.18,2.25.37.34.09.67.23,1,.37l.28.12c.26.11.53.22.86.29.03,0,.05.01.08.02.09-.04.1-.07.12-.1h.01s.05-.09,0-.3Z"/>
    </g>
  </g>
</svg>