<svg width="785" height="782" viewBox="0 0 785 782" fill="none" xmlns="http://www.w3.org/2000/svg">
<path d="M311.404 161.118C344.178 140.566 392.602 80.6283 462.568 102.32C531.174 123.59 589.002 171.663 626.311 234.538C663.636 297.44 681.467 371.795 663.024 440.138C645.076 506.645 605.112 587.102 545.059 618.324C487.749 648.12 408.573 623.461 344.324 605.832C279.121 587.942 199.792 615.53 163.45 556.933C126.359 497.128 77.1172 370.673 90.1898 303.595C103.812 233.697 230.94 177.149 311.404 161.118Z" fill="#FFE9E1"/>
<g clip-path="url(#clip0_1095_11460)">
<path d="M392.83 163.432C392.59 163.442 392.355 163.498 392.137 163.599C391.918 163.699 391.722 163.841 391.56 164.016C391.397 164.192 391.27 164.397 391.187 164.622C391.105 164.846 391.067 165.084 391.077 165.322L392.122 191.041C392.132 191.279 392.189 191.514 392.29 191.73C392.391 191.947 392.533 192.142 392.71 192.303C392.887 192.465 393.094 192.591 393.319 192.673C393.545 192.755 393.785 192.793 394.025 192.783C394.265 192.773 394.501 192.717 394.719 192.616C394.937 192.516 395.133 192.374 395.296 192.199C395.459 192.023 395.585 191.818 395.668 191.594C395.75 191.369 395.788 191.131 395.778 190.893L394.733 165.174C394.723 164.936 394.666 164.701 394.566 164.485C394.465 164.268 394.322 164.073 394.145 163.912C393.968 163.75 393.761 163.624 393.536 163.542C393.31 163.46 393.071 163.422 392.83 163.432Z" fill="#444444"/>
<path d="M372.476 187.233C372.26 187.337 372.067 187.483 371.907 187.661C371.748 187.84 371.625 188.048 371.547 188.273C371.468 188.499 371.435 188.738 371.45 188.976C371.464 189.214 371.526 189.447 371.631 189.662L376.022 198.633C376.234 199.066 376.611 199.398 377.069 199.555C377.527 199.713 378.029 199.683 378.465 199.473C378.682 199.368 378.875 199.223 379.034 199.044C379.194 198.865 379.316 198.658 379.395 198.432C379.473 198.206 379.506 197.968 379.492 197.729C379.477 197.491 379.416 197.258 379.311 197.043L374.922 188.072C374.817 187.858 374.67 187.666 374.49 187.507C374.311 187.349 374.101 187.227 373.874 187.149C373.647 187.071 373.407 187.038 373.167 187.053C372.927 187.067 372.692 187.128 372.476 187.233Z" fill="#444444"/>
<path d="M338.041 211.329C337.644 211.052 337.153 210.943 336.675 211.026C336.197 211.109 335.772 211.377 335.493 211.771C335.214 212.165 335.104 212.653 335.187 213.128C335.27 213.602 335.54 214.025 335.936 214.302L361.043 231.833C361.439 232.109 361.931 232.218 362.408 232.136C362.886 232.053 363.311 231.785 363.59 231.39C363.728 231.195 363.827 230.975 363.879 230.742C363.932 230.509 363.937 230.268 363.896 230.032C363.855 229.797 363.767 229.572 363.638 229.371C363.51 229.169 363.342 228.995 363.145 228.858L338.041 211.329Z" fill="#444444"/>
<path d="M353.974 246.881C353.734 246.871 353.494 246.908 353.268 246.991C353.043 247.073 352.836 247.199 352.659 247.36C352.482 247.522 352.34 247.717 352.239 247.933C352.138 248.15 352.081 248.384 352.071 248.623C352.061 248.861 352.099 249.099 352.182 249.323C352.264 249.548 352.391 249.753 352.554 249.929C352.716 250.104 352.913 250.246 353.131 250.346C353.349 250.447 353.585 250.503 353.825 250.513L357.881 250.677C358.365 250.697 358.838 250.525 359.195 250.198C359.551 249.872 359.763 249.418 359.783 248.937C359.793 248.699 359.756 248.461 359.673 248.237C359.59 248.013 359.464 247.807 359.301 247.631C359.138 247.456 358.942 247.314 358.724 247.214C358.506 247.113 358.27 247.057 358.03 247.047L353.974 246.881Z" fill="#444444"/>
<path d="M357.054 275.098L349.436 279.377C349.227 279.494 349.043 279.651 348.895 279.839C348.747 280.027 348.638 280.242 348.573 280.472C348.509 280.702 348.491 280.942 348.52 281.179C348.55 281.416 348.625 281.645 348.744 281.853C348.862 282.06 349.02 282.243 349.209 282.39C349.399 282.537 349.615 282.645 349.847 282.709C350.078 282.773 350.32 282.791 350.558 282.762C350.797 282.733 351.027 282.658 351.236 282.54L358.854 278.261C359.064 278.144 359.247 277.987 359.395 277.799C359.543 277.611 359.652 277.396 359.717 277.166C359.781 276.936 359.799 276.696 359.77 276.459C359.741 276.222 359.665 275.993 359.546 275.785C359.428 275.578 359.27 275.395 359.081 275.248C358.892 275.101 358.675 274.993 358.443 274.929C358.212 274.865 357.97 274.847 357.732 274.876C357.493 274.905 357.263 274.981 357.054 275.098Z" fill="#444444"/>
<path d="M431.93 259.2L428.491 260.2C428.26 260.267 428.045 260.378 427.858 260.528C427.671 260.678 427.515 260.862 427.4 261.072C427.285 261.281 427.212 261.511 427.186 261.748C427.16 261.986 427.182 262.226 427.25 262.455C427.317 262.684 427.429 262.897 427.58 263.083C427.731 263.269 427.917 263.424 428.127 263.538C428.338 263.653 428.57 263.725 428.808 263.75C429.047 263.776 429.289 263.755 429.519 263.688L432.957 262.688C433.188 262.621 433.403 262.509 433.59 262.36C433.777 262.21 433.933 262.025 434.048 261.816C434.163 261.606 434.236 261.376 434.262 261.139C434.287 260.902 434.266 260.662 434.198 260.433C434.062 259.971 433.746 259.581 433.321 259.35C432.896 259.119 432.396 259.065 431.93 259.2Z" fill="#444444"/>
<path d="M432.481 277.104C432.023 276.945 431.521 276.974 431.084 277.183C430.647 277.393 430.312 277.766 430.152 278.221C429.993 278.676 430.021 279.175 430.232 279.609C430.443 280.043 430.819 280.376 431.277 280.535L434.874 281.778C435.332 281.936 435.834 281.907 436.27 281.697C436.706 281.488 437.041 281.115 437.201 280.66C437.361 280.205 437.332 279.706 437.121 279.272C436.91 278.838 436.534 278.505 436.076 278.347L432.481 277.104Z" fill="#444444"/>
<path d="M453.293 208.079C452.915 207.776 452.432 207.634 451.95 207.685C451.468 207.736 451.025 207.976 450.721 208.35L426.065 238.703C425.915 238.889 425.802 239.102 425.734 239.331C425.666 239.56 425.645 239.8 425.67 240.037C425.696 240.274 425.768 240.504 425.883 240.714C425.998 240.923 426.154 241.108 426.341 241.258C426.528 241.408 426.743 241.519 426.973 241.587C427.204 241.654 427.445 241.676 427.684 241.65C427.923 241.625 428.154 241.553 428.365 241.439C428.576 241.324 428.762 241.17 428.913 240.984L453.568 210.634C453.719 210.448 453.832 210.235 453.899 210.006C453.967 209.777 453.989 209.537 453.963 209.299C453.938 209.062 453.865 208.832 453.75 208.623C453.635 208.413 453.48 208.228 453.293 208.079Z" fill="#444444"/>
<path d="M422.117 192.83C421.89 192.907 421.681 193.028 421.501 193.186C421.321 193.344 421.174 193.536 421.068 193.75L415.771 204.548C415.558 204.981 415.527 205.48 415.685 205.936C415.843 206.391 416.176 206.766 416.612 206.978C416.828 207.082 417.062 207.143 417.302 207.158C417.542 207.172 417.782 207.14 418.009 207.062C418.236 206.984 418.446 206.863 418.626 206.705C418.805 206.546 418.952 206.355 419.058 206.14L424.357 195.342C424.462 195.127 424.524 194.895 424.538 194.656C424.553 194.418 424.52 194.179 424.442 193.954C424.364 193.728 424.241 193.52 424.082 193.342C423.923 193.163 423.73 193.017 423.514 192.913C423.078 192.702 422.576 192.672 422.117 192.83Z" fill="#444444"/>
<path d="M263.899 286.008C263.416 286.041 262.965 286.264 262.647 286.627C262.328 286.99 262.168 287.464 262.201 287.944C263.188 302.207 270.331 310.863 281.124 314.855C281.579 315.023 282.082 315.005 282.523 314.805C282.964 314.604 283.307 314.238 283.476 313.787C283.56 313.563 283.599 313.325 283.59 313.087C283.582 312.848 283.526 312.613 283.426 312.396C283.326 312.179 283.184 311.984 283.008 311.821C282.832 311.658 282.625 311.532 282.4 311.449C272.666 307.848 266.766 300.917 265.851 287.695C265.834 287.457 265.771 287.224 265.664 287.011C265.557 286.797 265.408 286.606 265.227 286.45C265.046 286.293 264.835 286.173 264.608 286.098C264.38 286.022 264.139 285.991 263.899 286.008Z" fill="#444444"/>
<path d="M255.699 293.283C255.472 293.361 255.262 293.482 255.082 293.639C254.901 293.797 254.754 293.989 254.649 294.203C254.543 294.417 254.48 294.65 254.465 294.888C254.45 295.127 254.482 295.365 254.56 295.591C255.189 297.419 255.306 299.01 255.128 300.103C254.949 301.196 254.524 301.676 254.246 301.821C253.968 301.965 253.527 302.064 252.48 301.413C251.433 300.762 249.991 299.318 248.465 296.846C248.211 296.436 247.804 296.141 247.332 296.029C246.861 295.916 246.363 295.994 245.95 296.246C245.745 296.371 245.566 296.534 245.425 296.728C245.284 296.921 245.182 297.14 245.126 297.372C245.07 297.604 245.06 297.845 245.098 298.081C245.136 298.317 245.22 298.543 245.346 298.746C247.065 301.532 248.775 303.396 250.539 304.493C252.303 305.591 254.331 305.879 255.942 305.041C257.553 304.203 258.437 302.53 258.739 300.685C259.04 298.84 258.81 296.707 258.022 294.417C257.945 294.191 257.823 293.982 257.665 293.803C257.506 293.624 257.313 293.477 257.097 293.372C256.882 293.267 256.647 293.205 256.407 293.189C256.167 293.174 255.927 293.206 255.699 293.283Z" fill="#444444"/>
<path d="M250.792 279.188C246.78 280.104 243.649 282.27 241.371 285.203C241.224 285.392 241.117 285.607 241.054 285.838C240.991 286.068 240.974 286.309 241.005 286.545C241.036 286.782 241.113 287.01 241.233 287.217C241.352 287.424 241.512 287.606 241.702 287.752C241.892 287.897 242.109 288.005 242.341 288.067C242.573 288.13 242.815 288.146 243.053 288.115C243.292 288.085 243.522 288.008 243.73 287.889C243.938 287.771 244.121 287.612 244.268 287.423C246.108 285.053 248.39 283.464 251.611 282.729C251.845 282.675 252.066 282.577 252.262 282.438C252.458 282.3 252.624 282.125 252.752 281.923C252.879 281.72 252.966 281.495 253.006 281.26C253.045 281.024 253.038 280.783 252.984 280.551C252.876 280.081 252.583 279.674 252.172 279.419C251.761 279.163 251.265 279.08 250.792 279.188Z" fill="#444444"/>
<path d="M251.398 327.15C250.916 327.098 250.433 327.239 250.055 327.541C249.677 327.843 249.436 328.282 249.383 328.761C249.331 329.239 249.472 329.719 249.775 330.095C251.696 332.467 253.954 334.298 256.63 335.227C259.306 336.156 262.338 336.126 265.551 335.05C266.01 334.897 266.39 334.568 266.605 334.136C266.821 333.704 266.855 333.206 266.7 332.749C266.545 332.292 266.214 331.916 265.78 331.701C265.345 331.487 264.843 331.454 264.383 331.607C261.785 332.477 259.705 332.447 257.837 331.798C255.969 331.149 254.249 329.821 252.627 327.817C252.476 327.631 252.29 327.477 252.08 327.362C251.869 327.248 251.637 327.176 251.398 327.15Z" fill="#444444"/>
<path d="M272.753 315.788C272.269 315.827 271.821 316.055 271.507 316.422C271.192 316.789 271.038 317.265 271.077 317.745C272.254 332.338 269.274 342.429 263.701 347.552C258.129 352.675 249.66 353.452 238.303 348.544C237.858 348.351 237.355 348.343 236.903 348.519C236.452 348.695 236.09 349.043 235.896 349.484C235.703 349.926 235.694 350.426 235.871 350.875C236.049 351.323 236.399 351.683 236.843 351.875C248.971 357.117 259.365 356.489 266.186 350.219C273.006 343.948 275.949 332.658 274.723 317.453C274.683 316.973 274.454 316.528 274.085 316.215C273.715 315.903 273.236 315.75 272.753 315.788Z" fill="#444444"/>
<path d="M260.147 220.949C248.454 220.764 236.219 226.258 224.524 242.47C214.045 238.507 201.606 238.595 191.581 243.724C181.564 248.849 174.26 259.171 174.368 274.504C172.525 274.406 169.8 274.44 166.374 275.678C161.22 277.54 155.807 282.457 155.331 292.547C154.389 312.264 164.946 327.905 178.512 337.111C193.191 347.069 215.745 347.473 233.004 330.238C233.945 329.3 234.587 328.418 234.802 327.314C235.017 326.21 234.475 324.948 233.718 324.327C232.205 323.087 230.496 323.119 228.935 323.273C223.932 323.767 219.773 322.808 217.061 320.375C214.349 317.943 212.768 313.877 213.442 307.225C213.891 302.788 215.743 300.86 217.408 300.286C219.073 299.711 220.866 300.295 222.052 302.204V302.206C223.198 304.045 225.519 307.662 228.225 310.928C229.578 312.56 231.023 314.108 232.53 315.324C234.038 316.54 235.61 317.502 237.46 317.613C240.857 317.818 243.577 315.768 244.65 312.98C245.722 310.192 245.59 306.767 244.576 303.232V303.23C243.43 299.217 241.246 294.112 240.032 289.1C238.818 284.088 238.651 279.41 240.9 276.136V276.134C242.419 273.918 244.684 273.192 248.061 273.024C251.437 272.855 255.667 273.4 260.127 273.569C265.685 273.78 271.73 272.4 276.642 268.741C281.553 265.081 285.212 259.1 285.912 250.649C287.194 235.086 278.362 223.32 265.233 221.373C263.55 221.124 261.853 220.976 260.144 220.949L260.147 220.949ZM260.062 224.557C261.61 224.595 263.154 224.738 264.696 224.966C275.982 226.64 283.433 236.238 282.27 250.353C281.642 257.934 278.554 262.778 274.451 265.835C270.348 268.892 265.112 270.121 260.27 269.937C256.034 269.776 251.776 269.202 247.881 269.396C243.986 269.59 240.195 270.708 237.879 274.088C234.705 278.709 235.166 284.532 236.478 289.95C237.791 295.368 240.031 300.623 241.059 304.224V304.226C241.915 307.212 241.887 309.984 241.232 311.684C240.578 313.384 239.739 314.11 237.68 313.986C237.132 313.953 236.043 313.477 234.835 312.503C233.627 311.529 232.304 310.136 231.048 308.62C228.536 305.588 226.274 302.077 225.163 300.294V300.292C223.203 297.138 219.499 295.717 216.206 296.852C212.911 297.989 210.344 301.487 209.8 306.86C209.052 314.251 210.884 319.732 214.607 323.072C218.33 326.411 223.627 327.45 229.295 326.891C230.015 326.82 230.514 326.987 230.871 327.071C230.762 327.253 230.79 327.297 230.411 327.675C214.287 343.777 193.864 343.126 180.574 334.11C167.864 325.485 158.106 311.065 158.983 292.72V292.718C159.405 283.777 163.497 280.584 167.624 279.093C171.751 277.602 175.885 278.207 175.885 278.207C176.153 278.248 176.428 278.23 176.688 278.153C176.948 278.076 177.188 277.943 177.39 277.762C177.592 277.582 177.751 277.359 177.855 277.11C177.96 276.861 178.007 276.592 177.994 276.323C177.238 261.001 183.923 251.729 193.255 246.954C202.587 242.179 214.749 242.146 224.493 246.236C224.88 246.398 225.312 246.423 225.715 246.307C226.118 246.191 226.469 245.94 226.708 245.597C238.198 229.137 249.221 224.287 260.06 224.557L260.062 224.557Z" fill="#444444"/>
<path fill-rule="evenodd" clip-rule="evenodd" d="M225.208 244.562C204.723 235.963 174.601 244.616 176.169 276.411C176.169 276.411 158.056 273.603 157.157 292.634C156.248 311.665 166.407 326.695 179.545 335.611C193.529 345.098 215.018 345.624 231.709 328.956C234.907 325.765 231.636 324.834 229.117 325.082C218.446 326.136 210.199 321.087 211.621 307.042C212.614 297.233 220.463 296.185 223.609 301.249C225.867 304.87 232.775 315.51 237.572 315.799C243.028 316.128 244.69 310.248 242.819 303.727C240.645 296.114 233.967 283.006 239.391 275.111C243.227 269.515 251.504 271.423 260.2 271.753C270.6 272.149 282.765 266.533 284.093 250.501C285.316 235.662 277.174 224.981 264.966 223.17C252.069 221.257 238.597 225.381 225.208 244.562Z" fill="#444444"/>
<path d="M219.037 379.999C212.344 379.367 207.074 381.849 203.474 384.906C198.673 388.983 196.5 394.048 196.5 394.048C196.405 394.267 196.354 394.503 196.351 394.741C196.347 394.98 196.391 395.217 196.48 395.439C196.569 395.661 196.7 395.863 196.868 396.034C197.035 396.205 197.235 396.342 197.456 396.437C197.677 396.531 197.914 396.581 198.154 396.585C198.395 396.588 198.633 396.544 198.857 396.456C199.08 396.368 199.284 396.237 199.456 396.07C199.628 395.904 199.766 395.705 199.86 395.485C199.86 395.485 201.774 391.131 205.852 387.668C209.93 384.205 215.832 381.601 224.849 385.142C244.716 392.943 256.165 399.34 261.564 401.989C263.906 403.137 266.672 404.006 269.319 403.047C270.643 402.568 271.84 401.529 272.551 400.089C273.261 398.648 273.555 396.862 273.483 394.64C273.468 394.158 273.261 393.703 272.907 393.373C272.553 393.043 272.082 392.866 271.597 392.882C271.112 392.897 270.654 393.103 270.322 393.454C269.99 393.806 269.812 394.274 269.827 394.755C269.886 396.583 269.613 397.788 269.266 398.491C268.919 399.194 268.568 399.45 268.066 399.632C267.061 399.996 265.055 399.646 263.185 398.73C258.048 396.21 246.252 389.637 226.196 381.761C223.658 380.765 221.27 380.21 219.039 379.999H219.037Z" fill="#444444"/>
<path d="M285.844 529.877C284.59 529.678 283.588 530.41 282.978 531.12C282.368 531.83 281.912 532.689 281.473 533.742C281.473 533.743 281.473 533.743 281.473 533.744C279.326 538.912 273.869 545.534 268.49 546.562C265.738 547.088 261.891 546.603 258.821 545.915C255.75 545.227 253.474 544.396 253.474 544.396C253.249 544.314 253.009 544.277 252.769 544.287C252.529 544.296 252.293 544.353 252.075 544.454C251.857 544.554 251.661 544.696 251.499 544.872C251.336 545.047 251.21 545.253 251.127 545.477C251.044 545.701 251.007 545.939 251.016 546.178C251.026 546.416 251.083 546.65 251.184 546.867C251.286 547.084 251.429 547.278 251.605 547.44C251.782 547.602 251.989 547.727 252.215 547.809C252.215 547.809 254.706 548.718 258.016 549.46C261.326 550.202 265.474 550.837 269.18 550.129C276.72 548.688 282.339 541.182 284.854 535.133V535.131C285.008 534.762 285.109 534.665 285.252 534.403C285.405 534.847 285.558 535.18 285.703 535.938C286.119 538.14 285.934 541.649 286.628 544.636C286.975 546.129 287.589 547.664 289.026 548.634C290.464 549.604 292.411 549.644 294.489 548.953C301.736 546.536 306.294 543.814 306.294 543.814C306.71 543.566 307.009 543.164 307.126 542.697C307.243 542.229 307.168 541.735 306.919 541.322C306.795 541.117 306.632 540.939 306.439 540.797C306.245 540.655 306.026 540.553 305.793 540.495C305.56 540.437 305.317 540.426 305.08 540.461C304.842 540.497 304.614 540.578 304.408 540.702C304.408 540.702 300.231 543.204 293.326 545.507C291.86 545.995 291.356 545.815 291.08 545.629C290.804 545.443 290.442 544.885 290.194 543.818C289.699 541.686 289.854 538.205 289.298 535.265C289.298 535.264 289.298 535.262 289.298 535.261C289.033 533.875 288.719 532.794 288.261 531.897C287.803 530.999 287.098 530.076 285.844 529.877Z" fill="#444444"/>
<path fill-rule="evenodd" clip-rule="evenodd" d="M278.56 415.298C278.56 415.59 278.502 415.879 278.389 416.149C278.277 416.419 278.112 416.664 277.904 416.87C277.696 417.077 277.45 417.241 277.178 417.352C276.906 417.464 276.615 417.522 276.322 417.522C276.028 417.522 275.737 417.464 275.465 417.352C275.194 417.241 274.947 417.077 274.739 416.87C274.531 416.664 274.366 416.419 274.254 416.149C274.141 415.879 274.083 415.59 274.083 415.298C274.083 415.006 274.141 414.717 274.254 414.448C274.366 414.178 274.531 413.933 274.739 413.726C274.947 413.52 275.194 413.356 275.465 413.244C275.737 413.133 276.028 413.075 276.322 413.075C276.615 413.075 276.906 413.133 277.178 413.244C277.45 413.356 277.696 413.52 277.904 413.726C278.112 413.933 278.277 414.178 278.389 414.448C278.502 414.717 278.56 415.006 278.56 415.298Z" fill="#444444"/>
<path fill-rule="evenodd" clip-rule="evenodd" d="M283.037 432.787C283.037 433.376 282.801 433.942 282.382 434.359C281.962 434.776 281.393 435.01 280.799 435.01C280.505 435.01 280.214 434.952 279.943 434.841C279.671 434.729 279.424 434.565 279.217 434.359C279.009 434.152 278.844 433.907 278.731 433.637C278.619 433.368 278.561 433.078 278.561 432.787C278.561 432.495 278.619 432.205 278.731 431.936C278.844 431.666 279.009 431.421 279.217 431.214C279.424 431.008 279.671 430.844 279.943 430.732C280.214 430.621 280.505 430.563 280.799 430.563C281.393 430.563 281.962 430.797 282.382 431.214C282.801 431.631 283.037 432.197 283.037 432.787Z" fill="#444444"/>
<path fill-rule="evenodd" clip-rule="evenodd" d="M285.523 451.302C285.523 451.594 285.465 451.884 285.352 452.153C285.24 452.423 285.075 452.668 284.867 452.875C284.659 453.081 284.412 453.245 284.141 453.357C283.869 453.468 283.578 453.526 283.284 453.526C282.991 453.526 282.7 453.468 282.428 453.357C282.156 453.245 281.91 453.081 281.702 452.875C281.494 452.668 281.329 452.423 281.217 452.153C281.104 451.884 281.046 451.594 281.046 451.302C281.046 451.011 281.104 450.721 281.217 450.452C281.329 450.182 281.494 449.937 281.702 449.73C281.91 449.524 282.156 449.36 282.428 449.248C282.7 449.137 282.991 449.079 283.284 449.079C283.578 449.079 283.869 449.137 284.141 449.248C284.412 449.36 284.659 449.524 284.867 449.73C285.075 449.937 285.24 450.182 285.352 450.452C285.465 450.721 285.523 451.011 285.523 451.302Z" fill="#444444"/>
<path fill-rule="evenodd" clip-rule="evenodd" d="M287.076 468.893C287.076 469.185 287.018 469.474 286.905 469.744C286.793 470.014 286.628 470.259 286.42 470.466C286.213 470.672 285.966 470.836 285.694 470.947C285.423 471.059 285.132 471.117 284.838 471.117C284.544 471.117 284.253 471.059 283.981 470.947C283.71 470.836 283.463 470.672 283.255 470.466C283.047 470.259 282.882 470.014 282.77 469.744C282.657 469.474 282.6 469.185 282.6 468.893C282.6 468.601 282.657 468.312 282.77 468.043C282.882 467.773 283.047 467.528 283.255 467.321C283.463 467.115 283.71 466.951 283.981 466.839C284.253 466.728 284.544 466.67 284.838 466.67C285.132 466.67 285.423 466.728 285.694 466.839C285.966 466.951 286.213 467.115 286.42 467.321C286.628 467.528 286.793 467.773 286.905 468.043C287.018 468.312 287.076 468.601 287.076 468.893Z" fill="#444444"/>
<path fill-rule="evenodd" clip-rule="evenodd" d="M287.386 485.25C287.386 485.542 287.328 485.831 287.216 486.101C287.103 486.37 286.938 486.616 286.731 486.822C286.523 487.029 286.276 487.192 286.004 487.304C285.733 487.416 285.442 487.473 285.148 487.473C284.854 487.473 284.563 487.416 284.292 487.304C284.02 487.192 283.773 487.029 283.565 486.822C283.358 486.616 283.193 486.37 283.08 486.101C282.968 485.831 282.91 485.542 282.91 485.25C282.91 484.958 282.968 484.669 283.08 484.399C283.193 484.129 283.358 483.884 283.565 483.678C283.773 483.471 284.02 483.308 284.292 483.196C284.563 483.084 284.854 483.027 285.148 483.027C285.442 483.027 285.733 483.084 286.004 483.196C286.276 483.308 286.523 483.471 286.731 483.678C286.938 483.884 287.103 484.129 287.216 484.399C287.328 484.669 287.386 484.958 287.386 485.25Z" fill="#444444"/>
<path fill-rule="evenodd" clip-rule="evenodd" d="M288.629 503.15C288.629 503.442 288.571 503.731 288.459 504.001C288.346 504.27 288.181 504.516 287.973 504.722C287.766 504.928 287.519 505.092 287.247 505.204C286.976 505.316 286.685 505.373 286.391 505.373C286.097 505.373 285.806 505.316 285.534 505.204C285.263 505.092 285.016 504.928 284.808 504.722C284.6 504.516 284.436 504.27 284.323 504.001C284.211 503.731 284.153 503.442 284.153 503.15C284.153 502.858 284.211 502.569 284.323 502.299C284.436 502.029 284.6 501.784 284.808 501.578C285.016 501.371 285.263 501.208 285.534 501.096C285.806 500.984 286.097 500.927 286.391 500.927C286.685 500.927 286.976 500.984 287.247 501.096C287.519 501.208 287.766 501.371 287.973 501.578C288.181 501.784 288.346 502.029 288.459 502.299C288.571 502.569 288.629 502.858 288.629 503.15Z" fill="#444444"/>
<path fill-rule="evenodd" clip-rule="evenodd" d="M288.215 520.432C288.215 520.724 288.157 521.013 288.044 521.283C287.932 521.553 287.767 521.798 287.559 522.004C287.351 522.211 287.105 522.374 286.833 522.486C286.562 522.598 286.271 522.655 285.977 522.655C285.683 522.655 285.392 522.598 285.12 522.486C284.849 522.374 284.602 522.211 284.394 522.004C284.186 521.798 284.021 521.553 283.909 521.283C283.797 521.013 283.739 520.724 283.739 520.432C283.739 520.14 283.797 519.851 283.909 519.581C284.021 519.312 284.186 519.066 284.394 518.86C284.602 518.654 284.849 518.49 285.12 518.378C285.392 518.266 285.683 518.209 285.977 518.209C286.271 518.209 286.562 518.266 286.833 518.378C287.105 518.49 287.351 518.654 287.559 518.86C287.767 519.066 287.932 519.312 288.044 519.581C288.157 519.851 288.215 520.14 288.215 520.432Z" fill="#444444"/>
<path fill-rule="evenodd" clip-rule="evenodd" d="M246.488 560.817C241.701 560.573 200.532 563.774 182.795 540.757C165.059 517.739 155.966 491.569 172.793 449.499C182.273 425.793 195.139 405.628 205.549 392.342C209.604 387.157 214.38 387.373 224.769 391.647C237.008 396.676 261.444 408.69 271.666 438.319C277.048 453.916 279.473 483.832 270.506 518.211C265.98 535.578 257.744 551.489 253.49 558.147C252.268 560.079 250.407 561.017 246.488 560.817ZM229.598 438.897C237.029 432.609 245.234 428.498 254.703 427.937C255.706 427.878 256.48 427.016 256.417 426.016C256.354 425.015 255.487 424.251 254.483 424.31C244.209 424.918 235.284 429.311 227.225 436.13C226.452 436.78 226.368 437.928 227.016 438.691C227.675 439.456 228.825 439.547 229.598 438.897ZM215.101 455.708C214.119 451.286 205.266 474.483 202.946 481.856C200.626 489.23 200.501 496.406 204.409 499.764C211.558 505.9 221.393 508.323 224.957 508.786C227.863 509.164 227.414 506.553 225.846 506.258C224.759 506.054 221.101 505.333 217.882 504.296C214.568 503.229 212.509 501.86 213.241 495.803C214.035 489.245 215.101 455.708 215.101 455.708Z" fill="#444444"/>
<path d="M252.06 351.812C251.576 351.854 251.13 352.084 250.817 352.452C250.505 352.821 250.353 353.297 250.394 353.777C251.197 363.065 253.567 370.024 257.436 374.94C261.306 379.855 266.673 382.593 272.902 383.475C273.139 383.509 273.382 383.496 273.614 383.436C273.847 383.377 274.066 383.273 274.258 383.13C274.45 382.987 274.612 382.808 274.735 382.602C274.857 382.397 274.938 382.17 274.972 381.934C275.006 381.697 274.992 381.457 274.933 381.225C274.873 380.994 274.768 380.777 274.624 380.586C274.48 380.395 274.299 380.234 274.092 380.112C273.885 379.991 273.656 379.911 273.418 379.877C267.92 379.099 263.599 376.87 260.319 372.703C257.039 368.536 254.802 362.299 254.038 353.467C253.996 352.987 253.764 352.543 253.393 352.233C253.023 351.923 252.543 351.771 252.06 351.812Z" fill="#444444"/>
<path fill-rule="evenodd" clip-rule="evenodd" d="M259.082 374.085C259.082 374.085 284.49 377.357 302.885 366.106C318.698 356.426 352.489 342.805 368.532 297.204C371.04 290.101 374.437 292.431 378.764 294.495C382.203 296.14 401.298 306.441 404.423 308.828C407.004 310.803 406.545 314.154 405.426 317.599C404.297 321.044 398.549 344.907 374.071 378.059C359.596 397.669 340.124 411.852 316.922 421.727C314.706 422.672 313.243 421.705 312.114 419.446C309.093 413.397 298.485 395.695 292.653 389.478C291.597 388.349 288.963 389.386 290.604 391.678C295.015 397.801 335.484 443.957 347.085 552.459C347.744 558.634 344.274 560.601 338.243 561.588C332.212 562.576 311.738 563.168 308.153 561.852C304.578 560.535 302.916 557.243 302.791 551.45C302.655 545.656 296.52 478.821 292.674 451.095C288.838 423.368 289.162 402.88 264.245 378.618C262.322 377.442 260.598 375.941 259.082 374.085Z" fill="#444444"/>
<path d="M393.194 259.19C392.508 259.335 391.844 259.652 391.306 260.104C390.229 261.008 389.403 262.327 388.611 264.168C385.414 271.566 384.877 281.292 384.877 285.424C384.877 285.906 385.07 286.368 385.413 286.708C385.756 287.049 386.221 287.241 386.706 287.241C387.192 287.241 387.657 287.049 388 286.708C388.343 286.368 388.536 285.906 388.536 285.424C388.536 281.655 389.193 272.027 391.973 265.598V265.596C392.634 264.059 393.294 263.192 393.666 262.88C394.037 262.569 393.865 262.688 393.906 262.704C393.947 262.72 394.327 262.978 394.696 263.629C395.065 264.279 395.422 265.248 395.658 266.368C396.644 271.103 397.67 283.193 397.732 291.558V291.562C397.757 294.376 396.104 297.488 394.315 299.846C392.525 302.203 390.746 303.733 390.746 303.733C390.565 303.889 390.415 304.079 390.308 304.292C390.2 304.506 390.135 304.738 390.118 304.976C390.101 305.214 390.13 305.453 390.206 305.68C390.282 305.906 390.401 306.116 390.558 306.296C390.876 306.66 391.325 306.884 391.809 306.919C392.292 306.954 392.77 306.797 393.137 306.483C393.137 306.483 395.2 304.716 397.236 302.034C399.272 299.352 401.427 295.682 401.39 291.532V291.529C401.326 282.909 400.366 271.036 399.24 265.632V265.628C398.944 264.216 398.502 262.934 397.883 261.844C397.264 260.754 396.465 259.785 395.213 259.309C394.587 259.072 393.878 259.044 393.192 259.19L393.194 259.19Z" fill="#444444"/>
<path d="M389.866 213.611C388.419 213.335 387.064 214.259 386.339 215.342C385.614 216.426 385.172 217.8 384.9 219.534C384.9 219.535 384.9 219.537 384.9 219.538C383.927 225.801 381.136 244.01 379.99 262.327C378.88 280.073 370.945 296.739 370.945 296.739C370.842 296.955 370.783 297.188 370.77 297.427C370.758 297.665 370.793 297.903 370.874 298.128C370.955 298.353 371.079 298.56 371.24 298.737C371.401 298.914 371.596 299.058 371.813 299.16C372.251 299.367 372.754 299.393 373.211 299.232C373.668 299.07 374.042 298.735 374.25 298.3C374.25 298.3 382.474 281.223 383.642 262.554C384.775 244.454 387.544 226.342 388.515 220.094V220.092C388.724 218.763 389.081 217.906 389.346 217.478C389.417 217.549 389.356 217.453 389.564 217.865C389.935 218.594 390.336 219.87 390.581 221.641C391.63 229.233 394.553 252.62 394.808 263.471C394.82 263.952 395.023 264.41 395.374 264.742C395.724 265.075 396.194 265.256 396.678 265.245C396.919 265.239 397.155 265.187 397.375 265.09C397.595 264.994 397.793 264.855 397.959 264.683C398.125 264.51 398.255 264.307 398.342 264.084C398.428 263.861 398.47 263.624 398.465 263.385C398.197 252.02 395.266 228.83 394.204 221.148C393.921 219.1 393.471 217.487 392.83 216.227C392.19 214.966 391.314 213.886 389.866 213.611Z" fill="#444444"/>
<path d="M399.987 256.984C399.06 257.244 398.199 257.763 397.536 258.488C396.208 259.939 395.477 262.044 395.313 264.663C395.282 265.144 395.446 265.617 395.766 265.978C396.087 266.339 396.539 266.559 397.023 266.589C397.507 266.619 397.983 266.457 398.347 266.139C398.711 265.82 398.932 265.371 398.963 264.89C399.091 262.846 399.695 261.53 400.242 260.932C400.79 260.333 401.086 260.279 401.678 260.475C402.269 260.672 403.242 261.419 404.107 263.099C404.971 264.78 405.709 267.331 405.985 270.791C406.7 279.772 410.717 287.977 410.717 287.977C410.821 288.192 410.966 288.385 411.145 288.544C411.324 288.703 411.533 288.826 411.76 288.905C411.986 288.984 412.227 289.018 412.467 289.005C412.706 288.992 412.941 288.932 413.158 288.828C413.375 288.725 413.569 288.58 413.729 288.403C413.889 288.225 414.013 288.017 414.093 287.792C414.172 287.567 414.206 287.328 414.193 287.09C414.18 286.852 414.119 286.618 414.015 286.403C414.015 286.403 410.276 278.58 409.633 270.505C409.328 266.682 408.516 263.69 407.363 261.447C406.209 259.203 404.695 257.645 402.837 257.028C401.908 256.72 400.915 256.723 399.987 256.984Z" fill="#444444"/>
<path d="M495.892 400.366C495.423 400.241 494.924 400.306 494.504 400.546C494.084 400.787 493.777 401.183 493.65 401.648C479.707 452.875 472.352 507.293 466.547 562.424C466.522 562.661 466.544 562.901 466.613 563.13C466.681 563.359 466.794 563.572 466.945 563.758C467.097 563.943 467.283 564.097 467.494 564.211C467.706 564.325 467.937 564.396 468.176 564.421C468.659 564.471 469.141 564.328 469.518 564.025C469.895 563.722 470.135 563.282 470.185 562.803C475.982 507.742 483.322 453.506 497.18 402.595C497.243 402.365 497.259 402.124 497.228 401.888C497.197 401.651 497.12 401.423 497 401.216C496.881 401.009 496.721 400.827 496.531 400.682C496.341 400.536 496.124 400.429 495.892 400.366Z" fill="#444444"/>
<path d="M498.012 508.674C494.099 508.259 490.407 509.155 486.997 510.826C486.782 510.931 486.59 511.078 486.431 511.257C486.273 511.437 486.152 511.645 486.075 511.871C485.998 512.097 485.966 512.336 485.982 512.574C485.997 512.812 486.06 513.045 486.167 513.259C486.273 513.473 486.421 513.664 486.601 513.821C486.782 513.979 486.992 514.099 487.219 514.176C487.447 514.252 487.687 514.284 487.927 514.268C488.167 514.252 488.401 514.19 488.616 514.084C491.561 512.641 494.494 511.956 497.625 512.288C497.863 512.313 498.105 512.291 498.335 512.224C498.566 512.157 498.781 512.045 498.968 511.895C499.154 511.745 499.31 511.56 499.425 511.35C499.54 511.141 499.612 510.911 499.637 510.674C499.663 510.436 499.641 510.196 499.573 509.968C499.505 509.739 499.393 509.525 499.242 509.34C499.091 509.154 498.905 509 498.694 508.885C498.483 508.771 498.251 508.699 498.012 508.674Z" fill="#444444"/>
<path d="M569.862 507.96C565.875 507.774 561.85 507.975 557.795 508.593C557.558 508.629 557.33 508.712 557.124 508.835C556.918 508.959 556.739 509.122 556.597 509.314C556.455 509.507 556.353 509.725 556.295 509.957C556.238 510.189 556.228 510.43 556.264 510.666C556.338 511.142 556.599 511.569 556.991 511.854C557.382 512.139 557.871 512.258 558.35 512.184C565.98 511.021 573.463 511.421 580.848 513.188C581.319 513.3 581.816 513.222 582.23 512.971C582.643 512.72 582.939 512.316 583.053 511.848C583.166 511.379 583.088 510.885 582.835 510.474C582.582 510.063 582.175 509.769 581.703 509.656C577.798 508.721 573.848 508.147 569.862 507.96Z" fill="#444444"/>
<path d="M572.67 432.686C572.212 432.844 571.836 433.176 571.624 433.609C571.412 434.043 571.383 434.542 571.542 434.998C584.978 473.492 593.209 514.643 599.786 556.681C599.86 557.157 600.122 557.584 600.514 557.868C600.906 558.152 601.395 558.27 601.874 558.196C602.111 558.159 602.339 558.076 602.544 557.952C602.749 557.828 602.928 557.665 603.07 557.473C603.212 557.28 603.314 557.061 603.371 556.829C603.427 556.598 603.438 556.357 603.401 556.121C596.808 513.984 588.547 472.625 574.998 433.807C574.839 433.352 574.504 432.978 574.068 432.768C573.631 432.558 573.129 432.528 572.67 432.686Z" fill="#444444"/>
<path d="M522.255 371.083C522.028 371.16 521.819 371.281 521.639 371.439C521.459 371.597 521.312 371.789 521.206 372.003C521.206 372.003 517.114 380.261 518.381 390.341C519.034 395.538 521.538 399.635 525.134 401.468C528.73 403.3 533.346 402.387 536.753 398.481C543.118 391.197 547.024 381.194 560.9 375.122C561.12 375.026 561.319 374.888 561.485 374.715C561.651 374.543 561.782 374.339 561.869 374.117C561.956 373.894 561.998 373.657 561.992 373.418C561.987 373.179 561.934 372.944 561.837 372.725C561.641 372.285 561.277 371.939 560.825 371.765C560.373 371.591 559.87 371.602 559.426 371.797C544.414 378.366 539.708 389.559 533.991 396.1V396.102C531.368 399.109 528.992 399.349 526.806 398.235C524.62 397.122 522.551 394.174 522.013 389.891C520.896 381.009 524.497 373.597 524.497 373.597C524.602 373.383 524.664 373.15 524.678 372.912C524.693 372.674 524.66 372.435 524.582 372.209C524.504 371.984 524.381 371.776 524.222 371.597C524.063 371.418 523.87 371.273 523.654 371.168C523.218 370.957 522.716 370.926 522.257 371.083L522.255 371.083Z" fill="#444444"/>
<path d="M527.604 398.564C527.372 398.501 527.13 398.485 526.892 398.516C526.653 398.546 526.424 398.623 526.215 398.742C526.007 398.861 525.824 399.019 525.677 399.208C525.531 399.397 525.423 399.613 525.36 399.843C521.179 415.162 521.984 431.991 522.423 448.517C522.436 448.999 522.64 449.455 522.992 449.787C523.344 450.119 523.814 450.298 524.299 450.285C524.539 450.279 524.776 450.226 524.995 450.128C525.215 450.031 525.413 449.892 525.578 449.719C525.743 449.546 525.873 449.342 525.958 449.119C526.044 448.896 526.085 448.658 526.079 448.42C525.639 431.847 524.919 415.344 528.89 400.794C528.953 400.564 528.97 400.324 528.939 400.087C528.909 399.85 528.831 399.621 528.712 399.414C528.593 399.207 528.433 399.025 528.243 398.879C528.053 398.733 527.836 398.626 527.604 398.564Z" fill="#444444"/>
<path fill-rule="evenodd" clip-rule="evenodd" d="M535.387 410.271C535.387 410.938 535.121 411.578 534.646 412.05C534.171 412.522 533.527 412.787 532.855 412.787C532.184 412.787 531.54 412.522 531.065 412.05C530.59 411.578 530.323 410.938 530.323 410.271C530.323 409.604 530.59 408.965 531.065 408.493C531.54 408.021 532.184 407.756 532.855 407.756C533.527 407.756 534.171 408.021 534.646 408.493C535.121 408.965 535.387 409.604 535.387 410.271Z" fill="#444444"/>
<path fill-rule="evenodd" clip-rule="evenodd" d="M535.016 426.912C535.016 427.579 534.75 428.219 534.275 428.691C533.8 429.162 533.156 429.427 532.484 429.427C531.813 429.427 531.169 429.162 530.694 428.691C530.219 428.219 529.952 427.579 529.952 426.912C529.952 426.245 530.219 425.606 530.694 425.134C531.169 424.662 531.813 424.397 532.484 424.397C533.156 424.397 533.8 424.662 534.275 425.134C534.75 425.606 535.016 426.245 535.016 426.912Z" fill="#444444"/>
<path fill-rule="evenodd" clip-rule="evenodd" d="M534.433 444.241C534.433 444.908 534.166 445.547 533.691 446.019C533.217 446.491 532.573 446.756 531.901 446.756C531.23 446.756 530.585 446.491 530.111 446.019C529.636 445.547 529.369 444.908 529.369 444.241C529.369 443.573 529.636 442.934 530.111 442.462C530.585 441.99 531.23 441.725 531.901 441.725C532.573 441.725 533.217 441.99 533.691 442.462C534.166 442.934 534.433 443.573 534.433 444.241Z" fill="#444444"/>
<path d="M404.58 214.073C402.98 213.818 401.405 214.694 400.271 216.08C399.138 217.466 398.207 219.444 397.399 222.223C395.815 227.656 395.706 237.004 395.864 245.261C396.022 253.518 396.537 260.542 396.537 260.542C396.572 261.023 396.798 261.47 397.165 261.785C397.532 262.1 398.009 262.258 398.493 262.223C398.733 262.206 398.967 262.142 399.181 262.035C399.396 261.928 399.588 261.78 399.745 261.599C399.902 261.419 400.022 261.209 400.097 260.983C400.173 260.756 400.203 260.517 400.185 260.279C400.185 260.279 399.676 253.338 399.52 245.192C399.364 237.046 399.653 227.554 400.912 223.235V223.233C401.635 220.746 402.463 219.164 403.111 218.372C403.758 217.58 403.985 217.66 404.001 217.662C404.016 217.664 404.343 217.79 404.699 218.489C405.054 219.189 405.346 220.329 405.364 221.683C405.388 223.514 405.77 227.152 406.403 232.068C407.037 236.983 407.926 243.078 408.977 249.432C411.08 262.139 413.785 275.791 416.508 283.337C422.744 300.626 434.102 320.029 456.275 341.41C476.629 361.028 497.144 370.803 514.266 373.094C514.278 373.096 514.29 373.097 514.302 373.098C514.378 373.107 514.442 373.15 514.496 373.236C514.53 373.307 514.536 373.387 514.507 373.455C514.501 373.467 514.495 373.478 514.49 373.49C494.33 417.398 505.422 492.267 511.342 561.931C511.362 562.169 511.429 562.401 511.54 562.613C511.65 562.825 511.801 563.014 511.985 563.168C512.169 563.322 512.381 563.438 512.61 563.511C512.839 563.583 513.081 563.61 513.32 563.59C513.56 563.569 513.793 563.503 514.006 563.393C514.219 563.283 514.409 563.133 514.564 562.95C514.719 562.768 514.836 562.557 514.909 562.329C514.981 562.102 515.008 561.862 514.988 561.625C509.055 491.809 498.535 417.001 517.819 374.999L517.803 375.033C518.353 373.899 518.312 372.57 517.704 371.472C517.7 371.465 517.696 371.459 517.692 371.452C517.079 370.379 515.977 369.629 514.72 369.487C498.59 367.319 478.717 357.975 458.826 338.802C436.997 317.754 426.009 298.898 419.954 282.112C417.452 275.176 414.678 261.463 412.589 248.842C411.545 242.532 410.661 236.473 410.034 231.608C409.406 226.742 409.043 222.972 409.025 221.635C409.001 219.82 408.649 218.193 407.968 216.853C407.287 215.513 406.184 214.328 404.583 214.073L404.58 214.073Z" fill="#444444"/>
<path d="M396.785 323.569C396.309 323.662 395.89 323.939 395.619 324.339C395.349 324.739 395.25 325.23 395.343 325.702C404.818 373.585 433.223 408.34 490.629 421.016C491.103 421.12 491.598 421.034 492.008 420.775C492.417 420.517 492.706 420.107 492.811 419.637C492.917 419.166 492.83 418.674 492.569 418.267C492.309 417.861 491.897 417.574 491.423 417.469C435.136 405.04 408.208 371.878 398.932 325.001C398.838 324.528 398.56 324.112 398.157 323.843C397.754 323.575 397.261 323.476 396.785 323.569Z" fill="#444444"/>
<path d="M424.9 296.029C424.415 296.02 423.947 296.203 423.598 296.538C423.249 296.872 423.047 297.33 423.038 297.812C422.757 313.187 418.265 325.624 413.583 330.453C412.412 331.661 411.27 332.373 410.276 332.66C409.281 332.946 408.429 332.883 407.438 332.38C405.457 331.373 402.95 328.117 400.975 321.764C400.832 321.304 400.511 320.919 400.082 320.694C399.654 320.469 399.152 320.422 398.689 320.564C398.459 320.634 398.246 320.749 398.061 320.901C397.876 321.053 397.723 321.24 397.611 321.452C397.498 321.663 397.429 321.894 397.407 322.131C397.385 322.369 397.41 322.609 397.481 322.837C399.597 329.646 402.27 333.837 405.772 335.616C407.524 336.506 409.491 336.671 411.294 336.152C413.097 335.632 414.731 334.507 416.218 332.974C422.165 326.841 426.401 313.887 426.694 297.879C426.703 297.397 426.519 296.932 426.182 296.585C425.846 296.238 425.385 296.038 424.9 296.029Z" fill="#444444"/>
<path d="M399.126 289.854C398.655 289.97 398.249 290.266 397.998 290.678C397.747 291.09 397.671 291.585 397.787 292.053C398.883 296.486 402.625 300.738 407.855 304.078C410.907 306.028 413.904 310.468 415.953 314.426C418.002 318.383 419.176 321.772 419.176 321.772C419.334 322.228 419.667 322.602 420.103 322.814C420.538 323.025 421.04 323.056 421.499 322.9C421.957 322.743 422.335 322.412 422.547 321.979C422.76 321.547 422.791 321.048 422.634 320.592C422.634 320.592 421.383 316.97 419.205 312.763C417.026 308.555 413.992 303.679 409.833 301.022C409.833 301.021 409.833 301.02 409.833 301.02C405.154 298.032 402.082 294.194 401.339 291.187C401.282 290.955 401.179 290.736 401.037 290.544C400.895 290.352 400.716 290.189 400.51 290.065C400.305 289.941 400.077 289.859 399.839 289.823C399.602 289.787 399.359 289.798 399.126 289.854Z" fill="#444444"/>
<path d="M405.054 297.672C404.816 297.639 404.574 297.652 404.341 297.712C404.109 297.772 403.89 297.877 403.698 298.021C400.205 300.636 398.108 304.793 397.738 310.264C397.722 310.503 397.753 310.741 397.83 310.967C397.907 311.194 398.028 311.402 398.186 311.582C398.344 311.762 398.536 311.909 398.751 312.014C398.966 312.12 399.201 312.183 399.44 312.199C399.68 312.215 399.92 312.184 400.148 312.108C400.376 312.031 400.586 311.911 400.767 311.754C400.947 311.597 401.095 311.406 401.202 311.192C401.308 310.978 401.372 310.746 401.388 310.508C401.707 305.787 403.289 302.877 405.899 300.922C406.091 300.779 406.253 300.599 406.375 300.394C406.497 300.188 406.577 299.961 406.61 299.724C406.644 299.488 406.63 299.247 406.57 299.016C406.51 298.785 406.405 298.568 406.26 298.377C406.116 298.187 405.935 298.026 405.728 297.905C405.521 297.784 405.292 297.705 405.054 297.672Z" fill="#444444"/>
<path fill-rule="evenodd" clip-rule="evenodd" d="M413.233 306.71C417.958 312.652 420.905 321.182 420.905 321.182C417.613 330.225 412.732 335.489 408.081 334.523C404.297 324.195 406.502 315.017 413.233 306.71Z" fill="#444444"/>
<path d="M531.433 331.92C531.038 331.641 530.547 331.53 530.069 331.611C529.59 331.692 529.164 331.958 528.884 332.351C526.359 335.894 523.957 337.437 521.174 337.127C520.692 337.073 520.208 337.212 519.829 337.512C519.45 337.813 519.207 338.25 519.153 338.729C519.099 339.208 519.238 339.688 519.541 340.064C519.843 340.441 520.284 340.682 520.765 340.736C525.194 341.23 528.958 338.535 531.868 334.452C532.149 334.059 532.26 333.571 532.179 333.097C532.097 332.622 531.829 332.198 531.433 331.92Z" fill="#444444"/>
<path d="M522.404 290.641C522.165 290.619 521.924 290.644 521.694 290.714C521.465 290.784 521.251 290.899 521.066 291.051C520.881 291.204 520.728 291.391 520.616 291.602C520.504 291.813 520.434 292.044 520.412 292.282C519.732 299.507 517.922 304.876 515.121 308.247C512.32 311.617 508.583 313.224 503.104 312.955C502.864 312.944 502.624 312.979 502.398 313.059C502.171 313.14 501.963 313.264 501.785 313.424C501.607 313.584 501.463 313.778 501.36 313.993C501.257 314.209 501.199 314.443 501.187 314.681C501.175 314.919 501.21 315.158 501.291 315.382C501.372 315.607 501.497 315.814 501.658 315.991C501.82 316.167 502.014 316.311 502.232 316.413C502.449 316.515 502.684 316.573 502.924 316.585C509.265 316.896 514.438 314.777 517.942 310.561C521.446 306.344 523.336 300.265 524.056 292.62C524.078 292.383 524.054 292.143 523.983 291.915C523.912 291.687 523.796 291.475 523.643 291.291C523.49 291.107 523.301 290.955 523.089 290.844C522.876 290.732 522.644 290.663 522.404 290.641Z" fill="#444444"/>
<path d="M512.855 297.952C511.944 297.979 511.046 298.193 510.22 298.625C509.791 298.849 509.469 299.234 509.325 299.694C509.181 300.154 509.227 300.652 509.452 301.078C509.678 301.505 510.065 301.825 510.528 301.968C510.992 302.111 511.493 302.065 511.922 301.841C512.632 301.47 513.264 301.434 514.313 301.815C514.768 301.979 515.271 301.957 515.711 301.754C516.15 301.551 516.49 301.182 516.656 300.73C516.823 300.277 516.801 299.777 516.597 299.34C516.392 298.904 516.022 298.565 515.566 298.4C514.69 298.082 513.766 297.924 512.855 297.952Z" fill="#444444"/>
<path d="M528.143 299.148C527.253 299.276 526.354 299.601 525.501 300.105C525.084 300.351 524.783 300.752 524.664 301.219C524.544 301.686 524.617 302.181 524.864 302.595C525.112 303.009 525.516 303.309 525.986 303.427C526.456 303.546 526.954 303.474 527.371 303.228C528.425 302.605 528.966 302.609 529.523 302.802C530.08 302.995 530.798 303.573 531.544 304.653C531.818 305.05 532.24 305.323 532.716 305.411C533.193 305.499 533.685 305.396 534.085 305.124C534.283 304.989 534.453 304.817 534.584 304.617C534.716 304.417 534.806 304.193 534.85 303.958C534.894 303.724 534.891 303.483 534.842 303.249C534.792 303.016 534.697 302.794 534.561 302.597C533.561 301.149 532.35 299.933 530.725 299.371C529.913 299.09 529.033 299.02 528.143 299.148Z" fill="#444444"/>
<path fill-rule="evenodd" clip-rule="evenodd" d="M530.31 311.9C529.917 312.895 529.276 313.746 528.528 314.266C527.781 314.786 526.988 314.932 526.324 314.673C525.661 314.414 525.181 313.771 524.99 312.884C524.799 311.998 524.913 310.941 525.307 309.946C525.7 308.952 526.341 308.101 527.089 307.581C527.836 307.061 528.629 306.914 529.293 307.173C529.956 307.432 530.436 308.076 530.627 308.962C530.818 309.849 530.704 310.906 530.31 311.9Z" fill="#444444"/>
<path fill-rule="evenodd" clip-rule="evenodd" d="M513.954 307.002C513.792 307.41 513.578 307.794 513.324 308.131C513.071 308.468 512.782 308.751 512.475 308.965C512.167 309.179 511.848 309.319 511.534 309.377C511.22 309.435 510.918 309.41 510.646 309.303C510.095 309.088 509.696 308.554 509.538 307.818C509.38 307.082 509.474 306.205 509.801 305.38C510.127 304.554 510.66 303.848 511.28 303.416C511.9 302.985 512.558 302.863 513.109 303.078C513.382 303.185 513.62 303.371 513.81 303.625C514 303.88 514.138 304.199 514.217 304.563C514.295 304.927 514.312 305.33 514.267 305.749C514.222 306.167 514.116 306.593 513.954 307.002Z" fill="#444444"/>
<path d="M576.096 376.063C573.58 376.49 571.126 377.874 568.867 380.224C564.35 384.925 560.349 393.464 556.748 407.711C543.672 459.43 544.016 504.652 542.793 561.316C542.783 561.798 542.965 562.264 543.301 562.612C543.636 562.96 544.097 563.161 544.582 563.172C544.822 563.177 545.061 563.135 545.285 563.048C545.508 562.962 545.713 562.832 545.886 562.667C546.06 562.502 546.199 562.304 546.296 562.086C546.392 561.867 546.444 561.632 546.449 561.393C547.673 504.674 547.347 459.814 560.296 408.595C563.823 394.644 567.812 386.587 571.515 382.733C573.367 380.805 575.082 379.921 576.712 379.644C578.343 379.367 579.984 379.687 581.74 380.551C585.252 382.277 588.987 386.281 592.21 390.834C595.433 395.386 598.193 400.445 600.133 404.209C627.494 457.338 637.832 497.251 638.614 561.878C638.617 562.117 638.667 562.352 638.761 562.572C638.855 562.791 638.992 562.99 639.164 563.157C639.336 563.324 639.539 563.455 639.762 563.544C639.985 563.633 640.223 563.677 640.463 563.675C640.704 563.672 640.941 563.622 641.162 563.528C641.383 563.435 641.583 563.298 641.751 563.127C641.919 562.957 642.052 562.755 642.141 562.533C642.231 562.311 642.275 562.074 642.272 561.835C641.486 496.838 630.919 456.013 603.389 402.554C601.414 398.724 598.593 393.532 595.203 388.743C591.812 383.954 587.9 379.525 583.363 377.294C581.094 376.178 578.612 375.636 576.096 376.063Z" fill="#444444"/>
<path d="M574.826 248.355C566.13 247.466 559.926 254.56 558.073 256.957C540.973 251.152 528.004 253.446 519.189 259.419C510.149 265.545 505.499 275.227 504.48 283.365C504.138 286.102 502.54 288.208 501.134 289.846C500.431 290.666 499.798 291.25 499.299 292.184C499.049 292.652 498.729 293.465 499.133 294.385C499.537 295.305 500.356 295.643 500.946 295.798C504.333 296.689 508.5 297.21 512.788 295.82C516.475 294.625 520.115 291.875 523.317 287.21C527.471 293.148 531.763 296.888 536.551 299.057C541.329 301.22 546.588 301.905 552.48 302.441C552.25 303.119 552.146 303.087 551.947 304.157C551.469 306.723 551.246 310.443 552.169 315.147C552.169 315.148 552.169 315.149 552.169 315.15C552.646 317.564 553.124 319.146 554.609 320.142C555.351 320.64 556.398 320.754 557.169 320.529C557.939 320.304 558.491 319.886 558.979 319.434C560.934 317.629 562.333 314.7 563.28 313.193V313.191C564.172 311.778 565.038 311.229 565.704 311.07C566.369 310.909 566.998 311.043 567.753 311.617C569.263 312.764 570.809 315.885 570.574 320.047C570.354 323.948 567.927 326.273 565.316 327.819C562.704 329.365 560.137 329.888 560.137 329.888C559.838 329.947 559.56 330.08 559.326 330.274C559.092 330.467 558.91 330.716 558.798 330.997C552.451 346.8 555.227 363.991 568.567 376.211C580.924 387.528 593.104 388.355 602.772 385.034C612.44 381.713 619.678 374.567 623.408 370.28C623.408 370.279 623.408 370.278 623.408 370.278C625.718 367.621 626.922 365.633 627.07 363.606C627.144 362.593 626.844 361.546 626.243 360.794C625.643 360.041 624.848 359.598 624.051 359.315C622.888 358.902 618.811 356.496 614.969 353.615C611.127 350.734 607.233 347.224 605.589 344.792V344.79C601.29 338.412 600.438 330.624 600.566 321.426C600.693 312.226 601.806 301.731 601.068 290.303V290.3C600.044 274.438 596.23 264.246 591.233 257.827C586.235 251.408 580.05 248.889 574.826 248.355ZM574.451 251.969C578.832 252.416 583.939 254.399 588.338 260.05C592.737 265.7 596.423 275.147 597.416 290.534C598.13 301.585 597.038 311.93 596.907 321.377C596.776 330.824 597.613 339.488 602.552 346.814C602.552 346.815 602.552 346.815 602.552 346.816C604.723 350.031 608.758 353.509 612.767 356.515C616.775 359.521 620.473 361.904 622.822 362.736C623.186 362.865 623.341 363.003 623.379 363.051C623.417 363.098 623.444 363.072 623.424 363.341C623.385 363.878 622.722 365.512 620.642 367.903C617.14 371.927 610.231 378.628 601.58 381.599C592.929 384.571 582.617 384.133 571.05 373.539C558.989 362.491 556.457 347.553 561.929 333.155C563.005 332.876 564.857 332.323 567.19 330.942C570.399 329.042 573.926 325.606 574.228 320.249C574.516 315.153 572.863 310.925 569.976 308.731C568.532 307.635 566.661 307.1 564.844 307.537C563.027 307.974 561.427 309.288 560.182 311.262C560.182 311.263 560.182 311.264 560.182 311.264C559.069 313.033 557.495 315.805 556.524 316.725C556.483 316.6 556.107 316.199 555.762 314.452V314.45C554.93 310.206 555.145 306.969 555.546 304.818C555.946 302.666 556.462 301.736 556.462 301.736C556.603 301.47 556.676 301.174 556.673 300.874C556.671 300.573 556.594 300.278 556.449 300.015C556.303 299.752 556.095 299.528 555.841 299.364C555.588 299.201 555.298 299.102 554.996 299.077C548.17 298.513 542.765 297.876 538.07 295.749C533.374 293.623 529.224 290.013 524.832 283.037C524.663 282.77 524.428 282.551 524.149 282.402C523.87 282.252 523.557 282.177 523.239 282.184C522.922 282.192 522.613 282.28 522.341 282.442C522.069 282.604 521.844 282.834 521.688 283.108C518.49 288.734 515.018 291.277 511.655 292.367C508.909 293.257 506.191 293.054 503.628 292.56C503.77 292.392 503.761 292.39 503.92 292.205C505.428 290.448 507.629 287.686 508.113 283.814C509.006 276.684 513.226 267.86 521.253 262.42C529.28 256.98 541.17 254.676 558.122 260.774C558.499 260.909 558.91 260.918 559.293 260.798C559.675 260.679 560.008 260.438 560.239 260.113C560.239 260.113 566.952 251.202 574.453 251.969L574.451 251.969Z" fill="#444444"/>
<path fill-rule="evenodd" clip-rule="evenodd" d="M554.843 300.888C541.131 299.754 532.32 298.357 523.279 284.001C516.548 295.844 507.811 295.724 501.414 294.041C498.697 293.327 505.47 290.199 506.295 283.589C508.208 268.321 524.032 246.58 558.742 259.065C558.742 259.065 565.713 249.25 574.639 250.162C584.244 251.143 597.225 259.167 599.242 290.418C600.695 312.898 594.831 332.099 604.071 345.803C607.885 351.45 619.926 359.781 623.437 361.026C625.758 361.848 626.416 364.043 622.027 369.091C614.794 377.402 593.734 396.787 569.81 374.875C556.996 363.137 554.383 346.894 560.498 331.669C560.498 331.669 571.879 329.406 572.402 320.148C572.925 310.89 566.006 305.45 561.731 312.227C559.661 315.518 555.732 323.75 553.965 314.799C552.209 305.849 554.843 300.888 554.843 300.888ZM568.253 341.069L568.106 335.063C568.075 334.06 567.239 333.268 566.225 333.293C565.222 333.319 564.417 334.154 564.448 335.157L564.595 341.168C563.717 341.774 563.131 342.788 563.131 343.937C563.131 345.79 564.647 347.292 566.507 347.292C568.368 347.292 569.883 345.79 569.883 343.937C569.883 342.723 569.235 341.657 568.253 341.069Z" fill="#444444"/>
<path d="M506.715 328.109C506.234 328.175 505.8 328.427 505.507 328.811C505.213 329.194 505.085 329.678 505.151 330.155C507.599 347.898 518.575 356.98 530.409 359.34C542.242 361.7 554.906 357.79 561.559 349.985C561.715 349.803 561.832 349.593 561.906 349.365C561.979 349.138 562.006 348.899 561.986 348.661C561.966 348.423 561.9 348.191 561.79 347.979C561.68 347.767 561.529 347.578 561.345 347.424C561.162 347.27 560.95 347.153 560.721 347.08C560.492 347.008 560.251 346.98 560.012 347C559.772 347.02 559.539 347.086 559.325 347.196C559.112 347.305 558.922 347.455 558.767 347.637C553.244 354.117 541.67 357.879 531.129 355.777C520.588 353.675 511.053 346.16 508.777 329.663C508.744 329.426 508.665 329.198 508.543 328.992C508.422 328.786 508.261 328.606 508.07 328.462C507.878 328.317 507.66 328.212 507.427 328.151C507.195 328.091 506.953 328.077 506.715 328.109Z" fill="#444444"/>
</g>
<defs>
<clipPath id="clip0_1095_11460">
<rect width="487" height="401" fill="white" transform="translate(155.272 163.431)"/>
</clipPath>
</defs>
</svg>
