<svg width="691" height="635" viewBox="0 0 691 635" fill="none" xmlns="http://www.w3.org/2000/svg">
<path d="M340.92 529.577C303.578 539.531 238.233 579.249 181.07 545.039C125.018 511.493 88.1402 457.721 75.3074 396.081C62.4691 334.415 71.5772 267.479 112.121 213.854C151.576 161.669 216.166 102.677 282.374 89.8836C345.56 77.6743 410.208 116.483 463.489 145.96C517.56 175.875 600.324 170.525 613.735 228.327C627.423 287.322 629.406 405.446 594.258 459.218C557.631 515.252 420.756 534.26 340.92 529.577Z" fill="#FFE9E1"/>
<g clip-path="url(#clip0_1095_11463)">
<path d="M327.833 269.08C327.634 269.062 327.433 269.084 327.242 269.144C327.051 269.204 326.873 269.301 326.72 269.43C326.566 269.558 326.439 269.715 326.346 269.893C326.254 270.07 326.197 270.265 326.179 270.464C325.7 275.853 326.126 280.689 327.793 284.798C329.459 288.907 332.41 292.245 336.689 294.462C336.867 294.554 337.061 294.61 337.261 294.627C337.46 294.644 337.661 294.622 337.852 294.561C338.043 294.5 338.22 294.403 338.373 294.274C338.527 294.145 338.653 293.986 338.745 293.808C338.931 293.45 338.966 293.032 338.844 292.646C338.722 292.261 338.452 291.94 338.093 291.754C334.399 289.84 332.039 287.152 330.62 283.653C329.201 280.154 328.767 275.802 329.217 270.735C329.235 270.535 329.213 270.334 329.153 270.143C329.093 269.952 328.996 269.774 328.868 269.621C328.739 269.467 328.582 269.34 328.404 269.248C328.227 269.155 328.033 269.098 327.833 269.08Z" fill="#444444"/>
<path d="M304.375 301.498C304.176 301.478 303.974 301.497 303.782 301.554C303.591 301.612 303.412 301.707 303.257 301.833C303.101 301.96 302.972 302.116 302.877 302.292C302.782 302.468 302.723 302.662 302.702 302.861C302.682 303.06 302.701 303.262 302.758 303.454C302.816 303.645 302.911 303.824 303.037 303.979C308.63 310.843 316.22 312.734 324.445 311.082C324.641 311.042 324.828 310.965 324.994 310.853C325.16 310.742 325.303 310.598 325.414 310.431C325.525 310.265 325.602 310.078 325.641 309.881C325.679 309.685 325.679 309.483 325.64 309.286C325.6 309.09 325.522 308.903 325.411 308.737C325.299 308.571 325.156 308.428 324.989 308.317C324.822 308.206 324.636 308.129 324.439 308.09C324.242 308.051 324.04 308.052 323.844 308.091C316.363 309.594 310.347 308.121 305.403 302.053C305.276 301.897 305.121 301.768 304.944 301.673C304.768 301.578 304.574 301.518 304.375 301.498Z" fill="#444444"/>
<path d="M309.282 255.534C302.09 255.534 296.425 262.084 296.425 269.907C296.425 277.73 302.09 284.279 309.282 284.279C316.474 284.279 322.139 277.73 322.139 269.907C322.139 262.084 316.474 255.534 309.282 255.534ZM309.282 258.569C314.614 258.569 319.102 263.531 319.102 269.907C319.102 276.283 314.614 281.244 309.282 281.244C303.95 281.244 299.461 276.283 299.461 269.907C299.461 263.531 303.95 258.569 309.282 258.569Z" fill="#444444"/>
<path d="M339.797 253.47C337.241 253.47 335.205 255.398 333.87 257.978C332.535 260.558 331.768 263.958 331.768 267.7C331.768 271.442 332.535 274.843 333.87 277.423C335.205 280.003 337.241 281.932 339.797 281.932C342.352 281.932 344.386 280.003 345.721 277.423C347.056 274.843 347.823 271.442 347.823 267.7C347.823 263.958 347.056 260.558 345.721 257.978C344.386 255.398 342.352 253.47 339.797 253.47ZM339.797 256.222C340.915 256.222 342.205 257.17 343.277 259.243C344.35 261.315 345.071 264.343 345.071 267.7C345.071 271.057 344.35 274.085 343.277 276.157C342.205 278.23 340.915 279.178 339.797 279.178C338.679 279.178 337.387 278.23 336.314 276.157C335.242 274.085 334.521 271.057 334.521 267.7C334.521 264.343 335.242 261.315 336.314 259.243C337.387 257.17 338.679 256.222 339.797 256.222Z" fill="#444444"/>
<path d="M326.715 260.824C324.09 261.103 321.528 262.375 319.007 264.366C318.69 264.617 318.486 264.983 318.439 265.385C318.392 265.786 318.506 266.19 318.757 266.507C319.007 266.824 319.374 267.029 319.775 267.076C320.177 267.123 320.58 267.009 320.898 266.759C323.122 265.002 325.182 264.054 327.037 263.857C328.892 263.659 330.607 264.136 332.446 265.55C332.605 265.672 332.786 265.762 332.979 265.814C333.173 265.866 333.375 265.88 333.573 265.854C333.772 265.828 333.964 265.763 334.137 265.663C334.311 265.563 334.463 265.43 334.585 265.271C334.832 264.951 334.941 264.545 334.888 264.144C334.836 263.744 334.626 263.38 334.306 263.133C331.965 261.332 329.34 260.544 326.715 260.824Z" fill="#444444"/>
<path d="M305.112 244.582C299.65 245.36 295.506 248.369 292.173 252.113C292.04 252.263 291.938 252.437 291.872 252.626C291.807 252.815 291.779 253.016 291.79 253.216C291.802 253.416 291.853 253.611 291.94 253.791C292.028 253.972 292.15 254.133 292.299 254.266C292.449 254.399 292.623 254.502 292.813 254.567C293.002 254.633 293.202 254.661 293.402 254.649C293.602 254.637 293.798 254.586 293.978 254.499C294.158 254.412 294.319 254.29 294.452 254.14C298.541 249.547 303.081 246.593 310.62 247.623C310.818 247.65 311.02 247.638 311.214 247.587C311.407 247.536 311.589 247.447 311.749 247.326C311.908 247.205 312.042 247.054 312.143 246.88C312.244 246.707 312.31 246.516 312.337 246.318C312.364 246.119 312.352 245.918 312.301 245.724C312.25 245.53 312.161 245.348 312.04 245.189C311.919 245.029 311.767 244.895 311.594 244.794C311.421 244.693 311.23 244.627 311.031 244.6C308.899 244.309 306.933 244.323 305.112 244.582Z" fill="#444444"/>
<path d="M336.393 245.743C335.206 245.773 333.993 245.946 332.771 246.255C332.379 246.354 332.042 246.605 331.835 246.952C331.628 247.299 331.567 247.715 331.666 248.107C331.765 248.499 332.016 248.835 332.363 249.042C332.711 249.25 333.126 249.31 333.518 249.211C337.666 248.164 340.951 248.827 343.948 251.701C344.092 251.84 344.263 251.949 344.45 252.021C344.636 252.094 344.835 252.129 345.036 252.125C345.236 252.121 345.433 252.077 345.617 251.996C345.8 251.916 345.966 251.8 346.104 251.655C346.243 251.511 346.352 251.34 346.424 251.154C346.497 250.967 346.532 250.768 346.528 250.567C346.524 250.367 346.48 250.17 346.399 249.986C346.319 249.803 346.203 249.637 346.058 249.499C343.291 246.845 339.953 245.652 336.393 245.743Z" fill="#444444"/>
<path d="M347.81 284.116C347.61 284.107 347.409 284.137 347.221 284.205C347.033 284.273 346.86 284.378 346.712 284.513C346.564 284.648 346.444 284.811 346.359 284.993C346.274 285.174 346.226 285.371 346.217 285.571C344.988 312.625 334.072 328.247 319.953 333.514C305.835 338.782 288.058 333.798 272.704 318.281C272.42 317.994 272.033 317.831 271.628 317.83C271.224 317.828 270.835 317.986 270.548 318.271C270.26 318.555 270.098 318.942 270.095 319.347C270.093 319.751 270.252 320.14 270.536 320.427C286.491 336.552 305.529 342.151 321.02 336.372C336.512 330.592 348 313.536 349.263 285.709C349.282 285.305 349.139 284.91 348.866 284.611C348.594 284.312 348.214 284.134 347.81 284.116Z" fill="#444444"/>
<path d="M316.774 173.078C305.046 173.714 292.787 178.638 282.86 191.575C281.647 190.938 279.268 189.804 274.946 188.913C269.179 187.724 260.873 187.349 250.71 190.496H250.708C246.524 191.796 240.101 195.748 234.217 202.723C228.333 209.699 223.095 219.716 221.777 232.976C221.501 235.751 219.911 243.829 221.383 254.133C222.855 264.437 227.405 277.148 239.199 289.713C242.947 293.697 252.193 299.467 262.809 300.625H262.811C264.063 300.76 265.548 300.574 266.523 299.331C267.01 298.71 267.237 297.854 267.171 297.017C267.105 296.179 266.8 295.337 266.284 294.421C265.518 293.061 264.394 290.253 263.515 287.865C263.076 286.671 262.688 285.569 262.407 284.763C262.267 284.359 262.155 284.029 262.074 283.796C262.033 283.679 262.001 283.587 261.975 283.515C261.962 283.478 261.951 283.449 261.938 283.413C261.931 283.394 261.925 283.375 261.909 283.338C261.901 283.319 261.89 283.298 261.866 283.249C261.854 283.225 261.84 283.194 261.808 283.142C261.785 283.104 261.698 282.997 261.64 282.926C261.595 282.897 260.891 282.453 260.891 282.453C260.891 282.453 260.657 282.409 260.595 282.405C260.469 282.396 260.423 282.405 260.382 282.405C260.3 282.414 260.271 282.416 260.242 282.421C260.184 282.429 260.148 282.436 260.105 282.444C260.017 282.46 259.912 282.481 259.776 282.505C259.504 282.554 259.116 282.62 258.636 282.682C257.675 282.807 256.342 282.916 254.879 282.849C251.953 282.714 248.616 281.886 246.354 279.241C244.897 277.538 243.388 274.39 243.253 271.546C243.118 268.702 243.991 266.262 247.61 264.692C251.456 263.028 254.625 263.682 257.15 265.16C259.675 266.638 261.446 269.112 261.921 270.564C262.793 273.23 263.897 276.824 265.161 279.967C265.793 281.539 266.462 283 267.202 284.216C267.941 285.43 268.7 286.459 269.922 287.02H269.923H269.925C272.567 288.234 275.383 287.541 277.153 285.71C278.925 283.878 279.854 281.107 279.805 278.003C279.783 276.575 279.245 275.059 278.505 273.233C277.764 271.407 276.783 269.348 275.741 267.265C273.656 263.099 271.313 258.795 270.301 256.47C269.134 253.782 266.525 249.119 267.343 243.29C268.139 237.615 272.323 230.634 285.272 223.477C287.534 225.803 299.739 237.601 320.316 241.797C325.987 242.954 334.559 243.889 343.592 241.734C352.625 239.58 362.115 234.262 369.294 223.145C370.79 220.829 373.216 215.72 372.783 209.044C372.35 202.368 368.95 194.256 359.17 186.345C357.461 184.964 353.628 182.491 348.261 179.976C342.893 177.461 336.045 174.954 328.509 173.738C324.741 173.13 320.79 172.856 316.774 173.074L316.774 173.078ZM316.963 176.078C320.721 175.897 324.437 176.174 328.022 176.752C335.194 177.91 341.797 180.318 346.965 182.74C352.133 185.161 355.919 187.644 357.252 188.721C366.517 196.216 369.36 203.42 369.738 209.247C370.116 215.074 367.92 219.653 366.731 221.494C359.971 231.962 351.296 236.766 342.884 238.773C334.472 240.779 326.318 239.914 320.925 238.814C299.16 234.375 286.603 220.531 286.603 220.531C286.375 220.279 286.069 220.111 285.734 220.053C285.399 219.994 285.054 220.05 284.754 220.21C270.437 227.844 265.298 235.926 264.324 242.871C263.349 249.817 266.517 255.42 267.503 257.691H267.505C268.647 260.315 270.962 264.537 273.012 268.634C274.038 270.683 274.993 272.69 275.679 274.384C276.366 276.077 276.747 277.536 276.755 278.055C276.794 280.502 276.002 282.519 274.961 283.595C273.921 284.671 272.835 285.005 271.198 284.252H271.195C271.02 284.172 270.403 283.611 269.807 282.632C269.212 281.652 268.586 280.314 267.99 278.831C266.797 275.866 265.705 272.329 264.819 269.618C264.023 267.183 261.891 264.406 258.69 262.531C255.489 260.657 251.111 259.855 246.398 261.895H246.397C241.758 263.906 240.029 267.952 240.206 271.691C240.384 275.43 242.1 278.961 244.036 281.224C247.049 284.748 251.343 285.741 254.74 285.898C256.438 285.976 257.94 285.85 259.029 285.709C259.221 285.684 259.32 285.663 259.485 285.637C259.502 285.688 259.509 285.711 259.527 285.763C259.811 286.579 260.204 287.699 260.652 288.919C261.55 291.358 262.63 294.151 263.628 295.919C263.993 296.57 264.114 297.031 264.131 297.257C264.149 297.483 264.12 297.453 264.123 297.449C264.129 297.44 263.74 297.656 263.139 297.592C253.46 296.537 244.397 290.786 241.421 287.624C230.061 275.519 225.8 263.487 224.402 253.701C223.004 243.915 224.485 236.557 224.812 233.276C226.066 220.655 231.015 211.247 236.549 204.687C242.082 198.128 248.306 194.434 251.611 193.407C261.263 190.418 269.005 190.799 274.331 191.897C279.658 192.995 282.448 194.753 282.448 194.753C282.775 194.956 283.166 195.029 283.544 194.955C283.922 194.882 284.258 194.669 284.485 194.358C294.049 181.292 305.689 176.619 316.963 176.075L316.963 176.078Z" fill="#444444"/>
<path fill-rule="evenodd" clip-rule="evenodd" d="M285.473 221.555C285.473 221.555 298.357 235.768 320.62 240.308C331.685 242.565 354.074 243.907 368.012 222.322C370.697 218.166 377.256 202.942 358.212 187.535C352.128 182.621 309.424 157.707 283.255 193.461C283.255 193.461 270.976 185.819 251.16 191.953C243.671 194.28 225.867 207.247 223.294 233.128C222.691 239.184 217.155 264.002 240.31 288.672C243.672 292.245 252.827 298.005 262.974 299.112C264.83 299.312 266.721 298.31 264.956 295.173C263.192 292.044 260.545 283.975 260.501 283.932C260.457 283.879 250.47 286.406 245.196 280.237C241.802 276.272 238.745 266.878 247.004 263.296C255.562 259.593 262.1 266.207 263.37 270.094C265.128 275.47 267.764 284.359 270.56 285.639C274.839 287.609 278.367 283.583 278.28 278.032C278.219 274.137 271.057 262.033 268.903 257.083C266.749 252.125 257.348 236.553 285.473 221.555Z" fill="#444444"/>
<path d="M268.005 260.877C267.808 260.843 267.605 260.85 267.41 260.895C267.215 260.94 267.031 261.023 266.867 261.139C266.704 261.255 266.566 261.403 266.459 261.572C266.353 261.742 266.282 261.932 266.249 262.129C266.216 262.327 266.222 262.529 266.267 262.724C266.312 262.92 266.395 263.104 266.511 263.267C266.627 263.43 266.775 263.569 266.945 263.675C267.115 263.781 267.304 263.853 267.501 263.886L297.897 268.975C298.296 269.041 298.705 268.947 299.034 268.712C299.363 268.477 299.585 268.121 299.652 267.722C299.718 267.323 299.624 266.914 299.389 266.585C299.154 266.256 298.798 266.034 298.399 265.967L268.005 260.877Z" fill="#444444"/>
<path d="M269.658 342.763C269.459 342.787 269.267 342.851 269.093 342.949C268.918 343.048 268.765 343.18 268.642 343.338C268.393 343.656 268.28 344.06 268.329 344.461C268.378 344.863 268.584 345.228 268.902 345.477C285.84 358.739 300.63 364.178 311.229 363.968C316.528 363.863 320.841 362.311 323.662 359.43C326.482 356.549 327.646 352.396 326.921 347.703C326.859 347.304 326.641 346.946 326.315 346.707C325.989 346.468 325.581 346.369 325.182 346.43C324.782 346.492 324.423 346.71 324.184 347.036C323.945 347.362 323.845 347.77 323.907 348.17C324.52 352.139 323.595 355.139 321.483 357.296C319.371 359.453 315.908 360.824 311.169 360.918C301.691 361.106 287.356 356.052 270.783 343.076C270.625 342.952 270.445 342.861 270.251 342.807C270.058 342.754 269.857 342.738 269.658 342.763Z" fill="#444444"/>
<path d="M266.79 335.165C262.632 338.549 260.887 343.031 260.316 346.968C259.744 350.906 260.281 354.315 260.719 356.026C262.35 362.404 267.939 367.413 273.831 371.24C279.723 375.068 286.021 377.7 289.505 378.964C300.536 382.971 308.645 382.828 314.51 380.882C320.375 378.937 323.902 375.221 325.897 372.486C329.394 367.694 330.661 361.45 331.139 356.399C331.617 351.349 331.263 347.409 331.263 347.409C331.245 347.21 331.188 347.016 331.096 346.838C331.003 346.661 330.876 346.503 330.722 346.375C330.569 346.246 330.391 346.149 330.2 346.089C330.009 346.029 329.808 346.008 329.609 346.026C329.409 346.043 329.215 346.1 329.037 346.193C328.86 346.286 328.702 346.413 328.574 346.567C328.445 346.721 328.348 346.898 328.288 347.089C328.228 347.281 328.207 347.482 328.225 347.682C328.225 347.682 328.553 351.349 328.102 356.113C327.651 360.877 326.377 366.654 323.432 370.689C321.664 373.113 318.666 376.29 313.55 377.987C308.434 379.684 301.106 379.934 290.545 376.098C287.233 374.896 281.084 372.316 275.492 368.684C269.901 365.052 264.973 360.354 263.674 355.272C263.336 353.952 262.839 350.814 263.333 347.409C263.828 344.005 265.248 340.353 268.715 337.533C268.87 337.406 269 337.25 269.095 337.074C269.19 336.898 269.25 336.705 269.27 336.505C269.291 336.306 269.272 336.104 269.215 335.913C269.157 335.721 269.063 335.542 268.936 335.386C268.81 335.231 268.654 335.102 268.478 335.007C268.301 334.912 268.108 334.852 267.909 334.832C267.709 334.812 267.508 334.83 267.316 334.888C267.124 334.945 266.945 335.04 266.79 335.167V335.165Z" fill="#444444"/>
<path d="M262.196 357.43C230.219 388.984 218.326 416.311 216.35 451.375C215.437 467.561 216.424 481.873 217.982 492.999C219.54 504.125 221.629 511.991 223.085 515.595C227.963 527.681 235.903 534.389 244.451 538.176C253 541.964 262.132 542.93 269.648 543.899C269.648 543.899 269.649 543.899 269.649 543.899C285.167 545.889 303.47 541.499 303.47 541.499C303.775 541.426 304.051 541.262 304.259 541.027C304.467 540.792 304.598 540.498 304.634 540.187C307.705 512.973 321.667 499.872 321.667 499.872C321.857 499.692 321.998 499.468 322.076 499.218C322.154 498.969 322.167 498.704 322.113 498.449C322.06 498.193 321.941 497.956 321.77 497.759C321.598 497.562 321.379 497.413 321.133 497.325C289.994 486.233 254.376 495.674 254.376 495.674C254.182 495.725 254 495.814 253.84 495.935C253.681 496.056 253.546 496.207 253.445 496.38C253.344 496.553 253.278 496.744 253.251 496.942C253.224 497.141 253.236 497.343 253.286 497.536C253.337 497.73 253.425 497.912 253.546 498.072C253.668 498.232 253.819 498.366 253.992 498.467C254.165 498.568 254.356 498.634 254.554 498.661C254.753 498.689 254.955 498.676 255.148 498.626C255.148 498.626 288.494 490.028 317.909 499.509C314.355 503.515 304.637 516.251 301.798 538.697C300.3 539.037 284.029 542.667 270.037 540.872C262.473 539.898 253.671 538.926 245.687 535.389C237.703 531.852 230.513 525.849 225.913 514.452C224.666 511.364 222.536 503.522 221.003 492.577C219.471 481.632 218.495 467.508 219.395 451.547C221.338 417.072 232.715 390.808 264.339 359.602C264.627 359.318 264.79 358.931 264.792 358.527C264.795 358.122 264.637 357.734 264.353 357.446C264.069 357.158 263.682 356.994 263.278 356.991C262.873 356.988 262.484 357.147 262.196 357.43Z" fill="#444444"/>
<path d="M268.756 403.384C268.36 403.468 268.015 403.706 267.795 404.045C267.574 404.384 267.498 404.796 267.581 405.192C275.883 444.34 275.522 478.499 275.181 489.054C274.764 488.67 274.416 488.227 273.952 487.893C271.981 486.473 269.624 485.421 267.343 484.611C262.781 482.993 258.457 482.361 258.457 482.361C258.057 482.302 257.65 482.405 257.326 482.646C257.001 482.887 256.785 483.247 256.726 483.646C256.697 483.845 256.707 484.047 256.755 484.241C256.804 484.435 256.89 484.618 257.01 484.779C257.129 484.94 257.279 485.076 257.451 485.179C257.623 485.282 257.813 485.35 258.011 485.379C258.011 485.379 262.1 485.987 266.324 487.486C268.436 488.236 270.564 489.211 272.168 490.368C273.773 491.524 274.788 492.8 275.058 494.154C275.13 494.519 275.332 494.845 275.627 495.071C275.922 495.297 276.289 495.408 276.66 495.382C277.031 495.356 277.38 495.196 277.641 494.932C277.902 494.667 278.057 494.316 278.078 493.945C278.078 493.945 280.571 451.741 270.565 404.558C270.523 404.363 270.443 404.177 270.33 404.012C270.217 403.847 270.072 403.706 269.904 403.597C269.736 403.488 269.548 403.413 269.351 403.376C269.154 403.34 268.952 403.342 268.756 403.384Z" fill="#444444"/>
<path d="M338.673 397.184C338.48 397.237 338.3 397.328 338.142 397.452C337.984 397.575 337.852 397.728 337.754 397.902C337.655 398.077 337.592 398.269 337.567 398.467C337.543 398.666 337.558 398.868 337.611 399.061C345.845 428.828 348.3 459.385 348.325 490.337C348.326 490.741 348.487 491.129 348.773 491.415C349.06 491.7 349.448 491.861 349.852 491.86C350.256 491.86 350.644 491.699 350.93 491.412C351.216 491.126 351.376 490.738 351.375 490.333C351.35 459.222 348.886 428.381 340.551 398.247C340.497 398.054 340.406 397.874 340.283 397.716C340.16 397.558 340.007 397.425 339.832 397.326C339.658 397.228 339.466 397.164 339.267 397.14C339.068 397.115 338.867 397.13 338.673 397.184Z" fill="#444444"/>
<path d="M330.005 359.241C329.691 358.986 329.289 358.866 328.887 358.908C328.485 358.949 328.116 359.149 327.861 359.463C327.606 359.776 327.486 360.178 327.527 360.581C327.569 360.983 327.768 361.352 328.082 361.607C328.082 361.607 331.074 364.024 334.992 369.69C338.91 375.356 343.662 384.195 346.899 396.845C350.592 411.277 354.826 430.375 360.922 490.49C360.942 490.689 361.001 490.883 361.096 491.059C361.191 491.235 361.32 491.391 361.475 491.518C361.63 491.645 361.809 491.739 362.001 491.797C362.193 491.854 362.394 491.874 362.593 491.853C362.792 491.833 362.986 491.774 363.162 491.679C363.338 491.584 363.494 491.455 363.621 491.3C363.748 491.145 363.842 490.966 363.9 490.774C363.958 490.583 363.977 490.381 363.956 490.182C357.853 429.99 353.568 410.604 349.854 396.088C346.523 383.074 341.607 373.893 337.501 367.954C333.394 362.015 330.005 359.241 330.005 359.241Z" fill="#444444"/>
<path d="M512.048 393.895L423.87 419.602C423.63 419.672 423.412 419.8 423.233 419.974C423.054 420.148 422.921 420.364 422.845 420.601L385.213 538.173C385.146 538.38 385.125 538.6 385.15 538.816C385.175 539.032 385.246 539.241 385.359 539.427C385.359 539.427 386.566 541.419 389.015 542.889C391.463 544.359 395.293 545.328 400.171 543.653H400.173C409.169 540.557 464.788 521.328 469.226 519.841C471.35 519.138 473.273 518.974 475.107 517.48C476.942 515.985 478.213 513.465 479.52 508.594C480.732 504.07 489.045 477.572 496.996 452.435C504.946 427.299 512.579 403.352 512.579 403.352C512.64 403.161 512.663 402.96 512.646 402.76C512.629 402.561 512.573 402.366 512.481 402.188C512.389 402.01 512.263 401.852 512.11 401.723C511.957 401.594 511.78 401.496 511.589 401.435C511.203 401.313 510.785 401.348 510.426 401.534C510.067 401.72 509.797 402.041 509.674 402.426C509.674 402.426 502.041 426.376 494.089 451.516C486.137 476.656 477.911 502.812 476.574 507.804C475.33 512.441 474.222 514.265 473.18 515.114C472.137 515.964 470.684 516.145 468.261 516.947C468.259 516.947 468.258 516.947 468.256 516.947C463.595 518.51 408.16 537.676 399.181 540.767C395.072 542.176 392.396 541.359 390.586 540.272C389.335 539.521 388.715 538.813 388.358 538.347L425.502 422.302L512.901 396.823C513.093 396.767 513.272 396.674 513.429 396.548C513.585 396.423 513.715 396.268 513.812 396.093C513.908 395.917 513.969 395.724 513.991 395.525C514.013 395.326 513.995 395.124 513.939 394.932C513.883 394.74 513.79 394.56 513.664 394.404C513.539 394.248 513.384 394.118 513.209 394.021C513.033 393.925 512.84 393.864 512.641 393.842C512.442 393.82 512.24 393.838 512.048 393.894L512.048 393.895Z" fill="#444444"/>
<path d="M342.435 509.055C342.245 508.991 342.044 508.965 341.845 508.978C341.645 508.992 341.449 509.044 341.27 509.133C341.09 509.222 340.93 509.345 340.798 509.496C340.666 509.647 340.565 509.822 340.501 510.012C340.437 510.202 340.411 510.402 340.424 510.602C340.438 510.802 340.49 510.997 340.579 511.177C340.668 511.356 340.791 511.517 340.942 511.649C341.093 511.78 341.268 511.881 341.458 511.945C341.458 511.945 343.886 512.766 346.55 513.729C347.882 514.211 349.273 514.728 350.436 515.189C351.598 515.651 352.587 516.1 352.863 516.263H352.866C353.42 516.59 354.1 517.42 354.538 518.469C354.975 519.518 355.178 520.753 355.075 521.717C354.958 522.824 354.879 524.171 354.636 525.332C354.394 526.49 353.962 527.331 353.576 527.616C353.239 527.86 352.824 527.907 352.752 527.881C352.68 527.855 352.394 527.812 352.289 526.513C352.155 524.861 351.978 522.846 351.215 520.935C350.453 519.024 348.962 517.181 346.532 516.371H346.53C344.015 515.534 341.426 515.045 339.734 514.784C339.73 514.784 339.727 514.784 339.724 514.784C338.052 514.536 336.39 515.341 335.543 516.801L335.559 516.776C334.176 519.057 330.947 523.489 326.397 525.577C321.847 527.665 315.979 527.787 308.075 520.993C307.923 520.863 307.747 520.763 307.557 520.701C307.367 520.638 307.166 520.614 306.966 520.629C306.766 520.644 306.571 520.698 306.392 520.788C306.214 520.879 306.054 521.003 305.924 521.155C305.793 521.307 305.694 521.483 305.631 521.674C305.568 521.864 305.544 522.065 305.559 522.264C305.574 522.464 305.628 522.659 305.718 522.838C305.809 523.017 305.934 523.176 306.085 523.306C314.606 530.63 322.166 530.874 327.67 528.348C333.174 525.822 336.622 520.904 338.166 518.357C338.171 518.348 338.177 518.339 338.182 518.33C338.406 517.943 338.834 517.737 339.276 517.802C340.86 518.047 343.318 518.518 345.567 519.266C347.106 519.78 347.842 520.715 348.382 522.068C348.921 523.42 349.119 525.154 349.25 526.762C349.409 528.729 350.334 530.259 351.728 530.756C353.122 531.253 354.427 530.771 355.372 530.084C355.373 530.084 355.375 530.084 355.377 530.084C356.799 529.042 357.313 527.437 357.622 525.962C357.931 524.486 358.006 523.011 358.109 522.044C358.278 520.445 357.975 518.788 357.353 517.299C356.732 515.811 355.799 514.459 354.42 513.644C353.728 513.233 352.773 512.839 351.561 512.358C350.349 511.877 348.937 511.351 347.587 510.863C344.887 509.887 342.435 509.058 342.435 509.058L342.435 509.055Z" fill="#444444"/>
<path d="M346.976 505.25C346.789 505.178 346.589 505.144 346.389 505.15C346.189 505.155 345.992 505.2 345.809 505.282C345.626 505.364 345.461 505.48 345.323 505.626C345.186 505.771 345.078 505.943 345.006 506.13C344.935 506.317 344.901 506.516 344.906 506.716C344.912 506.916 344.957 507.114 345.039 507.297C345.12 507.479 345.237 507.644 345.383 507.782C345.528 507.92 345.699 508.027 345.886 508.099C346.76 508.433 349.614 509.541 352.386 510.657C353.772 511.215 355.141 511.776 356.228 512.241C357.315 512.707 358.241 513.168 358.258 513.179C359.009 513.658 359.655 513.972 360.256 514.641C360.858 515.311 361.456 516.339 361.747 518.375C362.055 520.53 362.07 522.611 361.824 523.97C361.701 524.649 361.499 525.136 361.374 525.318C361.261 525.484 361.381 525.38 361.438 525.362C360.659 525.347 360.193 525.242 359.691 524.773C359.186 524.301 358.568 523.275 358.112 521.174C358.026 520.778 357.786 520.434 357.446 520.215C357.106 519.996 356.693 519.922 356.298 520.008C355.903 520.094 355.558 520.333 355.34 520.673C355.121 521.013 355.046 521.425 355.132 521.82C355.663 524.268 356.455 525.922 357.61 527.001C358.764 528.08 360.207 528.395 361.395 528.416C361.397 528.416 361.4 528.416 361.402 528.416C362.438 528.43 363.387 527.779 363.894 527.037C364.4 526.295 364.655 525.449 364.825 524.511C365.164 522.635 365.109 520.338 364.767 517.943C364.409 515.439 363.54 513.731 362.525 512.601C361.51 511.471 360.39 510.921 359.899 510.608C359.295 510.222 358.553 509.918 357.429 509.437C356.306 508.956 354.923 508.39 353.525 507.827C350.729 506.701 347.881 505.594 346.976 505.248L346.976 505.25Z" fill="#444444"/>
<path d="M352.703 501.797C352.322 501.661 351.903 501.681 351.538 501.854C351.172 502.027 350.89 502.338 350.754 502.719C350.687 502.908 350.657 503.108 350.667 503.308C350.676 503.508 350.725 503.704 350.811 503.885C350.897 504.066 351.017 504.229 351.166 504.364C351.314 504.498 351.488 504.602 351.677 504.669C352.413 504.932 354.672 505.726 356.994 506.766C359.315 507.807 361.714 509.259 362.333 510.032C364.34 512.542 365.904 515.095 366.419 517.651C366.709 519.087 367.062 521.105 367.129 522.678C367.162 523.445 367.109 524.092 367.027 524.428C366.541 524.484 366.099 524.514 365.817 524.406C365.46 524.269 365.095 524.005 364.636 523.283C364.528 523.114 364.388 522.968 364.224 522.853C364.06 522.738 363.875 522.656 363.68 522.613C363.484 522.569 363.282 522.565 363.085 522.599C362.888 522.634 362.699 522.707 362.53 522.815C362.361 522.922 362.215 523.062 362.1 523.226C361.985 523.39 361.904 523.575 361.86 523.77C361.817 523.966 361.812 524.168 361.847 524.365C361.881 524.563 361.955 524.751 362.062 524.92C362.767 526.028 363.667 526.848 364.724 527.253C365.781 527.659 366.882 527.631 367.924 527.429C368.519 527.313 369.054 526.936 369.376 526.522C369.697 526.108 369.861 525.675 369.973 525.247C370.197 524.391 370.216 523.499 370.175 522.549C370.094 520.65 369.713 518.547 369.41 517.047C368.74 513.728 366.862 510.81 364.716 508.127C363.257 506.303 360.708 505.088 358.241 503.982C355.775 502.877 353.406 502.046 352.703 501.795V501.797Z" fill="#444444"/>
<path d="M339.899 496.541C333.183 496.316 320.511 497.242 320.511 497.242C320.312 497.256 320.117 497.31 319.937 497.399C319.758 497.489 319.598 497.613 319.467 497.764C319.336 497.916 319.236 498.092 319.173 498.282C319.11 498.472 319.084 498.673 319.099 498.872C319.128 499.276 319.316 499.651 319.622 499.916C319.928 500.18 320.326 500.312 320.729 500.283C320.729 500.283 333.497 499.378 339.795 499.589C346.53 499.824 353.189 498.683 359.616 502.721C366.499 507.044 369.492 509.258 372.179 518.985C372.66 520.728 372.654 521.787 372.56 522.161C372.466 522.535 372.611 522.319 372.436 522.353C372.086 522.42 370.36 521.896 369.256 521.427C369.072 521.349 368.874 521.308 368.674 521.306C368.473 521.304 368.275 521.342 368.089 521.417C367.903 521.492 367.734 521.603 367.591 521.744C367.449 521.884 367.335 522.051 367.257 522.236C367.099 522.608 367.096 523.027 367.247 523.402C367.399 523.777 367.693 524.076 368.065 524.234C369.076 524.663 370.878 525.759 373.011 525.349C374.077 525.144 375.203 524.167 375.52 522.901C375.837 521.635 375.671 520.177 375.118 518.173C372.292 507.944 368.227 504.528 361.238 500.137C353.796 495.461 346.177 496.759 339.901 496.541C339.9 496.541 339.899 496.541 339.899 496.541Z" fill="#444444"/>
<path d="M317.38 526.465C316.985 526.55 316.639 526.789 316.42 527.129C312.204 533.676 308.729 536.479 306.468 537.659C305.338 538.249 304.509 538.44 304.001 538.502C303.492 538.563 303.452 538.527 303.452 538.527C303.058 538.438 302.644 538.509 302.302 538.725C301.961 538.941 301.719 539.285 301.63 539.679C301.541 540.074 301.612 540.487 301.828 540.829C302.044 541.171 302.387 541.413 302.782 541.502C302.782 541.502 303.489 541.635 304.366 541.529C305.244 541.423 306.442 541.113 307.879 540.363C310.754 538.863 314.571 535.634 318.985 528.779C319.204 528.439 319.278 528.026 319.193 527.631C319.107 527.236 318.868 526.891 318.529 526.672C318.36 526.564 318.172 526.49 317.975 526.454C317.778 526.418 317.576 526.423 317.38 526.465Z" fill="#444444"/>
<path fill-rule="evenodd" clip-rule="evenodd" d="M307.08 522.151C309.274 524.033 311.36 525.419 313.335 526.395C309.601 532.233 303.784 535.257 303.784 535.257C304.598 530.395 305.753 526.029 307.08 522.151Z" fill="#444444"/>
<path d="M388.138 532.478L317.538 532.87C317.134 532.872 316.747 533.035 316.462 533.322C316.178 533.61 316.019 533.999 316.022 534.403C316.023 534.603 316.063 534.802 316.141 534.986C316.219 535.171 316.332 535.338 316.474 535.479C316.617 535.62 316.785 535.731 316.971 535.807C317.156 535.883 317.355 535.921 317.555 535.92L388.155 535.528C388.56 535.526 388.947 535.363 389.231 535.075C389.516 534.788 389.674 534.399 389.672 533.995C389.671 533.794 389.63 533.596 389.552 533.412C389.475 533.227 389.362 533.06 389.219 532.919C389.077 532.778 388.908 532.667 388.723 532.591C388.537 532.515 388.339 532.477 388.138 532.478Z" fill="#444444"/>
<path d="M311.879 539.657C311.679 539.656 311.48 539.694 311.294 539.769C311.108 539.844 310.939 539.955 310.797 540.096C310.654 540.237 310.54 540.404 310.462 540.589C310.384 540.773 310.343 540.972 310.342 541.172C310.339 541.576 310.497 541.965 310.781 542.253C311.065 542.541 311.451 542.704 311.855 542.707L390.126 543.301C390.327 543.303 390.525 543.265 390.711 543.189C390.897 543.114 391.066 543.003 391.209 542.862C391.351 542.722 391.465 542.554 391.543 542.37C391.621 542.185 391.662 541.987 391.663 541.786C391.666 541.382 391.508 540.993 391.224 540.706C390.941 540.418 390.554 540.254 390.15 540.251L311.879 539.657Z" fill="#444444"/>
<path d="M375.933 495.504C375.548 495.626 375.226 495.896 375.04 496.255C374.853 496.614 374.817 497.032 374.939 497.417C375.061 497.803 375.331 498.124 375.69 498.311C376.639 498.804 380.121 501.046 380.854 504.668C381.294 506.845 381.894 509.89 382.277 512.619C382.468 513.984 382.603 515.271 382.641 516.299C382.678 517.327 382.552 518.144 382.513 518.244C382.258 518.902 381.896 519.073 381.838 519.104C381.799 519.063 381.732 519.013 381.638 518.723C381.271 517.579 380.225 514.219 379.075 510.982C378.5 509.364 377.901 507.774 377.327 506.468C377.041 505.816 376.762 505.236 376.48 504.737C376.197 504.239 375.968 503.831 375.465 503.417C375.153 503.16 374.752 503.037 374.349 503.076C373.947 503.115 373.576 503.312 373.319 503.624C373.062 503.937 372.94 504.338 372.979 504.74C373.018 505.143 373.215 505.513 373.527 505.771C373.41 505.674 373.625 505.887 373.826 506.242C374.028 506.597 374.274 507.103 374.534 507.696C375.055 508.882 375.641 510.424 376.202 512.003C377.324 515.162 378.352 518.463 378.735 519.655C378.993 520.459 379.417 521.156 380.054 521.635C380.69 522.113 381.531 522.303 382.272 522.183C383.752 521.943 384.795 520.798 385.357 519.347C385.737 518.368 385.733 517.387 385.689 516.188C385.645 514.99 385.498 513.623 385.298 512.196C384.897 509.341 384.285 506.252 383.842 504.063C382.809 498.954 378.528 496.349 377.096 495.605C376.737 495.418 376.319 495.382 375.933 495.504Z" fill="#444444"/>
<path d="M382.993 495.729C382.832 495.847 382.695 495.996 382.591 496.168C382.487 496.339 382.417 496.529 382.387 496.727C382.356 496.925 382.365 497.127 382.413 497.322C382.461 497.517 382.546 497.7 382.665 497.861C383.029 498.358 383.409 498.695 383.967 499.289C384.524 499.884 385.194 500.621 385.836 501.447C387.119 503.1 388.226 505.106 388.3 506.785C388.397 508.98 388.428 511.525 388.268 513.574C388.187 514.599 388.056 515.502 387.89 516.127C387.724 516.752 387.443 517.029 387.614 516.902C387.081 517.298 386.625 517.451 386.259 517.461C385.894 517.472 385.555 517.38 385.083 516.98C384.931 516.85 384.754 516.752 384.563 516.69C384.373 516.629 384.172 516.606 383.972 516.622C383.772 516.638 383.578 516.694 383.4 516.785C383.222 516.877 383.063 517.002 382.934 517.155C382.804 517.308 382.706 517.484 382.644 517.675C382.583 517.866 382.56 518.067 382.576 518.266C382.592 518.466 382.648 518.66 382.739 518.839C382.831 519.017 382.956 519.175 383.109 519.305C384.053 520.107 385.208 520.543 386.343 520.511C387.478 520.48 388.529 520.024 389.435 519.349C389.436 519.349 389.436 519.349 389.437 519.349C390.328 518.685 390.594 517.827 390.838 516.91C391.081 515.993 391.22 514.948 391.309 513.812C391.487 511.541 391.449 508.917 391.348 506.65C391.225 503.868 389.706 501.457 388.244 499.575C387.513 498.635 386.778 497.828 386.191 497.203C385.605 496.578 385.099 496.021 385.124 496.056C384.885 495.73 384.526 495.512 384.126 495.451C383.727 495.39 383.319 495.49 382.993 495.729Z" fill="#444444"/>
<path d="M393.942 515.451C393.548 515.363 393.134 515.436 392.793 515.652C392.495 515.842 391.623 515.994 390.843 515.959C390.063 515.923 389.457 515.785 389.457 515.785C389.063 515.694 388.649 515.764 388.307 515.978C387.964 516.193 387.72 516.535 387.629 516.929C387.539 517.323 387.608 517.737 387.823 518.079C388.037 518.422 388.379 518.666 388.773 518.757C388.773 518.757 389.629 518.956 390.703 519.005C391.777 519.055 393.151 519.04 394.429 518.227C394.598 518.12 394.744 517.98 394.859 517.816C394.975 517.652 395.056 517.467 395.1 517.272C395.144 517.076 395.148 516.874 395.114 516.677C395.079 516.48 395.006 516.291 394.899 516.122C394.791 515.953 394.651 515.806 394.487 515.691C394.323 515.576 394.138 515.495 393.942 515.451Z" fill="#444444"/>
<path d="M389.927 496.066C389.729 496.094 389.538 496.16 389.365 496.262C389.193 496.364 389.042 496.498 388.921 496.658C388.677 496.981 388.572 497.387 388.628 497.788C388.684 498.188 388.896 498.55 389.219 498.794C389.219 498.794 390.068 499.405 391.212 501.223C392.357 503.04 393.683 505.973 394.255 510.4C394.307 510.801 394.516 511.164 394.837 511.411C395.157 511.658 395.562 511.767 395.962 511.716C396.363 511.664 396.727 511.455 396.974 511.135C397.221 510.815 397.331 510.41 397.28 510.009C396.652 505.155 395.162 501.773 393.792 499.598C392.422 497.422 391.057 496.36 391.057 496.36C390.897 496.239 390.715 496.151 390.521 496.101C390.328 496.05 390.126 496.038 389.927 496.066Z" fill="#444444"/>
<path d="M380.837 490.06C377.138 490.141 374.592 490.714 372.558 491.501C370.386 492.341 367.951 494.009 365.948 495.484C363.945 496.959 362.418 498.251 362.418 498.251C362.265 498.381 362.139 498.539 362.047 498.717C361.956 498.895 361.9 499.089 361.883 499.289C361.867 499.489 361.889 499.689 361.951 499.88C362.012 500.071 362.11 500.248 362.239 500.401C362.5 500.709 362.873 500.901 363.276 500.935C363.679 500.968 364.078 500.84 364.387 500.579C364.387 500.579 365.843 499.349 367.757 497.94C369.671 496.53 372.089 494.953 373.658 494.347C377.07 493.027 382.471 492.261 395.501 494.565C395.698 494.6 395.901 494.595 396.096 494.552C396.292 494.509 396.477 494.428 396.641 494.313C396.805 494.198 396.946 494.053 397.053 493.884C397.161 493.715 397.235 493.526 397.269 493.329C397.304 493.132 397.3 492.929 397.257 492.734C397.214 492.538 397.132 492.353 397.017 492.188C396.902 492.024 396.756 491.884 396.587 491.776C396.418 491.669 396.23 491.595 396.032 491.561C389.387 490.386 384.536 489.978 380.837 490.06Z" fill="#444444"/>
</g>
<defs>
<clipPath id="clip0_1095_11463">
<rect width="298" height="371.535" fill="white" transform="translate(216 173)"/>
</clipPath>
</defs>
</svg>
