<svg width="785" height="782" viewBox="0 0 785 782" fill="none" xmlns="http://www.w3.org/2000/svg">
<path d="M311.404 161.118C344.178 140.566 392.602 80.6283 462.568 102.32C531.174 123.59 589.002 171.663 626.311 234.538C663.636 297.44 681.467 371.795 663.024 440.138C645.076 506.645 605.112 587.102 545.059 618.324C487.749 648.12 408.573 623.461 344.324 605.832C279.121 587.942 199.792 615.53 163.45 556.933C126.359 497.128 77.1172 370.673 90.1898 303.595C103.812 233.697 230.94 177.149 311.404 161.118Z" fill="#FFE9E1"/>
<path fill-rule="evenodd" clip-rule="evenodd" d="M369.014 532.991C369.014 535.988 367.934 538.862 366.011 540.981C364.088 543.1 361.481 544.291 358.761 544.291C356.042 544.291 353.434 543.1 351.511 540.981C349.588 538.862 348.508 535.988 348.508 532.991C348.508 531.507 348.773 530.038 349.289 528.667C349.804 527.296 350.559 526.05 351.511 525.001C352.463 523.952 353.594 523.12 354.838 522.552C356.082 521.984 357.415 521.692 358.761 521.692C360.108 521.692 361.441 521.984 362.685 522.552C363.929 523.12 365.059 523.952 366.011 525.001C366.963 526.05 367.719 527.296 368.234 528.667C368.749 530.038 369.014 531.507 369.014 532.991Z" fill="#444444"/>
<path d="M499.634 566.557C486.647 566.994 317.894 570.729 287.152 569.733C286.719 569.719 286.298 569.874 285.977 570.165C285.656 570.455 285.46 570.859 285.432 571.292C285.432 571.292 285.211 574.264 286.015 577.379C286.417 578.937 287.075 580.58 288.283 581.929C289.491 583.278 291.326 584.256 293.562 584.302C295.505 584.342 307.574 584.372 324.871 584.395C342.169 584.418 364.592 584.431 386.91 584.431C409.228 584.431 431.439 584.418 448.313 584.386C456.75 584.37 463.852 584.349 468.968 584.323C471.525 584.31 473.587 584.295 475.072 584.28C476.558 584.264 477.323 584.261 477.803 584.224C479.131 584.121 481.126 583.625 483.822 582.908C486.518 582.19 489.777 581.248 493.061 580.255C499.631 578.27 506.201 576.127 508.741 575.092C509.951 574.599 510.99 573.935 511.697 572.921C512.051 572.413 512.321 571.782 512.337 571.068C512.353 570.353 512.073 569.611 511.623 569.057C510.722 567.948 509.36 567.397 507.448 567.006C505.536 566.616 503.008 566.443 499.634 566.557ZM499.746 569.895C502.946 569.787 505.257 569.966 506.78 570.278C508.175 570.562 508.692 570.959 508.842 571.088C508.653 571.312 508.205 571.703 507.481 571.998C505.341 572.87 498.615 575.087 492.096 577.057C488.837 578.042 485.604 578.977 482.964 579.679C480.325 580.382 478.14 580.847 477.548 580.893C477.547 580.893 476.511 580.924 475.037 580.939C473.563 580.955 471.505 580.969 468.951 580.982C463.842 581.008 456.742 581.03 448.307 581.046C431.438 581.078 409.226 581.09 386.91 581.09C364.594 581.09 342.171 581.078 324.875 581.055C307.58 581.032 295.308 580.996 293.631 580.962C292.248 580.934 291.461 580.472 290.772 579.702C290.082 578.932 289.567 577.775 289.249 576.544C288.924 575.287 288.808 574.028 288.768 573.072C322.452 573.989 486.561 570.339 499.746 569.895Z" fill="#444444"/>
<path fill-rule="evenodd" clip-rule="evenodd" d="M287.097 571.403C287.097 571.403 286.358 582.484 293.597 582.632C300.837 582.78 473.834 582.853 477.675 582.558C481.517 582.262 503.431 575.452 508.112 573.545C512.101 571.92 512.839 567.783 499.69 568.227C486.54 568.67 318.168 572.41 287.097 571.403Z" fill="#444444"/>
<path d="M431.893 480.769C429.321 480.769 397.337 481.138 364.971 481.508C332.605 481.877 299.904 482.248 296.703 482.248C293.456 482.248 291.198 481.825 289.037 482.973C287.956 483.546 287.119 484.573 286.584 485.838C286.048 487.103 285.715 488.646 285.422 490.699C285.084 493.075 284.981 498.918 284.93 506.848C284.879 514.779 284.918 524.593 284.992 534.159C285.139 553.292 285.428 571.429 285.428 571.429C285.431 571.649 285.478 571.865 285.565 572.067C285.652 572.268 285.778 572.45 285.935 572.603C286.093 572.755 286.279 572.876 286.483 572.956C286.687 573.037 286.905 573.077 287.124 573.073C287.567 573.066 287.988 572.883 288.296 572.565C288.604 572.247 288.773 571.82 288.766 571.377C288.766 571.377 288.479 553.251 288.332 534.135C288.258 524.577 288.22 514.771 288.271 506.869C288.321 498.967 288.502 492.765 288.729 491.17C289.002 489.252 289.322 487.934 289.659 487.139C289.996 486.343 290.25 486.111 290.604 485.923C291.312 485.548 293.301 485.588 296.703 485.588C300.151 485.588 332.644 485.217 365.01 484.848C397.377 484.478 429.664 484.11 431.893 484.11C434.016 484.11 434.761 484.469 435.372 485.392C435.982 486.315 436.415 488.314 436.505 491.536C436.669 497.474 433.994 558.838 432.098 569.418C432.06 569.634 432.064 569.855 432.111 570.07C432.158 570.284 432.246 570.487 432.372 570.667C432.497 570.847 432.657 571.001 432.841 571.119C433.026 571.237 433.232 571.318 433.448 571.357C433.884 571.435 434.333 571.337 434.696 571.084C435.06 570.831 435.308 570.445 435.387 570.009C437.558 557.892 440.047 498.802 439.843 491.443C439.748 488.016 439.441 485.489 438.158 483.549C436.875 481.609 434.573 480.769 431.893 480.769Z" fill="#444444"/>
<path d="M325.822 317.446C323.568 317.303 321.225 317.43 318.804 317.83C318.367 317.902 317.977 318.145 317.719 318.505C317.461 318.865 317.357 319.313 317.429 319.75C317.501 320.187 317.744 320.578 318.104 320.835C318.464 321.093 318.912 321.198 319.349 321.126C328.147 319.671 335.143 321.996 341.032 328.194C341.183 328.353 341.364 328.481 341.565 328.57C341.765 328.659 341.981 328.707 342.201 328.713C342.42 328.718 342.638 328.681 342.843 328.602C343.048 328.523 343.235 328.405 343.394 328.254C343.714 327.948 343.901 327.528 343.912 327.086C343.923 326.643 343.758 326.215 343.453 325.894C338.548 320.732 332.584 317.875 325.822 317.446Z" fill="#444444"/>
<path d="M365.998 328.708C362.633 328.599 359.487 329.621 356.671 331.4C356.296 331.636 356.031 332.012 355.934 332.444C355.836 332.876 355.914 333.329 356.151 333.704C356.387 334.078 356.763 334.343 357.195 334.441C357.627 334.538 358.08 334.46 358.455 334.224C361.63 332.218 364.821 331.468 368.599 332.442C368.811 332.497 369.032 332.509 369.249 332.479C369.466 332.449 369.676 332.376 369.865 332.264C370.054 332.153 370.219 332.006 370.351 331.83C370.483 331.655 370.579 331.456 370.634 331.243C370.689 331.031 370.701 330.81 370.671 330.592C370.64 330.375 370.567 330.166 370.456 329.977C370.344 329.788 370.197 329.623 370.021 329.491C369.846 329.359 369.646 329.263 369.434 329.208C368.267 328.907 367.12 328.745 365.998 328.708Z" fill="#444444"/>
<path d="M319.155 232.466C313.169 232.794 307.363 235.437 303.438 240.634C299.869 245.359 298.037 252.212 298.617 260.99C296.728 260.373 294.106 259.673 290.632 259.473C284.806 259.137 277.449 260.604 272.585 267.553C267.006 275.522 264.642 286.256 263.966 294.76C263.966 294.76 263.966 294.761 263.966 294.762C263.738 297.64 262.821 305.724 263.109 314.712C263.396 323.699 264.81 333.689 269.644 340.752C272.673 345.178 277.313 346.414 281.37 345.857C285.427 345.3 289.033 343.237 291.16 340.944C292.209 339.811 292.967 338.669 292.608 337.244C292.428 336.531 291.933 335.979 291.46 335.657C290.986 335.336 290.512 335.169 290.037 335.042C288.139 334.536 285.859 334.629 284.843 334.492C282.474 334.173 280.191 332.055 279.047 329.152C277.904 326.249 277.942 322.778 279.83 319.985C281.725 317.182 283.963 316.788 286.317 317.297C288.671 317.806 290.97 319.59 291.773 320.956C292.588 322.344 293.02 325.145 293.243 327.864C293.355 329.224 293.438 330.565 293.581 331.769C293.724 332.973 293.86 334.016 294.414 335.018C295.321 336.659 297.123 337.973 299.247 337.626C301.371 337.279 303.055 335.31 303.961 332.032C305.669 325.856 308.833 307.159 321.869 299.651C327.118 304.821 332.707 308.182 338.65 309.34C344.624 310.504 350.869 309.398 357.221 306.231C363.691 312.774 369.489 316.67 374.68 318.294C380.107 319.992 384.952 319.158 388.645 316.494C396.032 311.164 398.963 299.46 398.178 287.302C397.392 275.144 392.766 262.314 383.67 254.647C374.923 247.273 361.971 245.199 345.58 253.175C342.669 239.53 330.521 231.843 319.155 232.466ZM319.337 235.802C329.614 235.24 341.007 242.429 342.769 255.764C342.805 256.03 342.904 256.285 343.059 256.505C343.213 256.725 343.419 256.904 343.658 257.028C343.897 257.151 344.163 257.215 344.432 257.214C344.701 257.213 344.966 257.147 345.204 257.022C361.738 248.3 373.417 250.372 381.518 257.201C389.618 264.029 394.103 276.064 394.843 287.518C395.583 298.973 392.454 309.628 386.692 313.785C383.811 315.864 380.309 316.555 375.68 315.107C371.05 313.658 365.35 309.934 358.766 303.09C358.513 302.827 358.181 302.654 357.821 302.598C357.461 302.541 357.092 302.604 356.771 302.777C350.547 306.124 344.79 307.133 339.287 306.061C333.784 304.989 328.448 301.793 323.242 296.378C322.994 296.119 322.669 295.948 322.315 295.889C321.962 295.829 321.599 295.885 321.279 296.048C305.397 304.167 302.259 325.656 300.742 331.141C300.015 333.771 299.096 334.265 298.709 334.328C298.321 334.392 297.703 334.061 297.339 333.402C297.257 333.254 297.023 332.435 296.897 331.376C296.771 330.316 296.688 328.992 296.573 327.59C296.342 324.787 296.078 321.688 294.654 319.264C293.217 316.817 290.373 314.758 287.023 314.033C283.674 313.309 279.646 314.291 277.062 318.114H277.064C274.474 321.945 274.451 326.598 275.94 330.377C277.429 334.155 280.472 337.274 284.397 337.803C285.947 338.012 287.976 338.015 289.018 338.256C288.929 338.389 288.912 338.455 288.71 338.673C287.243 340.256 284.074 342.114 280.915 342.548C277.756 342.982 274.738 342.281 272.401 338.865C268.245 332.793 266.725 323.303 266.447 314.606C266.169 305.908 267.053 298.103 267.297 295.024C267.94 286.928 270.309 276.629 275.321 269.469C279.421 263.613 285.286 262.51 290.44 262.808C295.594 263.105 299.725 264.905 299.725 264.905C299.994 265.022 300.29 265.067 300.582 265.034C300.875 265.001 301.153 264.891 301.39 264.716C301.626 264.54 301.812 264.306 301.928 264.035C302.045 263.765 302.087 263.469 302.053 263.177C300.919 253.697 302.798 247.023 306.103 242.647C309.408 238.271 314.199 236.084 319.337 235.802Z" fill="#444444"/>
<path fill-rule="evenodd" clip-rule="evenodd" d="M303.462 327.059L294.102 322.326C293.876 321.501 293.588 320.747 293.214 320.11C290.974 316.297 282.926 312.424 278.447 319.049C273.968 325.673 278.326 335.299 284.62 336.147C287.238 336.5 293.528 335.931 289.934 339.809C286.34 343.685 276.389 347.651 271.022 339.809C262.032 326.674 265.159 300.85 265.632 294.893C266.291 286.593 268.658 276.075 273.954 268.511C282.917 255.705 300.395 263.374 300.395 263.374C295.711 224.214 340.674 227.171 344.424 255.544C412.151 219.818 411.215 360.012 357.563 304.249C344.595 311.223 332.787 308.717 322.039 297.535C309.871 303.755 305.532 318.614 303.462 327.059Z" fill="#444444"/>
<path d="M293.581 320.74C293.16 320.878 292.812 321.178 292.612 321.573C292.513 321.769 292.453 321.982 292.437 322.201C292.42 322.419 292.447 322.639 292.515 322.848C292.583 323.056 292.692 323.249 292.835 323.415C292.978 323.582 293.152 323.718 293.348 323.817L315.766 335.15C315.928 335.232 316.101 335.287 316.281 335.312L374.53 343.71C374.747 343.741 374.968 343.729 375.181 343.675C375.393 343.621 375.593 343.526 375.769 343.394C375.944 343.263 376.092 343.098 376.205 342.909C376.317 342.721 376.39 342.512 376.422 342.295C376.453 342.078 376.441 341.857 376.387 341.644C376.333 341.431 376.238 341.231 376.106 341.056C375.975 340.88 375.81 340.732 375.621 340.62C375.433 340.508 375.224 340.434 375.007 340.403L317.028 332.047L294.856 320.835C294.66 320.736 294.447 320.677 294.228 320.661C294.009 320.644 293.789 320.671 293.581 320.74Z" fill="#444444"/>
<path d="M316.558 331.952C316.339 331.938 316.12 331.968 315.912 332.04C315.705 332.111 315.514 332.223 315.349 332.368C315.185 332.514 315.051 332.69 314.955 332.887C314.859 333.084 314.803 333.298 314.789 333.517C314.291 341.75 315.377 347.637 317.609 351.598C319.842 355.559 323.448 357.493 327.123 357.255C334.473 356.78 341.632 348.961 343.882 337.696C343.925 337.481 343.926 337.259 343.883 337.044C343.84 336.829 343.756 336.624 343.634 336.441C343.512 336.258 343.355 336.102 343.173 335.98C342.99 335.858 342.785 335.773 342.57 335.73C342.355 335.687 342.133 335.687 341.918 335.73C341.703 335.772 341.498 335.857 341.316 335.979C341.133 336.101 340.977 336.257 340.855 336.44C340.733 336.622 340.648 336.827 340.605 337.042C338.571 347.227 331.866 353.601 326.907 353.922C324.427 354.083 322.27 353.064 320.519 349.958C318.768 346.851 317.65 341.555 318.124 333.719C318.15 333.277 318 332.842 317.707 332.511C317.413 332.18 317 331.979 316.558 331.952Z" fill="#444444"/>
<path d="M351.374 336.999C350.938 336.919 350.489 337.014 350.124 337.265C349.759 337.515 349.509 337.901 349.428 338.336C348.081 345.601 348.52 350.543 350.49 353.79C352.46 357.037 356.074 358.082 359.515 357.486C362.956 356.89 366.462 354.925 369.489 352.267C372.517 349.609 375.066 346.241 376.343 342.61C376.49 342.192 376.465 341.733 376.273 341.334C376.082 340.935 375.739 340.628 375.322 340.481C374.904 340.335 374.445 340.36 374.046 340.551C373.647 340.743 373.34 341.085 373.193 341.503C372.17 344.412 369.951 347.417 367.286 349.756C364.622 352.095 361.509 353.751 358.947 354.194C356.384 354.638 354.61 354.143 353.346 352.058C352.081 349.974 351.442 345.796 352.712 338.945C352.792 338.51 352.697 338.06 352.446 337.695C352.195 337.33 351.809 337.08 351.374 336.999Z" fill="#444444"/>
<path d="M347.114 336.403C346.905 336.338 346.684 336.316 346.466 336.336C346.248 336.357 346.035 336.42 345.842 336.523C345.648 336.626 345.476 336.765 345.336 336.935C345.196 337.104 345.091 337.298 345.027 337.508C341.309 349.604 342.765 359.421 349.094 366.471C349.39 366.8 349.804 366.999 350.246 367.023C350.688 367.047 351.122 366.895 351.452 366.599C351.615 366.453 351.748 366.275 351.843 366.077C351.938 365.879 351.993 365.665 352.004 365.446C352.016 365.226 351.985 365.007 351.912 364.8C351.838 364.593 351.725 364.403 351.579 364.239C346.087 358.121 344.715 349.893 348.22 338.49C348.284 338.281 348.307 338.06 348.286 337.842C348.266 337.624 348.202 337.412 348.1 337.218C347.997 337.024 347.857 336.852 347.688 336.712C347.519 336.572 347.324 336.467 347.114 336.403Z" fill="#444444"/>
<path fill-rule="evenodd" clip-rule="evenodd" d="M335.967 343.735C335.79 344.205 335.557 344.649 335.281 345.041C335.004 345.433 334.69 345.765 334.356 346.019C334.022 346.273 333.675 346.443 333.334 346.52C332.994 346.598 332.666 346.58 332.371 346.469C332.076 346.358 331.818 346.155 331.613 345.873C331.408 345.59 331.259 345.233 331.175 344.822C331.091 344.411 331.074 343.954 331.125 343.477C331.175 343 331.292 342.513 331.469 342.042C331.827 341.093 332.406 340.271 333.081 339.759C333.755 339.246 334.469 339.084 335.066 339.309C335.662 339.533 336.092 340.126 336.261 340.956C336.431 341.786 336.325 342.786 335.967 343.735Z" fill="#444444"/>
<path fill-rule="evenodd" clip-rule="evenodd" d="M359.691 348.165C359.514 348.636 359.28 349.079 359.004 349.471C358.727 349.863 358.413 350.195 358.079 350.449C357.745 350.703 357.398 350.873 357.057 350.951C356.717 351.028 356.389 351.01 356.094 350.899C355.799 350.788 355.541 350.585 355.336 350.303C355.131 350.02 354.982 349.663 354.898 349.252C354.815 348.841 354.798 348.384 354.848 347.907C354.899 347.43 355.016 346.943 355.193 346.472C355.55 345.523 356.13 344.701 356.804 344.189C357.479 343.676 358.193 343.514 358.789 343.739C359.386 343.963 359.816 344.556 359.985 345.386C360.154 346.216 360.048 347.216 359.691 348.165Z" fill="#444444"/>
<path d="M359.286 360.191C358.877 360.021 358.418 360.02 358.008 360.189C357.599 360.358 357.274 360.682 357.103 361.091C349.997 378.185 334.594 390.931 319.367 393.427C311.754 394.676 304.218 393.425 297.559 388.969C290.899 384.513 285.061 376.787 281.124 364.834C281.055 364.626 280.946 364.433 280.803 364.266C280.66 364.1 280.486 363.963 280.29 363.865C280.094 363.766 279.88 363.706 279.661 363.69C279.442 363.674 279.222 363.701 279.014 363.77C278.593 363.908 278.245 364.208 278.045 364.603C277.846 364.999 277.811 365.457 277.95 365.878C282.061 378.358 288.306 386.798 295.7 391.746C303.095 396.694 311.586 398.087 319.908 396.723C336.55 393.995 352.655 380.493 360.188 362.374C360.358 361.965 360.358 361.505 360.189 361.095C360.02 360.686 359.695 360.361 359.286 360.191Z" fill="#444444"/>
<path d="M320.644 369.203C320.248 369.005 319.789 368.973 319.369 369.113C318.949 369.253 318.601 369.554 318.403 369.951C318.305 370.147 318.247 370.361 318.232 370.579C318.216 370.798 318.244 371.018 318.314 371.226C318.383 371.434 318.493 371.626 318.637 371.792C318.781 371.958 318.956 372.093 319.153 372.191C319.153 372.191 324.305 374.78 331.065 374.909C331.508 374.917 331.936 374.75 332.255 374.443C332.574 374.136 332.758 373.715 332.767 373.272C332.771 373.053 332.732 372.835 332.652 372.631C332.572 372.426 332.453 372.24 332.301 372.082C332.148 371.924 331.967 371.797 331.766 371.71C331.564 371.622 331.348 371.575 331.129 371.57C325.185 371.457 320.644 369.203 320.644 369.203Z" fill="#444444"/>
<path fill-rule="evenodd" clip-rule="evenodd" d="M229.49 466.181C223.616 473.844 213.88 496.113 210.628 504.964C207.374 513.815 208.207 515.328 211.006 516.008C216.745 517.405 246.56 527.81 251.477 529.247C256.394 530.684 256.254 532.239 252.687 534.164C242.069 539.896 234.739 550.732 229.548 557.678C219.5 571.124 225.411 577.181 221.569 577.034C217.727 576.886 194.713 573.951 183.598 571.567C154.058 565.232 151.868 543.744 153.78 525.433C155.872 505.391 178.404 464.82 192.536 442.36C219.87 398.921 248.387 390.171 258.51 387.604C268.948 384.957 272.535 386.537 273.355 391.481C277.969 419.275 294.064 412.662 298.319 409.92C303.369 406.666 304.114 402.679 310.872 402.781C353.915 403.433 361.17 454.243 363.156 465.116C365.142 475.991 363.345 477.504 360.063 477.787C355.134 478.214 308.554 478.378 295.847 478.526C283.141 478.674 283.141 480.151 282.254 485.175C280.647 494.282 281.404 536.533 281.404 536.533C278.377 537.478 272.041 534.169 263.248 529.346C254.454 524.524 235.542 518.945 224.195 516.108C212.848 513.271 213.036 511.285 215.211 502.018C217.386 492.752 229.49 466.181 229.49 466.181ZM291.057 424.399C288.134 424.399 285.761 426.919 285.761 430.025C285.761 433.13 288.134 435.651 291.057 435.651C293.979 435.651 296.352 433.13 296.352 430.025C296.352 426.919 293.979 424.399 291.057 424.399ZM291.057 456.088C288.92 456.088 287.185 457.931 287.185 460.201C287.185 462.472 288.92 464.315 291.057 464.315C293.194 464.315 294.928 462.472 294.928 460.201C294.928 457.931 293.194 456.088 291.057 456.088Z" fill="#444444"/>
<path d="M244.402 532.868C244 532.681 243.541 532.662 243.125 532.814C242.709 532.966 242.37 533.277 242.184 533.678C241.997 534.08 241.978 534.539 242.13 534.955C242.282 535.371 242.593 535.71 242.994 535.896C242.994 535.896 250.405 539.34 258.883 543.936C267.361 548.532 276.962 554.414 280.902 558.665C281.203 558.99 281.621 559.181 282.063 559.198C282.506 559.215 282.937 559.055 283.262 558.754C283.587 558.453 283.778 558.035 283.795 557.593C283.812 557.15 283.652 556.719 283.351 556.395C278.668 551.342 269.055 545.652 260.475 541C251.894 536.348 244.402 532.868 244.402 532.868Z" fill="#444444"/>
<path d="M274.212 557.401C274.005 557.473 273.813 557.584 273.649 557.73C273.484 557.875 273.35 558.052 273.254 558.249C273.061 558.647 273.033 559.106 273.178 559.524C273.322 559.942 273.626 560.286 274.024 560.48C274.024 560.48 279.735 563.375 282.183 565.864C282.336 566.02 282.52 566.145 282.722 566.231C282.924 566.317 283.141 566.362 283.36 566.364C283.58 566.366 283.797 566.324 284.001 566.242C284.204 566.16 284.39 566.038 284.546 565.884C284.862 565.573 285.041 565.15 285.045 564.707C285.048 564.264 284.876 563.838 284.565 563.522C281.298 560.201 275.487 557.479 275.487 557.479C275.089 557.285 274.631 557.257 274.212 557.401Z" fill="#444444"/>
<path d="M269.812 563.047C269.375 562.972 268.926 563.073 268.565 563.329C268.203 563.584 267.957 563.973 267.882 564.41C267.807 564.846 267.908 565.294 268.163 565.656C268.418 566.018 268.807 566.263 269.243 566.339C269.243 566.339 275.504 567.436 281.355 570.482C281.55 570.584 281.762 570.646 281.981 570.665C282.2 570.684 282.42 570.66 282.629 570.594C282.838 570.528 283.033 570.422 283.201 570.281C283.369 570.14 283.507 569.967 283.609 569.772C283.813 569.38 283.853 568.922 283.72 568.499C283.587 568.077 283.291 567.725 282.898 567.521C276.477 564.177 269.812 563.047 269.812 563.047Z" fill="#444444"/>
<path d="M222.59 555.047C222.415 555.179 222.267 555.344 222.156 555.534C222.045 555.723 221.972 555.932 221.942 556.149C221.912 556.366 221.925 556.587 221.98 556.8C222.035 557.012 222.131 557.211 222.264 557.386C222.264 557.386 224.422 560.242 227.024 563.448C229.626 566.653 232.532 570.129 234.64 571.782C236.39 573.153 237.799 574.233 240.059 574.805C242.319 575.377 245.247 575.496 250.531 575.448C261.035 575.354 273.278 575.175 283.156 576.473C283.373 576.502 283.595 576.488 283.807 576.431C284.019 576.374 284.218 576.276 284.392 576.143C284.566 576.009 284.712 575.842 284.822 575.652C284.931 575.462 285.002 575.252 285.031 575.034C285.06 574.817 285.045 574.596 284.988 574.384C284.931 574.172 284.833 573.974 284.7 573.8C284.566 573.626 284.399 573.48 284.209 573.37C284.019 573.261 283.809 573.19 283.592 573.161C273.325 571.812 260.989 572.013 250.501 572.108C245.288 572.155 242.543 571.988 240.879 571.567C239.215 571.146 238.449 570.525 236.7 569.153C235.31 568.064 232.179 564.495 229.619 561.342C227.059 558.188 224.929 555.371 224.929 555.371C224.662 555.018 224.265 554.786 223.827 554.725C223.388 554.664 222.943 554.78 222.59 555.047Z" fill="#444444"/>
<path d="M468.526 340.811C468.1 340.693 467.644 340.75 467.259 340.968C467.068 341.076 466.9 341.221 466.765 341.394C466.63 341.567 466.53 341.764 466.472 341.976C466.413 342.188 466.397 342.409 466.424 342.626C466.451 342.844 466.52 343.055 466.629 343.246C471.549 351.917 471.381 360.148 465.911 368.84C465.794 369.025 465.715 369.232 465.678 369.449C465.641 369.665 465.648 369.887 465.696 370.101C465.745 370.315 465.836 370.517 465.963 370.696C466.09 370.875 466.251 371.027 466.437 371.144C466.811 371.379 467.264 371.456 467.696 371.358C468.128 371.26 468.503 370.994 468.739 370.62C474.725 361.107 474.944 351.13 469.535 341.596C469.316 341.211 468.953 340.929 468.526 340.811Z" fill="#444444"/>
<path d="M462.56 348C462.134 348.121 461.773 348.405 461.556 348.791C461.34 349.178 461.286 349.634 461.406 350.06C461.968 352.053 461.961 353.607 461.689 354.612C461.417 355.617 460.978 356.044 460.472 356.243C459.966 356.442 459.207 356.445 458.136 355.879C457.066 355.314 455.761 354.168 454.483 352.297C454.233 351.931 453.849 351.679 453.413 351.597C452.978 351.515 452.528 351.609 452.162 351.859C451.797 352.109 451.545 352.493 451.463 352.928C451.381 353.364 451.475 353.814 451.724 354.18C453.235 356.39 454.874 357.935 456.574 358.834C458.275 359.733 460.11 359.975 461.697 359.35C463.283 358.725 464.432 357.264 464.914 355.484C465.395 353.704 465.305 351.576 464.621 349.152C464.501 348.726 464.216 348.366 463.829 348.15C463.442 347.934 462.986 347.88 462.56 348Z" fill="#444444"/>
<path d="M489.349 336.347C489.137 336.405 488.939 336.504 488.766 336.639C488.593 336.774 488.448 336.941 488.34 337.132C488.231 337.323 488.162 337.533 488.134 337.751C488.107 337.969 488.123 338.19 488.182 338.401C489.328 342.564 488.172 345.533 486.877 346.427C486.229 346.875 485.561 347.001 484.541 346.616C483.522 346.23 482.179 345.205 480.804 343.212C480.553 342.847 480.167 342.598 479.731 342.518C479.296 342.438 478.846 342.534 478.482 342.785C478.301 342.91 478.146 343.069 478.027 343.253C477.908 343.437 477.826 343.643 477.786 343.859C477.747 344.075 477.75 344.296 477.796 344.511C477.842 344.725 477.93 344.929 478.055 345.109C479.695 347.487 481.473 349.025 483.36 349.74C485.246 350.454 487.267 350.216 488.774 349.175C491.789 347.092 492.8 342.59 491.403 337.514C491.344 337.302 491.245 337.104 491.11 336.931C490.976 336.758 490.808 336.613 490.617 336.505C490.427 336.396 490.216 336.327 489.999 336.3C489.781 336.273 489.56 336.289 489.349 336.347Z" fill="#444444"/>
<path d="M496.644 370.804C496.267 370.572 495.813 370.5 495.383 370.602C494.952 370.705 494.58 370.974 494.348 371.35C491.738 375.585 488.975 378.949 486.116 380.719C483.257 382.488 480.415 382.875 476.645 381.148C476.446 381.056 476.231 381.005 476.011 380.997C475.792 380.988 475.574 381.024 475.368 381.1C475.162 381.176 474.974 381.292 474.813 381.441C474.652 381.591 474.522 381.77 474.431 381.97C474.34 382.169 474.288 382.384 474.28 382.604C474.272 382.823 474.307 383.041 474.383 383.247C474.46 383.453 474.576 383.641 474.725 383.802C474.874 383.963 475.054 384.093 475.253 384.184C479.86 386.295 484.255 385.799 487.874 383.559C491.493 381.32 494.452 377.547 497.19 373.103C497.305 372.916 497.382 372.708 497.417 372.492C497.452 372.275 497.444 372.054 497.393 371.84C497.342 371.627 497.25 371.426 497.122 371.248C496.993 371.07 496.831 370.919 496.644 370.804Z" fill="#444444"/>
<path d="M516.863 377.308C516.447 377.156 515.987 377.175 515.586 377.362C515.184 377.549 514.873 377.887 514.721 378.303C513.065 382.834 509.314 387.748 504.724 391.109C500.135 394.47 494.813 396.253 489.904 395.12C483.688 393.685 477.675 396.42 472.219 400.792C466.762 405.164 461.678 411.26 457.009 417.217C438.944 440.265 427.64 473.12 427.64 473.12C427.568 473.327 427.538 473.546 427.551 473.765C427.564 473.984 427.62 474.199 427.716 474.396C427.812 474.593 427.946 474.77 428.11 474.916C428.274 475.061 428.465 475.173 428.672 475.245C428.88 475.316 429.099 475.347 429.318 475.334C429.537 475.321 429.751 475.264 429.949 475.169C430.146 475.073 430.323 474.939 430.468 474.775C430.614 474.611 430.726 474.419 430.797 474.212C430.797 474.212 442.109 441.641 459.637 419.279C464.26 413.38 469.248 407.45 474.306 403.398C479.364 399.345 484.306 397.256 489.153 398.374C495.308 399.795 501.572 397.558 506.698 393.804C511.825 390.049 515.92 384.753 517.858 379.449C518.01 379.033 517.99 378.574 517.804 378.172C517.617 377.771 517.279 377.46 516.863 377.308Z" fill="#444444"/>
<path d="M488.344 409.174C488.125 409.19 487.911 409.25 487.715 409.349C487.52 409.447 487.345 409.584 487.202 409.75C487.059 409.917 486.95 410.11 486.881 410.318C486.813 410.527 486.786 410.747 486.802 410.965C490.105 454.99 488.451 496.341 470.334 529.156C470.228 529.348 470.161 529.559 470.136 529.777C470.111 529.995 470.13 530.216 470.191 530.427C470.252 530.638 470.353 530.835 470.49 531.006C470.627 531.178 470.796 531.321 470.988 531.427C471.18 531.533 471.392 531.6 471.61 531.624C471.828 531.649 472.049 531.63 472.26 531.569C472.47 531.508 472.667 531.406 472.839 531.269C473.01 531.132 473.153 530.963 473.259 530.771C491.906 496.995 493.454 454.977 490.133 410.716C490.1 410.274 489.893 409.863 489.558 409.574C489.222 409.285 488.786 409.141 488.344 409.174Z" fill="#444444"/>
<path d="M555.024 389.684C552.546 389.677 550.087 390.094 547.547 390.868C542.079 392.534 537.352 397.287 532.516 402.175C527.681 407.063 522.765 412.149 517.687 414.783C509.613 418.971 504.594 417.272 501.179 414.697C497.764 412.122 496.206 408.518 496.206 408.518C496.121 408.316 495.996 408.133 495.84 407.979C495.683 407.825 495.498 407.703 495.295 407.621C495.092 407.538 494.874 407.497 494.654 407.498C494.435 407.5 494.218 407.545 494.016 407.631C493.814 407.717 493.631 407.841 493.477 407.997C493.323 408.154 493.202 408.339 493.12 408.543C493.037 408.746 492.996 408.964 492.998 409.183C493 409.402 493.045 409.619 493.131 409.821C493.131 409.821 494.948 414.183 499.168 417.365C503.388 420.547 510.262 422.396 519.224 417.747C525.054 414.723 530.085 409.384 534.891 404.525C539.697 399.667 544.306 395.347 548.52 394.063C553.123 392.661 556.874 392.563 561.507 394.203C566.139 395.842 571.653 399.341 579.187 405.251C595.297 417.887 624.047 438.815 639.451 492.6C643.373 506.298 642.148 521.474 638.463 534.448C634.777 547.422 628.538 558.202 623.111 562.905C623.11 562.905 623.11 562.905 623.109 562.905C619.624 565.926 612.985 572.325 600.398 576.127C587.812 579.929 569.317 581.063 542.42 572.868C542.334 572.843 542.277 572.78 542.257 572.693C542.238 572.608 542.263 572.526 542.33 572.466C542.336 572.46 542.343 572.455 542.349 572.449C544.978 570.013 548.791 565.677 550.906 559.461C553.021 553.246 553.36 545.156 549.176 535.606C549.151 535.546 549.15 535.483 549.176 535.421C549.2 535.37 549.243 535.339 549.29 535.317C554.538 533.974 570.538 531.069 598.753 535.965C598.969 536.003 599.19 535.997 599.404 535.949C599.618 535.901 599.821 535.811 600 535.685C600.179 535.559 600.332 535.398 600.449 535.213C600.567 535.028 600.646 534.821 600.684 534.605C600.721 534.389 600.716 534.167 600.668 533.953C600.619 533.739 600.53 533.537 600.403 533.357C600.277 533.178 600.117 533.025 599.931 532.908C599.746 532.791 599.539 532.711 599.323 532.674C570.557 527.681 553.999 530.644 548.354 532.1C548.314 532.11 548.273 532.123 548.233 532.137C547.288 532.458 546.522 533.163 546.12 534.074C546.119 534.075 546.118 534.076 546.118 534.077C545.717 534.988 545.716 536.031 546.116 536.944C550 545.81 549.615 552.885 547.743 558.385C545.871 563.886 542.434 567.815 540.078 569.998L540.097 569.981C539.141 570.841 538.716 572.158 538.995 573.416C539.274 574.674 540.215 575.688 541.446 576.063C568.836 584.408 588.083 583.337 601.364 579.325C614.644 575.314 621.995 568.291 625.297 565.429C631.633 559.939 637.858 548.804 641.676 535.362C645.494 521.919 646.814 506.179 642.662 491.681C627.017 437.052 597.254 415.177 581.248 402.622C573.599 396.622 567.864 392.91 562.621 391.055C560 390.127 557.502 389.692 555.024 389.684Z" fill="#444444"/>
<path d="M499.718 536.29C499.718 536.29 482.016 535.132 471.419 549.237C469.1 552.322 467.1 555.686 466.054 558.682C465.532 560.18 465.224 561.589 465.361 562.963C465.499 564.337 466.317 565.783 467.697 566.408C467.697 566.408 467.698 566.408 467.699 566.408C469.622 567.277 471.811 566.772 473.965 565.558C476.119 564.343 478.462 562.369 481.207 559.66C492.58 548.437 502.068 545.164 509.804 545.615C510.023 545.628 510.242 545.598 510.45 545.526C510.657 545.454 510.848 545.341 511.012 545.195C511.176 545.049 511.31 544.873 511.405 544.675C511.501 544.478 511.556 544.263 511.569 544.044C511.595 543.602 511.443 543.167 511.149 542.837C510.854 542.506 510.44 542.306 509.998 542.281C501.152 541.764 490.67 545.629 478.862 557.282C476.223 559.886 474.014 561.696 472.325 562.648C470.636 563.6 469.694 563.644 469.074 563.364C468.779 563.23 468.743 563.212 468.685 562.631C468.626 562.049 468.78 561.011 469.208 559.783C470.065 557.328 471.925 554.126 474.09 551.244C483.558 538.642 499.507 539.623 499.507 539.623C499.726 539.636 499.946 539.607 500.153 539.536C500.361 539.465 500.553 539.354 500.717 539.209C500.882 539.064 501.016 538.888 501.113 538.691C501.209 538.494 501.266 538.28 501.28 538.061C501.307 537.619 501.158 537.184 500.865 536.852C500.573 536.52 500.16 536.318 499.718 536.29Z" fill="#444444"/>
<path d="M510.445 551.731C506.753 551.848 502.311 552.948 498.186 554.557C494.06 556.166 490.291 558.226 487.98 560.678C486.148 562.622 484.59 563.478 483.477 563.729C482.364 563.98 481.669 563.742 481.05 563.239C481.134 563.308 481.016 563.217 480.957 562.84C480.898 562.463 480.902 561.895 480.961 561.338C481.078 560.223 481.371 559.2 481.371 559.2C481.494 558.774 481.443 558.318 481.23 557.93C481.016 557.542 480.657 557.254 480.232 557.131C479.806 557.008 479.349 557.058 478.961 557.272C478.573 557.485 478.286 557.844 478.163 558.27C478.163 558.27 477.794 559.517 477.639 560.987C477.562 561.723 477.526 562.528 477.656 563.357C477.785 564.185 478.083 565.134 478.942 565.832C480.289 566.926 482.209 567.439 484.211 566.988C486.214 566.536 488.274 565.236 490.411 562.969C492.07 561.208 495.562 559.166 499.399 557.67C503.237 556.173 507.458 555.167 510.549 555.069C510.55 555.069 510.551 555.069 510.551 555.069C513.398 554.979 514.92 555.381 516.587 556.398C518.254 557.415 520.089 559.204 522.915 561.836C526.157 564.854 530.84 566.048 535.73 565.761C540.62 565.475 545.787 563.708 550.211 560.533C550.571 560.275 550.813 559.884 550.885 559.447C550.957 559.01 550.853 558.563 550.595 558.203C550.467 558.024 550.305 557.873 550.119 557.757C549.933 557.641 549.725 557.563 549.509 557.527C549.292 557.492 549.071 557.499 548.857 557.549C548.643 557.599 548.441 557.691 548.263 557.819C544.368 560.614 539.753 562.179 535.534 562.426C531.316 562.674 527.565 561.602 525.191 559.392C522.401 556.794 520.508 554.879 518.326 553.548C516.144 552.217 513.699 551.628 510.445 551.731Z" fill="#444444"/>
<path d="M505.556 524.258C496.898 524.354 488.009 526.019 480.782 529.494C474.633 532.451 468.693 536.952 464.064 541.604C459.435 546.256 456.063 550.913 455.281 554.965C454.562 558.683 455.368 562.033 457.76 563.931C460.151 565.829 463.69 565.987 467.626 564.522C468.041 564.367 468.377 564.054 468.562 563.651C468.746 563.249 468.763 562.789 468.608 562.374C468.532 562.169 468.415 561.98 468.266 561.819C468.116 561.659 467.937 561.529 467.737 561.438C467.538 561.346 467.322 561.295 467.103 561.288C466.883 561.28 466.665 561.315 466.459 561.392C463.193 562.608 461.027 562.259 459.836 561.314C458.645 560.368 457.992 558.538 458.56 555.599C459.063 552.994 462.055 548.36 466.433 543.96C470.811 539.56 476.521 535.249 482.228 532.504C495.461 526.141 516.265 526.457 527.577 531.49C539.668 536.871 547.529 538.363 547.529 538.363C547.744 538.403 547.966 538.401 548.181 538.356C548.396 538.311 548.6 538.224 548.781 538.101C548.962 537.977 549.117 537.819 549.237 537.635C549.357 537.451 549.44 537.246 549.48 537.03C549.562 536.595 549.468 536.145 549.218 535.779C548.968 535.413 548.583 535.162 548.148 535.08C548.148 535.08 540.749 533.696 528.936 528.439C522.639 525.637 514.213 524.162 505.556 524.258Z" fill="#444444"/>
<path d="M571.744 441.223C571.531 441.275 571.33 441.369 571.153 441.498C570.976 441.628 570.826 441.791 570.712 441.979C570.598 442.166 570.523 442.374 570.489 442.591C570.456 442.808 570.465 443.029 570.517 443.242C573.808 456.73 574.605 475.692 576.495 493.092C578.385 510.493 581.158 526.45 589.683 534.288C590.009 534.588 590.44 534.746 590.883 534.727C591.325 534.709 591.742 534.515 592.042 534.189C592.191 534.028 592.306 533.838 592.381 533.632C592.456 533.426 592.49 533.207 592.481 532.988C592.471 532.769 592.419 532.554 592.326 532.355C592.234 532.156 592.103 531.978 591.942 531.829C584.89 525.346 581.688 509.969 579.817 492.731C577.945 475.492 577.193 456.509 573.762 442.45C573.71 442.237 573.617 442.036 573.487 441.859C573.358 441.682 573.194 441.532 573.007 441.419C572.82 441.305 572.612 441.229 572.395 441.195C572.178 441.162 571.957 441.171 571.744 441.223Z" fill="#444444"/>
<path d="M477.654 314.156C477.304 314.196 476.975 314.345 476.715 314.583C476.455 314.821 476.277 315.135 476.206 315.48C476.206 315.48 474.781 322.405 470.086 329.555C465.392 336.704 457.63 343.924 444.593 344.738C444.356 344.753 444.124 344.819 443.915 344.93C443.705 345.042 443.521 345.197 443.376 345.385C443.231 345.573 443.127 345.79 443.073 346.021C443.018 346.252 443.013 346.492 443.059 346.725C443.059 346.725 451.303 389.353 488.64 398.266C488.854 398.317 489.075 398.326 489.292 398.291C489.509 398.256 489.716 398.18 489.903 398.065C490.09 397.95 490.253 397.799 490.381 397.621C490.51 397.443 490.603 397.242 490.653 397.029C490.756 396.598 490.683 396.144 490.451 395.767C490.219 395.389 489.846 395.12 489.416 395.017C456.664 387.199 447.891 352.561 446.816 347.812C459.804 346.309 468.061 338.726 472.879 331.389C475.847 326.868 477.373 322.978 478.318 320.065C484.077 330.658 491.433 336.758 497.688 339.9C504.658 343.4 510.288 343.607 510.288 343.607C510.572 343.617 510.853 343.554 511.106 343.425C511.359 343.296 511.574 343.104 511.732 342.869C511.891 342.633 511.986 342.361 512.01 342.079C512.034 341.796 511.985 341.512 511.869 341.253C511.285 339.954 511.054 337.569 511.371 335.081C511.689 332.593 512.514 329.987 513.634 328.117C514.755 326.248 516.033 325.268 517.269 325.208C518.505 325.147 520.351 325.957 522.716 329.143C526.999 334.914 525.59 340.069 523.083 344.282C520.575 348.494 516.924 351.311 516.924 351.311C516.694 351.487 516.513 351.72 516.4 351.987C515.824 353.349 515.794 354.941 515.86 357.128C515.926 359.316 516.209 361.967 516.742 364.797C517.806 370.456 519.827 376.818 523.349 381.429C528.066 387.603 535.686 390.414 542.038 391.783C548.389 393.152 553.639 393.055 553.639 393.055C553.858 393.051 554.075 393.004 554.276 392.916C554.477 392.829 554.659 392.702 554.811 392.544C554.964 392.386 555.083 392.2 555.164 391.996C555.244 391.792 555.283 391.574 555.279 391.355C555.275 391.135 555.228 390.919 555.141 390.718C555.053 390.517 554.927 390.335 554.769 390.182C554.611 390.03 554.425 389.91 554.221 389.83C554.017 389.75 553.799 389.71 553.579 389.714C553.579 389.714 548.693 389.8 542.742 388.518C536.791 387.235 529.946 384.562 526.004 379.401C523.025 375.502 521.028 369.511 520.024 364.178C519.522 361.511 519.258 359.007 519.198 357.028C519.142 355.166 519.37 353.829 519.459 353.51C520.179 352.939 523.359 350.349 525.953 345.991C528.852 341.121 530.503 334.03 525.398 327.152C522.691 323.505 519.89 321.735 517.105 321.871C514.32 322.007 512.208 324.001 510.769 326.401C509.331 328.8 508.429 331.76 508.059 334.658C507.822 336.515 507.905 338.276 508.177 339.939C506.247 339.644 503.362 339.01 499.187 336.914C492.8 333.706 484.998 327.489 479.361 315.122C479.215 314.801 478.971 314.535 478.664 314.362C478.358 314.189 478.004 314.117 477.654 314.156Z" fill="#444444"/>
<path d="M511.979 255.601C508.867 255.465 505.575 255.574 502.091 255.937C488.384 257.365 480.472 264.395 476.191 271.022C473.108 275.794 472.103 279.532 471.626 281.744C461.556 276.172 452.952 274.498 445.827 276.012C438.224 277.627 432.444 282.669 428.285 289.207C419.966 302.283 417.647 321.449 418.708 334.708C420.751 360.247 414.199 365.654 410.02 373.858C410.019 373.858 410.018 373.858 410.018 373.858C407.947 377.923 405.418 384.374 405.129 391.987C404.839 399.599 406.857 408.385 413.766 416.753C427.816 433.769 452.915 427.898 452.915 427.898C453.347 427.799 453.722 427.533 453.958 427.158C454.193 426.783 454.27 426.33 454.172 425.898C454.073 425.466 453.807 425.091 453.432 424.855C453.057 424.62 452.603 424.543 452.172 424.641C452.172 424.641 428.885 429.82 416.34 414.626C409.952 406.89 408.203 399.054 408.467 392.113C408.731 385.173 411.076 379.139 412.995 375.373C416.794 367.915 424.131 360.616 422.037 334.442C421.029 321.846 423.442 303.042 431.103 291C434.933 284.979 439.954 280.675 446.52 279.279C453.086 277.884 461.405 279.378 471.9 285.628C472.138 285.77 472.407 285.85 472.684 285.862C472.961 285.873 473.236 285.816 473.485 285.694C473.734 285.573 473.949 285.392 474.111 285.167C474.272 284.942 474.375 284.68 474.411 284.405C474.411 284.405 475.134 278.816 478.998 272.834C482.862 266.852 489.705 260.585 502.437 259.259C515.796 257.867 525.652 260.309 533.478 266.015C541.305 271.722 547.176 280.838 552.058 293.051C556.966 305.326 559.877 316.165 565.749 324.762C571.621 333.36 580.571 339.457 596.68 341.915C601.791 342.694 611.307 345.831 618.699 351.788C626.091 357.745 631.451 366.244 629.199 378.575C626.933 390.977 619.461 398.073 610.563 401.957C601.665 405.841 591.317 406.319 584.022 405.042C583.585 404.965 583.137 405.066 582.774 405.32C582.412 405.574 582.165 405.963 582.089 406.399C582.012 406.835 582.112 407.284 582.367 407.646C582.621 408.009 583.009 408.255 583.446 408.332C591.393 409.723 602.236 409.236 611.899 405.018C621.562 400.8 630.023 392.654 632.485 379.175C634.96 365.625 628.814 355.651 620.794 349.188C612.775 342.725 602.971 339.496 597.185 338.613H597.183C581.687 336.249 573.922 330.805 568.508 322.878C563.093 314.951 560.147 304.282 555.16 291.809C550.148 279.273 543.995 269.55 535.446 263.316C529.035 258.641 521.316 256.012 511.979 255.601Z" fill="#444444"/>
<path fill-rule="evenodd" clip-rule="evenodd" d="M452.543 426.27C452.543 426.27 428.35 431.794 415.053 415.689C401.756 399.585 407.518 382.446 411.507 374.615C415.496 366.784 422.441 360.431 420.372 334.575C418.304 308.72 429.838 258.632 472.755 284.193C472.755 284.193 475.825 260.353 502.264 257.598C529.559 254.754 543.715 267.681 553.609 292.43C563.504 317.178 565.326 335.442 596.932 340.264C607.829 341.925 635.569 352.995 630.841 378.876C626.114 404.756 598.977 409.354 583.734 406.686C582.504 405.721 581.33 404.807 580.218 403.936C568.053 394.394 560.938 390.886 553.609 391.385C553.609 391.385 533.335 391.749 524.676 380.415C518.175 371.905 516.639 355.711 517.938 352.638C517.938 352.638 533.446 340.797 524.057 328.147C513.915 314.482 507.154 334.846 510.346 341.938C510.346 341.938 489.424 341.229 477.841 315.815C477.841 315.815 471.931 344.704 444.698 346.405C444.698 346.405 452.812 387.996 489.028 396.641C478.139 394.563 467.475 406.572 458.323 418.248C456.311 420.815 454.382 423.509 452.543 426.27Z" fill="#444444"/>
<path d="M452.546 261.868C448.015 261.527 442.913 262.821 437.258 266.163C436.877 266.388 436.6 266.755 436.49 267.184C436.379 267.613 436.444 268.068 436.669 268.45C436.894 268.831 437.262 269.107 437.69 269.218C438.119 269.328 438.575 269.264 438.956 269.039C444.182 265.951 448.578 264.919 452.295 265.199C456.012 265.479 459.134 267.058 461.862 269.544C467.32 274.515 470.96 283.206 472.892 290.935C472.945 291.148 473.039 291.348 473.17 291.524C473.301 291.701 473.465 291.85 473.653 291.962C473.841 292.075 474.05 292.15 474.267 292.182C474.484 292.214 474.705 292.204 474.918 292.15C475.347 292.043 475.716 291.769 475.944 291.39C476.172 291.01 476.24 290.556 476.133 290.126C474.11 282.031 470.428 272.827 464.112 267.074C460.954 264.198 457.078 262.209 452.546 261.868Z" fill="#444444"/>
</svg>
