<svg width="744" height="533" viewBox="0 0 744 533" fill="none" xmlns="http://www.w3.org/2000/svg">
<path d="M244.143 482.75C202.539 481.351 122.755 501.762 74.5409 448.938C27.264 397.14 6.08085 330.567 12.1438 263.399C18.2093 196.202 48.5445 130.423 107.116 88.0532C164.115 46.8208 249.152 6.41963 321.399 13.8753C390.347 20.9904 444.838 80.8532 490.531 127.62C536.903 175.081 623.884 195.31 619.619 258.724C615.265 323.445 580.343 445.138 527.286 489.336C471.998 535.392 324.967 512.352 244.143 482.75Z" fill="#FFE9E1"/>
<g clip-path="url(#clip0_1095_11459)">
<path fill-rule="evenodd" clip-rule="evenodd" d="M410.578 443.311C410.578 446.96 409.263 450.459 406.921 453.039C404.58 455.619 401.405 457.069 398.094 457.069C394.783 457.069 391.607 455.619 389.266 453.039C386.925 450.459 385.609 446.96 385.609 443.311C385.609 441.504 385.932 439.715 386.56 438.045C387.187 436.376 388.107 434.86 389.266 433.582C390.425 432.304 391.801 431.291 393.316 430.6C394.831 429.908 396.454 429.552 398.094 429.552C399.733 429.552 401.356 429.908 402.871 430.6C404.386 431.291 405.762 432.304 406.921 433.582C408.081 434.86 409 436.376 409.628 438.045C410.255 439.715 410.578 441.504 410.578 443.311Z" fill="#444444"/>
<path d="M246.191 484.099C261.153 484.638 455.579 489.243 490.998 488.015C491.496 487.998 491.982 488.188 492.351 488.547C492.721 488.905 492.947 489.403 492.98 489.936C492.98 489.936 493.234 493.601 492.308 497.441C491.844 499.362 491.086 501.388 489.694 503.051C488.302 504.714 486.189 505.92 483.612 505.976C481.374 506.025 467.469 506.063 447.54 506.091C427.611 506.12 401.776 506.135 376.063 506.135C350.35 506.135 324.76 506.12 305.319 506.08C295.599 506.06 287.416 506.034 281.522 506.002C278.575 505.986 276.2 505.968 274.489 505.949C272.777 505.93 271.896 505.925 271.343 505.88C269.812 505.754 267.515 505.142 264.408 504.257C261.302 503.373 257.547 502.211 253.763 500.987C246.194 498.539 238.624 495.898 235.698 494.622C234.304 494.014 233.106 493.195 232.292 491.945C231.884 491.319 231.573 490.541 231.555 489.66C231.537 488.779 231.859 487.864 232.378 487.181C233.416 485.813 234.985 485.134 237.188 484.653C239.391 484.171 242.303 483.959 246.191 484.099ZM246.062 488.215C242.375 488.082 239.712 488.302 237.957 488.686C236.35 489.037 235.755 489.527 235.582 489.686C235.799 489.961 236.316 490.444 237.15 490.807C239.615 491.882 247.365 494.615 254.875 497.044C258.63 498.258 262.355 499.411 265.396 500.277C268.437 501.143 270.954 501.717 271.637 501.773C271.637 501.773 272.831 501.812 274.53 501.831C276.228 501.85 278.598 501.868 281.541 501.884C287.427 501.915 295.607 501.942 305.325 501.962C324.762 502.001 350.352 502.017 376.063 502.017C401.775 502.017 427.609 502.002 447.536 501.973C467.462 501.945 481.601 501.901 483.533 501.858C485.127 501.823 486.033 501.254 486.827 500.305C487.621 499.355 488.215 497.93 488.582 496.412C488.956 494.862 489.09 493.31 489.136 492.131C450.328 493.261 261.252 488.762 246.062 488.215Z" fill="#444444"/>
<path fill-rule="evenodd" clip-rule="evenodd" d="M492.986 488.664C492.986 488.664 493.885 504.575 485.081 504.787C476.276 505 265.89 505.105 261.219 504.682C256.547 504.257 229.896 494.479 224.204 491.741C219.353 489.407 218.455 483.467 234.446 484.104C250.438 484.74 455.2 490.11 492.986 488.664Z" fill="#444444"/>
<path d="M487.14 379.725C484.008 379.725 445.064 380.174 405.655 380.624C366.245 381.074 326.428 381.525 322.531 381.525C318.577 381.525 315.827 381.01 313.196 382.408C311.88 383.106 310.862 384.356 310.209 385.896C309.557 387.436 309.152 389.316 308.795 391.815C308.383 394.709 308.258 401.823 308.196 411.479C308.134 421.135 308.182 433.085 308.271 444.733C308.45 468.03 308.802 490.114 308.802 490.114C308.806 490.381 308.863 490.644 308.969 490.889C309.075 491.135 309.228 491.356 309.42 491.542C309.612 491.728 309.838 491.874 310.087 491.973C310.335 492.071 310.6 492.12 310.867 492.115C311.406 492.106 311.92 491.884 312.295 491.496C312.67 491.109 312.875 490.589 312.867 490.05C312.867 490.05 312.517 467.979 312.338 444.703C312.249 433.066 312.201 421.125 312.263 411.504C312.325 401.882 312.545 394.331 312.822 392.389C313.154 390.054 313.544 388.448 313.954 387.48C314.364 386.512 314.674 386.229 315.105 386C315.966 385.543 318.389 385.592 322.531 385.592C326.73 385.592 366.293 385.141 405.702 384.691C445.112 384.241 484.425 383.792 487.14 383.792C489.724 383.792 490.632 384.23 491.375 385.354C492.118 386.477 492.646 388.911 492.755 392.834C492.955 400.065 489.698 474.783 487.39 487.665C487.343 487.928 487.348 488.197 487.405 488.458C487.462 488.719 487.57 488.966 487.722 489.185C487.875 489.404 488.069 489.591 488.294 489.735C488.519 489.88 488.77 489.978 489.033 490.025C489.563 490.12 490.11 490.001 490.553 489.693C490.995 489.385 491.298 488.915 491.393 488.384C494.037 473.631 497.068 401.682 496.82 392.721C496.704 388.548 496.33 385.471 494.768 383.109C493.206 380.747 490.402 379.725 487.14 379.725Z" fill="#444444"/>
<path d="M357.987 180.861C355.243 180.687 352.39 180.841 349.442 181.328C348.91 181.416 348.434 181.712 348.12 182.15C347.806 182.589 347.679 183.134 347.767 183.666C347.855 184.198 348.15 184.674 348.589 184.988C349.027 185.302 349.572 185.429 350.105 185.341C360.817 183.57 369.336 186.401 376.507 193.947C376.691 194.141 376.911 194.296 377.155 194.405C377.399 194.513 377.663 194.573 377.93 194.579C378.197 194.586 378.462 194.54 378.712 194.444C378.961 194.348 379.189 194.204 379.382 194.02C379.773 193.648 380 193.137 380.013 192.598C380.027 192.06 379.826 191.537 379.455 191.147C373.482 184.861 366.22 181.383 357.987 180.861Z" fill="#444444"/>
<path d="M406.906 194.574C402.808 194.441 398.978 195.685 395.549 197.851C395.093 198.139 394.77 198.596 394.651 199.123C394.532 199.649 394.627 200.2 394.915 200.656C395.203 201.112 395.661 201.435 396.187 201.554C396.713 201.673 397.265 201.578 397.721 201.29C401.587 198.847 405.472 197.934 410.072 199.12C410.33 199.187 410.599 199.202 410.864 199.165C411.128 199.128 411.383 199.039 411.613 198.903C411.843 198.768 412.044 198.588 412.205 198.375C412.366 198.162 412.483 197.919 412.55 197.66C412.617 197.402 412.632 197.132 412.595 196.868C412.558 196.603 412.469 196.348 412.333 196.118C412.197 195.888 412.017 195.687 411.804 195.526C411.59 195.366 411.347 195.249 411.088 195.182C409.668 194.816 408.272 194.618 406.906 194.574Z" fill="#444444"/>
<path d="M349.868 77.3879C342.58 77.7869 335.51 81.0052 330.731 87.3332C326.385 93.0868 324.154 101.431 324.862 112.119C322.561 111.368 319.368 110.516 315.139 110.272C308.045 109.863 299.087 111.65 293.164 120.111C286.372 129.813 283.493 142.884 282.67 153.238C282.67 153.238 282.67 153.239 282.67 153.24C282.392 156.745 281.276 166.588 281.626 177.532C281.976 188.475 283.697 200.638 289.583 209.238C293.272 214.627 298.922 216.133 303.861 215.454C308.8 214.776 313.192 212.264 315.781 209.471C317.059 208.092 317.981 206.702 317.544 204.966C317.326 204.098 316.723 203.426 316.146 203.035C315.57 202.644 314.993 202.44 314.415 202.286C312.103 201.67 309.327 201.783 308.089 201.616C305.205 201.228 302.426 198.648 301.033 195.114C299.641 191.58 299.687 187.353 301.986 183.952C304.294 180.539 307.018 180.059 309.885 180.679C312.751 181.299 315.551 183.471 316.528 185.135C317.52 186.824 318.046 190.235 318.318 193.546C318.454 195.201 318.555 196.834 318.729 198.301C318.903 199.767 319.069 201.036 319.744 202.256C320.848 204.255 323.043 205.854 325.629 205.432C328.215 205.009 330.265 202.612 331.369 198.621C333.448 191.101 337.3 168.335 353.173 159.193C359.565 165.488 366.369 169.581 373.606 170.991C380.879 172.407 388.484 171.062 396.218 167.205C404.097 175.172 411.156 179.916 417.477 181.894C424.084 183.961 429.984 182.946 434.481 179.701C443.475 173.212 447.044 158.961 446.087 144.157C445.131 129.354 439.498 113.732 428.423 104.396C417.772 95.4177 402.001 92.8921 382.044 102.603C378.5 85.9897 363.708 76.63 349.868 77.3879ZM350.09 81.4504C362.604 80.7652 376.475 89.5195 378.622 105.756C378.665 106.08 378.786 106.39 378.974 106.658C379.162 106.926 379.413 107.144 379.704 107.295C379.995 107.445 380.318 107.523 380.646 107.522C380.973 107.521 381.296 107.44 381.586 107.287C401.718 96.6675 415.938 99.1907 425.802 107.505C435.665 115.82 441.126 130.473 442.027 144.42C442.928 158.367 439.118 171.342 432.102 176.403C428.594 178.934 424.331 179.776 418.693 178.013C413.056 176.249 406.116 171.713 398.099 163.381C397.791 163.061 397.388 162.85 396.949 162.781C396.511 162.713 396.062 162.789 395.671 162.999C388.092 167.075 381.082 168.303 374.382 166.998C367.681 165.693 361.183 161.802 354.845 155.208C354.543 154.893 354.147 154.684 353.717 154.612C353.286 154.54 352.844 154.608 352.455 154.806C333.116 164.693 329.296 190.857 327.449 197.536C326.563 200.738 325.445 201.34 324.973 201.417C324.501 201.494 323.748 201.091 323.305 200.289C323.205 200.108 322.92 199.112 322.767 197.822C322.614 196.531 322.512 194.919 322.372 193.212C322.091 189.799 321.77 186.026 320.036 183.074C318.286 180.095 314.823 177.587 310.745 176.705C306.666 175.823 301.762 177.019 298.616 181.673H298.618C295.464 186.338 295.437 192.004 297.25 196.605C299.063 201.206 302.768 205.004 307.547 205.647C309.434 205.902 311.904 205.906 313.173 206.199C313.065 206.361 313.045 206.442 312.799 206.707C311.012 208.634 307.154 210.897 303.307 211.426C299.461 211.954 295.786 211.1 292.94 206.941C287.88 199.548 286.03 187.992 285.691 177.402C285.352 166.812 286.428 157.308 286.726 153.56C287.509 143.702 290.393 131.162 296.496 122.444C301.488 115.313 308.63 113.97 314.905 114.332C321.18 114.694 326.21 116.886 326.21 116.886C326.538 117.029 326.898 117.084 327.254 117.043C327.61 117.003 327.949 116.869 328.237 116.656C328.525 116.442 328.751 116.156 328.893 115.827C329.035 115.498 329.087 115.137 329.045 114.782C327.664 103.239 329.952 95.1124 333.976 89.7844C338.001 84.4564 343.834 81.793 350.09 81.4504Z" fill="#444444"/>
<path fill-rule="evenodd" clip-rule="evenodd" d="M330.76 192.565L319.364 186.802C319.089 185.799 318.738 184.88 318.282 184.104C315.555 179.462 305.756 174.745 300.302 182.812C294.849 190.878 300.155 202.599 307.818 203.631C311.007 204.061 318.665 203.368 314.29 208.09C309.913 212.81 297.797 217.638 291.262 208.09C280.315 192.097 284.123 160.653 284.699 153.4C285.502 143.294 288.383 130.487 294.831 121.277C305.745 105.684 327.027 115.023 327.027 115.023C321.323 67.3398 376.07 70.9409 380.637 105.488C463.102 61.9874 461.962 232.69 396.635 164.791C380.845 173.283 366.467 170.232 353.38 156.616C338.565 164.191 333.282 182.283 330.76 192.565Z" fill="#444444"/>
<path d="M383.912 203.943C383.657 203.864 383.389 203.837 383.123 203.862C382.857 203.887 382.599 203.964 382.363 204.089C382.126 204.214 381.917 204.384 381.747 204.59C381.577 204.796 381.449 205.033 381.37 205.289C376.844 220.016 378.617 231.969 386.323 240.554C386.683 240.955 387.187 241.197 387.726 241.226C388.264 241.256 388.792 241.07 389.194 240.71C389.393 240.532 389.554 240.316 389.67 240.075C389.785 239.834 389.852 239.572 389.866 239.305C389.881 239.039 389.842 238.772 389.753 238.52C389.664 238.268 389.527 238.036 389.348 237.837C382.661 230.387 380.991 220.368 385.258 206.485C385.337 206.229 385.364 205.961 385.339 205.695C385.314 205.429 385.237 205.171 385.112 204.935C384.987 204.699 384.817 204.49 384.611 204.319C384.405 204.149 384.168 204.021 383.912 203.943Z" fill="#444444"/>
<path fill-rule="evenodd" clip-rule="evenodd" d="M370.34 212.871C370.124 213.443 369.84 213.983 369.503 214.461C369.167 214.938 368.784 215.342 368.377 215.651C367.971 215.96 367.548 216.168 367.133 216.262C366.719 216.356 366.32 216.335 365.96 216.199C365.601 216.064 365.287 215.817 365.037 215.473C364.788 215.129 364.607 214.694 364.505 214.194C364.403 213.693 364.382 213.137 364.443 212.556C364.505 211.975 364.647 211.382 364.863 210.809C365.298 209.653 366.004 208.653 366.825 208.029C367.646 207.405 368.516 207.207 369.242 207.481C369.968 207.754 370.492 208.476 370.698 209.486C370.904 210.497 370.775 211.715 370.34 212.871Z" fill="#444444"/>
<path fill-rule="evenodd" clip-rule="evenodd" d="M399.225 218.265C399.01 218.837 398.726 219.378 398.389 219.855C398.052 220.332 397.67 220.736 397.263 221.046C396.857 221.355 396.434 221.562 396.019 221.656C395.604 221.75 395.206 221.729 394.846 221.594C394.487 221.458 394.173 221.211 393.923 220.867C393.673 220.523 393.492 220.088 393.39 219.588C393.288 219.087 393.268 218.531 393.329 217.95C393.39 217.37 393.533 216.776 393.748 216.204C394.184 215.047 394.889 214.047 395.711 213.423C396.532 212.799 397.401 212.602 398.128 212.875C398.854 213.148 399.378 213.87 399.583 214.88C399.789 215.891 399.661 217.109 399.225 218.265Z" fill="#444444"/>
<path d="M398.733 232.907C398.235 232.7 397.675 232.7 397.177 232.905C396.678 233.111 396.282 233.506 396.075 234.003C387.422 254.818 368.668 270.337 350.127 273.376C340.856 274.896 331.682 273.373 323.573 267.948C315.464 262.522 308.356 253.115 303.562 238.561C303.478 238.307 303.345 238.072 303.171 237.869C302.997 237.667 302.784 237.501 302.546 237.38C302.307 237.26 302.047 237.188 301.781 237.168C301.514 237.148 301.246 237.181 300.992 237.265C300.48 237.433 300.056 237.799 299.813 238.28C299.57 238.761 299.528 239.32 299.697 239.832C304.702 255.028 312.306 265.305 321.31 271.329C330.314 277.354 340.653 279.05 350.785 277.389C371.049 274.067 390.659 257.628 399.831 235.565C400.038 235.067 400.038 234.507 399.832 234.009C399.626 233.51 399.231 233.114 398.733 232.907Z" fill="#444444"/>
<path d="M351.682 243.881C351.199 243.64 350.641 243.6 350.129 243.771C349.618 243.941 349.195 244.308 348.954 244.791C348.834 245.03 348.763 245.29 348.745 245.557C348.726 245.823 348.76 246.091 348.845 246.344C348.929 246.597 349.063 246.831 349.239 247.033C349.414 247.235 349.627 247.4 349.866 247.519C349.866 247.519 356.14 250.671 364.371 250.828C364.91 250.838 365.431 250.634 365.82 250.261C366.208 249.887 366.433 249.374 366.443 248.835C366.448 248.568 366.401 248.303 366.303 248.054C366.206 247.805 366.06 247.578 365.875 247.386C365.69 247.193 365.468 247.039 365.224 246.933C364.979 246.826 364.715 246.768 364.448 246.763C357.211 246.625 351.682 243.881 351.682 243.881Z" fill="#444444"/>
<path fill-rule="evenodd" clip-rule="evenodd" d="M240.691 361.961C233.539 371.292 221.685 398.407 217.725 409.184C213.763 419.962 214.777 421.804 218.185 422.632C225.173 424.332 261.476 437.002 267.463 438.752C273.45 440.502 273.28 442.395 268.937 444.739C256.008 451.718 247.082 464.912 240.762 473.37C228.528 489.742 235.725 497.117 231.047 496.937C226.369 496.757 198.347 493.184 184.812 490.281C148.845 482.568 146.178 456.403 148.506 434.107C151.053 409.705 178.489 360.304 195.696 332.957C228.978 280.066 263.7 269.411 276.026 266.285C288.736 263.063 293.103 264.986 294.103 271.007C299.72 304.849 319.318 296.797 324.498 293.458C330.647 289.496 331.555 284.641 339.783 284.765C392.192 285.559 401.027 347.426 403.444 360.666C405.862 373.907 403.675 375.749 399.679 376.094C393.677 376.613 336.961 376.813 321.488 376.993C306.017 377.174 306.017 378.972 304.938 385.089C302.981 396.177 303.902 447.623 303.902 447.623C300.217 448.774 292.503 444.745 281.796 438.873C271.088 433.001 248.061 426.208 234.244 422.753C220.428 419.3 220.658 416.881 223.306 405.598C225.954 394.315 240.691 361.961 240.691 361.961ZM315.656 311.088C312.097 311.088 309.208 314.157 309.208 317.938C309.208 321.719 312.097 324.788 315.656 324.788C319.214 324.788 322.103 321.719 322.103 317.938C322.103 314.157 319.214 311.088 315.656 311.088ZM315.656 349.673C313.054 349.673 310.942 351.917 310.942 354.681C310.942 357.446 313.054 359.69 315.656 359.69C318.258 359.69 320.369 357.446 320.369 354.681C320.369 351.917 318.258 349.673 315.656 349.673Z" fill="#444444"/>
<path d="M258.849 443.16C258.36 442.933 257.8 442.909 257.294 443.094C256.787 443.28 256.375 443.658 256.148 444.147C255.921 444.636 255.897 445.196 256.082 445.702C256.267 446.209 256.646 446.621 257.135 446.848C257.135 446.848 266.158 451.041 276.481 456.637C286.804 462.233 298.494 469.395 303.292 474.571C303.658 474.967 304.167 475.2 304.706 475.221C305.245 475.241 305.77 475.047 306.165 474.68C306.56 474.314 306.794 473.805 306.814 473.266C306.835 472.727 306.64 472.202 306.274 471.807C300.572 465.655 288.867 458.726 278.419 453.062C267.971 447.398 258.849 443.16 258.849 443.16Z" fill="#444444"/>
<path d="M295.146 473.033C294.893 473.12 294.66 473.256 294.46 473.433C294.26 473.61 294.097 473.825 293.98 474.065C293.744 474.55 293.71 475.108 293.886 475.617C294.062 476.127 294.433 476.546 294.917 476.782C294.917 476.782 301.871 480.306 304.851 483.337C305.038 483.527 305.261 483.679 305.507 483.784C305.753 483.888 306.017 483.943 306.285 483.946C306.552 483.948 306.817 483.898 307.065 483.797C307.313 483.697 307.538 483.549 307.729 483.361C308.113 482.983 308.331 482.468 308.336 481.928C308.34 481.389 308.13 480.87 307.751 480.486C303.773 476.442 296.698 473.128 296.698 473.128C296.214 472.892 295.656 472.857 295.146 473.033Z" fill="#444444"/>
<path d="M289.787 479.907C289.256 479.816 288.71 479.939 288.269 480.25C287.829 480.561 287.53 481.035 287.438 481.566C287.347 482.097 287.47 482.643 287.78 483.084C288.091 483.524 288.564 483.823 289.095 483.915C289.095 483.915 296.718 485.251 303.843 488.961C304.08 489.084 304.339 489.16 304.605 489.183C304.871 489.206 305.139 489.177 305.394 489.097C305.649 489.016 305.885 488.887 306.09 488.715C306.295 488.543 306.463 488.333 306.587 488.096C306.835 487.618 306.884 487.06 306.722 486.546C306.56 486.032 306.2 485.603 305.722 485.354C297.903 481.283 289.787 479.907 289.787 479.907Z" fill="#444444"/>
<path d="M232.29 470.166C232.077 470.327 231.897 470.528 231.762 470.759C231.627 470.989 231.538 471.243 231.501 471.508C231.465 471.772 231.48 472.042 231.547 472.3C231.614 472.559 231.732 472.801 231.893 473.014C231.893 473.014 234.521 476.492 237.689 480.395C240.858 484.298 244.396 488.531 246.963 490.542C249.093 492.213 250.809 493.528 253.561 494.224C256.312 494.92 259.877 495.065 266.311 495.007C279.101 494.892 294.008 494.674 306.036 496.255C306.301 496.29 306.57 496.273 306.828 496.203C307.087 496.134 307.329 496.015 307.541 495.852C307.753 495.69 307.931 495.487 308.064 495.255C308.198 495.024 308.284 494.768 308.319 494.503C308.354 494.238 308.336 493.969 308.267 493.711C308.198 493.453 308.078 493.211 307.915 493C307.753 492.788 307.55 492.61 307.318 492.477C307.087 492.343 306.832 492.257 306.567 492.222C294.066 490.579 279.045 490.825 266.275 490.94C259.927 490.997 256.586 490.794 254.559 490.281C252.533 489.769 251.6 489.012 249.471 487.342C247.778 486.016 243.965 481.67 240.849 477.83C237.732 473.991 235.138 470.561 235.138 470.561C234.813 470.131 234.33 469.848 233.796 469.774C233.262 469.7 232.72 469.841 232.29 470.166Z" fill="#444444"/>
</g>
<defs>
<clipPath id="clip0_1095_11459">
<rect width="599" height="428.599" fill="white" transform="translate(147.888 77.3451)"/>
</clipPath>
</defs>
</svg>
