<svg width="785" height="782" viewBox="0 0 785 782" fill="none" xmlns="http://www.w3.org/2000/svg">
<path d="M311.404 161.118C344.178 140.566 392.602 80.6283 462.568 102.32C531.174 123.59 589.002 171.663 626.311 234.538C663.636 297.44 681.467 371.796 663.024 440.138C645.076 506.645 605.112 587.102 545.059 618.324C487.749 648.12 408.573 623.461 344.324 605.832C279.121 587.942 199.792 615.53 163.45 556.933C126.359 497.128 77.1172 370.673 90.1898 303.595C103.812 233.697 230.94 177.149 311.404 161.118Z" fill="#FFE9E1"/>
<path d="M575.607 312.781C579.83 308.248 584.757 304.778 589.348 300.932C592.6 298.208 596.134 299.519 597.333 303.561C597.49 304.09 597.599 304.633 597.797 305.445C599.082 304.841 600.248 304.222 601.466 303.733C606.433 301.74 611.396 299.623 616.949 300.52C619.424 300.921 621.265 302.184 621.794 304.832C622.005 305.887 622.676 306.364 623.638 306.803C627.207 308.433 628.085 312.1 625.542 315.063C624.602 316.158 624.348 317.107 624.608 318.479C625.229 321.76 623.844 324.268 621.161 326.047C619.923 326.866 619.232 327.721 619.273 329.317C619.338 331.831 617.887 333.671 616.037 335.2C613.874 336.987 611.597 338.638 609.096 339.901C601.48 343.745 594.367 348.651 586.003 350.926C584.792 351.255 583.566 351.529 581.894 351.94C585.277 355.173 582.697 356.877 580.565 358.79C565.749 372.083 551.651 386.17 536.252 398.816C530.928 403.189 525.355 407.22 519.134 410.24C517.538 411.015 517.003 412.009 517.012 413.768C517.083 427.444 516.997 441.122 517.088 454.798C517.121 459.686 516.148 464.153 513 468.004C512.849 468.188 512.713 468.394 512.621 468.612C512.566 468.741 512.611 468.913 512.611 469.307C519.319 470.17 522.4 475.173 525.473 480.524C535.866 498.62 546.454 516.605 557.033 534.593C559.021 537.972 559.745 541.538 560.444 545.381C561.493 551.143 560.75 556.505 559.249 561.891C557.225 569.157 552.298 572.475 544.773 572.052C542.459 571.922 540.136 571.899 537.818 571.898C427.603 571.89 317.389 571.889 207.175 571.887C206.615 571.887 206.055 571.891 205.495 571.885C198.818 571.804 196.217 569.879 194.477 563.505C193.257 559.034 192.111 554.54 191.08 550.023C189.984 545.214 190.819 540.572 193.253 536.369C204.591 516.789 216.056 497.283 227.412 477.713C229.265 474.519 231.514 471.832 234.917 470.302C234.808 469.868 234.823 469.577 234.685 469.433C230.27 464.837 229.297 459.255 229.322 453.081C229.457 419.329 229.374 385.576 229.434 351.824C229.438 349.39 228.851 347.466 227.333 345.484C219.88 335.753 215.173 324.627 212.072 312.892C207.216 294.519 202.816 276.025 198.091 257.617C197.522 255.4 198.444 254.379 200.242 253.38C192.806 246.735 187.225 238.839 181.776 230.846C180.064 228.335 177.808 225.562 178.432 222.593C179.167 219.089 178.493 216.198 177.309 213.088C176.544 211.079 177.273 209.09 178.673 207.538C179.503 206.617 179.533 205.902 179.17 204.776C177.893 200.819 179.97 197.923 184.114 197.767C185.108 197.729 185.864 197.634 186.576 196.719C188.37 194.415 190.522 193.872 193.411 194.879C198.832 196.768 202.609 200.816 206.353 204.894C206.935 205.527 207.275 206.413 208.162 206.705C208.668 206.707 208.864 206.332 209.121 206.035C212.582 202.039 215.938 202.537 218.371 207.427C223.395 217.527 228.344 227.654 229.143 239.319C231.472 238.992 233.198 237.793 234.99 236.859C237.013 235.805 237.946 236.363 238.743 238.402C244.126 252.173 249.64 265.894 255.002 279.673C255.857 281.87 256.83 282.843 259.431 282.834C292.783 282.72 326.136 282.766 359.488 282.722C360.833 282.72 362.913 283.539 363.403 281.997C364.052 279.957 364.346 277.384 362.694 275.586C357.889 270.362 354.473 264.4 352.467 257.616C352.134 256.49 351.458 256.115 350.346 256.159C347.274 256.282 344.457 255.295 341.984 253.627C334.703 248.714 328.79 242.618 328.637 233.249C328.579 229.662 327.344 228.673 324.3 227.728C317.444 225.597 314.801 220.568 316.199 213.413C316.271 213.042 316.24 212.65 316.268 212.044C312.559 211.92 309.575 210.7 308.537 206.832C307.43 202.704 308.686 199.787 313.357 195.421C313.398 194.492 312.599 194.097 312.071 193.548C306.827 188.098 307.889 181.421 314.574 177.896C314.716 177.821 314.85 177.712 315 177.678C318.793 176.83 320.497 175.567 319.872 170.651C319.02 163.949 328.223 157.763 335.417 159.095C339.058 159.769 342.212 161.436 344.968 163.834C346.131 164.846 346.853 165.053 348.106 163.797C353.644 158.254 364.016 158.2 369.738 163.554C373.863 167.413 374.235 172.222 372.885 177.27C372.369 179.199 372.721 180.059 374.585 180.576C375.964 180.958 377.276 181.584 378.618 182.101C380.459 182.812 382.3 182.767 383.889 181.602C389.132 177.757 395.15 177.298 401.282 177.679C408.701 178.139 415.566 180.134 421.098 185.546C424.548 188.921 426.762 193.005 427.605 197.608C429.095 205.739 432.972 212.038 440.167 216.225C440.826 216.608 441.595 217.001 441.828 218.243C436.906 222.617 430.476 223.31 424.293 224.611C430.646 248.459 425.032 268.036 404.067 282.747C405.372 282.747 406.376 282.747 407.379 282.747C438.012 282.75 468.645 282.753 499.278 282.758C509.694 282.759 517.049 290.132 517.058 300.607C517.07 315.324 517.062 330.04 517.063 344.757C517.063 345.63 517.063 346.502 517.063 347.388C518.226 347.68 518.803 346.88 519.471 346.416C532.48 337.392 545.476 328.35 558.471 319.306C561.281 317.351 561.336 317.359 563.156 320.339C563.989 321.702 564.837 323.056 565.694 324.404C565.767 324.519 565.961 324.558 566.284 324.731C568.891 320.447 572.032 316.548 575.607 312.781ZM297.349 471.654C278.795 471.653 260.241 471.715 241.687 471.612C236.308 471.582 232.584 473.84 229.95 478.415C223.925 488.876 217.811 499.286 211.731 509.715C206.295 519.039 200.85 528.357 195.423 537.686C193.934 540.244 193.141 542.957 193.783 545.95C195.078 551.984 199.578 555.337 206.448 555.337C319.212 555.337 431.976 555.335 544.739 555.328C555.645 555.328 560.918 546.276 555.456 536.895C544.273 517.688 532.983 498.544 521.903 479.278C518.831 473.935 514.741 471.559 508.482 471.57C438.265 471.694 368.047 471.652 297.349 471.654ZM407.255 455.996C421.491 455.997 435.726 455.991 449.962 456.009C451.698 456.011 452.992 455.949 453.021 453.533C453.229 435.787 453.555 418.044 453.874 400.3C453.892 399.341 453.304 398.059 454.59 397.525C455.783 397.031 456.481 398.126 457.225 398.793C461.515 402.636 465.794 406.495 470.634 409.652C476.231 413.302 482.296 415.624 489.056 415.665C496.655 415.712 503.972 414.185 511.006 411.337C523.047 406.461 533.13 398.638 542.797 390.181C555.377 379.176 567.241 367.392 579.743 356.303C580.804 355.362 580.885 354.683 580.166 353.486C574.026 343.277 567.953 333.028 561.846 322.8C561.49 322.204 561.271 321.456 560.203 321.098C558.252 322.433 556.142 323.852 554.057 325.306C535.105 338.523 516.142 351.724 497.231 365C495.291 366.362 494.124 366.288 492.441 364.491C482.548 353.926 472.42 343.581 462.562 332.985C454.843 324.688 446.256 317.146 440.071 307.483C439.126 306.006 437.762 304.815 436.247 303.887C430.882 300.601 425.009 298.577 418.955 297.02C418.868 296.998 418.728 297.184 418.495 297.362C421.438 301.227 424.157 305.155 426.347 309.433C432.522 321.498 435.396 334.468 436.786 347.814C437.02 350.058 437.778 350.749 439.865 350.545C443.493 350.19 446.858 351.082 449.942 352.985C457.595 357.708 458.588 367.943 452.083 374.134C448.056 377.967 443.183 378.039 438.017 378.13C431.366 378.247 426.097 376.365 422.572 370.517C422.509 370.413 422.292 370.402 422.117 370.336C421.447 370.981 421.345 371.888 421.084 372.704C417.911 382.595 414.776 392.498 411.593 402.386C406.16 419.269 400.697 436.142 395.253 453.021C394.431 455.57 394.686 455.934 397.418 455.971C400.537 456.014 403.656 455.99 407.255 455.996ZM330.222 299.042C320.09 301.32 309.951 303.566 299.828 305.884C289.557 308.235 279.302 310.651 269.043 313.054C267.162 313.494 265.719 313.443 264.853 311.213C260.108 298.998 255.246 286.827 250.438 274.635C246.07 263.558 241.699 252.482 237.382 241.386C236.684 239.593 235.904 239.108 234.014 240.034C223.606 245.131 213.167 250.168 202.665 255.07C200.712 255.982 200.385 256.932 200.89 258.893C203.696 269.789 206.337 280.727 209.119 291.629C212.257 303.926 214.777 316.411 220.005 328.086C225.332 339.981 232.535 350.362 243.692 357.574C250.119 361.728 257.216 363.044 264.744 362.679C274.49 362.206 284.048 360.23 293.712 359.098C299.291 358.445 299.282 358.361 299.44 352.992C299.468 352.032 299.343 350.833 300.652 350.767C301.978 350.702 301.975 351.891 302.025 352.858C302.053 353.417 302.042 353.978 302.042 354.537C302.043 357.078 302.043 359.618 302.043 362.158C303.082 361.217 303.629 360.245 304.232 359.308C310.499 349.578 318.492 342.489 330.799 342.117C332.088 342.079 332.421 341.557 332.482 340.39C332.612 337.919 332.775 335.444 333.081 332.991C334.825 319.009 339.253 306.096 348.818 294.756C342.405 296.23 336.508 297.585 330.222 299.042ZM506.392 469.073C507.872 469.184 508.993 468.491 510.007 467.505C513.176 464.426 514.514 460.676 514.495 456.276C514.434 442.758 514.478 429.24 514.466 415.722C514.465 414.86 514.641 413.961 514.2 413.148C513.604 412.872 513.078 413.122 512.571 413.332C507.293 415.512 501.806 416.925 496.145 417.557C493.955 417.802 493.461 418.816 493.49 420.843C493.592 428.201 493.531 435.56 493.531 442.919C493.532 452.618 487.538 458.625 477.809 458.626C408.06 458.633 338.311 458.635 268.561 458.632C258.952 458.631 252.861 452.489 252.863 442.846C252.867 417.489 252.866 392.133 252.89 366.777C252.892 365.242 252.824 364.049 250.935 363.519C244.379 361.679 239.073 357.725 234.121 353.218C233.589 352.734 233.243 351.821 231.982 352.148C231.982 355.152 231.981 358.177 231.983 361.203C231.996 392.718 232.014 424.233 232.017 455.748C232.017 459.795 232.926 463.526 235.645 466.64C236.926 468.108 238.345 469.121 240.556 469.119C329.022 469.068 417.489 469.076 506.392 469.073ZM351.582 402.879C350.561 400.81 350.426 398.409 349.043 396.072C346.994 400.44 344.058 403.315 339.834 405.547C336.936 407.079 334.217 407.571 331.292 407.692C327.973 407.829 326.489 405.964 326.722 402.687C326.964 399.286 329.268 397.168 332.374 397.652C335.539 398.145 338.414 399.227 339.988 402.569C343.844 401.134 345.4 397.925 346.946 394.666C347.781 392.906 347.849 391.277 347.206 389.378C344.34 380.904 341.861 372.292 338.764 363.906C337.156 359.55 336.903 356.024 340.913 353.01C342.435 351.865 341.887 350.84 340.689 349.713C335.653 344.977 329.991 344.58 323.549 346.386C313.981 349.069 300.513 366.434 301.444 377.814C301.652 380.354 301.407 382.929 301.45 385.487C301.487 387.687 301.215 389.91 301.726 392.241C304.861 390.758 307.878 390.827 310.833 392.274C313.508 393.585 314.206 396.358 312.721 399.474C311.456 402.127 309.442 402.79 306.555 401.349C304.945 400.545 303.439 399.533 301.763 398.541C301.763 402.95 301.614 407.087 301.795 411.21C302.141 419.124 302.217 427.042 301.896 434.946C301.669 440.518 300.575 446.043 300.57 451.647C300.566 455.994 300.563 455.994 304.81 455.996C324.321 456.002 343.832 456.004 363.343 456.016C368.488 456.019 368.569 455.819 366.986 450.932C361.842 435.05 356.773 419.144 351.582 402.879ZM255.378 417.03C255.39 425.907 255.346 434.785 255.431 443.662C255.502 451.053 260.506 455.968 267.843 455.991C275.6 456.015 283.358 456.022 291.116 455.999C297.982 455.979 297.76 456.858 298.09 449.327C298.495 440.073 299.75 430.864 299.429 421.564C299.177 414.295 299.105 407.019 298.985 399.745C298.935 396.724 299.193 393.709 297.361 390.962C296.53 389.717 296.503 388.088 296.437 386.549C296.261 382.426 296.868 378.407 298.098 374.497C299.344 370.534 299.095 366.441 299.391 362.393C299.472 361.281 298.972 360.769 297.799 360.934C294.085 361.457 290.37 361.976 286.649 362.445C277.868 363.551 269.172 365.497 260.241 365.103C258.746 365.037 257.252 364.963 255.378 364.876C255.378 382.222 255.378 399.386 255.378 417.03ZM424.153 245.548C424.584 239.767 424.17 234.103 422.623 228.456C421.842 225.608 420.431 224.533 417.645 224.492C411.265 224.398 405.365 222.541 399.964 219.174C398.651 218.355 397.774 218.363 396.709 219.582C394.151 222.508 390.926 224.611 387.545 226.457C377.322 232.04 366.399 235.88 355.328 239.352C353.911 239.796 353.057 239.498 352.052 238.339C349.857 235.805 346.428 235.847 344.581 238.339C342.341 241.364 342.212 244.698 343.589 248.124C344.965 251.548 347.698 253.287 351.211 253.374C353.548 253.432 354.34 254.386 354.919 256.452C357.222 264.661 361.441 271.692 368.169 277.098C368.965 277.738 370.563 278.268 369.717 279.61C368.735 281.169 367.669 279.743 366.688 279.219C366.572 279.157 366.394 279.211 366.261 279.211C366.174 285.182 367.215 291.102 367.373 297.079C367.432 299.31 368.633 300.792 370.808 301.462C373.411 302.263 376.058 302.92 378.758 303.19C384.384 303.752 389.937 303.658 395.108 300.836C397.286 299.647 398.513 298.081 398.256 295.464C397.992 292.763 397.814 290.046 397.774 287.334C397.745 285.371 396.929 285.066 395.207 285.5C392.724 286.126 390.182 286.461 387.606 286.407C386.705 286.389 385.668 286.349 385.587 285.202C385.503 284.001 386.555 283.921 387.443 283.845C388.08 283.79 388.722 283.779 389.361 283.771C394.281 283.708 398.854 282.277 403.041 279.835C415.989 272.281 422.409 260.584 424.153 245.548ZM505.538 286.283C503.657 285.531 501.707 285.235 499.679 285.237C468.738 285.266 437.797 285.273 406.856 285.306C406.213 285.306 405.439 284.999 404.823 285.834C410.353 289.104 414.687 294.228 421.57 295.141C425.871 295.711 429.64 298.323 434.264 298.258C448.892 298.054 463.525 298.177 478.156 298.192C487.468 298.202 493.501 304.205 493.519 313.481C493.537 323.235 493.522 332.989 493.522 342.743C493.523 348.659 493.531 354.576 493.519 360.492C493.517 361.493 493.595 362.464 494.567 362.998C495.571 363.551 496.201 362.668 496.88 362.197C502.071 358.602 507.218 354.943 512.436 351.388C513.898 350.392 514.533 349.273 514.525 347.446C514.458 331.696 514.472 315.945 514.497 300.195C514.507 293.775 511.592 289.236 505.538 286.283ZM352.94 368.533C352.975 368.931 353.012 369.329 353.046 369.727C353.476 374.824 353.52 379.835 352.206 384.906C351.459 387.786 350.066 390.699 351.143 393.985C357.14 412.278 363.004 430.614 368.95 448.923C369.352 450.161 369.557 451.533 370.846 452.516C369.573 398.98 366.947 345.526 364.236 291.609C360.901 293.157 358.212 294.528 356.498 297.36C351.12 306.251 345.69 315.111 340.285 323.986C339.998 324.457 339.65 324.925 339.934 325.866C344.858 328.657 349.998 331.56 355.127 334.482C358.548 336.43 358.553 336.647 355.889 339.663C352.978 342.956 350.109 346.286 347.228 349.606C346.641 350.283 346.108 350.921 346.841 351.905C350.423 356.716 352.033 362.279 352.94 368.533ZM420.637 320.361C414.406 312.021 408.176 303.682 401.945 295.342C401.722 295.417 401.5 295.492 401.277 295.566C398.602 346.57 395.927 397.574 393.252 448.578C395.476 444.67 396.59 440.505 397.913 436.413C404.795 415.134 411.602 393.83 418.606 372.591C420.084 368.11 420.839 363.468 422.278 359.02C422.908 357.073 422.607 356.058 421.366 354.677C416.396 349.148 411.529 343.526 406.652 337.915C404.888 335.885 405.012 335.201 407.337 333.867C409.833 332.435 412.375 331.085 414.878 329.665C417.772 328.023 420.644 326.343 423.717 324.57C422.615 323.068 421.725 321.854 420.637 320.361ZM450.546 316.867C463.839 330.831 477.131 344.795 490.5 358.84C491.165 357.819 491.002 357.078 491.003 356.382C491.015 341.83 491.061 327.277 490.986 312.725C490.949 305.613 485.923 300.747 478.789 300.737C465.516 300.72 452.242 300.744 438.969 300.774C438.217 300.776 437.411 300.529 436.517 301.086C440.215 303.277 442.625 306.528 444.867 309.939C446.453 312.351 448.264 314.584 450.546 316.867ZM585.988 316.733C584.772 315.352 585.94 314.76 586.882 314.163C589.609 312.432 591.937 310.234 594.022 307.811C595.345 306.275 595.614 304.262 594.136 302.774C592.552 301.18 591.042 302.575 589.74 303.641C587.452 305.514 585.213 307.447 582.941 309.339C577.306 314.032 572.494 319.441 568.589 325.659C567.784 326.94 567.683 328.011 568.537 329.386C571.615 334.344 574.523 339.407 577.563 344.389C580.955 349.947 581.05 349.912 587.45 347.921C593.159 346.145 598.129 342.859 603.422 340.24C607.291 338.325 611.072 336.207 614.373 333.374C615.731 332.209 617.072 330.951 616.827 328.841C615.585 328.583 614.653 329.116 613.701 329.455C609.333 331.013 604.99 332.637 600.889 334.834C600.155 335.228 599.343 335.55 598.805 334.59C598.26 333.62 598.997 333.126 599.702 332.699C600.179 332.41 600.686 332.166 601.189 331.922C605.589 329.793 610.182 328.152 614.789 326.547C616.838 325.833 618.84 325.02 620.461 323.519C621.534 322.524 622.424 321.422 622.377 319.814C622.337 318.473 621.85 317.841 620.432 318.324C618.464 318.993 616.478 319.608 614.517 320.299C610.822 321.601 607.147 322.956 603.686 324.824C602.962 325.215 602.141 325.604 601.596 324.65C601.027 323.658 601.891 323.216 602.558 322.799C603.167 322.419 603.819 322.105 604.464 321.788C608.999 319.559 613.764 317.929 618.557 316.372C620.081 315.877 621.631 315.417 622.822 314.274C623.83 313.307 625.238 312.454 624.37 310.683C623.506 308.919 622.107 308.746 620.328 309.196C613.024 311.047 605.782 313.019 599.508 317.457C598.887 317.897 598.18 318.226 597.61 317.449C597.069 316.711 597.511 316.095 598.083 315.578C599.401 314.386 600.948 313.542 602.515 312.74C607.169 310.357 612.138 308.857 617.174 307.541C618.231 307.265 619.491 307.097 619.427 305.539C619.372 304.212 618.454 303.605 617.354 303.184C615.807 302.59 614.2 302.599 612.621 302.906C605.06 304.376 598.013 306.862 592.557 312.718C590.842 314.558 589.007 316.424 585.988 316.733ZM490.979 422.85C490.979 421.285 490.979 419.719 490.979 417.907C476.463 418.717 466.421 410.409 456.446 401.397C456.265 402.28 456.153 402.576 456.15 402.874C455.96 419.805 455.794 436.737 455.574 453.668C455.551 455.466 456.285 456.029 457.997 456.017C464.787 455.969 471.577 456.025 478.367 456.011C486.045 455.996 490.962 451.093 490.979 443.445C490.994 436.735 490.98 430.024 490.979 422.85ZM180.673 221.936C180.442 223.641 181.193 225.118 182.01 226.458C187.484 235.427 193.637 243.872 201.366 251.079C202.395 252.038 203.366 252.162 204.61 251.553C211.361 248.248 218.122 244.965 224.903 241.722C226.079 241.159 226.616 240.379 226.49 239.093C226.412 238.298 226.436 237.492 226.344 236.7C225.112 226.066 220.404 216.699 215.558 207.401C214.515 205.399 212.649 205.451 211.367 207.309C210.495 208.574 210.308 209.945 210.91 211.405C212.067 214.21 213.011 217.113 214.733 219.656C215.192 220.334 215.742 221.124 214.897 221.77C213.96 222.487 213.277 221.759 212.715 221.02C211.591 219.542 210.68 217.914 210.152 216.158C208.117 209.383 203.252 204.773 198.173 200.342C196.365 198.764 194.287 197.529 191.906 196.924C190.479 196.562 189.35 197.037 188.63 198.262C187.847 199.594 188.894 200.305 189.763 201.025C190.194 201.382 190.647 201.713 191.076 202.072C195.874 206.089 200.495 210.272 203.592 215.833C204.018 216.599 204.552 217.55 203.519 218.157C202.473 218.772 201.974 217.866 201.516 217.069C197.545 210.167 191.323 205.471 185.309 200.576C184.383 199.822 183.391 199.885 182.443 200.601C181.477 201.331 180.868 202.233 181.285 203.49C181.738 204.857 182.345 206.08 183.502 207.099C188.007 211.063 192.345 215.213 196.172 219.848C196.887 220.714 198.443 221.954 196.912 223.054C195.517 224.056 194.976 222.184 194.284 221.376C190.332 216.763 186.066 212.486 181.319 208.526C179.255 210.151 179.304 212.052 180.054 214.024C180.807 216.006 182.195 217.567 183.74 218.991C187.624 222.57 191.445 226.214 194.688 230.401C195.308 231.202 196.531 232.282 195.173 233.25C193.953 234.119 193.394 232.702 192.801 231.937C189.899 228.19 186.457 224.956 183.085 221.658C182.388 220.976 181.557 219.858 180.673 221.936ZM258.285 285.248C256.934 285.508 257.709 286.306 257.926 286.867C259.079 289.845 260.467 292.748 261.4 295.792C262.184 298.352 263.37 299.272 266 298.353C267.008 298.001 268.217 298.197 269.334 298.196C286.202 298.187 303.069 298.187 319.936 298.182C321.293 298.182 322.631 298.134 323.98 297.826C331.61 296.08 339.213 294.171 346.908 292.775C351.817 291.884 354.973 288.741 358.976 285.253C325.067 285.253 291.849 285.253 258.285 285.248ZM423.864 312.34C421.398 307.29 418.218 302.748 414.733 298.323C411.823 294.629 408.003 293.924 403.565 293.146C404.298 294.215 404.805 295.009 405.366 295.763C411.994 304.678 418.622 313.594 425.269 322.496C427.24 325.135 427.219 325.417 424.464 327.003C421.001 328.996 417.526 330.968 414.061 332.958C412.282 333.98 410.516 335.022 408.495 336.2C413.986 342.529 419.285 348.637 424.721 354.903C427.057 352.498 429.65 351.304 432.47 350.582C433.469 350.327 433.683 349.789 433.542 348.827C433.229 346.699 433.08 344.546 432.755 342.42C431.182 332.111 428.538 322.111 423.864 312.34ZM295.43 300.733C286.085 300.735 276.741 300.732 267.396 300.747C266.157 300.749 264.846 300.608 263.842 301.746C264.755 304.051 265.735 306.239 266.482 308.504C267.079 310.312 267.991 310.776 269.871 310.327C278.71 308.215 287.582 306.244 296.439 304.205C300.822 303.196 305.197 302.148 309.575 301.117C309.557 300.99 309.539 300.862 309.52 300.734C304.983 300.734 300.447 300.734 295.43 300.733ZM336.549 333.01C335.834 335.735 336.222 338.571 335.713 341.319C335.593 341.966 335.695 342.645 336.368 342.98C339.358 344.471 342.063 346.372 344.453 349.013C347.982 344.934 351.24 341.168 354.495 337.406C352.817 335.896 339.439 328.285 337.554 327.732C336.932 329.289 336.634 330.911 336.549 333.01ZM452.384 358.751C449.271 354.339 444.9 352.585 439.678 353.141C434.91 353.648 431.137 355.969 429.362 360.602C427.805 364.665 428.558 368.524 431.575 371.721C434.548 374.87 438.3 376.174 442.632 375.851C451.386 375.198 456.423 366.699 452.384 358.751ZM349.939 378.284C350.493 369.529 349.318 361.198 344.224 353.714C340.265 356.396 339.658 357.933 340.896 361.918C342.386 366.715 343.899 371.506 345.442 376.286C346.56 379.752 347.744 383.196 349.052 387.11C349.984 383.979 349.5 381.309 349.939 378.284ZM364.719 207.276C361.59 210.067 358.461 212.858 354.896 216.037C356.493 217.425 357.877 218.504 359.11 219.735C360.204 220.827 361.034 220.892 362.025 219.63C364.337 216.684 366.665 213.747 369.084 210.889C370.404 209.329 369.579 208.418 368.48 207.282C367.289 206.049 366.247 205.538 364.719 207.276ZM356.426 210.466C358.396 208.064 360.344 205.643 362.348 203.27C363.188 202.276 363.264 201.386 362.128 200.689C361.012 200.003 360.39 197.66 358.495 199.28C355.41 201.919 352.427 204.679 349.408 207.394C348.734 208 348.418 208.721 349.187 209.441C350.668 210.828 351.875 212.545 353.878 213.555C354.702 212.56 355.458 211.647 356.426 210.466ZM340.402 316.297C340.085 317.346 339.768 318.394 339.45 319.443C346.049 310.71 350.55 300.808 357.064 292.179C348.633 298.036 344.105 306.661 340.402 316.297ZM404.359 290.673C404.8 290.723 405.237 291.036 405.931 290.534C404.02 289.696 402.687 288.051 400.39 287.841C400.312 290.767 402.627 290.056 404.359 290.673ZM363.644 288.396C364.209 287.939 364.407 287.446 363.745 286.777C362.691 287.177 361.722 287.696 360.578 288.895C361.831 288.711 362.586 288.6 363.644 288.396Z" fill="#444444"/>
<path d="M520.281 183.817C530.674 183.698 540.827 183.566 550.981 183.468C555.251 183.427 556.804 184.668 557.978 188.822C558.886 192.033 558.875 195.311 558.637 198.581C557.832 209.605 558.435 220.64 558.293 231.669C558.292 231.748 558.287 231.834 558.312 231.907C560.425 238.079 556.794 240.671 550.145 240.736C537.51 240.86 524.873 240.788 512.236 240.797C508.877 240.799 505.516 240.869 502.16 240.767C500.474 240.715 499.357 241.239 498.354 242.649C494.739 247.73 490.998 252.721 487.287 257.733C486.924 258.221 486.688 258.899 485.879 258.98C484.822 258.374 485.18 257.303 485.171 256.424C485.126 252.106 485.097 247.786 485.181 243.469C485.216 241.679 484.539 240.97 482.778 241.157C481.987 241.241 481.18 241.181 480.38 241.175C474.809 241.133 472.325 238.884 472.707 233.178C473.243 225.185 473.083 217.201 473.077 209.215C473.073 203.066 473.328 196.916 472.763 190.761C472.313 185.87 474.422 183.671 479.505 183.585C484.776 183.495 490.053 183.783 495.328 183.811C503.565 183.854 511.803 183.819 520.281 183.817ZM493.579 214.772C489.772 214.772 485.965 214.772 482.157 214.772C482.164 215.046 482.171 215.32 482.177 215.594C486.715 215.594 491.254 215.522 495.788 215.631C497.548 215.673 498.34 214.958 498.899 213.379C500.447 209.014 502.13 204.697 503.777 200.368C504.1 199.521 504.163 198.476 505.239 198.098C506.14 198.659 506.136 199.611 506.355 200.431C507.528 204.826 508.735 209.214 509.792 213.637C510.139 215.09 510.841 215.649 512.261 215.622C514.577 215.577 516.914 215.411 519.207 215.646C521.884 215.921 523.501 214.956 524.727 212.584C525.668 210.76 526.491 208.727 528.389 207.302C529.701 209.377 529.871 211.567 530.459 213.598C530.888 215.08 531.635 215.665 533.176 215.638C537.329 215.564 541.485 215.622 545.64 215.598C546.862 215.592 548.117 215.797 549.478 215.344C548.674 214.485 547.838 214.795 547.107 214.785C544.071 214.741 541.035 214.789 537.999 214.755C530.896 214.676 532.257 215.717 530.351 208.838C529.974 207.475 530.122 205.818 528.668 204.857C527.326 205.675 526.697 206.994 526.257 208.18C524.059 214.114 519.78 215.874 513.898 214.748C513.743 214.718 513.578 214.72 513.42 214.731C511.903 214.842 511.106 214.163 510.721 212.662C509.768 208.953 508.762 205.254 507.63 201.597C506.943 199.379 506.769 196.964 505.467 194.852C504.471 195.405 504.41 196.271 504.135 196.978C502.227 201.885 500.182 206.748 498.532 211.741C497.724 214.186 496.481 215.158 493.579 214.772Z" fill="#444444"/>
<path d="M288.731 210.694C282.477 207.35 276.582 207.377 269.717 209.205C256.506 212.722 243.091 211.821 230.182 206.777C224.918 204.721 220.135 201.868 216.247 197.682C209.258 190.157 209.215 180.939 216.121 173.38C221.676 167.301 228.852 164.121 236.627 162.138C252.326 158.134 267.641 159.144 282.412 166.06C286.592 168.017 290.161 170.826 293.126 174.375C298.78 181.145 298.791 190.076 292.932 196.673C291.264 198.552 290.807 200.096 292.059 202.35C292.978 204.003 293.466 205.905 294.062 207.723C294.46 208.939 294.837 210.32 293.866 211.361C292.869 212.429 291.609 211.566 290.48 211.339C289.939 211.23 289.431 210.959 288.731 210.694ZM247.616 208.36C255.783 208.655 264.088 209.077 271.809 206.135C277.182 204.087 281.756 204.621 286.56 207.15C288.037 207.928 289.643 208.734 291.611 208.575C291.18 205.997 290.257 203.775 289.066 201.731C287.817 199.589 288.031 198.201 289.883 196.382C296.349 190.034 296.581 182.335 290.788 175.389C288.342 172.456 285.278 170.268 281.896 168.576C267.602 161.421 252.672 160.615 237.347 164.361C230.981 165.917 225.135 168.624 220.043 172.818C211.852 179.564 211.39 189.618 218.936 197.052C221.29 199.371 224.038 201.142 226.968 202.658C233.317 205.942 240.18 207.365 247.616 208.36Z" fill="#444444"/>
<path d="M257.275 529.043C252.974 528.899 248.888 529.431 244.863 528.358C242.657 527.77 240.653 526.86 238.85 525.493C235.723 523.122 235.127 521.122 236.472 517.417C240.456 506.45 244.449 495.486 248.455 484.526C249.776 480.912 252.691 479.152 257.427 479.141C266.865 479.119 276.303 479.137 285.741 479.137C353.166 479.138 420.591 479.14 488.017 479.141C494.564 479.141 496.558 480.556 498.812 486.738C502.562 497.018 506.325 507.294 510.087 517.571C511.332 520.971 510.721 523.118 507.869 525.34C504.858 527.684 501.451 528.747 497.635 528.835C483.642 529.159 469.651 528.934 455.658 528.911C414.955 528.844 374.251 529.013 333.547 529.032C317.798 529.04 302.05 528.854 286.301 528.837C276.705 528.826 267.11 528.969 257.275 529.043ZM278.901 491.693C276.264 491.693 273.627 491.693 270.991 491.694C268.405 491.694 265.82 491.694 263.235 491.694C263.249 492.011 263.264 492.327 263.279 492.644C269.185 492.568 275.093 492.869 281.214 492.451C280.584 491.479 279.874 491.85 278.901 491.693ZM342.667 492.64C347.858 492.64 353.048 492.64 358.238 492.64C358.229 492.405 358.221 492.171 358.212 491.937C352.33 491.937 346.448 491.937 340.384 491.937C340.985 492.846 341.681 492.527 342.667 492.64ZM458.614 491.746C456.415 491.848 454.183 491.568 452.048 492.311C457.249 492.311 462.449 492.311 467.649 492.311C467.648 492.122 467.646 491.934 467.644 491.745C464.794 491.745 461.943 491.745 458.614 491.746ZM406.701 501.136C407.84 501.136 408.978 501.136 410.116 501.136C407.768 500.07 396.465 500.167 394.239 501.136C398.624 501.136 402.433 501.136 406.701 501.136ZM311.778 513.688C314.199 513.688 316.62 513.688 319.041 513.688C315.116 512.839 311.199 512.811 307.283 513.686C308.627 513.686 309.972 513.686 311.778 513.688ZM452.091 513.219C449.11 513.219 446.129 513.219 443.148 513.219C443.15 513.321 443.152 513.424 443.154 513.526C446.726 513.526 450.297 513.526 453.868 513.526C453.869 513.447 453.871 513.368 453.872 513.289C453.406 513.267 452.94 513.245 452.091 513.219Z" fill="#444444"/>
<path d="M366.7 549.935C355.667 549.933 344.874 549.943 334.081 549.922C330.049 549.915 328.59 548.257 329 544.264C329.016 544.105 329.063 543.943 329.046 543.787C328.386 537.434 331.758 535.707 337.708 535.743C358.981 535.871 380.255 535.796 401.528 535.797C402.888 535.797 404.247 535.768 405.578 536.136C407.378 536.634 408.648 537.819 408.778 539.619C408.949 541.989 408.941 544.457 408.051 546.703C407.132 549.025 405.195 549.944 402.689 549.937C390.773 549.904 378.856 549.929 366.7 549.935Z" fill="#444444"/>
<path d="M402.089 275.279C398.515 276.534 395.054 276.59 391.598 275.714C390.248 275.371 388.544 274.998 388.57 273.19C388.594 271.473 390.3 271.3 391.544 270.933C394.996 269.914 398.446 269.999 401.846 271.23C402.764 271.562 403.667 271.982 403.836 273.068C404.02 274.249 403.082 274.706 402.089 275.279Z" fill="#444444"/>
<path d="M406.559 245.729C406.362 243.639 406.799 241.87 407.8 240.288C409.34 237.854 411.945 237.963 413.241 240.532C414.427 242.885 414.294 245.311 413.177 247.662C412.535 249.013 411.607 250.079 409.913 250.021C408.286 249.966 407.602 248.798 407.047 247.526C406.827 247.021 406.732 246.462 406.559 245.729Z" fill="#444444"/>
<path d="M387.283 237.724C388.627 237.344 389.622 237.614 390.465 238.537C392.684 240.967 392.119 246.617 389.448 248.499C387.87 249.611 386.163 249.045 385.169 247.08C383.64 244.058 384.48 240.065 387.283 237.724Z" fill="#444444"/>
<path d="M396.901 260.829C397.622 259.416 398.491 259.987 399.381 260.373C400.604 260.904 401.905 261.157 402.941 260.098C404.071 258.943 403.386 257.718 402.736 256.604C401.541 254.555 400.849 252.404 401.139 250C401.234 249.218 401.484 248.518 402.367 248.52C403.353 248.523 403.469 249.325 403.371 250.073C403.056 252.482 404.501 254.312 405.348 256.345C406.422 258.919 406.022 261.056 404.272 262.409C402.509 263.771 399.405 263.678 397.575 262.208C397.191 261.9 396.904 261.532 396.901 260.829Z" fill="#444444"/>
<path d="M395.85 232.673C395.993 234.619 394.771 234.429 393.847 233.933C389.244 231.462 385.285 232.447 381.687 235.926C381.073 236.519 380.295 236.853 379.55 236.225C378.807 235.598 379.228 234.902 379.745 234.365C383.583 230.379 390.244 227.875 395.85 232.673Z" fill="#444444"/>
<path d="M408.664 232.394C413.266 231.913 416.818 233.56 419.682 236.787C420.363 237.555 421.592 238.559 420.361 239.595C419.259 240.524 418.557 239.248 417.885 238.509C414.834 235.148 411.301 233.585 406.816 235.505C406.041 235.837 405.182 236.052 404.738 235.118C404.197 233.979 405.163 233.556 405.96 233.217C406.759 232.876 407.619 232.677 408.664 232.394Z" fill="#444444"/>
<path d="M349.755 242.578C350.634 241.694 351.436 240.941 352.571 241.665C353.104 242.004 353.211 242.955 352.787 243.111C350.696 243.882 352.562 247.011 350.206 247.368C349.332 247.5 348.976 246.474 348.854 245.657C348.693 244.579 349.073 243.618 349.755 242.578Z" fill="#444444"/>
<path d="M431.887 365.701C431.535 361.437 433.321 358.52 436.872 356.743C440.48 354.939 444.031 355.361 447.28 357.683C450.572 360.035 451.637 364.124 450.045 367.706C448.339 371.541 443.595 373.95 439.509 373.024C435.595 372.137 432.927 369.898 431.887 365.701ZM438.278 370.043C439.42 370.436 440.582 370.695 441.805 370.611C445.242 370.375 447.899 368.11 448.168 365.173C448.467 361.903 446.538 359.204 443.336 358.411C439.797 357.535 436.011 359.141 434.782 362.041C433.535 364.986 434.724 367.954 438.278 370.043Z" fill="#444444"/>
<path d="M230.162 189.088C225.505 184.922 225.392 180.522 229.737 177.603C230.457 177.12 231.253 176.4 232.052 177.325C232.883 178.287 232.005 178.888 231.362 179.49C228.274 182.381 228.386 184.796 231.924 187.207C235.024 189.32 238.388 190.729 242.286 189.772C242.747 189.659 243.202 189.494 243.629 189.289C243.899 189.16 244.112 188.912 244.419 188.661C244.116 187.874 243.775 187.159 243.565 186.408C243.02 184.464 243.618 182.943 245.404 181.958C246.348 181.437 247.411 181.145 248.366 181.746C249.299 182.334 249.177 183.432 249.085 184.376C248.97 185.546 248.722 186.704 248.517 187.96C251.339 188.813 253.285 187.397 255.117 185.853C257.851 183.549 258.052 183.575 259.006 186.881C259.63 189.05 260.966 190.252 263.353 190.208C265.805 190.162 268.059 189.401 270.306 188.558C273.669 187.296 276.935 185.758 280.446 184.915C281.134 184.75 281.862 184.664 282.567 184.684C283.161 184.7 283.63 185.086 283.7 185.729C283.77 186.372 283.421 186.855 282.807 186.959C276.846 187.969 271.659 191.34 265.755 192.527C261.598 193.362 259.239 192.313 256.782 188.407C255.973 188.209 255.471 188.837 254.869 189.173C253.679 189.837 252.433 190.837 251.134 190.651C247.906 190.189 245.166 191.612 242.211 192.324C237.792 193.39 233.914 191.61 230.162 189.088Z" fill="#444444"/>
</svg>
