<svg width="785" height="782" viewBox="0 0 785 782" fill="none" xmlns="http://www.w3.org/2000/svg">
<path d="M311.404 161.118C344.178 140.566 392.602 80.6283 462.568 102.32C531.174 123.59 589.002 171.663 626.311 234.538C663.636 297.44 681.467 371.795 663.024 440.138C645.076 506.645 605.112 587.102 545.059 618.324C487.749 648.12 408.573 623.461 344.324 605.832C279.121 587.942 199.792 615.53 163.45 556.933C126.359 497.128 77.1172 370.673 90.1898 303.595C103.812 233.697 230.94 177.149 311.404 161.118Z" fill="#FFE9E1"/>
<g clip-path="url(#clip0_1095_11461)">
<path d="M393.588 263.398C391.581 263.639 389.69 264.61 388.121 266.038C386.027 267.944 384.423 270.669 383.545 273.861C383.496 274.041 383.478 274.229 383.494 274.415C383.969 280.21 385.743 286.192 388.447 291.07C388.601 291.347 388.835 291.573 389.118 291.717C389.937 292.136 390.82 292.41 391.734 292.532C394.856 292.95 397.843 291.497 400.062 289.088C402.281 286.678 403.841 283.28 404.36 279.398C404.879 275.516 404.264 271.829 402.756 268.921C401.248 266.014 398.75 263.828 395.627 263.411C394.94 263.319 394.257 263.318 393.588 263.398ZM395.203 266.581C397.101 266.834 398.761 268.163 399.917 270.393C401.073 272.622 401.63 275.694 401.191 278.975C400.752 282.256 399.409 285.074 397.708 286.922C396.006 288.77 394.057 289.616 392.159 289.362C391.758 289.309 391.398 289.155 391.034 289.013C388.765 284.751 387.195 279.5 386.738 274.451C387.488 271.907 388.768 269.773 390.274 268.402C391.836 266.981 393.531 266.357 395.203 266.581Z" fill="#444444"/>
<path d="M369.459 262.618C366.336 262.201 363.351 263.652 361.132 266.061C358.913 268.471 357.351 271.869 356.832 275.752C356.313 279.636 356.928 283.325 358.436 286.232C359.944 289.14 362.444 291.323 365.567 291.74C368.69 292.157 371.675 290.707 373.894 288.297C376.113 285.888 377.673 282.489 378.192 278.606C378.711 274.722 378.098 271.034 376.59 268.126C375.082 265.219 372.582 263.036 369.459 262.618ZM369.036 265.787C370.936 266.041 372.594 267.37 373.75 269.599C374.907 271.828 375.461 274.899 375.023 278.182C374.584 281.466 373.242 284.284 371.541 286.131C369.84 287.978 367.891 288.825 365.99 288.571C364.09 288.318 362.43 286.988 361.274 284.759C360.118 282.53 359.563 279.459 360.001 276.176C360.44 272.892 361.783 270.074 363.483 268.227C365.184 266.38 367.135 265.533 369.036 265.787Z" fill="#444444"/>
<path d="M398.102 253.214C392.092 253.117 387.813 256.176 385.594 260.592C383.375 265.009 382.954 270.662 383.697 276.344C384.44 282.026 386.371 287.753 389.171 292.322C391.972 296.891 395.689 300.415 400.21 301.134C400.417 301.167 400.629 301.159 400.833 301.11C401.037 301.062 401.23 300.973 401.4 300.85C401.57 300.727 401.714 300.571 401.824 300.392C401.934 300.213 402.007 300.014 402.04 299.807C402.107 299.389 402.004 298.961 401.755 298.618C401.506 298.275 401.131 298.045 400.713 297.979C397.574 297.479 394.415 294.756 391.898 290.65C389.381 286.545 387.553 281.172 386.868 275.928C386.182 270.685 386.663 265.585 388.451 262.026C390.239 258.468 393.072 256.328 398.051 256.409C398.474 256.416 398.883 256.254 399.188 255.959C399.492 255.665 399.667 255.261 399.674 254.838C399.681 254.414 399.519 254.005 399.224 253.701C398.93 253.396 398.526 253.221 398.102 253.214Z" fill="#444444"/>
<path d="M381.454 268.111C377.819 268.434 375.277 270.316 375.277 270.316C375.107 270.44 374.963 270.596 374.854 270.775C374.745 270.954 374.672 271.153 374.639 271.36C374.607 271.568 374.615 271.78 374.665 271.984C374.714 272.188 374.803 272.38 374.927 272.549C375.051 272.719 375.207 272.863 375.386 272.972C375.565 273.081 375.764 273.154 375.972 273.187C376.179 273.219 376.391 273.211 376.595 273.161C376.799 273.112 376.991 273.023 377.161 272.899C377.161 272.899 380.56 270.474 384.589 271.529C384.793 271.582 385.004 271.595 385.212 271.566C385.42 271.538 385.621 271.469 385.802 271.363C385.983 271.257 386.142 271.116 386.269 270.949C386.396 270.781 386.488 270.591 386.541 270.387C386.595 270.184 386.607 269.973 386.579 269.765C386.55 269.557 386.481 269.356 386.375 269.175C386.269 268.994 386.128 268.835 385.961 268.708C385.793 268.582 385.603 268.489 385.399 268.436C383.999 268.069 382.666 268.004 381.454 268.111Z" fill="#444444"/>
<path d="M367.356 252.278C362.164 252.928 357.944 255.537 354.169 258.396C353.832 258.652 353.609 259.032 353.551 259.452C353.493 259.872 353.605 260.297 353.861 260.635C354.117 260.973 354.497 261.195 354.916 261.253C355.336 261.311 355.762 261.2 356.1 260.944C360.928 257.286 365.65 254.535 372.438 255.508C372.646 255.538 372.857 255.527 373.061 255.474C373.264 255.422 373.455 255.331 373.623 255.205C373.791 255.079 373.933 254.921 374.04 254.741C374.147 254.56 374.217 254.36 374.247 254.153C374.277 253.945 374.265 253.733 374.213 253.53C374.161 253.326 374.07 253.135 373.944 252.967C373.818 252.799 373.66 252.658 373.479 252.551C373.299 252.444 373.099 252.373 372.891 252.344C370.925 252.062 369.086 252.061 367.356 252.278Z" fill="#444444"/>
<path d="M314.288 268.067C314.079 268.053 313.869 268.081 313.67 268.149C313.471 268.216 313.287 268.323 313.13 268.461C312.972 268.6 312.843 268.768 312.75 268.957C312.658 269.145 312.603 269.35 312.59 269.56C312.576 269.769 312.604 269.979 312.672 270.178C312.74 270.377 312.846 270.561 312.984 270.718C313.123 270.876 313.292 271.005 313.48 271.097C313.669 271.19 313.874 271.245 314.083 271.258L359.101 274.153C359.311 274.167 359.521 274.139 359.72 274.071C359.919 274.003 360.102 273.897 360.26 273.758C360.418 273.62 360.547 273.452 360.639 273.263C360.732 273.075 360.787 272.87 360.8 272.66C360.813 272.451 360.786 272.24 360.718 272.042C360.65 271.843 360.544 271.659 360.405 271.502C360.266 271.344 360.098 271.215 359.909 271.122C359.721 271.03 359.516 270.975 359.306 270.962L314.288 268.067Z" fill="#444444"/>
<path d="M355.625 314.274C355.222 314.144 354.784 314.179 354.407 314.372C354.22 314.468 354.054 314.6 353.917 314.76C353.781 314.919 353.678 315.104 353.614 315.304C353.549 315.504 353.525 315.714 353.542 315.924C353.559 316.133 353.617 316.337 353.712 316.524C357.277 323.481 363.827 327.4 372.493 328.335C372.914 328.38 373.337 328.256 373.667 327.991C373.997 327.725 374.208 327.339 374.254 326.918C374.277 326.709 374.258 326.498 374.199 326.297C374.14 326.095 374.041 325.908 373.91 325.744C373.778 325.581 373.615 325.445 373.431 325.344C373.247 325.243 373.044 325.18 372.836 325.158C364.911 324.302 359.639 321.078 356.559 315.066C356.463 314.879 356.331 314.713 356.171 314.577C356.011 314.441 355.825 314.338 355.625 314.274Z" fill="#444444"/>
<path d="M388.816 303.246C388.606 303.244 388.398 303.283 388.203 303.362C388.009 303.44 387.831 303.556 387.681 303.703C387.531 303.85 387.412 304.025 387.329 304.218C387.247 304.411 387.204 304.619 387.202 304.829C387.036 321.723 381.13 337.876 370.339 346.243C359.548 354.61 343.769 355.724 322.422 341.944C322.245 341.83 322.048 341.752 321.841 341.714C321.635 341.676 321.423 341.68 321.218 341.724C321.012 341.768 320.818 341.852 320.645 341.972C320.472 342.091 320.325 342.244 320.211 342.42C320.097 342.596 320.019 342.793 319.981 343C319.943 343.206 319.946 343.418 319.99 343.623C320.034 343.829 320.118 344.023 320.238 344.196C320.357 344.369 320.509 344.516 320.686 344.63C342.72 358.853 360.396 357.997 372.298 348.769C384.201 339.54 390.227 322.472 390.399 304.861C390.401 304.651 390.362 304.443 390.284 304.248C390.205 304.053 390.089 303.876 389.942 303.726C389.795 303.576 389.62 303.456 389.427 303.374C389.234 303.292 389.026 303.248 388.816 303.246Z" fill="#444444"/>
<path d="M288.644 340.014C288.245 339.869 287.805 339.888 287.421 340.068C287.037 340.247 286.741 340.571 286.596 340.969C286.451 341.367 286.47 341.806 286.649 342.19C297.462 365.359 320.918 375.344 352.89 375.5C353.314 375.502 353.721 375.336 354.022 375.038C354.323 374.74 354.493 374.335 354.496 373.911C354.497 373.701 354.457 373.493 354.378 373.299C354.298 373.104 354.182 372.927 354.034 372.778C353.886 372.629 353.711 372.51 353.517 372.429C353.324 372.347 353.116 372.305 352.906 372.304C321.58 372.15 299.765 362.735 289.546 340.84C289.458 340.65 289.332 340.479 289.177 340.337C289.022 340.195 288.841 340.085 288.644 340.014Z" fill="#444444"/>
<path d="M281.553 346.676C281.342 346.679 281.135 346.722 280.942 346.805C280.748 346.888 280.573 347.008 280.427 347.158C278.011 349.634 275.633 353.355 274.467 357.533C273.301 361.711 273.411 366.469 276.321 370.429C298.392 400.414 315.635 403.745 335.16 405.442C346.141 406.397 354.26 401.545 359.683 395.442C365.106 389.34 367.992 382.05 369.067 377.534C372.436 363.39 364.264 351.261 364.264 351.261C364.147 351.086 363.997 350.936 363.823 350.819C363.648 350.703 363.452 350.621 363.246 350.58C363.04 350.539 362.828 350.539 362.622 350.58C362.416 350.621 362.22 350.702 362.046 350.818C361.693 351.053 361.448 351.419 361.365 351.834C361.281 352.25 361.366 352.681 361.601 353.034C361.601 353.034 368.959 364.195 365.957 376.793H365.955C365.004 380.79 362.24 387.752 357.292 393.319C352.344 398.887 345.369 403.121 335.437 402.258C316.079 400.576 300.576 397.988 278.897 368.536H278.896C276.679 365.518 276.557 361.941 277.547 358.395C278.537 354.848 280.703 351.455 282.716 349.391C283.012 349.088 283.175 348.679 283.17 348.255C283.165 347.832 282.991 347.427 282.687 347.131C282.384 346.836 281.976 346.673 281.553 346.678L281.553 346.676Z" fill="#444444"/>
<path d="M294.011 172.469C291.638 172.545 289.178 172.727 286.629 173.033C268.806 175.17 245.349 191.214 241.058 237.502C240.35 245.138 239.07 263.253 244.272 279.96C246.872 288.313 251.116 296.345 257.943 302.442C264.771 308.538 274.168 312.632 286.749 313.191C300.758 313.819 311.411 304.296 317.336 295.538C317.337 295.538 317.338 295.538 317.338 295.538C317.568 295.197 317.769 294.839 317.861 294.345C317.953 293.85 317.838 293.162 317.499 292.7C316.82 291.776 316.069 291.749 315.432 291.644C314.159 291.435 312.673 291.437 311.168 291.162C308.544 290.675 304.798 289.744 302.073 286.738C299.347 283.732 297.391 278.5 298.959 268.609C299.631 264.372 302.835 261.398 306.407 260.899C309.979 260.4 314.096 262.159 316.953 268.57C320.019 275.448 322.395 280.473 324.652 283.661C325.781 285.255 326.875 286.442 328.259 287.088C329.642 287.734 331.358 287.559 332.653 286.694C335.408 284.855 336.84 280.82 337.375 275.894C337.829 271.714 337.361 266.867 335.587 262.226C340.283 262.406 344.256 261.068 346.859 257.815C349.608 254.379 350.763 249.17 350.708 242.329C356.46 245.082 383.139 256.344 416.599 242.936C425.396 239.412 433.156 234.008 438.743 227.805C444.331 221.601 447.797 214.561 447.67 207.701C447.612 204.549 447.226 196.385 440.165 189.066C433.105 181.747 419.602 175.372 393.897 174.795C385.68 174.606 363.356 177.585 344.22 193.426C343.008 191.781 339.304 187.026 331.276 181.967C322.926 176.704 310.619 171.941 294.011 172.471L294.011 172.469ZM294.116 175.661C310.071 175.141 321.677 179.694 329.57 184.669C338.59 190.354 342.646 196.501 342.646 196.501C342.771 196.691 342.936 196.851 343.128 196.972C343.321 197.092 343.537 197.171 343.762 197.201C343.987 197.232 344.216 197.214 344.434 197.15C344.651 197.085 344.853 196.975 345.024 196.826C363.612 180.75 386.367 177.818 393.823 177.99C393.824 177.99 393.825 177.99 393.825 177.99C419.028 178.555 431.574 184.763 437.864 191.284C444.154 197.804 444.419 204.735 444.475 207.758C444.581 213.483 441.586 219.871 436.368 225.664C431.15 231.457 423.759 236.621 415.409 239.965C379.119 254.508 349.873 238.476 349.873 238.476C349.623 238.34 349.342 238.273 349.058 238.282C348.774 238.29 348.497 238.375 348.256 238.526C348.016 238.677 347.82 238.89 347.688 239.142C347.557 239.394 347.496 239.676 347.51 239.96C347.908 247.74 346.666 252.933 344.361 255.815C342.055 258.697 338.633 259.715 333.41 258.896C333.12 258.851 332.822 258.886 332.551 258.999C332.279 259.112 332.044 259.297 331.871 259.535C331.698 259.772 331.594 260.053 331.57 260.346C331.546 260.639 331.604 260.933 331.736 261.195C334.093 265.864 334.671 271.167 334.195 275.548C333.719 279.93 331.928 283.333 330.878 284.034C330.272 284.439 330.132 284.433 329.611 284.189C329.09 283.946 328.23 283.183 327.261 281.813C325.322 279.074 322.924 274.108 319.874 267.267C316.614 259.951 310.992 257.029 305.965 257.731C300.937 258.433 296.684 262.542 295.801 268.106C294.138 278.591 296.225 285.046 299.703 288.883C303.181 292.719 307.797 293.788 310.588 294.306C310.59 294.306 310.592 294.306 310.593 294.306C312.017 294.566 313.036 294.605 313.928 294.684C308.297 302.564 298.889 310.534 286.892 309.996C274.925 309.464 266.351 305.664 260.074 300.059C253.797 294.453 249.805 286.976 247.325 279.011C242.364 263.079 243.546 245.314 244.243 237.798C248.443 192.496 270.709 178.163 287.009 176.208C289.468 175.913 291.837 175.735 294.116 175.661Z" fill="#444444"/>
<path fill-rule="evenodd" clip-rule="evenodd" d="M335.906 271.06L319.348 270C319.044 269.325 318.732 268.63 318.414 267.918C312.297 254.19 298.935 258.556 297.38 268.356C294.148 288.733 305.465 291.729 310.88 292.733C314.229 293.345 317.268 292.779 316.012 294.642C310.283 303.109 300.064 312.188 286.819 311.594C237.725 309.411 241.246 252.802 242.651 237.65C246.896 191.855 269.758 176.666 286.819 174.62C326.883 169.816 343.978 195.618 343.978 195.618C362.975 179.187 385.933 176.21 393.86 176.392C444.769 177.534 445.958 201.555 446.073 207.729C446.306 220.315 433.151 234.581 416.004 241.449C379.059 256.255 349.106 239.878 349.106 239.878C349.922 255.834 344.281 262.219 333.163 260.474C334.888 263.89 335.715 267.58 335.906 271.06Z" fill="#444444"/>
<path d="M344.243 401.627C344.055 401.721 343.888 401.851 343.75 402.01C343.613 402.169 343.508 402.353 343.442 402.552C343.376 402.751 343.35 402.962 343.365 403.171C343.38 403.381 343.437 403.585 343.531 403.773C343.531 403.773 347.161 411.02 349.273 416.558C349.424 416.953 349.726 417.273 350.113 417.446C350.5 417.62 350.94 417.632 351.336 417.482C351.732 417.331 352.052 417.028 352.225 416.642C352.398 416.255 352.411 415.815 352.26 415.419C350.046 409.614 346.389 402.338 346.389 402.338C346.295 402.151 346.165 401.983 346.006 401.846C345.847 401.709 345.663 401.604 345.464 401.538C345.264 401.472 345.054 401.446 344.844 401.461C344.635 401.476 344.431 401.532 344.243 401.627Z" fill="#444444"/>
<path d="M357.006 449.45C354.527 449.45 352.422 451.436 352.422 453.919C352.422 456.402 354.527 458.389 357.006 458.389C359.486 458.389 361.589 456.402 361.589 453.919C361.589 451.436 359.486 449.45 357.006 449.45ZM357.006 452.647C357.823 452.647 358.391 453.231 358.391 453.919C358.391 454.607 357.823 455.193 357.006 455.193C356.19 455.193 355.62 454.607 355.62 453.919C355.62 453.231 356.19 452.647 357.006 452.647Z" fill="#444444"/>
<path d="M370.507 448.63C368.348 448.63 366.505 450.367 366.505 452.542C366.505 454.716 368.348 456.452 370.507 456.452C372.666 456.452 374.509 454.716 374.509 452.542C374.509 450.367 372.666 448.63 370.507 448.63ZM370.507 451.83C371.002 451.83 371.31 452.163 371.31 452.542C371.31 452.92 371.002 453.254 370.507 453.254C370.012 453.254 369.704 452.92 369.704 452.542C369.704 452.163 370.012 451.83 370.507 451.83Z" fill="#444444"/>
<path d="M353.086 407.999C352.886 407.935 352.675 407.912 352.465 407.931C352.256 407.949 352.052 408.008 351.866 408.106C351.49 408.302 351.208 408.639 351.081 409.043C350.954 409.447 350.992 409.885 351.188 410.26C351.188 410.26 364.358 435.667 368.132 450.754C368.183 450.958 368.274 451.15 368.399 451.318C368.524 451.487 368.681 451.63 368.861 451.738C369.041 451.846 369.241 451.917 369.448 451.948C369.656 451.979 369.868 451.968 370.072 451.917C370.483 451.814 370.836 451.552 371.054 451.188C371.272 450.825 371.337 450.389 371.233 449.978C367.244 434.031 354.023 408.783 354.023 408.783C353.827 408.408 353.49 408.126 353.086 407.999Z" fill="#444444"/>
<path d="M342.707 409.759C342.297 409.87 341.949 410.138 341.737 410.505C341.526 410.873 341.469 411.309 341.579 411.718C341.579 411.718 343.604 419.254 346.209 428.033C348.815 436.812 351.957 446.767 354.375 451.955C354.554 452.339 354.878 452.636 355.276 452.781C355.674 452.927 356.114 452.908 356.498 452.729C356.688 452.64 356.86 452.515 357.002 452.361C357.144 452.206 357.254 452.025 357.326 451.827C357.397 451.63 357.43 451.42 357.421 451.211C357.412 451.001 357.361 450.795 357.272 450.605C355.076 445.892 351.867 435.859 349.275 427.125C346.683 418.391 344.666 410.888 344.666 410.888C344.611 410.686 344.518 410.496 344.39 410.329C344.262 410.163 344.102 410.023 343.92 409.918C343.738 409.813 343.537 409.745 343.329 409.718C343.121 409.691 342.909 409.705 342.707 409.759Z" fill="#444444"/>
<path d="M281.445 373.078C270.04 374.102 260.009 381.206 252.316 390.856C244.622 400.505 239.2 412.753 237.02 424.512C228.582 470.011 240.114 521.593 264.26 556.233C276.269 573.46 285.324 581.566 294.582 585.506C303.84 589.446 312.971 589.142 324.998 590.049C365.717 593.109 395.809 576.752 395.809 576.752C396.061 576.616 396.272 576.413 396.419 576.167C396.565 575.921 396.643 575.64 396.645 575.354C396.736 552.022 394.182 538.432 391.531 530.572C390.205 526.641 388.853 524.143 387.785 522.592C386.717 521.042 385.767 520.327 385.767 520.327C385.533 520.162 385.258 520.064 384.973 520.041C345.659 516.979 294.784 531.633 294.784 531.633C294.582 531.691 294.393 531.788 294.229 531.919C294.065 532.05 293.928 532.212 293.826 532.395C293.724 532.579 293.659 532.781 293.636 532.99C293.612 533.198 293.63 533.41 293.688 533.611C293.805 534.019 294.079 534.363 294.45 534.568C294.821 534.774 295.258 534.823 295.665 534.707C295.665 534.707 345.917 520.41 384.156 523.213C384.266 523.296 384.44 523.373 385.151 524.405C386.024 525.672 387.254 527.897 388.501 531.592C390.954 538.864 393.429 551.932 393.422 574.348C391.129 575.552 363.348 589.724 325.239 586.862H325.237C313.046 585.942 304.331 586.18 295.835 582.564C287.338 578.948 278.73 571.399 266.883 554.404C243.318 520.598 231.901 469.649 240.164 425.093C242.243 413.882 247.49 402.036 254.815 392.848C262.141 383.66 271.477 377.183 281.731 376.262C281.94 376.243 282.143 376.183 282.329 376.086C282.515 375.988 282.68 375.855 282.815 375.694C282.95 375.533 283.051 375.347 283.114 375.146C283.176 374.946 283.199 374.735 283.18 374.526C283.142 374.104 282.938 373.715 282.612 373.443C282.287 373.171 281.868 373.04 281.445 373.078Z" fill="#444444"/>
<path d="M281.777 419.642C281.573 419.692 281.381 419.782 281.212 419.906C281.043 420.03 280.899 420.186 280.791 420.366C280.682 420.546 280.609 420.745 280.577 420.952C280.545 421.16 280.554 421.371 280.604 421.575C280.654 421.779 280.744 421.971 280.868 422.141C280.992 422.31 281.148 422.453 281.328 422.562C289.444 427.485 294.175 435.29 297.573 444.234C300.97 453.178 302.971 463.187 305.684 472.191C311.268 490.716 312.991 516.001 313.432 523.147C307.607 517.916 298.872 517.735 298.872 517.735C298.662 517.729 298.453 517.765 298.256 517.839C298.06 517.914 297.88 518.027 297.728 518.171C297.575 518.316 297.453 518.489 297.367 518.68C297.281 518.872 297.234 519.079 297.228 519.289C297.222 519.499 297.258 519.708 297.333 519.904C297.408 520.1 297.52 520.28 297.665 520.432C297.809 520.585 297.982 520.707 298.174 520.793C298.366 520.879 298.572 520.926 298.782 520.932C298.782 520.932 310.393 521.489 314.026 528.964C314.187 529.296 314.458 529.562 314.792 529.716C315.127 529.871 315.505 529.906 315.862 529.814C316.219 529.723 316.533 529.511 316.752 529.214C316.97 528.918 317.08 528.555 317.061 528.187C317.061 528.187 315.387 493.304 308.746 471.269C306.098 462.481 304.091 452.39 300.561 443.1C297.032 433.809 291.916 425.243 282.987 419.827C282.808 419.719 282.608 419.646 282.401 419.614C282.193 419.582 281.981 419.592 281.777 419.642Z" fill="#444444"/>
<path d="M260.668 546.05C260.245 546.032 259.831 546.183 259.519 546.469C259.206 546.755 259.02 547.154 259.002 547.577C259.002 547.577 257.977 570.673 258.72 582.4C258.747 582.823 258.941 583.218 259.259 583.498C259.577 583.778 259.994 583.92 260.417 583.893C260.84 583.867 261.235 583.673 261.515 583.356C261.796 583.038 261.938 582.622 261.912 582.199C261.198 570.928 262.196 547.717 262.196 547.717C262.214 547.293 262.063 546.88 261.777 546.567C261.491 546.255 261.092 546.069 260.668 546.05Z" fill="#444444"/>
<path d="M478.654 488.538C475.871 488.382 472.659 489.092 469.384 489.992C465.018 491.193 460.633 492.884 457.741 494.059C452.402 496.23 447.108 495.918 447.108 495.918C446.685 495.891 446.269 496.033 445.951 496.313C445.632 496.593 445.438 496.988 445.411 497.411C445.385 497.834 445.527 498.251 445.807 498.569C446.087 498.887 446.482 499.081 446.905 499.108C446.905 499.108 452.827 499.508 458.946 497.021C461.782 495.867 466.08 494.217 470.232 493.075C474.384 491.933 478.481 491.451 480.28 492.044C480.858 492.234 480.944 492.34 481.277 492.502C481.098 492.552 480.975 492.619 480.781 492.656C479.342 492.928 475.812 493.83 472.247 494.928C470.464 495.477 468.697 496.07 467.218 496.66C465.74 497.251 464.625 497.68 463.719 498.583C463.419 498.883 463.25 499.289 463.249 499.713C463.248 500.136 463.416 500.543 463.715 500.843C464.015 501.143 464.422 501.312 464.846 501.312C465.27 501.312 465.676 501.143 465.976 500.843C465.995 500.824 467.058 500.164 468.405 499.627C469.751 499.089 471.458 498.514 473.189 497.98C476.65 496.914 480.309 495.994 481.377 495.792C482.117 495.651 482.841 495.441 483.508 495.114C484.175 494.786 484.895 494.378 485.269 493.382C485.456 492.883 485.454 492.235 485.253 491.721C485.052 491.206 484.719 490.828 484.348 490.517C483.607 489.894 482.652 489.456 481.281 489.004C480.462 488.734 479.582 488.587 478.654 488.535L478.654 488.538Z" fill="#444444"/>
<path d="M482.615 492.424C482.415 492.362 482.204 492.34 481.995 492.359C481.785 492.379 481.582 492.439 481.396 492.537C481.211 492.635 481.046 492.769 480.912 492.931C480.778 493.092 480.677 493.279 480.615 493.48C480.49 493.885 480.532 494.323 480.73 494.697C480.928 495.072 481.267 495.353 481.672 495.478C481.672 495.478 482.708 495.805 483.627 496.271C483.903 496.411 484.051 496.536 484.25 496.673C484.207 496.703 484.206 496.72 484.155 496.75C483.59 497.08 482.724 497.468 481.754 497.847C479.814 498.603 477.461 499.334 475.764 499.946C475.762 499.946 475.76 499.946 475.758 499.946C473.824 500.652 471.109 501.92 468.601 503.268C466.093 504.616 463.935 505.835 462.702 507.215C462.419 507.532 462.274 507.947 462.298 508.37C462.321 508.793 462.512 509.19 462.828 509.472C463.145 509.754 463.56 509.9 463.983 509.876C464.407 509.852 464.803 509.662 465.086 509.346C465.476 508.909 467.723 507.368 470.114 506.083C472.504 504.799 475.178 503.562 476.848 502.952H476.854C478.422 502.387 480.816 501.642 482.915 500.824C483.966 500.414 484.942 499.992 485.768 499.509C486.595 499.026 487.434 498.605 487.778 497.338C488.087 496.201 487.454 495.192 486.889 494.645C486.323 494.097 485.69 493.734 485.073 493.421C483.839 492.796 482.615 492.424 482.615 492.424Z" fill="#444444"/>
<path d="M483.834 497.679C483.653 497.572 483.453 497.503 483.245 497.474C483.037 497.445 482.825 497.457 482.622 497.51C482.418 497.563 482.227 497.655 482.06 497.782C481.892 497.908 481.751 498.067 481.645 498.248C481.43 498.613 481.37 499.049 481.476 499.459C481.583 499.869 481.848 500.22 482.214 500.435C482.214 500.435 482.82 500.85 483.079 501.241C483.209 501.437 483.222 501.537 483.217 501.595C483.211 501.652 483.204 501.822 482.758 502.217C481.897 502.98 478.958 504.324 474.994 506.174C471.03 508.023 465.962 510.534 460.375 514.299C460.201 514.417 460.052 514.567 459.936 514.742C459.82 514.917 459.739 515.113 459.699 515.319C459.659 515.525 459.66 515.737 459.702 515.943C459.744 516.149 459.826 516.344 459.943 516.518C460.061 516.692 460.211 516.842 460.386 516.958C460.561 517.074 460.758 517.154 460.964 517.194C461.17 517.234 461.382 517.233 461.588 517.191C461.793 517.149 461.989 517.067 462.163 516.95C467.554 513.317 472.44 510.893 476.345 509.071C480.25 507.249 483.097 506.187 484.878 504.611C485.753 503.837 486.307 502.876 486.4 501.898C486.493 500.92 486.142 500.076 485.743 499.475C484.946 498.273 483.834 497.679 483.834 497.679Z" fill="#444444"/>
<path d="M480.166 503.817C479.959 503.857 479.763 503.938 479.588 504.054C479.413 504.17 479.262 504.319 479.145 504.493C479.028 504.668 478.946 504.863 478.904 505.069C478.863 505.275 478.862 505.487 478.903 505.693C478.943 505.899 479.024 506.095 479.14 506.27C479.256 506.445 479.406 506.595 479.58 506.712C479.58 506.712 480.032 507.069 480.226 507.431C480.323 507.613 480.345 507.724 480.328 507.847C480.311 507.97 480.253 508.199 479.828 508.609C479.828 508.609 479.826 508.609 479.826 508.609C479.826 508.609 479.827 508.609 479.826 508.609C479.441 508.979 478.03 510 476.251 511.158C474.47 512.316 472.261 513.688 469.991 515.1C465.45 517.924 460.737 520.829 458.389 522.766C454.52 525.947 450.915 526.052 447.069 525.9C447.068 525.9 447.067 525.9 447.065 525.9C445.125 525.828 441.919 525.659 438.757 525.613C435.595 525.566 432.558 525.597 430.467 526.098C428.843 526.484 427.543 527.583 425.433 529.147C423.323 530.711 420.673 532.767 417.525 535.028C411.229 539.55 402.953 544.885 393.286 548.639C393.09 548.715 392.911 548.829 392.76 548.974C392.608 549.119 392.486 549.292 392.401 549.484C392.317 549.677 392.271 549.884 392.266 550.094C392.261 550.304 392.298 550.512 392.374 550.708C392.45 550.904 392.564 551.083 392.709 551.234C392.854 551.386 393.028 551.508 393.22 551.593C393.413 551.677 393.62 551.723 393.83 551.728C394.04 551.732 394.248 551.696 394.444 551.62C404.49 547.719 412.984 542.223 419.39 537.623C422.592 535.323 425.276 533.245 427.339 531.715C429.402 530.185 431.118 529.228 431.208 529.207C431.209 529.207 431.21 529.207 431.211 529.207C432.551 528.886 435.631 528.764 438.711 528.809C441.791 528.854 444.954 529.021 446.948 529.095C450.967 529.253 455.791 529.044 460.423 525.233C460.424 525.233 460.424 525.233 460.425 525.233C462.328 523.662 467.139 520.64 471.679 517.817C473.949 516.406 476.171 515.026 477.996 513.839C479.821 512.652 481.188 511.736 482.044 510.914C482.045 510.914 482.046 510.914 482.046 510.914C482.86 510.129 483.367 509.213 483.495 508.291C483.624 507.37 483.373 506.536 483.044 505.922C482.386 504.696 481.365 504.062 481.365 504.062C481.013 503.825 480.582 503.738 480.166 503.819L480.166 503.817Z" fill="#444444"/>
<path d="M504.801 431.187C494.888 431.244 483.047 433.011 477.023 434.835C471.942 436.362 469.144 440.151 467.732 444.092H467.734C466.378 447.866 449.358 496.842 449.358 496.842C449.289 497.041 449.26 497.251 449.272 497.46C449.284 497.67 449.338 497.875 449.429 498.064C449.521 498.253 449.648 498.422 449.805 498.562C449.962 498.701 450.145 498.809 450.343 498.878C450.744 499.017 451.183 498.991 451.565 498.806C451.946 498.621 452.239 498.292 452.378 497.891C452.378 497.891 469.487 448.667 470.742 445.171C471.942 441.823 473.904 439.11 477.944 437.896H477.948C483.381 436.25 495.285 434.439 504.822 434.386C504.824 434.386 504.826 434.386 504.828 434.386C505.811 434.376 506.418 434.88 506.908 435.875C507.398 436.871 507.529 438.301 507.217 439.373C506.733 441.04 501.406 458.144 496.111 474.928C493.463 483.319 490.813 491.669 488.75 498.066C487.719 501.265 486.835 503.976 486.174 505.954C485.843 506.944 485.567 507.75 485.36 508.336C485.153 508.922 484.956 509.385 485.002 509.294C484.377 510.545 483.914 511.613 483.383 512.399C482.852 513.186 482.313 513.72 481.297 514.158H481.293C479.038 515.14 467.485 519.002 463.116 519.621C462.696 519.68 462.318 519.904 462.063 520.243C461.808 520.582 461.699 521.008 461.758 521.428C461.788 521.636 461.858 521.836 461.964 522.016C462.071 522.197 462.212 522.355 462.38 522.482C462.548 522.608 462.739 522.7 462.943 522.752C463.146 522.805 463.358 522.816 463.566 522.787C468.867 522.036 479.616 518.375 482.566 517.091H482.569C484.153 516.406 485.264 515.329 486.035 514.187C486.805 513.044 487.292 511.864 487.862 510.722C488.056 510.334 488.156 510.018 488.374 509.402C488.592 508.786 488.872 507.967 489.205 506.967C489.873 504.969 490.76 502.252 491.793 499.047C493.859 492.638 496.512 484.284 499.161 475.889C504.458 459.098 509.698 442.297 510.288 440.265C510.847 438.342 510.653 436.243 509.778 434.464C508.903 432.686 507.108 431.171 504.804 431.189L504.801 431.187Z" fill="#444444"/>
<path fill-rule="evenodd" clip-rule="evenodd" d="M484.369 450.702C484.369 450.992 484.325 451.279 484.24 451.547C484.155 451.815 484.029 452.058 483.871 452.263C483.714 452.468 483.526 452.631 483.32 452.742C483.114 452.853 482.892 452.91 482.669 452.91C482.446 452.91 482.225 452.853 482.019 452.742C481.812 452.631 481.625 452.468 481.467 452.263C481.309 452.058 481.184 451.815 481.098 451.547C481.013 451.279 480.969 450.992 480.969 450.702C480.969 450.412 481.013 450.125 481.098 449.857C481.184 449.59 481.309 449.346 481.467 449.141C481.625 448.936 481.812 448.774 482.019 448.663C482.225 448.552 482.446 448.495 482.669 448.495C482.892 448.495 483.114 448.552 483.32 448.663C483.526 448.774 483.714 448.936 483.871 449.141C484.029 449.346 484.155 449.59 484.24 449.857C484.325 450.125 484.369 450.412 484.369 450.702Z" fill="#444444"/>
<path fill-rule="evenodd" clip-rule="evenodd" d="M480.133 445.274C480.133 445.564 480.089 445.851 480.003 446.118C479.918 446.386 479.793 446.63 479.635 446.835C479.477 447.04 479.29 447.202 479.083 447.313C478.877 447.424 478.656 447.481 478.433 447.481C478.209 447.481 477.988 447.424 477.782 447.313C477.576 447.202 477.388 447.04 477.23 446.835C477.073 446.63 476.947 446.386 476.862 446.118C476.776 445.851 476.732 445.564 476.732 445.274C476.732 444.984 476.776 444.697 476.862 444.429C476.947 444.161 477.073 443.918 477.23 443.713C477.388 443.508 477.576 443.345 477.782 443.234C477.988 443.123 478.209 443.066 478.433 443.066C478.656 443.066 478.877 443.123 479.083 443.234C479.29 443.345 479.477 443.508 479.635 443.713C479.793 443.918 479.918 444.161 480.003 444.429C480.089 444.697 480.133 444.984 480.133 445.274Z" fill="#444444"/>
<path fill-rule="evenodd" clip-rule="evenodd" d="M476.851 455.654C476.851 455.943 476.807 456.231 476.721 456.498C476.636 456.766 476.511 457.01 476.353 457.215C476.195 457.42 476.007 457.582 475.801 457.693C475.595 457.804 475.374 457.861 475.15 457.861C474.927 457.861 474.706 457.804 474.5 457.693C474.294 457.582 474.106 457.42 473.948 457.215C473.79 457.01 473.665 456.766 473.58 456.498C473.494 456.231 473.45 455.943 473.45 455.654C473.45 455.364 473.494 455.077 473.58 454.809C473.665 454.541 473.79 454.298 473.948 454.093C474.106 453.888 474.294 453.725 474.5 453.614C474.706 453.503 474.927 453.446 475.15 453.446C475.374 453.446 475.595 453.503 475.801 453.614C476.007 453.725 476.195 453.888 476.353 454.093C476.511 454.298 476.636 454.541 476.721 454.809C476.807 455.077 476.851 455.364 476.851 455.654Z" fill="#444444"/>
<path d="M453.73 477.052C453.232 476.97 452.7 476.989 452.172 477.164C451.118 477.515 450.304 478.382 449.722 479.528C448.226 482.468 443.72 485.433 438.55 486.437H438.552C432.034 487.692 426.862 494.357 424.317 499.129C422.013 503.441 417.63 509.468 413.212 510.789C407.762 512.409 384.348 520.118 384.348 520.118C383.946 520.251 383.612 520.538 383.421 520.916C383.23 521.294 383.197 521.733 383.33 522.136C383.395 522.335 383.499 522.52 383.637 522.679C383.774 522.838 383.941 522.969 384.128 523.064C384.316 523.158 384.52 523.215 384.73 523.23C384.939 523.246 385.15 523.22 385.349 523.154C385.349 523.154 408.943 515.394 414.126 513.853H414.13C420.341 511.996 424.669 505.256 427.138 500.635C429.367 496.456 434.578 490.46 439.157 489.578H439.161C445.091 488.427 450.37 485.31 452.572 480.98H452.574C452.917 480.305 453.159 480.209 453.181 480.202C453.202 480.193 453.222 480.168 453.454 480.304C453.918 480.577 454.655 481.716 454.733 482.084C454.821 482.499 455.069 482.862 455.424 483.093C455.779 483.325 456.212 483.406 456.626 483.319C456.832 483.276 457.027 483.192 457.2 483.074C457.374 482.955 457.522 482.803 457.636 482.627C457.751 482.451 457.83 482.255 457.869 482.048C457.907 481.842 457.905 481.63 457.861 481.424C457.538 479.893 456.626 478.462 455.078 477.55C454.691 477.322 454.228 477.139 453.73 477.057L453.73 477.052Z" fill="#444444"/>
<path d="M377.355 405.424C376.932 405.452 376.538 405.647 376.258 405.966C375.979 406.285 375.838 406.702 375.866 407.125C375.866 407.125 376.869 422.904 385.414 437.142C393.52 450.648 401.881 475.877 412.525 505.03C412.671 505.428 412.969 505.752 413.353 505.931C413.738 506.11 414.177 506.128 414.576 505.983C414.973 505.837 415.297 505.54 415.476 505.156C415.655 504.772 415.673 504.333 415.529 503.935C404.904 474.836 396.66 449.665 388.156 435.497C380.093 422.061 379.056 406.914 379.056 406.914C379.028 406.491 378.833 406.096 378.514 405.817C378.195 405.538 377.779 405.397 377.355 405.424Z" fill="#444444"/>
<path d="M383.797 415.807C383.395 415.673 382.956 415.704 382.577 415.894C382.198 416.083 381.909 416.416 381.775 416.818C381.775 416.818 381.17 418.628 380.735 420.83C380.3 423.032 379.839 425.579 380.831 427.78C381.006 428.166 381.327 428.467 381.723 428.617C382.12 428.767 382.559 428.753 382.946 428.579C383.137 428.493 383.31 428.37 383.454 428.217C383.598 428.064 383.71 427.884 383.784 427.688C383.859 427.492 383.894 427.283 383.887 427.073C383.881 426.863 383.833 426.657 383.747 426.465C383.438 425.78 383.481 423.427 383.872 421.451C384.263 419.474 384.809 417.828 384.809 417.828C384.943 417.425 384.911 416.987 384.721 416.608C384.532 416.229 384.199 415.94 383.797 415.807Z" fill="#444444"/>
<path d="M366.697 378.433C366.488 378.431 366.279 378.47 366.084 378.548C365.89 378.627 365.712 378.743 365.562 378.89C365.412 379.036 365.293 379.211 365.21 379.404C365.128 379.598 365.085 379.805 365.083 380.015C365.08 380.225 365.12 380.433 365.198 380.628C365.277 380.823 365.393 381.001 365.54 381.151C365.687 381.3 365.863 381.42 366.056 381.502C366.249 381.584 366.457 381.628 366.667 381.629C366.667 381.629 368.903 381.611 372.541 383.461C376.18 385.311 381.054 389.022 385.763 396.626C395.331 412.081 413.166 448.944 428.986 487.12C429.149 487.512 429.46 487.823 429.852 487.984C430.244 488.146 430.684 488.146 431.076 487.984C431.467 487.821 431.778 487.51 431.941 487.119C432.103 486.728 432.103 486.288 431.941 485.896C416.075 447.608 398.309 410.817 388.483 394.944C383.497 386.893 378.148 382.727 373.99 380.613C369.832 378.499 366.697 378.433 366.697 378.433Z" fill="#444444"/>
<path d="M421.173 538.339C420.978 538.26 420.77 538.22 420.56 538.222C420.35 538.223 420.142 538.266 419.948 538.348C419.558 538.513 419.249 538.827 419.09 539.219C418.931 539.612 418.934 540.052 419.099 540.442C419.099 540.442 425 554.328 425.808 579.256C425.822 579.679 426.004 580.08 426.314 580.37C426.623 580.659 427.035 580.814 427.459 580.8C427.883 580.786 428.284 580.605 428.573 580.295C428.863 579.986 429.018 579.574 429.004 579.15C428.181 553.753 422.045 539.197 422.045 539.197C421.963 539.004 421.844 538.828 421.694 538.681C421.544 538.534 421.367 538.417 421.173 538.339Z" fill="#444444"/>
<path d="M479.559 522.264C479.393 522.135 479.204 522.04 479.001 521.984C478.799 521.928 478.587 521.913 478.379 521.938C478.17 521.964 477.969 522.031 477.786 522.134C477.604 522.238 477.443 522.377 477.314 522.543C477.185 522.708 477.09 522.898 477.034 523.1C476.978 523.302 476.962 523.514 476.988 523.722C477.014 523.931 477.081 524.132 477.184 524.315C477.288 524.497 477.427 524.658 477.592 524.787C484.294 530.009 484.952 536.313 483.385 542.859C481.817 549.405 477.78 555.908 474.985 560.328C472.428 564.374 467.505 568.256 462.156 570.846C456.807 573.437 451.022 574.711 447.04 574.055C440.182 572.926 434.887 567.77 431.309 562.742C427.732 557.714 425.96 552.995 425.96 552.995C425.886 552.798 425.775 552.618 425.631 552.464C425.488 552.311 425.316 552.187 425.124 552.1C424.933 552.013 424.727 551.965 424.517 551.957C424.307 551.95 424.097 551.985 423.901 552.058C423.704 552.132 423.524 552.244 423.371 552.387C423.217 552.531 423.093 552.703 423.007 552.894C422.92 553.085 422.871 553.292 422.864 553.501C422.857 553.711 422.892 553.92 422.966 554.117C422.966 554.117 424.866 559.202 428.704 564.595C432.542 569.989 438.405 575.873 446.521 577.209C451.584 578.042 457.78 576.515 463.549 573.722C469.318 570.928 474.652 566.84 477.689 562.036C480.489 557.605 484.751 550.876 486.493 543.603C488.235 536.33 487.215 528.23 479.559 522.264Z" fill="#444444"/>
<path d="M475.359 524.703C474.498 524.511 473.45 524.778 472.803 525.384C471.511 526.597 471.409 528.299 471.617 530.329C471.918 533.264 472.472 538.455 470.744 543.168C469.017 547.88 465.241 552.225 455.861 553.798C453.106 554.258 449.19 554.364 445.394 552.738C441.597 551.112 437.814 547.802 435.166 540.925C434.311 538.709 433.141 536.956 431.103 536.492C430.083 536.26 428.715 536.822 428.141 537.786C427.566 538.75 427.449 539.863 427.527 541.286C427.942 548.906 433.67 560.138 444.218 565.45C453.027 569.887 467.054 568.331 476.361 563.641C476.74 563.45 477.027 563.117 477.16 562.715C477.293 562.312 477.26 561.874 477.07 561.495C476.975 561.307 476.845 561.14 476.686 561.003C476.527 560.866 476.342 560.762 476.142 560.696C475.943 560.63 475.732 560.604 475.523 560.62C475.313 560.635 475.109 560.692 474.921 560.787C466.575 564.993 452.878 566.233 445.656 562.596C436.363 557.916 431.054 547.211 430.721 541.113C430.684 540.43 430.767 540.308 430.828 540.039C431.223 540.42 431.778 541.027 432.182 542.076C435.081 549.603 439.568 553.724 444.134 555.68C448.7 557.636 453.237 557.478 456.389 556.952C466.626 555.236 471.689 549.885 473.747 544.27C475.805 538.655 475.092 532.887 474.797 530.004C474.66 528.673 474.936 528.179 474.964 528.039C475.091 528.111 475.143 528.105 475.376 528.329C478.239 531.096 479.891 536.283 480.66 540.793C481.429 545.304 481.395 549.031 481.395 549.031C481.391 549.455 481.556 549.863 481.853 550.165C482.149 550.467 482.554 550.64 482.978 550.644C483.402 550.648 483.81 550.483 484.112 550.186C484.414 549.89 484.587 549.485 484.591 549.061C484.591 549.061 484.632 545.071 483.811 540.256C482.991 535.442 481.39 529.695 477.6 526.032H477.596C476.921 525.382 476.219 524.898 475.358 524.706L475.359 524.703Z" fill="#444444"/>
<path fill-rule="evenodd" clip-rule="evenodd" d="M482.993 549.044C481.018 553.748 478.333 558.022 476.337 561.182C476.12 561.529 475.887 561.867 475.641 562.214C466.814 566.662 452.953 568.06 444.937 564.023C435.016 559.027 429.497 548.058 429.123 541.199C428.852 536.203 432.21 537.701 433.674 541.5C439.22 555.903 450.217 556.36 456.125 555.374C475.743 552.086 473.803 535.983 473.206 530.165C472.839 526.585 474.325 525.096 476.488 527.179C483.141 533.609 482.993 549.044 482.993 549.044Z" fill="#444444"/>
<path d="M436.233 530.078C432.297 533.408 430.655 538.471 430.655 538.471C430.517 538.872 430.545 539.311 430.731 539.691C430.918 540.072 431.248 540.363 431.649 540.501C431.847 540.569 432.057 540.597 432.267 540.584C432.477 540.57 432.682 540.516 432.87 540.424C433.059 540.331 433.227 540.202 433.366 540.045C433.505 539.887 433.611 539.704 433.679 539.505C433.679 539.505 435.284 535.069 438.299 532.518C438.459 532.382 438.591 532.216 438.687 532.03C438.784 531.843 438.842 531.639 438.86 531.43C438.877 531.221 438.853 531.01 438.789 530.81C438.725 530.61 438.622 530.425 438.486 530.265C438.351 530.105 438.185 529.973 437.998 529.876C437.811 529.78 437.608 529.722 437.398 529.705C437.189 529.687 436.978 529.711 436.778 529.775C436.578 529.839 436.393 529.942 436.233 530.078Z" fill="#444444"/>
<path d="M435.017 288.301C430.681 288.569 427.648 289.754 425.569 291.698C422.798 294.289 422.029 297.909 421.69 301.441C421.013 308.503 418.903 347.938 418.423 357.693C418.005 366.186 424.532 374.443 433.447 375.489C433.448 375.489 433.448 375.489 433.449 375.489C441.362 376.409 481.436 380.075 483.94 380.304C483.386 400.007 467.918 418.484 467.918 418.484C467.701 418.738 467.569 419.054 467.54 419.387C467.512 419.721 467.589 420.054 467.761 420.341C467.932 420.628 468.189 420.855 468.496 420.988C468.802 421.121 469.143 421.155 469.47 421.085C481.824 418.419 488.77 407.586 492.606 397.722C495.919 389.204 496.814 382.284 497.049 380.254C498.585 380.494 500.239 380.709 503.134 380.914C506.852 381.177 511.486 381.425 516.297 381.635C525.92 382.054 536.212 382.32 541.3 382.241C546.621 382.164 550.358 380.43 552.768 377.967C555.178 375.505 556.239 372.441 556.722 369.827C557.208 367.192 558.488 357.518 559.822 346.917C561.156 336.317 562.517 324.94 563.08 319.308C563.661 313.498 562.925 309.082 560.859 305.922C558.793 302.763 555.412 301.095 551.494 300.69H551.491C547.984 300.324 523.391 297.466 498.068 294.591C472.744 291.716 446.733 288.823 439.801 288.346C438.053 288.225 436.463 288.213 435.017 288.303L435.017 288.301ZM435.246 291.485C436.513 291.41 437.95 291.421 439.582 291.534C446.17 291.988 472.387 294.89 497.706 297.765C523.025 300.639 547.487 303.484 551.162 303.867C551.163 303.867 551.163 303.867 551.164 303.867C554.423 304.203 556.682 305.376 558.182 307.669C559.682 309.962 560.437 313.611 559.899 318.989C559.344 324.537 557.982 335.929 556.649 346.516C555.317 357.103 553.987 367.031 553.578 369.246C553.167 371.473 552.287 373.888 550.482 375.732C548.678 377.576 545.925 378.976 541.252 379.045C536.345 379.121 526.018 378.857 516.437 378.44C511.646 378.232 507.032 377.985 503.361 377.725C499.689 377.465 496.806 377.14 496.089 376.963C495.866 376.908 495.634 376.902 495.408 376.945C495.182 376.987 494.968 377.079 494.78 377.212C494.593 377.345 494.436 377.517 494.321 377.716C494.206 377.915 494.136 378.136 494.114 378.365C494.114 378.365 493.278 387.174 489.626 396.562C486.551 404.469 481.532 412.522 473.562 416.281C478.493 409.386 487.414 394.797 487.257 378.845C487.253 378.449 487.102 378.069 486.834 377.778C486.565 377.487 486.199 377.306 485.804 377.27C485.804 377.27 441.7 373.23 433.82 372.314H433.818C426.697 371.478 421.286 364.574 421.617 357.851C422.096 348.134 424.246 308.293 424.873 301.746C425.187 298.474 425.864 295.801 427.755 294.033C429.173 292.707 431.445 291.71 435.246 291.485Z" fill="#444444"/>
<path d="M442.526 306.53C442.317 306.512 442.106 306.535 441.905 306.598C441.705 306.66 441.519 306.762 441.358 306.897C441.197 307.032 441.064 307.197 440.967 307.383C440.869 307.57 440.81 307.773 440.792 307.983C440.754 308.404 440.886 308.824 441.158 309.149C441.43 309.473 441.82 309.677 442.242 309.715L523.08 316.895C523.502 316.932 523.921 316.8 524.246 316.528C524.571 316.256 524.775 315.866 524.812 315.444C524.831 315.235 524.808 315.025 524.745 314.824C524.683 314.624 524.581 314.438 524.446 314.277C524.311 314.116 524.146 313.983 523.96 313.886C523.774 313.789 523.571 313.729 523.362 313.711L442.526 306.53Z" fill="#444444"/>
<path d="M442.638 324.328C442.215 324.31 441.802 324.461 441.489 324.748C441.177 325.034 440.992 325.433 440.974 325.857C440.956 326.28 441.107 326.693 441.394 327.005C441.68 327.318 442.079 327.503 442.503 327.521L455.743 328.078C456.166 328.096 456.58 327.945 456.892 327.658C457.204 327.371 457.39 326.972 457.408 326.549C457.426 326.126 457.275 325.712 456.988 325.4C456.701 325.088 456.302 324.903 455.878 324.885L442.638 324.328Z" fill="#444444"/>
<path d="M470.632 326.567C470.208 326.543 469.793 326.688 469.477 326.97C469.16 327.253 468.969 327.649 468.945 328.072C468.922 328.496 469.067 328.911 469.349 329.227C469.632 329.543 470.028 329.734 470.451 329.758L533.201 333.301C533.624 333.325 534.039 333.18 534.356 332.897C534.672 332.615 534.863 332.218 534.887 331.795C534.911 331.372 534.765 330.957 534.483 330.641C534.201 330.324 533.804 330.133 533.381 330.11L470.632 326.567Z" fill="#444444"/>
<path d="M440.765 340.645C440.556 340.625 440.345 340.647 440.144 340.708C439.944 340.77 439.757 340.87 439.595 341.004C439.433 341.138 439.299 341.302 439.201 341.487C439.102 341.673 439.042 341.876 439.022 342.085C439.002 342.294 439.023 342.505 439.085 342.705C439.146 342.906 439.247 343.092 439.381 343.254C439.514 343.416 439.679 343.55 439.864 343.648C440.05 343.747 440.253 343.808 440.462 343.827L473.84 346.997C474.049 347.017 474.26 346.996 474.461 346.934C474.662 346.873 474.849 346.772 475.011 346.638C475.173 346.504 475.306 346.34 475.405 346.154C475.503 345.968 475.564 345.765 475.583 345.556C475.623 345.134 475.494 344.714 475.223 344.387C474.953 344.061 474.564 343.855 474.142 343.815L440.765 340.645Z" fill="#444444"/>
<path d="M485.943 343.72C485.521 343.691 485.103 343.831 484.784 344.109C484.464 344.387 484.267 344.78 484.238 345.203C484.208 345.625 484.348 346.043 484.626 346.362C484.904 346.682 485.298 346.878 485.72 346.908L500.359 347.932C500.569 347.947 500.779 347.92 500.978 347.853C501.177 347.786 501.361 347.681 501.52 347.543C501.678 347.406 501.808 347.238 501.901 347.05C501.995 346.862 502.051 346.657 502.065 346.448C502.095 346.025 501.955 345.608 501.677 345.288C501.399 344.969 501.005 344.772 500.582 344.743L485.943 343.72Z" fill="#444444"/>
<path d="M519.392 347.354C518.968 347.331 518.553 347.477 518.238 347.76C517.922 348.043 517.732 348.44 517.709 348.863C517.686 349.287 517.832 349.701 518.115 350.017C518.398 350.332 518.795 350.522 519.218 350.546L539.917 351.66C540.127 351.672 540.337 351.642 540.535 351.572C540.733 351.502 540.915 351.394 541.072 351.253C541.228 351.113 541.355 350.943 541.446 350.754C541.536 350.565 541.589 350.359 541.6 350.15C541.611 349.94 541.581 349.73 541.511 349.532C541.441 349.334 541.333 349.152 541.193 348.995C541.052 348.839 540.883 348.712 540.693 348.622C540.504 348.531 540.298 348.478 540.088 348.467L519.392 347.354Z" fill="#444444"/>
<path d="M496.985 362.166L488.593 362.358C488.169 362.368 487.767 362.546 487.474 362.852C487.181 363.159 487.022 363.569 487.032 363.992C487.042 364.416 487.219 364.818 487.526 365.111C487.832 365.404 488.243 365.563 488.666 365.553L497.058 365.362C497.268 365.357 497.475 365.311 497.667 365.226C497.859 365.142 498.033 365.02 498.178 364.868C498.323 364.716 498.437 364.537 498.512 364.341C498.588 364.145 498.625 363.936 498.62 363.727C498.61 363.303 498.432 362.9 498.126 362.608C497.819 362.315 497.409 362.156 496.985 362.166Z" fill="#444444"/>
<path d="M438.565 355.282C438.144 355.231 437.72 355.35 437.387 355.612C437.053 355.874 436.838 356.258 436.787 356.679C436.737 357.099 436.856 357.523 437.118 357.856C437.38 358.189 437.764 358.405 438.185 358.455L474.081 362.747C474.502 362.798 474.925 362.679 475.259 362.417C475.592 362.155 475.808 361.771 475.858 361.35C475.908 360.93 475.789 360.506 475.527 360.173C475.265 359.84 474.882 359.624 474.461 359.574L438.565 355.282Z" fill="#444444"/>
</g>
<defs>
<clipPath id="clip0_1095_11461">
<rect width="329" height="418" fill="white" transform="translate(234.272 172.431)"/>
</clipPath>
</defs>
</svg>
