<svg width="631" height="613" viewBox="0 0 631 613" fill="none" xmlns="http://www.w3.org/2000/svg">
<path d="M244.143 492.405C202.539 491.006 122.755 511.417 74.5409 458.592C27.264 406.795 6.08091 340.222 12.1439 273.054C18.2094 205.857 48.5446 140.078 107.116 97.708C164.115 56.4757 249.152 16.0745 321.399 23.5301C390.347 30.6452 444.838 90.5081 490.531 137.275C536.903 184.736 623.884 204.965 619.619 268.379C615.265 333.1 580.343 454.793 527.286 498.991C471.998 545.047 324.967 522.007 244.143 492.405Z" fill="#FFE9E1"/>
<path fill-rule="evenodd" clip-rule="evenodd" d="M290.901 247.636C291.073 247.169 291.771 247.231 291.784 247.756C292.06 258.964 289.269 272.661 280.297 280.232C275.692 284.119 269.604 285.897 264.012 287.941L263.381 288.174L253.503 291.853C250.883 292.829 248.056 294.33 245.742 292.951C247.615 297.594 249.187 302.365 251.468 306.839C254.307 312.409 257.74 317.506 261.941 322.141C278.584 340.504 304.925 346.105 328.563 340.725C340.735 337.954 352.58 332.703 360.884 323.126C367.195 315.846 370.821 306.075 371.676 296.438C371.426 296.478 371.164 296.476 370.895 296.417C367.904 295.765 364.885 294.162 362.253 292.59L362 292.438C359.468 290.914 356.828 289.168 355.011 286.8C353.206 284.449 351.312 276.779 351.312 276.779C350.796 273.896 350.312 268.153 350.395 265.239C350.403 264.964 351.623 264.802 351.753 265.088C352.88 267.562 353.245 272.997 354.115 275.571L354.291 276.085C355.22 278.774 356.017 282.048 357.944 284.221C361.561 288.303 367.018 290.03 371.89 292.077C372.239 287.464 379.609 287.572 379.515 292.383C379.51 292.644 379.499 292.903 379.489 293.163C380.071 293.483 380.63 293.848 381.152 294.201L381.662 294.547C383.591 295.859 385.536 297.106 387.59 298.219C391.568 300.374 395.779 302.083 399.855 304.04C403.978 306.02 407.834 308.378 411.435 311.201C413.126 312.527 414.747 313.938 416.285 315.438L416.702 315.85C418.166 317.307 420.071 318.937 420.905 320.853C421.089 321.275 422.01 322.257 422.51 322.29C430.253 322.797 437.98 323.514 445.675 324.589C447.667 324.867 448.455 325.893 447.719 327.553C445.188 333.258 435.281 356.041 432.647 362.155C432.954 366.647 432.539 371.935 432.816 376.428C433.222 382.984 433.753 389.539 434.389 396.077C436.667 419.465 440.121 442.74 443.241 466.026C444.803 477.68 446.227 489.351 447.633 501.025C448.342 506.924 448.945 512.829 449.408 518.754C449.601 521.223 449.777 523.693 449.931 526.164L450.064 528.356C450.248 531.115 450.67 533.749 448.963 536.117C448.189 537.191 446.421 537.796 445.403 536.576C444.123 535.042 443.647 533.896 443.525 531.881C443.432 530.339 443.409 528.789 443.339 527.246C443.187 523.899 442.996 520.554 442.772 517.211C442.326 510.528 441.816 503.846 441.226 497.175C439.157 473.78 435.225 450.561 432.608 427.224C431.289 415.459 430.353 403.672 429.857 391.842C429.609 385.934 429.519 380.027 429.577 374.114C429.599 371.905 429.704 369.707 429.855 367.513C425.935 376.415 421.815 385.232 417.506 393.931L416.485 395.992C413.755 401.49 410.951 407.009 407.67 412.193L407.106 413.076C405.777 415.182 403.961 418.502 401.536 419.166C399.848 419.629 397.785 419.303 396.053 419.27C394.335 419.238 392.615 419.23 390.898 419.161C388.972 419.083 387.135 418.83 385.274 418.329C384.964 418.245 384.672 418.155 384.405 418.04C382.53 421.108 379.344 423.444 376.086 424.806C373.477 425.896 370.743 426.643 368.003 427.335L367.036 427.578C364.1 428.309 360.74 428.657 359.084 431.492L358.7 432.149C357.468 434.241 356.287 436.077 354.249 437.577C352.055 439.191 349.456 440.207 346.867 440.997C344.217 441.806 341.504 442.425 338.812 443.088L338.079 443.27C336.302 443.715 334.509 444.123 332.743 444.607C331.989 444.813 331.222 445.026 330.483 445.28C329.617 445.577 328.988 446.041 328.305 446.546C327.692 448.69 325.068 449.855 322.911 449.705C321.778 449.627 320.761 449.242 319.836 448.679C318.222 450.053 316.445 451.283 314.8 452.556C312.496 454.338 310.183 456.108 307.857 457.861C303.061 461.475 298.229 465.041 293.346 468.536C284.68 474.741 275.826 480.662 266.821 486.364C263.066 488.741 259.286 491.114 255.469 493.431L255.876 493.582L256.684 493.887C258.594 494.6 260.723 495.752 261.093 497.979C261.386 499.746 260.399 500.964 258.654 501.18C256.58 501.436 254.966 499.971 253.675 498.573C253.105 497.956 252.467 497.383 251.921 496.748C251.699 496.489 251.528 496.19 251.377 495.877C247.61 498.096 243.803 500.241 239.936 502.246L238.968 502.744C229.377 507.647 220.043 513.019 210.371 517.782C207.848 519.025 204.772 520.369 201.565 521.286C202.416 524.583 202.403 528.203 202.425 531.55C202.445 534.811 197.261 534.795 197.371 531.55L197.423 529.982C197.518 527.347 197.672 524.611 198.298 522.046C188.85 523.613 179.413 520.208 177.656 519.186C175.716 518.059 173.956 516.254 172.491 514.581C169.355 510.998 167.18 506.704 165.249 502.383C161.115 493.131 158.185 483.242 156.044 473.351C148.148 436.886 151.544 397.857 164.367 362.902C167.57 354.169 171.352 345.627 175.687 337.395L176.225 336.378C180.55 328.237 185.357 320.128 191.463 313.2C197.823 305.985 205.668 300.373 214.21 296.017C218.379 293.891 222.668 292.049 227.053 290.417C227.757 290.154 228.466 289.919 229.176 289.695C233.745 286.783 239.29 283.997 244.837 284.106C245.213 284.113 245.519 284.256 245.747 284.472C246.014 284.518 246.281 284.575 246.549 284.653C247.14 284.824 247.764 285.472 247.68 286.137L247.651 286.359C247.635 286.467 247.616 286.571 247.582 286.673C247.78 286.703 247.975 286.75 248.165 286.815C253.472 285.317 258.694 283.025 263.872 281.177L265.052 280.761C269.389 279.241 273.839 277.752 277.397 274.744C280.936 271.752 283.598 267.877 285.522 263.688C287.893 258.527 288.954 252.935 290.901 247.636ZM397.151 519.857C398.202 519.076 399.444 519.983 399.838 520.95C401.128 524.125 400.491 529.057 398.671 531.864C396.785 534.772 392.272 533.624 392.163 530.102C392.049 526.429 394.185 522.065 397.151 519.857ZM408.005 432.201C408.099 431.789 408.74 431.793 408.836 432.201C409.711 435.926 409.691 439.938 409.947 443.757L409.977 444.18C410.285 448.392 410.544 452.615 410.729 456.834C411.091 465.135 411.525 473.436 412.01 481.73C412.251 485.843 412.509 489.955 412.785 494.067C413.647 493.586 414.536 493.164 415.456 492.792C416.836 492.234 418.179 492.171 419.661 492.186C421.467 492.204 422.826 493.792 422.587 495.56C422.326 497.485 420.631 498.31 418.87 498.035C416.919 497.73 414.961 497.257 412.992 497.061C413.211 500.24 413.438 503.418 413.678 506.594C413.996 510.8 414.412 515 414.703 519.206C414.731 519.608 414.761 520.01 414.792 520.413C415.966 519.802 417.213 519.49 418.626 519.105L418.994 519.002C421.046 518.413 423.241 517.598 425.14 518.978C426.416 519.905 426.671 521.431 425.614 522.654C424.01 524.51 421.638 524.15 419.423 524.055L418.232 524.012C417.109 523.968 416.073 523.896 415.035 523.613C415.226 526.353 415.326 529.104 414.99 531.805C414.808 533.264 412.886 533.647 412.377 532.158C411.049 528.267 410.774 524.07 410.288 519.994C409.834 516.188 409.557 512.353 409.26 508.53L409.17 507.383C408.501 498.971 407.966 490.554 407.575 482.125C407.184 473.697 406.949 465.271 406.855 456.834C406.813 453.003 406.876 449.159 407.026 445.329L407.074 444.18C407.246 440.241 407.126 436.061 408.005 432.201ZM232.39 520.478C232.441 519.94 232.873 519.271 233.514 519.355C234.105 519.432 234.714 519.395 235.299 519.492C236.071 519.62 236.692 520.076 237.409 520.363C238.576 520.829 239.848 521.07 241.045 521.452C243.29 522.168 244.514 524.531 243.584 526.738C242.606 529.059 240.149 529.585 238.025 528.612C236.352 527.844 235.104 526.618 233.979 525.198L233.66 524.793C233.175 524.184 232.624 523.503 232.421 522.764C232.223 522.044 232.321 521.211 232.39 520.478ZM341.493 509.571C344.29 509.177 346.679 510.133 349.267 511.034L349.478 511.107C352.112 512.016 355.955 512.645 357.305 515.341C358.12 516.966 357.487 519.124 355.57 519.605C352.535 520.366 349.813 518.148 347.303 516.655L347.171 516.577C344.748 515.158 342.248 513.966 340.7 511.519C340.288 510.866 340.646 509.69 341.493 509.571ZM243.851 287.185C242.731 287.435 241.61 287.657 240.491 287.871C236.232 290.152 232.099 292.52 227.703 294.553C223.038 296.71 218.391 298.938 213.96 301.548C205.008 306.82 197.628 313.674 191.531 322.076C180.998 336.59 173.162 353.328 167.555 370.31C166.114 374.673 164.825 379.086 163.684 383.535C165.701 381.67 168.089 380.524 170.766 379.542C171.9 379.126 173.313 379.83 173.888 380.812C174.146 381.254 174.292 381.69 174.265 382.207C174.206 383.349 173.463 384.647 172.236 384.873C169.375 385.4 166.594 386.426 163.836 387.329C163.418 387.466 163.059 387.414 162.772 387.252C160.034 398.847 158.321 410.68 157.714 422.585C157.201 432.663 157.518 442.82 158.634 452.884C159.493 452.499 160.332 452.137 161.273 451.918C162.493 451.635 163.693 451.289 164.883 450.899C168.318 449.773 169.884 455.442 166.374 456.306C165.067 456.627 163.753 456.894 162.422 457.09C161.261 457.26 160.235 457.185 159.141 457.006C159.977 463.285 161.118 469.519 162.572 475.663L162.893 477.008C164.782 484.856 166.983 492.778 170.166 500.194C171.727 503.832 173.795 507.288 176.347 510.321C177.601 511.813 178.993 513.091 180.511 514.303C181.775 515.311 186.07 517.499 191.158 517.499C196.245 517.499 197.622 517.018 200.189 516.135C205.265 514.388 210.084 511.599 214.845 509.116L215.337 508.86C217.442 507.771 219.539 506.667 221.63 505.552C221.366 503.42 221.828 501.63 222.939 499.661C224.14 497.531 227.116 498.592 227.337 500.771L227.344 500.854C227.378 501.345 227.46 501.845 227.563 502.345C241.547 494.686 255.235 486.492 268.705 477.952C277.381 472.451 285.966 466.787 294.425 460.956C298.653 458.041 302.845 455.074 306.996 452.049C309.17 450.464 311.334 448.866 313.488 447.255C314.385 446.584 315.265 445.879 316.164 445.204C315.946 444.931 315.733 444.658 315.527 444.388C312.169 439.993 309.99 434.754 308.905 429.349C308.249 426.088 307.933 422.703 307.837 419.378L307.794 417.932C307.728 415.496 307.711 412.947 308.16 410.587C307.548 410.923 306.924 411.252 306.302 411.604C304.069 412.869 301.834 414.13 299.596 415.386C295.113 417.9 290.618 420.385 286.065 422.769C277.933 427.029 269.721 431.08 261.287 434.711L257.184 436.48C250.061 439.542 242.881 442.55 235.476 444.826C231.299 446.11 225.037 447.699 220.8 448.679C220.8 448.679 225.906 453.489 222.211 455.143C218.516 456.798 215.454 450.451 215.332 449.877C213.381 450.285 207.807 451.271 207.807 451.271C202.511 452.293 197.376 454.317 192.642 456.907C190.996 457.807 190.538 456.058 192.282 454.839C197.38 451.276 203.327 449.259 209.464 447.567L209.765 447.484C212.016 446.868 214.263 446.225 216.506 445.56C216.259 444.668 216.117 443.743 216.145 442.722C216.209 440.449 216.41 438.168 216.53 435.897C216.784 431.129 217.107 426.377 217.486 421.618C217.631 419.785 217.794 417.947 217.981 416.11C216.778 415.466 215.741 414.61 214.401 414.189L214.174 414.123C212.74 413.737 213.224 411.89 214.498 411.732C215.652 411.589 216.8 411.654 217.937 411.899C218.114 411.937 218.28 411.98 218.439 412.028C218.648 410.327 218.88 408.63 219.144 406.943C219.84 402.484 220.333 397.787 221.783 393.504C221.89 393.187 222.362 393.073 222.536 393.405C224.645 397.417 224.719 402.338 224.957 406.806L224.986 407.339C225.266 412.213 225.282 417.134 225.192 422.015C225.099 427.044 224.927 432.061 224.701 437.086C224.61 439.109 224.614 441.209 224.269 443.144C236.821 439.064 249.151 434.181 260.97 428.4C269.307 424.321 277.572 420.08 285.743 415.679C289.837 413.474 293.95 411.305 298.04 409.092C299.473 408.316 300.905 407.538 302.336 406.759L304.482 405.589C306.491 404.493 308.168 403.402 310.507 403.325C311.204 403.302 311.83 403.629 312.274 404.123C313.531 403.232 314.984 402.685 316.509 402.697C318.805 399.527 321.136 396.383 323.559 393.308L325.35 391.03C328.448 387.102 331.731 383.113 335.682 380.123C337.446 378.789 339.386 377.788 341.409 376.961C340.933 376.845 340.467 376.611 340.052 376.226C338.12 374.434 337.853 371.107 337.461 368.608C337.054 366.016 337.211 363.696 337.613 361.113C337.769 360.109 339.433 359.9 339.839 360.822C340.694 362.766 341.601 364.63 342.379 366.596L342.609 367.189C343.444 369.403 345.224 371.731 345.107 374.132C345.075 374.79 344.854 375.364 344.514 375.825C346.212 375.261 347.934 374.759 349.631 374.234C354.969 372.585 360.327 370.983 365.768 369.703C367.216 369.363 368.672 369.047 370.133 368.757C370.899 365.123 372.015 361.555 373.33 358.053C372.085 357.414 371.278 356.345 370.206 355.394C369.202 354.503 368.512 353.418 367.655 352.395C366.876 351.464 367.314 349.783 368.715 349.837L369.112 349.854C370.564 349.922 371.969 350.072 373.286 350.749L373.755 350.991C374.398 351.324 375.102 351.707 375.729 352.159C376.548 350.273 377.401 348.406 378.262 346.557L379.38 344.167C382.278 337.945 385.169 331.487 388.808 325.693C390.425 323.118 392.578 321.509 395.668 321.261C398.85 321.004 402.159 321.335 405.345 321.449C409.039 321.581 412.732 321.738 416.422 321.932C415.476 320.941 414.613 319.839 413.663 318.888C412.086 317.312 410.42 315.817 408.669 314.436C405.202 311.703 401.391 309.451 397.433 307.511C393.474 305.571 389.398 303.88 385.681 301.484C383.329 299.967 381.227 298.059 379.309 295.994C378.102 309.016 371.813 321.113 362.364 330.202C352.55 339.641 338.989 344.828 325.722 347.033C312.19 349.284 298.067 348.458 285.122 343.756C278.447 341.331 272.046 337.867 266.337 333.521C266.274 333.899 266.198 334.273 266.05 334.624C265.851 335.096 265.608 335.498 265.329 335.913L264.831 336.64C264.517 337.097 264.197 337.551 263.841 337.975C262.978 339.002 261.756 339.452 260.439 339.448C257.917 339.439 256.008 336.968 256.686 334.523C257.113 332.987 258.025 332.062 259.45 331.461C259.9 331.271 260.359 331.112 260.82 330.955L261.167 330.837C261.633 330.678 262.096 330.526 262.576 330.437C259.872 328.052 257.364 325.458 255.118 322.659C248.074 313.88 241.125 301.586 243.48 289.927C243.521 289.727 243.701 289.601 243.896 289.569C244.032 288.751 244.468 287.96 245.065 287.427C244.663 287.322 244.258 287.241 243.851 287.185ZM317.002 488.755C318.398 487.979 319.839 489.823 318.705 490.961L317.012 492.654C315.441 494.232 313.912 495.828 312.567 497.627L312.242 498.066C310.426 500.535 308.491 503.396 305.516 504.319C301.919 505.435 298.461 501.053 300.545 497.853C302.365 495.056 305.869 494.001 308.89 492.845C311.749 491.751 314.33 490.24 317.002 488.755ZM200.944 475.848C201.764 474.776 203.901 475.341 203.341 476.859C201.523 481.789 200.781 488.511 196.188 491.786C194.706 492.842 192.378 492.356 191.158 491.137C189.771 489.751 189.716 487.799 190.509 486.108C191.476 484.045 193.854 482.55 195.521 480.979L195.671 480.836C197.465 479.094 199.404 477.864 200.944 475.848ZM392.93 481.522C394.393 480.892 398.206 479.666 399.336 481.117C399.389 481.17 399.434 481.228 399.471 481.292C399.748 481.774 399.789 482.452 399.471 482.93C398.154 484.909 396.782 486.386 394.91 487.794L394.7 487.95C392.662 489.448 390.747 491.207 388.264 491.883C384.822 492.82 382.417 488.511 384.835 485.995C386.782 483.968 389.756 482.916 392.336 481.785L392.93 481.522ZM254.698 453.354C254.122 452.314 255.299 451.038 256.364 451.688C259.404 453.546 262.944 454.939 266.358 455.94C267.74 456.345 268.986 457.745 268.883 459.255L268.867 459.484C268.827 460.018 268.753 460.548 268.414 460.992C267.225 462.546 265.524 463.145 263.708 462.225C259.659 460.174 256.889 457.312 254.698 453.354ZM343.531 450.203C343.457 449.766 343.777 449.428 344.222 449.513C346.79 449.999 349.163 451.24 351.368 452.665C352.551 453.43 353.692 454.27 354.873 455.042C356.33 455.995 356.876 456.783 357.092 458.533C357.234 459.688 356.155 460.742 355.166 461.061C352.47 461.93 349.382 459.078 347.555 457.226L347.473 457.142C345.561 455.194 343.984 452.89 343.531 450.203ZM420.675 447.177C420.09 445.596 422.108 444.286 423.427 445.062C424.67 445.793 426.018 446.399 427.19 447.236C428.267 448.006 429.249 448.918 430.282 449.753L430.793 450.157C432.687 451.679 435.814 455.445 433.105 457.629C430.527 459.708 427.11 457.053 425.379 455.112L425.259 454.974C424.263 453.825 423.036 452.576 422.314 451.233C421.634 449.969 421.173 448.518 420.675 447.177ZM395.254 324.816C392.025 325.443 390.709 329.427 389.349 332.024C386.14 338.153 383.189 344.394 380.226 350.644C379.313 352.566 378.425 354.503 377.528 356.436C377.474 356.588 377.403 356.737 377.321 356.884C375.484 360.837 373.593 364.764 371.383 368.516C373.406 368.137 375.439 367.814 377.48 367.56C377.377 365.639 378.693 363.068 379.344 361.45L379.398 361.314C380.21 359.241 381.06 355.976 383.15 354.901C383.846 354.543 384.591 354.991 384.644 355.758C384.802 358.039 382.57 360.65 381.479 362.586C380.819 363.758 380.176 364.934 379.55 366.124C379.315 366.569 379.119 367.006 378.878 367.399C379.93 367.285 380.984 367.183 382.041 367.11L382.729 367.062C386.647 366.804 390.807 366.731 394.347 368.662C397.631 370.453 399.309 374.277 397.505 377.759C395.258 382.097 390.308 382.672 385.956 383.024C380.52 383.462 375.072 384.253 369.674 385.025C364.091 385.824 358.834 387.881 353.334 388.939C352.822 389.037 352.504 388.368 352.973 388.083C357.311 385.443 362.586 383.99 367.436 382.51L367.828 382.39C370.459 381.582 373.03 380.659 375.752 380.201C378.394 379.756 381.052 379.396 383.717 379.122L383.976 379.098C386.91 378.852 394.395 378.936 394.079 374.593C393.87 371.718 389.196 371.222 387.063 371.188C377.282 371.031 367.43 373.627 358.135 376.407L356.06 377.029C352.254 378.174 348.442 379.352 344.707 380.695C340.475 382.215 337.141 384.587 334.058 387.832C330.641 391.431 327.33 395.111 323.785 398.588C321.549 400.78 319.285 402.934 317.003 405.069C316.487 405.736 316.075 406.462 315.789 407.404C315.306 408.995 315.418 410.474 315.6 412.108C316.059 416.235 316.161 420.405 316.737 424.519C317.271 428.33 318.017 432.281 319.6 435.817C320.227 437.217 321.043 438.592 321.972 439.822L322.722 440.797C323.049 441.22 323.414 441.683 323.798 442.119C324.362 441.432 325.177 440.985 326.124 441.096C328.138 441.333 329.721 441.277 331.697 440.814C333.226 440.456 334.743 440.037 336.265 439.649C339.254 438.887 342.271 438.193 345.23 437.318L345.738 437.165C347.943 436.489 350.149 435.642 351.984 434.219C354.116 432.565 354.772 430.179 356.351 428.116C359.723 423.711 367.01 423.804 371.945 422.597C376.138 421.572 380.173 419.954 383.075 416.913L383.244 416.731C383.115 416.189 383.324 415.576 383.828 415.295L383.938 415.234C384.135 415.124 384.347 415.078 384.555 415.083C384.824 414.687 385.084 414.279 385.32 413.844C385.514 413.486 386 413.749 385.936 414.103C385.898 414.315 385.845 414.521 385.796 414.727C388.606 414.005 391.693 414.143 394.547 414.144L398.251 414.132C398.892 414.124 399.847 414.091 399.932 414.053L400.019 414.014C400.25 413.914 399.922 414.08 400.084 413.866C400.262 413.629 400.436 413.391 400.608 413.15C401.222 412.291 401.802 411.406 402.371 410.514C396.169 412.093 389.744 413.076 383.412 413.896C376.618 414.776 369.734 415.386 362.879 415.393C360.99 415.395 361.007 412.543 362.879 412.471C370.138 412.194 377.358 411.81 384.568 410.88C388.296 410.399 392.009 409.795 395.701 409.089C397.126 408.817 398.548 408.527 399.967 408.222L401.03 407.99C401.697 407.842 403.581 407.63 404.501 407.014C404.681 406.703 404.862 406.394 405.041 406.084C404.953 404.995 402.184 405.141 401.535 405.139C399.695 405.135 397.854 405.15 396.013 405.155C392.332 405.166 388.651 405.134 384.97 405.104C377.615 405.044 370.232 404.788 362.882 405.102C361.098 405.178 360.161 402.317 361.925 401.565C369.709 398.242 378.35 397.52 386.662 396.499C391.033 395.962 395.406 395.342 399.679 394.255L400.736 393.987C403.42 393.299 406.384 392.46 408.645 390.82C405.247 389.446 401.024 389.604 397.503 389.409L397.233 389.394C392.302 389.091 387.362 388.936 382.421 388.929C372.313 388.915 362.201 389.273 352.103 389.752C351.85 389.764 351.797 389.364 352.044 389.31C362.422 387.046 372.97 385.955 383.591 385.788C388.537 385.709 393.486 385.779 398.429 385.998L400.242 386.082C404.456 386.263 409.132 386.312 412.657 388.856C413.195 389.244 413.478 389.739 413.522 390.263C418.251 380.84 422.617 371.221 427.002 361.665C430.411 354.235 433.692 346.743 437.225 339.37L438.369 336.986C439.9 333.803 441.469 330.62 443.211 327.553C436.697 326.683 430.146 326.078 423.591 325.616C417.618 325.193 398.129 324.259 395.254 324.816ZM392.369 426.939C393.112 426.526 394.25 426.862 394.433 427.778C394.569 428.46 394.802 429.217 394.802 429.915C394.802 430.751 394.503 431.659 394.343 432.477C393.977 434.357 393.526 435.885 392.569 437.56C391.971 438.608 390.763 439.319 389.549 439.291C388.587 439.269 387.735 439.011 387.075 438.267C386.285 437.376 385.742 436.065 386.176 434.865C387.312 431.72 389.399 428.587 392.369 426.939ZM234.789 423.802C236.527 420.758 240.648 418.037 244.244 418.306C249.644 418.711 250.746 425.979 245.518 427.714C242.393 428.75 238.094 427.686 235.36 425.98C234.623 425.52 234.353 424.564 234.789 423.802ZM179.294 413.402C178.899 412.828 179.552 412.172 180.14 412.301C181.445 412.588 182.852 412.713 184.13 413.102C185.439 413.5 186.706 414.16 188.002 414.614C190.718 415.565 193.619 416.043 196.248 417.191C197.298 417.65 198.125 419.171 198.028 420.293L198.003 420.555C197.945 421.112 197.848 421.597 197.537 422.106C196.7 423.472 195.043 424.177 193.479 423.757C190.577 422.978 187.741 420.976 185.267 419.312L184.81 419.009C183.729 418.296 182.567 417.552 181.696 416.636C180.786 415.679 180.039 414.485 179.294 413.402ZM279.045 402.331C278.711 401.128 280.208 400.333 281.08 401.146C282.823 402.77 284.646 404.275 286.354 405.94L286.468 406.054C287.691 407.282 289.469 409.649 287.879 411.238C285.842 413.275 283.005 410.253 281.912 408.678C280.525 406.68 279.694 404.667 279.045 402.331ZM412.45 392.387C409.863 395.126 405.879 396.385 402.371 397.428C398.211 398.664 393.926 399.402 389.635 400.009C385.49 400.596 381.376 401.12 377.297 401.794C380.383 401.832 383.468 401.855 386.547 401.91C390.098 401.974 393.647 402.051 397.197 402.154C399.782 402.229 402.815 401.875 405.272 402.835C405.715 403.008 406.128 403.248 406.49 403.539C408.555 399.868 410.535 396.146 412.45 392.387ZM252.934 366.778C255.633 365.921 258.171 364.784 261.033 365.079C261.793 365.157 262.338 365.897 261.923 366.629C260.567 369.014 258.362 370.361 256.191 371.957L256 372.098C253.624 373.865 251.073 375.475 248.489 376.925C244.04 379.421 240.054 372.278 244.546 370.182C247.25 368.92 250.089 367.682 252.934 366.778ZM301.531 360.577C305.66 360.849 309.788 361.033 313.922 361.2C318.712 361.394 317.102 368.762 313.101 367.271C309.148 365.798 305.195 364.343 301.207 362.968C299.993 362.55 300.091 360.557 301.454 360.574L301.531 360.577ZM195.614 347.469C196.684 347.394 197.763 347.628 198.835 347.731L199.976 347.842C202.327 348.076 204.531 348.364 206.773 349.321C210.911 351.086 208.689 357.735 204.535 357.582C201.466 357.47 198.841 356.152 196.249 354.617C193.983 353.276 192.593 351.598 191.063 349.492C190.556 348.794 191.263 348.012 191.953 347.942C193.169 347.818 194.398 347.554 195.614 347.469ZM402.998 333.891C402.313 338.162 400.614 342.164 398.053 345.649C396.767 347.4 394.507 347.467 393.232 345.649C391.428 343.078 392.54 340.132 393.9 337.663L394.302 336.939C394.91 335.855 395.845 334.274 396.913 333.182L396.931 333.07C397.503 328.598 403.703 329.491 402.998 333.891ZM235.971 306.483C237.001 305.556 238.897 305.834 239.231 307.343C239.698 309.456 239.983 311.836 239.677 313.981C239.511 315.143 239.449 316.449 238.991 317.532C238.5 318.696 237.554 319.592 236.663 320.468C234.885 322.216 231.136 321.638 230.66 318.883L230.599 318.545C230.359 317.242 230.053 315.849 230.408 314.557C230.676 313.582 231.274 312.588 231.769 311.683L231.874 311.491C232.866 309.644 234.412 307.886 235.971 306.483ZM380.68 310.978L381.053 310.982C383.926 311.038 389.18 311.738 389.208 315.288C389.214 316.124 388.595 316.991 387.764 317.184C386.046 317.582 384.936 316.567 383.712 315.542C382.71 314.704 381.544 314.035 380.331 313.553C379.022 313.032 379.108 310.975 380.68 310.978Z" fill="#444444"/>
<path fill-rule="evenodd" clip-rule="evenodd" d="M378.871 142.701C378.807 142.115 379.652 142.097 379.826 142.571C381.256 146.474 382.738 150.349 383.871 154.35C384.963 158.206 385.749 162.15 386.545 166.077C387.866 172.593 389.002 179.158 389.942 185.744C391.95 184.173 394.576 184.03 397.049 185.252C398.209 185.826 398.654 187.342 398.375 188.518C398.152 189.462 397.879 190.401 397.551 191.321C398.252 191.942 398.847 192.708 399.279 193.588C400.418 195.905 400.051 198.338 399.03 200.549C399.107 200.68 399.184 200.813 399.257 200.954C400.735 203.83 399.945 206.406 398.864 209.212C398.055 211.312 398.507 213.677 396.762 215.262C396.155 217.215 395.245 219.03 393.921 220.67C393.62 221.222 393.169 221.666 392.634 221.992C392.5 225.073 392.175 228.143 391.565 231.187C389.194 243.006 381.669 253.536 372.354 260.962C363.239 268.23 352.534 272.573 340.983 273.977C335.374 274.659 329.757 274.444 324.194 273.47L323.501 273.346C318.368 272.414 312.157 270.87 308.607 266.99C306.741 264.95 307.832 260.46 311.132 260.884C312.88 261.108 314.402 261.389 316.048 262.035C317.332 262.539 318.618 263.025 319.936 263.437C322.461 264.224 325.072 264.838 327.693 265.178C333.154 265.885 338.829 265.698 344.227 264.631C354.043 262.691 363.58 258.216 371.029 251.478C379.688 243.645 384.764 233.508 385.511 221.817C386.343 208.795 384.843 195.462 383.597 182.508C382.949 175.769 382.126 169.045 381.135 162.348C380.167 155.805 379.587 149.271 378.871 142.701ZM302.238 100.654L302.658 100.59C319.328 98.0482 336.867 98.2284 352.536 105.121C355.539 106.443 358.478 108.037 361.246 109.887C363.228 109.679 365.222 109.511 367.181 109.484C369.645 109.451 372.05 110.734 372.353 113.231C374.662 113.519 376.788 114.37 378.148 116.072C378.678 116.735 379.033 117.502 379.213 118.301C380.632 118.637 382.024 119.152 383.344 119.832C384.947 120.659 385.872 122.96 385.306 124.663C385.175 125.049 385.026 125.425 384.86 125.794L384.732 126.069L384.807 126.172C386.088 128.234 385.198 130.939 383.236 132.17C381.764 133.093 380.121 133.828 378.43 134.183C378.57 134.863 378.698 135.546 378.801 136.237C378.841 136.517 378.483 136.717 378.323 136.441C378.323 136.441 378.929 138.331 379.843 140.413C380.201 141.231 379.053 141.959 378.614 141.132C377.45 138.926 376.728 136.665 375.671 134.391C374.694 134.327 373.721 134.104 372.783 133.676C372.169 133.396 371.703 132.925 371.368 132.361C371.348 132.385 371.336 132.413 371.316 132.441C368.169 136.497 362.02 137.919 357.266 139.202C352.162 140.581 346.937 141.431 341.693 142.059C332.536 143.149 323.308 143.353 314.108 143.777C313.498 143.805 312.89 143.835 312.282 143.865C308.545 147.149 303.732 149.19 298.794 149.811C296.293 150.125 293.334 150.045 290.528 149.405C289.513 150.443 288.23 151.213 286.829 151.608C286.577 156.842 283.665 161.797 279.261 164.685L279.339 164.996C280.433 169.466 280.419 174.351 276.496 177.457C275.965 177.877 275.385 178.238 274.774 178.537L274.908 178.845C276.935 183.59 277.582 188.83 273.773 192.767C272.229 194.362 269.517 193.985 268.359 192.153L268.303 192.06C268.238 191.951 268.169 191.847 268.102 191.74C267.999 191.951 267.841 192.13 267.607 192.23C266.159 192.854 265.581 192.394 264.261 191.75C263.04 191.151 261.752 190.704 260.437 190.356C259.363 190.076 258.295 189.877 257.218 189.761C250.414 192.366 246.019 200.357 247.064 207.856C247.63 211.94 249.868 215.983 253.768 217.677C255.475 218.42 257.481 218.732 259.327 218.48C261.828 218.141 263.75 216.563 266.338 217.465C267.359 217.821 267.998 218.625 268.053 219.723C268.145 221.449 267.535 222.743 266.506 223.702C268.32 225.221 269.784 227.33 271.359 229.013C273.33 231.118 275.327 233.224 277.457 235.165C279.467 237.007 281.605 238.717 283.87 240.236L284.108 240.393C286.946 242.244 290.522 243.889 290.658 247.76C290.701 248.926 289.996 249.997 289.038 250.592C285.462 252.814 281.569 249.897 278.765 247.76C277.637 246.9 276.54 246.009 275.483 245.086C274.777 245.142 274.007 245.027 273.206 244.671C272.691 244.447 272.189 244.183 271.694 243.904C270.087 244.307 268.572 243.952 267.323 243.108C265.525 243.552 263.619 243.604 261.999 243.248C260.52 242.921 259.2 242.221 258.111 241.283C255.838 242.01 253.313 241.874 251.072 240.495C249.728 239.669 248.679 238.49 248.109 237.111C247.819 236.656 247.633 236.125 247.619 235.539L247.619 235.317C245.664 235.361 243.706 234.69 242.195 233.14C240.807 231.717 240.129 229.944 240.053 228.141C238.087 227.582 236.288 226.435 234.921 224.665C232.655 221.733 232.353 218.109 233.517 214.872C233.441 214.701 233.373 214.525 233.313 214.349C231.507 211.796 230.314 208.715 230.41 205.627C230.422 205.147 230.486 204.676 230.582 204.209C228.803 203.261 227.495 201.599 227.355 199.486C227.248 197.828 227.842 196.205 228.915 194.979C228.392 193.728 228.161 192.37 228.32 191.011C228.484 189.617 228.974 188.406 229.693 187.396C229.676 187.028 229.696 186.656 229.756 186.277C229.684 185.905 229.624 185.521 229.593 185.13C229.254 180.847 232.205 177.099 235.798 175.121C236.743 174.602 237.764 174.178 238.785 173.819C239.527 173.555 240.643 173.467 241.297 172.984C241.27 172.964 241.541 172.612 241.589 172.424C241.64 172.193 241.696 171.965 241.725 171.729C241.832 170.738 241.752 169.719 241.732 168.724C241.644 164.21 241.784 159.675 242.259 155.184C243.14 146.857 245.314 138.71 249.549 131.435C253.102 125.337 257.968 120.187 263.547 115.916C274.66 107.413 288.528 102.789 302.238 100.654ZM250.737 204.205C249.29 200.721 256.101 200.687 257.901 200.852L257.954 200.858C262.007 201.261 268.344 203.214 270.002 207.312C270.688 209.008 268.657 210.846 267.031 210.288C265.439 209.743 264.546 208.57 263.269 207.545C262.934 207.275 262.585 207.024 262.229 206.782C262.416 207.379 262.716 207.932 263.132 208.344L263.23 208.437C265.192 210.202 261.684 212.976 260.383 210.638C259.689 209.394 259.412 208.029 259.628 206.617C259.692 206.2 259.804 205.819 259.966 205.456C259.837 205.391 259.71 205.32 259.579 205.258L259.345 205.15C257.784 204.44 251.123 201.654 251.177 204.145C251.183 204.421 250.826 204.421 250.737 204.205Z" fill="#444444"/>
<path fill-rule="evenodd" clip-rule="evenodd" d="M344.684 242.497C341.997 241.401 339.6 239.573 337.848 237.239C337.238 236.427 337.081 235.57 337.208 234.786C337.352 233.905 337.874 233.106 338.585 232.57C339.299 232.032 340.191 231.767 341.054 231.902C341.804 232.02 342.55 232.43 343.141 233.281L343.265 233.452C344.307 234.861 345.664 236.017 347.211 236.762C348.702 237.481 350.37 237.816 352.095 237.621C355.382 237.25 357.647 235.473 360.055 233.06C360.354 232.755 360.652 232.441 360.952 232.121C361.142 231.832 361.405 231.646 361.697 231.548C362.021 231.44 362.388 231.446 362.724 231.563C363.048 231.676 363.337 231.891 363.532 232.176C363.716 232.447 363.821 232.781 363.787 233.166C363.567 235.667 362.259 237.899 360.401 239.652C358.338 241.598 355.603 242.945 353.028 243.417C350.192 243.937 347.301 243.564 344.684 242.497ZM354.366 203.917C357.384 205.751 361.983 210.027 358.736 214.574C354.915 218.582 349.413 213.986 346.701 211.907C344.187 210.296 341.362 214.44 343.695 216.321C363.287 230.823 371.238 204.396 355.893 201.76C354.203 201.47 353.576 203.349 354.366 203.917ZM319.257 187.047C319.59 182.91 325.894 181.97 326.521 186.065C327.082 189.732 326.421 193.102 324.769 196.404C323.19 199.559 319.221 198.087 318.921 195.214C318.519 191.363 319.05 189.621 319.257 187.047ZM367.24 185.216C368.119 184.065 369.388 183.279 370.908 183.723C375.658 185.111 374.258 191.852 372.59 195.134C371.683 196.916 368.754 197.368 367.43 195.799C365.272 193.24 364.238 188.13 366.982 185.61C367.056 185.48 367.139 185.348 367.24 185.216ZM324.702 168.941L325.452 168.81C327.773 168.409 330.659 168.023 332.301 169.889C333.172 170.878 333.472 172.717 332.301 173.664C330.242 175.33 327.966 174.684 325.499 174.825C323.465 174.942 321.511 175.278 319.552 175.838C315.255 177.066 311.754 179.307 308.084 181.769C307.602 182.091 307.111 181.476 307.341 181.025C309.459 176.877 313.565 173.469 317.677 171.392C319.872 170.283 322.274 169.363 324.702 168.941ZM362.91 167.083L363.485 167.201C369.734 168.507 377.853 171.115 380.813 177.252C380.926 178.12 380.806 178.306 380.71 178.428L380.677 178.468C380.597 178.572 380.534 178.715 380.158 178.833C380.053 178.808 379.948 178.782 379.841 178.754C378.485 178.398 377.411 177.909 376.372 177.401L375.246 176.846C373.939 176.205 372.62 175.588 371.223 175.132C368.24 174.159 365.173 173.474 362.058 173.108C361.383 173.029 360.733 172.801 360.22 172.411C359.733 172.04 359.361 171.527 359.191 170.845C358.972 169.963 359.035 169.294 359.508 168.498C359.865 167.9 360.374 167.486 360.959 167.248C361.556 167.005 362.235 166.948 362.91 167.083Z" fill="#444444"/>
<path fill-rule="evenodd" clip-rule="evenodd" d="M390.134 206.35C385.282 211.363 377.182 212.801 370.726 210.113C354.15 203.189 362.264 181.593 375.047 175.794C376.644 175.396 378.777 174.452 380.722 174.238C380.898 174.151 381.281 174.401 381.745 174.165C395.841 175.738 399.051 197.614 390.134 206.35ZM336.67 207.633C331.228 214.849 321.11 217.076 312.844 213.721C296.514 207.292 302.306 188.142 313.479 180.634C337.081 171.768 346.827 194.328 336.67 207.633ZM301.269 191.644C301.254 191.637 301.239 191.633 301.223 191.626C301.309 191.588 301.396 191.55 301.482 191.511C301.454 191.584 301.423 191.657 301.396 191.73C301.354 191.701 301.317 191.667 301.269 191.644ZM401.369 183.844C400.036 183.846 398.112 184.065 397.009 184.989C394.289 175.819 384.249 167.331 375.517 173.52C368.641 175.731 363.539 180.634 360.639 187.152C355.411 184.043 347.189 185.37 342.655 189.482C339.686 179.673 332.378 176.238 323.679 175.731C314.185 174.176 304.722 183.394 301.77 190.789C299.315 190.51 295.646 189.729 293.337 191.243C278.347 187.313 252.14 185.147 249.093 187.33C246.921 188.163 245.73 193.288 248.763 193.564C251.406 193.189 248.454 189.809 251.119 189.44C265.316 188.561 279.097 191.419 293.144 192.618C294.398 194.305 298.45 194.869 300.612 194.192C297.207 206.736 304.557 215.27 315.569 217.826C332.621 221.742 347.456 206.492 342.997 190.63C348.163 188.061 354.104 188.172 359.731 189.525C350.328 224.122 406.062 222.569 397.357 186.175C403.15 189.056 404.408 184.425 401.369 183.844Z" fill="#444444"/>
</svg>
