<svg width="785" height="782" viewBox="0 0 785 782" fill="none" xmlns="http://www.w3.org/2000/svg">
<path d="M311.404 161.118C344.178 140.566 392.602 80.6284 462.568 102.32C531.174 123.591 589.002 171.663 626.311 234.538C663.636 297.44 681.467 371.796 663.024 440.138C645.076 506.645 605.112 587.102 545.059 618.324C487.749 648.12 408.573 623.461 344.324 605.832C279.121 587.942 199.792 615.53 163.45 556.933C126.359 497.128 77.1172 370.673 90.1898 303.595C103.812 233.697 230.94 177.149 311.404 161.118Z" fill="#FFE9E1"/>
<path d="M127.64 581.905C90.776 581.905 164.37 581.618 127.64 581.905C127.237 580.261 125.824 579.91 124.868 579.149C119.02 574.497 115.982 568.322 114.869 561.062C114.385 557.906 115.413 556.502 118.896 556.54C132.791 556.69 146.688 556.61 160.584 556.614C161.763 556.615 162.941 556.614 164.101 556.614C164.101 556.125 164.187 555.768 164.089 555.707C155.857 550.609 152.81 543.24 152.835 533.598C153.031 459.445 153.252 385.289 152.748 311.139C152.621 292.522 164.932 283.899 179.958 284.326C208.697 285.143 237.446 284.744 266.19 284.82C268.067 284.825 270.009 285.166 271.966 284.255C272.059 279.874 270.595 275.654 271.275 271.143C273.548 256.061 282.612 246.78 296.037 241.062C302.284 238.401 308.986 237.408 315.693 237.442C335.454 237.543 355.217 237.813 374.972 238.308C386.437 238.595 397.58 240.332 407.423 247.105C415.859 252.91 420.339 260.722 420.69 270.883C420.851 275.532 420.718 280.191 420.718 285.067C421.036 285.595 421.798 285.531 422.5 285.534C430.047 285.563 437.594 285.591 445.141 285.581C446.419 285.579 447.981 285.798 448.291 283.989C448.566 282.39 447.193 282.145 446.107 281.629C439.319 278.401 437.761 271.502 442.678 265.577C444.234 263.702 444.704 262.395 443.688 259.94C442.072 256.034 443.721 252.354 447.035 250.164C461.546 240.575 476.713 233.804 494.516 240.975C494.735 241.064 494.979 241.126 495.213 241.131C495.44 241.136 495.669 241.052 496.256 240.937C496.729 229.954 502.53 223.641 513.645 222.506C519.74 221.883 525.994 225.16 528.663 231.005C533.807 242.268 528.698 250.544 520.151 257.341C520.335 258.912 521.368 259.668 522.018 260.644C524.839 264.874 525.714 269.418 524.28 274.339C523.945 275.487 523.458 276.593 523.155 277.748C521.497 284.067 522.764 285.728 529.186 285.736C539.488 285.749 549.79 285.758 560.092 285.78C561.91 285.784 563.485 285.638 564.919 284.074C573.287 274.947 583.964 270.704 596.119 269.77C613.687 268.419 631.3 268.667 648.893 268.207C658.136 267.966 667.326 267.78 676.385 269.862C690.083 273.01 700.461 280.576 705.855 293.761C712.271 309.447 705.581 326.021 689.749 334.88C683.033 338.638 675.807 340.58 668.101 340.565C661.274 340.552 654.446 340.391 647.618 340.37C642.871 340.356 642.841 340.418 642.841 345.204C642.843 396.836 642.853 448.468 642.862 500.1C642.864 510.762 642.677 521.428 642.939 532.084C643.165 541.256 642.55 549.934 633.95 555.725C635.439 557.102 636.815 556.594 638.045 556.597C650.983 556.627 663.921 556.582 676.859 556.599C680.99 556.604 681.459 557.046 680.924 561.226C680.004 568.416 676.698 574.374 671.111 579.028C670.201 579.786 669.236 580.48 668.002 581.43C669.602 582.236 670.492 581.609 671.841 581.609C692.086 581.613 649.562 581.893 669.807 581.961C671.647 581.967 677.652 579.494 677.633 581.958C677.612 584.62 674.597 583.543 672.82 583.543C475.277 583.615 338.066 585.034 140.523 585.038C101.111 585.039 61.698 585.029 22.2855 585.016C20.8507 585.016 134.402 585.138 132.634 585.038C132.301 584.213 127.64 582.959 127.64 581.905ZM433.112 303.051C430.358 303.037 427.602 302.941 424.851 303.026C417.589 303.252 410.234 301.761 403.381 306.287C400.162 308.413 397.659 310.394 396.737 314.134C395.621 318.665 394.538 323.205 393.307 327.705C392.928 329.088 392.952 330.899 391.034 331.388C389.43 330.783 389.097 329.26 388.457 328.032C382.032 315.688 371.926 309.582 357.969 309.676C342.519 309.781 327.068 309.651 311.619 309.753C303.877 309.804 296.643 307.971 289.943 304.236C287.517 302.884 285.143 302.394 282.443 302.394C263.519 302.393 244.595 302.345 225.671 302.241C211.902 302.165 198.134 301.876 184.366 301.882C175.765 301.886 170.492 306.758 170.49 314.504C170.473 386.728 170.486 458.951 170.524 531.175C170.528 538.99 175.766 544.089 183.672 544.195C187.257 544.243 190.843 544.236 194.428 544.244C233.115 544.323 271.801 544.396 310.488 544.479C328.813 544.518 347.144 544.312 365.462 544.708C380.432 545.032 395.399 544.781 410.365 545.081C412.725 545.128 413.773 544.339 413.995 541.845C414.485 536.37 415.396 530.934 415.945 525.464C418.189 503.093 421.102 480.775 421.623 458.261C421.779 451.515 421.647 444.762 421.647 437.208C420.63 438.807 420.104 439.725 419.492 440.582C410.981 452.504 402.286 464.11 388.708 471.077C381.714 474.667 375.686 474.121 369.629 469.667C363.757 465.348 359.262 459.759 355.177 453.812C343.662 437.046 335.258 418.641 326.863 400.22C325.349 396.899 324.63 394.364 329.504 393.404C328.03 391.242 325.984 390.811 324.141 390.161C317.485 387.81 310.765 385.648 304.108 383.292C297.818 381.066 295.475 375.915 293.336 370.7C292.58 368.858 292.946 366.293 292.266 364.037C291.752 362.328 292.859 360.778 294.967 360.585C295.851 360.503 296.891 361.131 297.444 359.85C299.179 355.837 301.933 356.833 304.855 358.314C310.682 361.268 316.733 363.615 323.421 365.177C321.816 363.343 320.385 361.91 319.196 360.297C317.885 358.52 316.758 356.478 318.617 354.442C320.432 352.456 322.647 353.139 324.537 354.312C332.634 359.336 341.295 363.793 344.642 373.773C345.204 375.448 346.224 376.97 347.15 378.796C350.129 377.355 351.646 379.392 353.156 381.27C360.453 390.339 366.527 400.248 372.805 410.016C375.488 414.192 378.166 418.371 381.117 422.972C382.086 421.481 382.715 420.627 383.228 419.708C389.419 408.62 396.006 397.773 403.069 387.222C406.726 381.759 409.792 375.83 414.499 371.157C425.139 360.595 438.613 355.384 452.727 351.585C456.398 350.597 459.682 349.342 462.049 345.978C455.605 345.944 449.603 344.481 443.789 342.16C436.206 339.132 431.939 332.756 431.817 324.646C431.715 317.866 434.732 312.45 438.836 307.416C439.774 306.266 441.234 305.395 441.254 303.379C438.776 302.743 436.274 303.192 433.112 303.051ZM611.124 545.811C619.787 545.144 623.874 540.78 623.876 532.174C623.887 470.266 623.896 408.358 623.904 346.449C623.904 345.492 623.849 344.531 623.898 343.576C624.005 341.509 623.208 340.504 620.991 340.52C612.834 340.58 605.323 342.519 599.064 348.007C595.421 351.201 592.809 355.22 590.483 359.441C589.891 360.516 589.715 362.336 588.029 362.141C586.217 361.932 586.287 360.036 585.948 358.738C584.737 354.111 583.662 349.449 582.538 344.799C581.63 341.038 579.506 338.536 575.734 337.148C569.118 334.713 564.581 329.941 561.607 323.589C559.114 318.264 558.197 312.662 558.33 306.829C558.361 305.449 558.66 303.509 556.619 303.466C549.627 303.322 542.629 303.411 535.261 303.411C535.736 304.705 536.129 305.443 536.268 306.226C536.548 307.806 539.069 309.786 536.816 310.81C534.869 311.694 534.981 308.624 534.027 307.428C532.841 305.94 532.837 303.149 529.856 303.416C529.622 304.875 530.534 305.634 531.04 306.526C535.201 313.863 536.43 321.779 535.803 330.078C535.561 333.289 534.35 336.089 532.334 338.583C528.086 343.837 522.067 345.39 515.84 346.265C510.949 346.952 505.996 347.205 500.909 347.665C502.525 350.578 504.734 351.917 507.639 352.395C509.756 352.744 511.83 353.375 513.909 353.932C530.236 358.308 544.2 366.319 554.251 380.29C559.372 387.407 563.24 395.271 567.45 402.918C575.072 416.762 582.398 430.707 585.176 446.592C587.737 461.242 582.922 470.104 568.893 474.913C560.165 477.905 551.052 478.198 541.954 478.452C537.243 478.583 536.757 478.956 537.258 483.709C537.871 489.531 538.846 495.317 539.374 501.144C540.594 514.604 541.756 528.071 542.676 541.553C542.918 545.102 544.376 545.817 547.596 545.803C568.551 545.713 589.506 545.8 611.124 545.811ZM448.234 548.113C433.87 547.971 419.506 547.751 405.142 547.703C364.651 547.566 324.16 547.528 283.669 547.393C261.879 547.32 240.089 547.106 218.298 546.996C206.576 546.937 194.851 547.123 183.133 546.902C173.38 546.718 167.52 540.58 167.52 530.929C167.523 459.41 167.543 387.891 167.588 316.373C167.595 304.918 173.41 299.199 184.906 299.216C215.454 299.262 246.002 299.344 276.55 299.379C278.174 299.381 279.863 299.735 281.84 298.802C279.442 296.274 276.988 293.968 275.509 290.997C274.346 288.66 272.729 287.947 270.121 287.818C256.11 287.127 242.095 287.565 228.085 287.464C211.074 287.341 194.062 287.28 177.052 287.39C164.456 287.472 156.049 295.559 156.047 307.48C156.035 383.55 156.055 459.621 156.114 535.692C156.124 547.878 164.164 555.885 176.414 556.054C191.983 556.269 207.552 556.504 223.122 556.511C356.216 556.567 489.31 556.549 622.404 556.667C629.081 556.673 633.556 553.62 636.977 548.483C639.652 544.468 640.238 539.835 640.237 535.071C640.221 473.255 640.241 411.44 640.246 349.625C640.246 348.068 640.068 346.503 640.182 344.957C640.442 341.41 638.994 340.269 635.392 340.415C625.397 340.821 626.874 339.346 626.866 349.14C626.817 409.398 626.75 469.656 626.958 529.913C626.996 541.091 622.258 548.634 608.518 548.529C555.331 548.121 502.141 548.21 448.234 548.113ZM609.244 581.869C624.698 581.843 640.152 581.905 655.604 581.759C665.32 581.668 674.187 574.68 676.909 565.336C678.399 560.223 678.11 559.763 672.82 559.749C641.921 559.665 611.021 559.581 580.122 559.559C539.271 559.53 498.42 559.578 457.569 559.52C454.849 559.516 453.229 560.058 452.329 563.006C450.48 569.056 445.867 572.06 439.235 572.063C411.682 572.076 384.128 572.076 356.575 572.057C349.715 572.053 345.151 568.784 343.266 562.256C342.612 559.994 341.607 559.258 339.278 559.309C330.662 559.497 322.042 559.439 313.424 559.541C279.29 559.942 245.158 559.037 211.02 559.475C182.273 559.844 153.519 559.631 124.768 559.679C123.451 559.681 122.132 559.761 120.816 559.73C118.522 559.675 118.029 560.711 118.37 562.896C120.068 573.759 129.594 581.681 141.316 581.715C168.749 581.795 196.182 581.875 223.615 581.878C351.919 581.889 480.222 581.873 609.244 581.869ZM451.855 367.731C447.157 377.995 444.753 388.772 444.494 400.057C444.439 402.468 445.046 403.988 447.49 405.064C451.249 406.718 452.97 410.656 452.239 414.595C451.487 418.649 448.398 421.519 444.424 421.856C439.967 422.235 436.467 420.228 434.881 416.384C433.273 412.487 434.236 408.407 437.895 405.894C439.963 404.473 440.54 402.93 440.561 400.559C440.698 385.408 444.499 371.234 452.229 358.15C452.865 357.073 453.984 356.143 453.609 354.353C449.496 354.62 445.765 356.23 442.05 357.676C430.801 362.056 419.925 367.148 412.799 377.533C403.721 390.763 395.229 404.364 387.022 418.162C383.796 423.586 382.486 428.167 386.992 433.276C387.76 434.147 388.715 435.498 386.367 437.011C374.819 418.138 363.522 399.119 349.765 381.066C344.316 388.348 338.048 393.339 330.151 396.153C328.416 396.772 328.867 398.141 329.447 399.448C337.655 417.96 346.222 436.293 357.844 452.981C361.813 458.682 366.138 464.157 372.032 468.089C375.644 470.499 379.502 472.168 383.836 470.247C389.429 467.769 394.759 464.847 399.292 460.599C407.666 452.749 414.523 443.75 420.243 433.824C421.533 431.586 421.891 429.52 421.102 427.024C418.808 419.759 419.073 412.37 420.72 405.04C421.082 403.425 420.791 400.125 423.193 400.754C425.566 401.376 423.655 404.095 423.291 405.751C420.687 417.618 421.928 428.59 430.259 438.077C430.933 438.844 431.908 439.609 430.905 440.986C427.642 441.093 427.251 437.332 424.821 436.152C423.983 438.162 424.594 440.067 424.603 441.924C424.764 475.278 420.461 508.286 416.818 541.339C416.471 544.489 417.486 545.054 420.208 545.027C429.31 544.934 438.416 544.871 447.515 545.053C450.889 545.121 452.122 544.152 452.051 540.607C451.614 518.811 452.321 497.022 452.784 475.234C453.287 451.541 454.623 427.882 456.452 404.257C457.347 392.695 458.753 381.174 459.746 369.618C460.201 364.324 461.507 359.09 461.33 352.89C456.941 357.507 454.505 362.368 451.855 367.731ZM586.155 348.478C587.028 351.139 586.989 354.081 588.434 356.633C588.816 356.4 589.077 356.326 589.196 356.154C589.874 355.17 590.515 354.159 591.176 353.163C596.946 344.464 604.991 338.826 615.367 338.255C631.248 337.381 647.186 336.789 663.099 337.738C671.799 338.256 680.011 336.884 687.751 332.838C708.051 322.226 711.493 298.282 694.975 282.436C686.754 274.55 676.535 271.494 665.53 270.927C648.895 270.071 632.27 271.603 615.632 271.6C609.175 271.599 602.702 271.876 596.265 272.382C588.674 272.98 581.445 274.925 574.908 279.101C567.798 283.643 562.976 289.658 561.615 298.192C560.737 303.694 560.845 309.206 561.716 314.64C563.048 322.948 566.653 330.403 574.723 333.632C581.682 336.416 584.888 341.07 586.155 348.478ZM412.014 296.971C418.326 288.786 418.706 279.326 417.906 269.607C417.011 258.739 410.848 251.759 401.579 246.779C392.923 242.128 383.604 241.366 374.098 241.171C362.253 240.929 350.405 240.738 338.566 240.316C328.761 239.967 318.977 239.475 309.185 240.675C297.512 242.106 287.665 246.764 280.285 256.182C270.229 269.015 272.277 286.825 284.703 297.36C294.33 305.523 305.541 307.713 317.577 306.959C332.308 306.037 347.016 306.912 361.721 307.259C372.526 307.514 381.166 312.608 387.444 321.497C388.456 322.93 389.395 324.414 390.565 326.168C392.826 321.707 393.062 317.095 394.347 312.793C395.61 308.563 397.888 305.608 402.113 304.114C405.909 302.773 409.062 300.417 412.014 296.971ZM533.067 407.327C533.657 399.132 533.657 399.132 536.175 397.967C537.201 400.07 536.489 402.181 536.14 404.205C534.917 411.293 534.599 418.101 539.222 424.391C541.482 427.465 542.823 431.23 543.525 434.975C544.167 438.396 545.791 439.637 549.055 439.241C549.644 439.17 550.251 439.239 550.848 439.262C551.882 439.301 553.299 438.967 553.332 440.528C553.365 442.047 551.954 441.949 550.912 441.943C546.483 441.92 542.054 441.803 537.625 441.786C527.697 441.748 517.759 441.407 507.864 442.637C506.25 442.838 504.439 442.861 505.032 445.203C507.212 453.8 507.616 462.387 504.966 470.622C505.868 471.916 506.917 471.916 507.812 472.084C522.927 474.925 538.166 476.187 553.527 475.12C560.966 474.604 568.237 473.115 574.762 469.195C580.111 465.982 582.804 461.29 582.879 454.964C582.985 445.927 580.628 437.45 577.355 429.175C571.655 414.763 563.63 401.539 556.051 388.1C550.542 378.332 542.998 370.426 533.219 364.767C525.218 360.136 516.68 357.032 507.069 355.158C507.685 356.47 507.985 357.238 508.389 357.947C512.032 364.345 514.708 371.103 515.842 378.401C516.252 381.036 517.145 382.946 519.871 384.08C522.394 385.129 523.741 387.632 524.635 390.145C526.582 395.618 527.128 401.25 526.778 407.081C526.583 410.34 524.218 413.192 525.018 416.43C526.696 423.22 528.678 429.935 530.535 436.681C531.124 427.004 531.987 417.485 533.067 407.327ZM457.516 427.977C457.278 431.317 456.896 434.654 456.824 437.998C456.324 461.092 454.894 484.16 454.932 507.272C454.938 510.855 456.24 512.129 459.563 512.528C468.734 513.631 477.905 514.07 487.134 513.463C495.325 512.924 495.714 512.724 495.69 504.628C495.678 500.645 496.444 496.554 494.927 492.367C492.819 492.939 490.986 493.397 489.176 493.933C482.207 495.996 482.48 495.915 480.196 489.056C478.125 482.838 478.811 475.211 471.828 471.267C471.644 471.163 471.509 470.897 471.438 470.679C470.426 467.562 467.411 465.945 465.833 463.008C464.359 460.266 463.376 457.038 461.148 454.481C459.72 452.842 461.294 450.704 463.397 449.638C464.877 448.889 466.718 449.149 468.283 447.772C465.531 438.216 462.786 428.586 459.977 418.974C458.817 415.004 458.976 414.711 463.101 413.63C473.973 410.781 484.813 407.808 495.713 405.073C498.065 404.483 498.824 403.39 498.799 401.122C498.691 391.306 498.766 381.486 498.587 371.671C498.519 367.968 497.944 364.273 497.526 359.78C492.626 363.676 488.427 366.82 484.464 370.237C482.038 372.329 480.097 372.361 477.575 370.377C473.116 366.87 468.431 363.651 463.402 359.991C462.547 368.37 461.665 376.194 460.968 384.035C459.686 398.448 458.24 412.849 457.516 427.977ZM536.287 497.976C535.691 492.105 535.172 486.22 533.642 480.198C522.919 483.508 512.689 486.812 502.359 489.768C499.208 490.669 498.2 492.204 498.257 495.329C498.533 510.644 498.164 525.966 498.845 541.28C498.965 543.975 499.64 545.085 502.558 545.047C513.689 544.902 524.823 544.929 535.955 545.04C538.829 545.068 540.089 544.298 539.819 541.165C538.6 526.99 537.533 512.802 536.287 497.976ZM500.282 310.4C501.081 309.076 502.364 309.547 503.519 309.517C507.027 309.423 509.465 307.402 510.017 304.047C510.418 301.608 509.268 300.053 506.906 299.647C504.619 299.254 504.076 300.774 503.998 302.712C503.952 303.844 504.064 305.212 502.346 305.456C500.685 304.558 501.101 303.015 501.264 301.66C501.784 297.358 501.519 293.048 501.534 288.741C501.538 287.43 501.688 285.939 500.555 285.041C496.765 282.035 494.909 278.069 494.788 273.025C491.529 274.252 490.027 276.892 487.777 278.582C483.56 281.75 480.619 281.402 477.333 277.273C477.063 276.933 476.698 276.669 476.413 276.402C473.793 277.762 471.402 279.13 468.905 280.264C466.391 281.406 463.716 282.093 460.942 282.307C455.695 282.712 455.695 282.711 455.917 287.95C462.456 286.69 465.975 287.498 469.429 291.051C472.05 293.747 477.503 293.778 480.308 291.112C484.747 286.892 490.017 286.156 494.723 289.099C499.1 291.836 500.58 296.577 498.869 302.376C497.656 306.487 493.473 309.356 488.326 309.606C483.502 309.84 480.393 307.731 478.539 303.32C477.559 300.988 477.597 298.476 476.992 295.962C474.818 296.26 472.258 294.598 471.614 298.419C470.134 307.205 465.604 310.277 456.699 308.934C456.286 308.872 455.834 309.069 455.242 309.173C455.999 316.26 458.488 322.444 463.526 327.208C473.853 336.975 488.365 334.594 495.43 322.215C497.46 318.657 498.809 314.822 500.282 310.4ZM519.969 419.572C518.803 416.185 517.644 412.795 516.47 409.411C515.816 407.525 514.605 406.496 512.477 406.488C506.284 406.464 500.13 406.293 494.135 408.492C489.666 410.131 484.855 410.897 480.498 412.758C477.713 413.948 475.376 416.075 472.117 416.401C470.382 416.574 468.88 417.543 468.769 420.06C470.758 419.123 472.297 418.244 473.942 417.664C475.763 417.023 477.516 417.322 478.771 418.979C481.702 422.845 481.405 427.501 478.227 431.12C477.039 432.472 474.559 433.457 475.341 435.637C476.219 438.087 478.939 438.048 481.141 438.507C482.476 438.785 483.738 438.431 485.031 438.162C490.785 436.961 496.548 436.029 502.44 437.303C505.08 437.874 507.329 437.097 509.274 435.114C511.53 432.812 513.839 430.524 516.367 428.537C519.184 426.323 520.379 423.606 519.969 419.572ZM312.78 383.788C318.07 385.677 324.105 386.093 328.616 389.341C333.09 392.563 335.932 391.031 339.198 388.238C340.379 387.227 341.573 386.231 342.75 385.215C345.027 383.252 345.69 381.171 343.916 378.349C342.14 375.525 340.816 372.419 339.272 369.447C337.987 366.974 336.383 364.801 333.926 363.309C330.863 361.448 327.905 359.414 324.841 357.555C323.721 356.875 322.659 355.503 320.773 356.745C321.15 360.09 324.018 361.445 326.16 363.362C327.202 364.293 328.769 365.133 328.082 366.831C327.348 368.645 325.658 368.41 324.062 368.11C317.185 366.813 310.803 364.126 304.497 361.21C303.537 360.765 302.651 359.724 301.049 360.546C305.06 365.454 311.329 366.399 315.801 370.226C308.055 370.814 301.785 366.791 295.139 363.861C299.065 370.145 306.926 370.481 312.002 375.134C306.647 375.187 302.301 371.951 297.001 371.035C301.218 376.25 307.822 376.211 312.664 379.625C308.061 381.395 304.353 377.866 299.248 377.486C303.891 380.252 307.873 382.329 312.78 383.788ZM497.468 448.557C493.998 447.27 490.565 445.869 487.048 444.724C482.925 443.383 478.946 443.561 475.108 446.517C477.875 448.229 481.138 445.933 483.949 448.784C477.218 451.803 469.531 449.147 463.165 453.185C465.744 455.975 469.566 453.364 471.594 456.046C470.829 458.726 467.104 456.578 466.613 459.445C467.447 460.976 468.952 460.796 470.356 460.936C471.351 461.036 472.776 460.519 473.086 461.955C473.425 463.529 471.839 463.354 470.958 463.791C470.52 464.009 470.141 464.298 470.261 465.054C471.811 467.293 475.513 464.791 476.849 467.425C476.785 469.1 474.612 468.646 474.701 470.156C479.256 472.636 487.47 472.03 493.256 468.609C495.492 467.287 497.774 466.303 500.341 466.473C502.965 466.647 503.744 465.359 503.73 463.059C503.712 460.072 503.84 457.081 503.727 454.099C503.513 448.471 503.376 448.393 497.468 448.557ZM481.694 335.486C479.664 335.521 477.617 335.737 475.608 335.546C472.909 335.291 471.647 336.032 471.713 339.011C471.823 344.007 470.54 348.35 465.806 351.242C463.325 352.758 463.354 356.157 465.6 357.948C469.987 361.448 474.517 364.769 479.001 368.148C480.014 368.912 481.164 369.374 482.287 368.454C486.998 364.595 491.773 360.803 496.305 356.743C497.94 355.278 497.881 353.258 495.614 352.014C490.782 349.363 489.83 345.096 490.471 340.08C490.781 337.65 491.299 335.195 490.527 332.524C487.601 333.321 485.19 335.054 481.694 335.486ZM560.564 291.266C561.557 288.694 559.767 288.804 558.157 288.798C547.768 288.756 537.378 288.719 526.989 288.708C526.191 288.707 525.282 288.596 524.511 289.845C526.497 293.768 529.903 296.828 533.03 299.97C534.735 301.684 537.618 300.564 539.966 300.648C543.306 300.768 546.653 300.694 549.996 300.7C557.745 300.713 557.744 300.712 559.835 293.487C560.001 292.914 560.216 292.355 560.564 291.266ZM420.869 288.259C417.331 291.269 416.712 295.91 413.409 300.136C422.258 300.136 430.016 300.1 437.774 300.147C444.47 300.188 444.749 300.029 446.802 293.572C446.983 293.002 447.094 292.41 447.287 291.845C448.199 289.174 447.265 288.111 444.447 288.146C436.789 288.24 429.129 288.188 420.869 288.259ZM500.592 364.302C502.111 377.186 500.685 390.189 501.605 403.229C504.317 402.694 503.608 400.957 503.75 399.67C504.319 394.526 504.521 388.875 508.899 385.591C512.368 382.989 512.436 380.464 511.431 377.066C510.99 375.575 510.714 374.03 510.21 372.562C507.93 365.934 505.31 359.483 500.056 353.651C500.258 357.483 500.42 360.555 500.592 364.302ZM496.168 302.599C498.429 295.237 496.142 290.897 489.461 289.872C485.075 289.199 480.729 292.947 480.249 297.817C479.73 303.092 482.675 307.174 487.223 307.126C490.639 307.09 493.866 306.259 496.168 302.599ZM455.49 305.672C458.368 307.917 461.386 307.07 464.293 305.887C468.486 304.182 470.414 299.322 468.875 294.802C467.68 291.29 462.765 288.746 458.891 289.711C456.826 290.225 454.886 291.233 454.74 293.578C454.5 297.464 453.955 301.396 455.49 305.672ZM514.058 387.303C509.722 389.484 507.253 395.364 508.339 401.006C508.653 401.086 509.009 401.291 509.322 401.238C510.611 401.021 511.897 400.766 513.167 400.453C519.907 398.791 519.903 398.784 522.008 405.301C522.054 405.442 522.293 405.521 522.527 405.691C522.708 400.944 522.688 396.302 520.894 391.885C519.76 389.091 518.198 386.751 514.058 387.303ZM436.827 412.744C437.04 413.667 437.102 414.661 437.492 415.501C438.65 417.99 440.605 419.374 443.438 419.304C446.075 419.239 447.984 418.03 449.105 415.629C450.316 413.035 449.721 410.689 447.906 408.665C444.411 404.766 439.015 406.546 436.827 412.744ZM541.134 436.256C539.744 431.676 538.156 427.192 534.761 422.423C534.063 427.895 533.436 432.323 533.664 436.824C533.769 438.895 535.439 439.025 536.793 438.745C538.362 438.421 541.186 440.513 541.134 436.256ZM527.305 300.518C529.609 300.141 528.473 299.012 527.745 298.16C525.443 295.467 522.624 293.215 521 289.933C521.754 294.145 523.838 297.533 527.305 300.518Z" fill="#444444"/>
<path d="M201.473 444.948C211.586 425.287 238.386 423.597 250.239 443.074C256.268 452.981 254.965 465.627 247.121 475.184C240.292 483.503 227.88 486.695 217.029 482.922C206.385 479.222 199.156 469.097 198.891 457.757C198.787 453.355 199.725 449.224 201.473 444.948ZM217.619 453.528C217.541 452.132 218.513 451.079 218.84 449.84C219.536 447.209 217.124 446.722 215.607 445.869C214 444.966 213.312 446.31 212.776 447.618C211.217 451.425 211.11 455.066 214.005 458.338C218.188 463.068 223.187 466.706 229.095 468.931C233.474 470.579 238.202 468.149 240.019 463.525C238.711 462.253 237.507 460.782 235.378 460.401C233.701 462.697 231.624 464.486 228.705 463.495C223.844 461.845 219.665 459.208 217.619 453.528Z" fill="#444444"/>
<path d="M206.439 372.105C215.481 363.465 227.35 361.293 238.107 366.155C248.033 370.641 254.263 380.854 253.972 392.164C253.592 406.935 240.971 419.033 226.101 418.88C211.251 418.728 198.963 406.346 198.9 391.54C198.869 384.151 201.186 377.705 206.439 372.105ZM219.009 399.109C221.869 399.103 224.73 399.04 227.588 399.111C229.673 399.163 230.683 398.348 230.637 396.186C230.578 393.328 230.514 390.46 230.686 387.61C230.847 384.939 229.554 383.848 227.133 383.882C223.086 383.938 219.041 384.115 214.996 384.251C213.262 384.309 212.399 385.197 212.405 386.958C212.417 390.175 212.398 393.392 212.386 396.609C212.379 398.198 213.116 399.064 214.747 399.08C215.939 399.091 217.13 399.099 219.009 399.109ZM239.827 385.661C237.36 384.332 235.683 386.29 234.521 387.603C233.001 389.319 233.066 392.15 233.941 394.069C234.827 396.009 237.285 396.485 239.707 396.201C240.296 392.827 239.845 389.494 239.827 385.661Z" fill="#444444"/>
<path d="M595.772 300.189C593.923 297.46 596.323 297.968 597.401 297.927C601.214 297.78 605.036 297.832 608.854 297.827C617.087 297.818 625.321 297.795 633.554 297.846C634.84 297.854 636.525 297.274 637.318 300.06C630.362 300.773 623.571 300.269 616.82 300.344C609.901 300.421 602.981 300.309 595.772 300.189Z" fill="#444444"/>
<path d="M631.236 310.715C643.045 310.802 654.505 310.882 665.965 311.018C666.273 311.022 666.575 311.635 666.891 311.975C664.412 313.846 628.363 313.935 625.437 312.084C626.84 309.845 629.075 311.053 631.236 310.715Z" fill="#444444"/>
<path d="M670.567 300.377C663.275 300.377 656.324 300.377 648.58 300.377C651.406 297.211 673.272 297.041 675.883 299.362C674.473 301.061 672.546 300.1 670.567 300.377Z" fill="#444444"/>
<path d="M595.274 313.096C594.005 311.989 594.439 310.957 595.546 310.94C601.219 310.855 606.917 310.059 612.561 311.279C612.718 311.313 612.808 311.654 612.927 311.853C611.274 313.575 608.265 313.806 595.274 313.096Z" fill="#444444"/>
<path d="M305.623 269.301C303.081 269.043 300.579 270.053 298.602 267.96C301.562 265.727 359.074 265.8 362.114 267.96C360.975 269.708 359.191 269.253 357.649 269.256C340.423 269.293 323.197 269.291 305.623 269.301Z" fill="#444444"/>
<path d="M299.012 281.746C297.86 279.439 299.53 279.359 300.751 279.353C312.923 279.301 325.096 279.319 337.269 279.344C338.214 279.346 339.208 279.465 339.566 280.656C339.465 281.921 338.472 282.168 337.529 282.161C324.774 282.072 312.014 282.754 299.012 281.746Z" fill="#444444"/>
<path d="M368.806 282.229C361.946 282.043 355.391 282.625 348.961 281.451C351.343 278.78 379.078 278.5 382.714 280.841C378.166 283.493 373.508 281.677 368.806 282.229Z" fill="#444444"/>
<path d="M472.645 302.49C473.676 300.821 473.025 298.902 474.335 297.374C476.527 297.684 476.381 299.269 476.085 300.786C475.516 303.698 473.762 305.991 471.933 308.217C469.097 311.669 469.183 311.974 473.497 313.053C474.128 313.211 474.591 313.479 474.887 314.374C473.095 316.554 470.947 315.897 469.072 314.608C466.915 313.125 466.392 310.945 467.924 308.66C469.317 306.584 471.428 305.051 472.645 302.49Z" fill="#444444"/>
<path d="M471.451 323.077C471.148 321.692 471.896 321.165 472.781 321.527C476.652 323.108 479.694 321.672 482.55 319.177C482.849 318.915 483.404 318.946 483.961 318.812C485.136 321.311 483.137 322.137 481.837 322.999C478.538 325.187 475.067 325.776 471.451 323.077Z" fill="#444444"/>
<path d="M486.473 295.329C488.508 294.418 489.686 295.009 489.832 297.005C489.93 298.35 489.058 299.462 487.731 299.226C485.559 298.839 485.379 297.295 486.473 295.329Z" fill="#444444"/>
<path d="M465.589 296.102C465.779 297.882 465.151 298.925 463.577 299.098C462.436 299.224 461.872 298.372 461.596 297.411C461.302 296.386 461.683 295.515 462.587 294.967C463.85 294.201 464.843 294.526 465.589 296.102Z" fill="#444444"/>
</svg>
