<svg width="373" height="110" viewBox="0 0 373 110" fill="none" xmlns="http://www.w3.org/2000/svg">
<path d="M395.32 186C400.114 186 404.025 182.111 403.764 177.324C402.595 155.861 397.094 134.712 387.482 114.821C376.577 92.2543 360.592 71.7498 340.442 54.4781C320.292 37.2064 296.37 23.5058 270.042 14.1584C243.715 4.81103 215.497 -1.06769e-06 187 0C158.503 1.06769e-06 130.285 4.81103 103.958 14.1584C77.63 23.5058 53.7081 37.2064 33.5578 54.4781C13.4075 71.7498 -2.5766 92.2543 -13.4819 114.821C-23.0941 134.712 -28.5946 155.861 -29.7638 177.324C-30.0246 182.111 -26.1138 186 -21.32 186C-16.5262 186 -12.6667 182.11 -12.3833 177.325C-11.2281 157.817 -6.1831 138.601 2.55669 120.515C12.5895 99.754 27.2949 80.8899 45.8332 64.9999C64.3715 49.1099 86.3796 36.5053 110.601 27.9057C134.823 19.3061 160.783 14.88 187 14.88C213.217 14.88 239.177 19.3061 263.399 27.9057C287.62 36.5053 309.629 49.1099 328.167 64.9999C346.705 80.8898 361.41 99.754 371.443 120.515C380.183 138.601 385.228 157.817 386.383 177.325C386.667 182.11 390.526 186 395.32 186Z" fill="url(#paint0_linear_1461_17518)"/>
<defs>
<linearGradient id="paint0_linear_1461_17518" x1="-7.55173" y1="14.431" x2="353.759" y2="142.707" gradientUnits="userSpaceOnUse">
<stop stop-color="#3F6F5A" style="stop-color:#3F6F5A;stop-color:color(display-p3 0.2471 0.4353 0.3529);stop-opacity:1;"/>
<stop offset="1" stop-color="#79D5AD" style="stop-color:#79D5AD;stop-color:color(display-p3 0.4741 0.8353 0.6773);stop-opacity:1;"/>
</linearGradient>
</defs>
</svg>
