<?xml version="1.0" encoding="UTF-8"?>
<svg id="Layer_1" data-name="Layer 1" xmlns="http://www.w3.org/2000/svg" viewBox="0 0 512 512">
  <defs>
    <style>
      .cls-1 {
        fill: #0c1112;
      }

      .cls-1, .cls-2 {
        stroke-width: 0px;
      }

      .cls-2 {
        fill: #fff;
      }
    </style>
  </defs>
  <circle class="cls-1" cx="256" cy="256" r="243.54"/>
  <path class="cls-2" d="m175.02,212.83v7.04c1.7.25,3.36.72,5.02.72,19.54.02,39.07-.01,58.61-.05,4.53,0,10.32-.65,10.36,5.55.04,6.49-5.88,6.24-10.73,6.25-18.28.05-36.57.11-54.85.16-2.67,0-5.34,0-8.75,0,0,8.86-.12,16.82.02,24.77.31,17.78.97,35.56,1.02,53.33.01,5.85,1.75,7.69,7.73,7.61,28.3-.39,56.61-.33,84.91-.41,2.25,0,4.84-.59,6.67.32,2.1,1.04,4.82,3.4,4.88,5.27.06,1.93-2.38,4.65-4.41,5.72-2.01,1.06-4.89.59-7.38.6-26.8.14-53.6.25-80.4.37-2.7.01-5.4,0-8.98,0,4.99,18.64,14.98,32.53,30.13,42.53,32.17,21.24,68.43,18.82,99.69-1,17.06-10.82,23.89-28.39,26.63-47.62,1.12-7.89,1.64-15.93,1.72-23.91.47-50.59.74-101.19,1.09-151.79.01-2-.49-4.34.36-5.92,1.02-1.9,3.37-4.51,4.91-4.36,2.08.2,4.55,2.38,5.69,4.38,1,1.73.49,4.39.48,6.63-.2,51.35-.33,102.7-.69,154.04-.14,19.97-2.88,39.45-13.43,57.01-13.76,22.9-35.8,32.46-60.67,37.28-39.5,7.66-79.5-9.94-99.13-43.77-7.54-13-11.44-27.28-11.62-42.26-.66-56.1-1.01-112.21-1.45-168.31,0-.96.2-1.92.37-3.35,2.08-.18,4-.47,5.92-.49,30.56-.31,61.11-.6,91.67-.85,2.22-.02,4.96-.35,6.54.77,1.89,1.33,3.8,4.05,3.82,6.18.01,1.56-2.8,3.62-4.77,4.55-1.66.77-3.93.25-5.94.26-25.55.1-51.1.19-76.65.27-2.7,0-5.4,0-8.56,0v50.06c2.93.15,5.58.4,8.23.39,18.28-.02,36.57-.11,54.85-.12,4.66,0,11.02-1.07,11.05,5.6.03,6.93-6.44,6.3-11.44,6.32-18.03.09-36.07.15-54.1.21-2.69,0-5.38,0-8.4,0Z"/>
  <path class="cls-2" d="m137.36,113.92c2.79,0,5.23,0,7.68,0,39.08,0,78.15,0,117.23,0,2,0,4.45-.6,5.9.33,2.02,1.3,4.54,3.78,4.54,5.74,0,1.93-2.57,4.46-4.64,5.58-1.76.96-4.4.33-6.66.33-34.32,0-68.63,0-102.95,0-2.73,0-5.47,0-8.56,0-.33,1.72-.85,3.11-.83,4.51.67,61.11,1.25,122.23,2.14,183.34.44,30.21,11.05,56.1,36.15,74,28.63,20.42,60.56,28.39,95.28,19.77,13-3.23,26.25-7.09,38.05-13.23,28.48-14.84,39.26-41.43,40.72-71.53,1.76-36,1.26-72.11,1.82-108.17.07-4.78-1.4-11.54,5.87-11.6,7.18-.06,6.1,6.53,6.04,11.44-.45,35.06-.4,70.15-1.62,105.19-1,28.61-9.18,54.85-31.62,74.54-17.11,15.01-37.98,21.89-59.91,25.8-40.85,7.28-77.65-1.82-109.3-28.9-22.23-19.03-32.54-44.52-33.21-73.05-1.57-66.86-1.88-133.74-2.69-200.61,0-.73.23-1.46.58-3.47Z"/>
</svg>